<?xml version="1.0" encoding="utf-8"?>
<!-- Generator: Adobe Illustrator 19.0.0, SVG Export Plug-In . SVG Version: 6.00 Build 0)  -->
<svg version="1.1" id="Calque_1" xmlns="http://www.w3.org/2000/svg" xmlns:xlink="http://www.w3.org/1999/xlink" x="0px" y="0px"
	 viewBox="0 0 960 560" style="enable-background:new 0 0 960 560;" xml:space="preserve">
<style type="text/css">
	.st0{fill:#ECD2FC;}
	.st1{fill:#F9D2F1;}
	.st2{fill:#D4E9FC;}
	.st3{fill:#D3D3D3;}
	.st4{enable-background:new    ;}
	.st5{clip-path:url(#XMLID_19_);}
	.st6{fill:#E6E6E6;}
	.st7{clip-path:url(#XMLID_66_);fill:#459DCC;}
	.st8{clip-path:url(#XMLID_66_);}
	.st9{fill:#2F86C3;}
	.st10{clip-path:url(#XMLID_72_);fill:#562F5E;}
	.st11{clip-path:url(#XMLID_72_);}
	.st12{fill:#3E2344;}
	.st13{fill:#600F46;}
	.st14{fill:#FFB600;}
	.st15{fill:#CB224F;}
	.st16{fill:#FFFFFF;}
	.st17{clip-path:url(#XMLID_73_);fill:#A57467;}
	.st18{clip-path:url(#XMLID_73_);fill:#8E625A;}
	.st19{fill:#202123;}
	.st20{fill:#333333;}
	.st21{clip-path:url(#XMLID_74_);fill:#326175;}
	.st22{clip-path:url(#XMLID_74_);fill:#213942;}
	.st23{fill:#808080;}
	.st24{fill:#999999;}
	.st25{clip-path:url(#XMLID_75_);fill:#A57467;}
	.st26{clip-path:url(#XMLID_75_);fill:#8E625A;}
	.st27{fill:#A57467;}
	.st28{fill:#D95154;}
	.st29{fill:#4979AC;}
	.st30{fill:#5591D5;}
</style>
<path id="XMLID_166_" class="st0" d="M821.8,133.8c0-1.7-0.1-3.3-0.1-5l19.9-11l-6.7-23.1l-21.5,1.1c-3.3-7-7.4-13.5-12.3-19.3
	l9.6-25.6l-20.1-13.1l-17.2,16.4c-7.3-3.8-15.2-7-23.5-8.7L744.3,21h-24.1l-5.7,24.4c-7.6,1.5-14.8,4.2-21.5,7.4L675.8,36
	l-20.2,13.1l9,25.6c-3.8,4.3-7.1,9-10,14L631,85.3l-8.6,22.5l20.7,14.1c-0.5,3.9-0.8,7.9-0.8,11.9c0,6.8,0.8,13.5,2.3,19.9
	l-17.7,14.4l10.7,21.5l20.7-4.8c6.3,9.1,14.3,17,23.5,23.2l-3.8,23.8l22.3,8.9l13.5-19.2c5.9,1.2,12,1.8,18.2,1.8
	c6.8,0,13.5-0.8,19.9-2.2l16.1,19l21.3-11.2l-5.6-22c7.1-5.1,13.5-11.1,18.9-18l20.3,7.3l12.9-20.3L818.4,158
	C820.6,150.3,821.8,142.2,821.8,133.8z M732.8,168c-20.6,0-37.2-16.7-37.2-37.2s16.7-37.2,37.2-37.2c20.6,0,37.2,16.7,37.2,37.2
	S753.4,168,732.8,168z"/>
<path id="XMLID_116_" class="st1" d="M550.3,129c0.6-0.7,1.2-1.4,1.8-2.1l12.5,2.9l5.9-12.2l-9.4-7.7c1.3-4.2,2-8.5,2.2-12.8L577,90
	l-3.5-13.1l-13.4,0.3c-1.6-4.4-3.7-8.7-6.6-12.5l7-12.2l-10.1-9.1l-11.6,8c-3.7-2.2-7.8-3.9-11.8-5l-0.8-13.6l-13.4-2.2l-5.9,14.1
	c-3.2,0.4-6.4,1.1-9.5,2l-8.6-10.3l-12.1,6.2l3.3,13.8c-1.7,1.4-3.3,3-4.9,4.7c-2.6,2.9-4.8,6-6.6,9.2l-12.9-0.7L452,82.6l10.5,5.8
	c-0.8,6.2-0.5,12.5,1,18.6l-10.6,8.5l6,12.2l12.9-2.9c2,2.7,4.3,5.3,6.9,7.7c2.9,2.6,6,4.8,9.2,6.6l-0.4,14.1l13.2,3.4l6-11.3
	c4.9,0.6,9.9,0.5,14.7-0.4l5.7,10.8l13.1-3.6l-0.5-14.2C543.5,135.4,547.1,132.5,550.3,129z M500,109.6c-8.6-7.8-9.3-21.1-1.5-29.7
	c7.8-8.6,21.1-9.3,29.7-1.5c8.6,7.8,9.3,21.1,1.5,29.7C521.9,116.7,508.6,117.4,500,109.6z"/>
<path id="XMLID_20_" class="st2" d="M277.9,290.3c0-2-0.1-4-0.2-6l24.1-13.3l-8.2-28l-26,1.3c-4-8.5-9-16.3-14.9-23.4l11.6-31
	L239.9,174L219,193.8c-8.8-4.6-18.4-8.4-28.4-10.4l-6.5-29.4H155l-6.9,29.4c-9.2,1.8-17.9,5-26.1,9L101.2,172l-24.5,15.9l10.9,31
	C83,224,79,229.7,75.5,235.7L47,231.6l-10.4,27.2l25.1,17.1c-0.6,4.7-1,9.5-1,14.4c0,8.3,1,16.3,2.7,24.1L42,331.9l13,26.1l25.1-5.8
	c7.7,11,17.3,20.6,28.4,28.1l-4.6,28.9l27.1,10.8l16.4-23.2c7.1,1.5,14.5,2.2,22,2.2c8.3,0,16.3-1,24.1-2.7l19.5,23l25.8-13.5
	l-6.8-26.6c8.6-6.1,16.3-13.5,22.9-21.8l24.6,8.9l15.7-24.5l-21.2-21.9C276.4,310.3,277.9,300.5,277.9,290.3z M170.1,331.7
	c-24.9,0-45.1-20.2-45.1-45.1c0-24.9,20.2-45.1,45.1-45.1s45.1,20.2,45.1,45.1C215.2,311.6,195,331.7,170.1,331.7z"/>
<ellipse id="XMLID_164_" class="st3" cx="148" cy="525.8" rx="84" ry="8.3"/>
<ellipse id="XMLID_18_" class="st3" cx="816" cy="527.8" rx="84" ry="8.3"/>
<g id="XMLID_17_">
	<g id="XMLID_29_" class="st4">
		<defs>
			<polygon id="XMLID_156_" class="st4" points="274.8,529.2 115.8,431.8 556.8,430.8 715.8,528.2 			"/>
		</defs>
		<clipPath id="XMLID_19_">
			<use xlink:href="#XMLID_156_"  style="overflow:visible;"/>
		</clipPath>
		<g id="XMLID_44_" class="st5">
			<path id="XMLID_136_" class="st6" d="M403.8,522.4l-4.6-4.7l87.2-0.2l4.5,4.3L403.8,522.4 M325.5,431.3
				c-83.2,0.2-165.3,0.9-200.6,2.7c-2.9,0.1-4,0.8-2.7,1.6c15.5,9.6,108.8,67.5,138.8,80.6l107.5,0.3l10.3,8.5
				c1.9,1.5,8.5,2.8,14.5,2.9c23.2,0.2,78.1,0.8,118.6,0.8c4.7,0,9.6,0,14.6,0c39.1-0.1,84.5-0.4,103-0.5c4.8,0,7.2-0.9,5.2-2.2
				c-2.1-1.3-7.5-2.1-12.3-2.1l-0.1,0l-98.2,0.4l-8-7.5l160.4-0.6c6.5,0,9.6-1.4,7.2-3c-18-12.5-88.3-61-124.5-79.6
				c-1.9-1-6.3-1.7-10.2-1.8C522.7,431.5,423.4,431.1,325.5,431.3"/>
		</g>
	</g>
</g>
<g id="XMLID_4_">
	<defs>
		<path id="XMLID_14_" d="M721.2,126.9c-0.3-4.2-3.7-7.4-7.9-7.5c-52.5-1.5-374.2-10.2-464.4,5.6c-3.4,0.6-5.8,3.5-5.8,6.9
			c-0.3,40.7-1.4,285.1,7.9,340.7l116.1,2.3l-3.8,35.7c-0.7,6.4,4.2,12.1,10.6,12.4c24.8,1.2,83.4,4,127.4,4.3
			c45.4,0.3,105.7-0.8,128.7-1.2c5.2-0.1,9.4-3.8,9.4-9c0-5.3-4.3-9-9.6-9h-0.1l-107.3,0.7L527,477l175.2-1.2
			c7,0,12.8-5.6,13.2-12.7C718,410.4,727.5,205.7,721.2,126.9z M490.6,498l-95.5,1.7l3.3-19.7h95L490.6,498z"/>
	</defs>
	<clipPath id="XMLID_66_">
		<use xlink:href="#XMLID_14_"  style="overflow:visible;"/>
	</clipPath>
	<rect id="XMLID_10_" x="207.9" y="85.6" class="st7" width="544.9" height="484.1"/>
	<g id="XMLID_3_" class="st8">
		<path id="XMLID_30_" class="st9" d="M447.5,510.3l-66.6-1.9c-5.9-0.2-10.4-5.2-10-11.1l0.4-6.1c0.3-3.7,3.5-6.6,7.2-6.3l23.4,1.3
			l1.4-5.7l-36.3-5.5L266.5,479c-12.5-26.6-6-372.3-6-372.3l-38.3-3l-8.1,87.4L229,485.8l100.1,5.2l13.3,44.2l106.6-4.1L447.5,510.3
			z M250.7,246.8c0,0.7-0.2,1.1-0.8,0.8l-2.8-1.3c-0.3-0.2-0.8-0.5-0.8-0.8v-11.8c0-0.7,1.4-1.2,2-0.7l2.3,1.9
			c0.2,0.2,0.1,0.4,0.1,0.7V246.8z M250.7,218.3c0,0.7-0.2,1.1-0.8,0.8l-2.8-1.3c-0.3-0.2-0.8-0.5-0.8-0.8v-11.8
			c0-0.7,1.4-1.2,2-0.7l2.3,1.9c0.2,0.2,0.1,0.4,0.1,0.7V218.3z M250.7,189.8c0,0.7-0.2,1.1-0.8,0.8l-2.8-1.3
			c-0.3-0.2-0.8-0.5-0.8-0.8v-11.8c0-0.7,1.4-1.2,2-0.7l2.3,1.9c0.2,0.2,0.1,0.4,0.1,0.7V189.8z M250.7,163.4c0,0.7-0.2,1.1-0.8,0.8
			l-2.8-1.3c-0.3-0.2-0.8-0.5-0.8-0.8v-11.8c0-0.7,1.4-1.2,2-0.7l2.3,1.9c0.2,0.2,0.1,0.4,0.1,0.7V163.4z"/>
		<path id="XMLID_5_" class="st9" d="M487.9,479h41.8v5.4h-24.9c-2.3,0-4.2,1.6-4.8,3.8l-0.4,1.8c-1,4-4.3,6.9-8.4,7.4l-0.6,0.1
			l-4.9-4.6L487.9,479z"/>
		<path id="XMLID_6_" class="st9" d="M270.8,137.2l3-3c0,0,311.6-13.3,430.4-1.5c2.2,0.2,4,2,4.1,4.3c2.4,37.7,2.5,300.1-5.5,324.7
			c-15.7-37.2-42.1-123.2-42.1-123.2L278.1,142.6L270.8,137.2z"/>
	</g>
</g>
<g id="XMLID_152_">
	<defs>
		<path id="XMLID_7_" d="M270.8,137.2c0,0,255.6-14.1,435.8,0c0,0,4.9,172-3.8,324.5l-427.6,5.4
			C275.2,467.1,266.5,278.8,270.8,137.2z"/>
	</defs>
	<clipPath id="XMLID_72_">
		<use xlink:href="#XMLID_7_"  style="overflow:visible;"/>
	</clipPath>
	<rect id="XMLID_151_" x="198.8" y="116.7" class="st10" width="551.1" height="364"/>
	<g id="XMLID_150_" class="st11">
		<path id="XMLID_101_" class="st12" d="M491.9,152.2c0,0-8-8.3-10.5-8.7c-2.5-0.4-34.4,43.1-68.4,117.2s-42.9,95-45.2,100.8
			c-2.4,5.8-2.4,7.2,8.7,8.7s226.5,0.2,257.1-23.9c-11.8-26.4-106-147.6-106-147.6L491.9,152.2z"/>
		<path id="XMLID_131_" class="st12" d="M408.3,126.7l7.4-0.9c0,0,13.4,40.7,14.1,46.3c0.7,5.6-2.2,5.2-14.5,4.2
			s-56.8-16.6-56.8-16.6L408.3,126.7z"/>
		<path id="XMLID_132_" class="st12" d="M718.4,297.1c0,0-73.8-38.2-98.8-66c-2.7-2.5-5.4-4,4.9-11.8s77.6-58.4,104-68.9
			c26.4-10.5,27.3-10.9,27.3-10.9l-0.7,75.3l-14.3,76.3L718.4,297.1z"/>
		<path id="XMLID_100_" class="st12" d="M338.1,343.7c0,0,4.2-8.5,4-11.9c-2.7-5.2-65.5-60.1-85.6-66.4c-5.1,18.6-9.9,87.2-9.9,87.2
			l-4.3,12.1l68.9-22.4L338.1,343.7z"/>
	</g>
</g>
<g id="XMLID_36_">
	<g id="XMLID_33_">
		<g id="XMLID_385_">
			<g id="XMLID_406_">
				<path id="XMLID_407_" class="st13" d="M423.1,398.7h-16.9c-1.7,0-3,1.3-3.1,3l-2.4,38.9c-0.1,1.4,1,2.6,2.4,2.6H426
					c1.5,0,2.8-1.2,2.8-2.8v-9.7l-14.9,1.1l-0.4-3.9l12.2-1.2l0.7-10l-11.7,0.9v-7.5l9.9-0.7l1.1-7.8
					C425.8,400.1,424.6,398.7,423.1,398.7z"/>
			</g>
			<g id="XMLID_401_">
				<g id="XMLID_402_">
					<path id="XMLID_403_" class="st13" d="M468.5,440.6l-11.5-12.3c0,0,8-2.6,8-13.8s-7.2-13.6-11.9-13.6h-18c-1.7,0-4.2,0.3-4.2,2
						v38.4c0,1.6,2.4,4.1,4.1,4.1h5.8c1.8,0,2.1-2.5,2.1-4.3v-11.5l15.2,14.7l9.1-0.8C468.6,443.4,469.5,441.7,468.5,440.6z
						 M445,421v-10.9c6.5-0.3,7.8,1,7.8,5.4C452.8,420,445,421,445,421z"/>
				</g>
			</g>
			<g id="XMLID_396_">
				<g id="XMLID_397_">
					<path id="XMLID_398_" class="st13" d="M510.1,440.6l-11.5-12.3c0,0,8-2.6,8-13.8s-7.2-13.6-11.9-13.6h-18c-1.7,0-4.5,0.3-4.5,2
						v38.4c0,1.6,2.7,4.1,4.4,4.1h5.8c1.8,0,1.8-2.5,1.8-4.3v-11.5l15.3,14.7l9.2-0.8C510.1,443.4,511.1,441.7,510.1,440.6z
						 M486.3,421v-10.9c6.5-0.3,7.8,1,7.8,5.4C494.1,420,486.3,421,486.3,421z"/>
				</g>
			</g>
			<g id="XMLID_391_">
				<g id="XMLID_392_">
					<path id="XMLID_393_" class="st13" d="M593.9,439.8l-11.5-12.3c0,0,8-2.2,8-13.4s-7.2-13.1-11.9-13.1h-18
						c-1.7,0-4.8-0.5-4.8,1.2v38.4c0,1.6,3,4.9,4.6,4.9h5.8c1.8,0,1.5-3.4,1.5-5.1v-11.5l15.5,14.7l9.3-0.8
						C593.8,442.6,594.9,440.9,593.9,439.8z M569.8,420.1v-10.9c6.5-0.3,7.8,1,7.8,5.4C577.6,419.1,569.8,420.1,569.8,420.1z"/>
				</g>
			</g>
			<g id="XMLID_386_">
				<g id="XMLID_387_">
					<path id="XMLID_388_" class="st13" d="M529.8,397.8c-3.5,0-16.4,3.8-16.4,23.2c0,19.4,10.7,23.5,20.8,23.5
						c10.1,0,18.2-11.1,18.3-24.3C552.6,406.9,543.2,397.8,529.8,397.8z M532.9,430.2c-5,0-9-2.8-9-9.1c0-6.2,4.2-11,8.1-11
						c5.7,0,7.7,5.7,7.7,10.1C539.9,424.5,538,430.2,532.9,430.2z"/>
				</g>
			</g>
		</g>
	</g>
	<g id="XMLID_8_">
		<path id="XMLID_9_" class="st14" d="M424.1,396.6h-16.9c-1.7,0-3,1.3-3.1,3l-2.4,38.9c-0.1,1.4,1,2.6,2.4,2.6H427
			c1.5,0,2.8-1.2,2.8-2.8v-9.7l-14.9,1.1l-0.4-3.9l12.2-1.2l0.7-10l-11.7,0.9V408l9.9-0.7l1.1-7.8
			C426.9,397.9,425.7,396.6,424.1,396.6z"/>
		<path id="XMLID_39_" class="st14" d="M469.6,438.5l-11.5-12.3c0,0,8-2.6,8-13.8s-7.2-13.6-11.9-13.6h-18c-1.7,0-4.2,0.3-4.2,2
			v38.4c0,1.6,2.4,4.1,4.1,4.1h5.8c1.8,0,2.1-2.5,2.1-4.3v-11.5l15.2,14.7l9.1-0.8C469.7,441.2,470.6,439.5,469.6,438.5z
			 M446.1,418.8v-10.9c6.5-0.3,7.8,1,7.8,5.4C453.9,417.8,446.1,418.8,446.1,418.8z"/>
		<path id="XMLID_11_" class="st14" d="M511.2,438.5l-11.5-12.3c0,0,8-2.6,8-13.8s-7.2-13.6-11.9-13.6h-18c-1.7,0-4.5,0.3-4.5,2
			v38.4c0,1.6,2.7,4.1,4.4,4.1h5.8c1.8,0,1.8-2.5,1.8-4.3v-11.5l15.3,14.7l9.2-0.8C511.1,441.2,512.2,439.5,511.2,438.5z
			 M487.3,418.8v-10.9c6.5-0.3,7.8,1,7.8,5.4C495.2,417.8,487.3,418.8,487.3,418.8z"/>
		<path id="XMLID_26_" class="st14" d="M595,437.6l-11.5-12.3c0,0,8-2.2,8-13.4s-9-13.5-11.9-13.5s-17.8,0.3-17.8,0.3s-5-0.5-5,1.3
			v38.4c0,1.6,3,4.9,4.6,4.9h5.8c1.8,0,1.5-3.4,1.5-5.1v-11.5l15.5,14.7l9.3-0.8C594.9,440.4,596,438.7,595,437.6z M570.9,418v-10.9
			c6.5-0.3,7.8,1,7.8,5.4C578.7,416.9,570.9,418,570.9,418z"/>
		<path id="XMLID_48_" class="st14" d="M530.9,395.6c-3.5,0-16.4,3.8-16.4,23.2c0,19.4,10.7,23.5,20.8,23.5
			c10.1,0,18.2-11.1,18.3-24.3C553.7,404.8,544.3,395.6,530.9,395.6z M534,428c-5,0-9-2.8-9-9.1c0-6.2,4.2-11,8.1-11
			c5.7,0,7.7,5.7,7.7,10.1C540.9,422.3,539,428,534,428z"/>
	</g>
</g>
<g id="XMLID_1_">
	<g id="XMLID_52_">
		<path id="XMLID_41_" class="st15" d="M486.9,142.9c-14.5,22.7-85.4,135.7-112.7,214.5c-1,2.9,0.9,6,4,6.3
			C405,367,520.9,378,637.5,343.6c3.2-0.9,4.6-4.5,3-7.4c-15.9-27.4-88.5-149.1-147-194.5C491.3,140.1,488.3,140.6,486.9,142.9z"/>
		<path id="XMLID_40_" class="st16" d="M490.3,167.2c-15.1,24.8-67.9,112.5-92.9,172c-1.5,3.5,0.7,7.5,4.5,8.1
			c64.3,10.1,165.1-1.9,211.4-13.4c3.8-1,5.6-5.4,3.6-8.7c-15.9-26.2-75.3-121.9-116.3-159.5C497.4,162.9,492.5,163.6,490.3,167.2z"
			/>
		<path id="XMLID_42_" class="st15" d="M510.6,202.2l-25.5,2.1c-2.6,0.2-4.5,2.5-4.3,5.1l8.2,80.2c0.2,2,2,3.5,4.1,3.3l20.6-2
			c2.9-0.3,5.1-2.6,5.1-5.5c0.4-14.2,1.2-55.2-1.8-78C516.6,204.2,513.8,201.9,510.6,202.2z"/>
		<path id="XMLID_43_" class="st15" d="M515.4,305.6l-20.5,2c-2.8,0.3-4.9,2.8-4.6,5.6L492,330c0.3,2.9,2.9,4.9,5.7,4.6l18.8-2.3
			c2.6-0.3,4.5-2.5,4.5-5.1v-16.6C521,307.7,518.4,305.3,515.4,305.6z"/>
	</g>
	<g id="XMLID_60_">
		<path id="XMLID_142_" class="st15" d="M765.5,154.1c-15.8,5.6-93.8,33.9-137.4,62.1c-1.6,1-1.8,3.3-0.5,4.6
			c11.9,11.9,64.6,61.7,135,89.4c1.9,0.7,4-0.5,4.3-2.5c2.7-19.5,13.6-107,2.2-151.7C768.7,154.5,767,153.6,765.5,154.1z"/>
		<path id="XMLID_133_" class="st16" d="M757.8,167.4c-16.9,6.4-76.3,29.2-111.4,48.9c-2.1,1.2-2.5,4-0.9,5.7
			c27.7,29.5,81.7,62.2,108.8,74.3c2.2,1,4.8-0.5,5.1-2.9c2.2-18.9,9.7-88.6,4-122.7C763,168,760.3,166.4,757.8,167.4z"/>
		<path id="XMLID_129_" class="st15" d="M754.4,192.3l-13.3-8.8c-1.4-0.9-3.2-0.5-4.1,0.9l-26.7,42.5c-0.7,1.1-0.4,2.5,0.7,3.2
			L722,237c1.5,1,3.5,0.6,4.6-0.7c5.6-6.8,21.7-26.6,29-39C756.6,195.6,756.1,193.4,754.4,192.3z"/>
		<path id="XMLID_65_" class="st15" d="M717.2,244.9l-10.9-6.9c-1.5-0.9-3.5-0.5-4.4,1l-5.6,8.9c-0.9,1.5-0.5,3.5,1.1,4.4l10.1,6.1
			c1.4,0.8,3.2,0.5,4.2-0.8l6.3-8.1C719.2,248,718.8,245.9,717.2,244.9z"/>
	</g>
	<g id="XMLID_53_">
		<path id="XMLID_119_" class="st15" d="M400.5,107.2c-5.2,5.1-30.7,30.7-42.6,49.9c-0.4,0.7-0.1,1.6,0.7,1.9
			c6.9,2.5,36.9,12.3,69.7,10.2c0.9-0.1,1.5-0.9,1.2-1.8c-2.6-8.2-14.5-44.7-27.2-60.2C401.9,106.7,401,106.7,400.5,107.2z"/>
		<path id="XMLID_105_" class="st16" d="M400,113.8c-5.5,5.6-24.6,25.7-34.8,39.9c-0.6,0.8-0.3,2,0.7,2.4
			c16.4,6.5,43.7,9.4,56.6,9.1c1.1,0,1.8-1.1,1.5-2.1c-2.6-7.9-12.6-36.7-21.2-49.1C402.1,113.1,400.8,113,400,113.8z"/>
		<path id="XMLID_84_" class="st15" d="M403.2,124.3l-6.9-1c-0.7-0.1-1.3,0.4-1.4,1.1l-2.6,21.7c-0.1,0.6,0.3,1.1,0.9,1.1l5.6,0.7
			c0.8,0.1,1.5-0.4,1.7-1.2c1-3.7,3.6-14.5,4.2-20.7C404.7,125.2,404.1,124.4,403.2,124.3z"/>
		<path id="XMLID_56_" class="st15" d="M398.3,151.9l-5.5-0.7c-0.8-0.1-1.5,0.4-1.6,1.2l-0.5,4.5c-0.1,0.8,0.5,1.5,1.2,1.5l5.1,0.5
			c0.7,0.1,1.3-0.4,1.5-1.1l1-4.4C399.7,152.8,399.1,152,398.3,151.9z"/>
	</g>
	<g id="XMLID_54_">
		<path id="XMLID_98_" class="st15" d="M261.7,272.5c-4.4,10.8-25.6,64.6-31,100.3c-0.2,1.3,0.9,2.5,2.2,2.4
			c11.7-0.7,61.9-5.2,108.9-29.1c1.3-0.6,1.6-2.3,0.7-3.4c-9-10.4-49.5-56.5-78-71.2C263.4,270.9,262.2,271.4,261.7,272.5z"/>
		<path id="XMLID_97_" class="st16" d="M265.1,282.6c-4.5,11.7-20,53.3-25.9,80.6c-0.4,1.6,0.9,3.1,2.6,3.1
			c28.2-0.8,70.1-13.9,88.9-22.5c1.6-0.7,2-2.7,0.8-4c-8.8-9.9-41.7-45.9-62.2-58.7C267.8,280.2,265.8,280.9,265.1,282.6z"/>
		<path id="XMLID_62_" class="st15" d="M276.5,295.8l-10.7,2.9c-1.1,0.3-1.7,1.4-1.4,2.5l9.8,33.5c0.3,0.9,1.1,1.3,2,1.1l8.6-2.5
			c1.2-0.3,1.9-1.5,1.8-2.8c-1-6.1-3.9-23.6-7-33.1C279.2,296.2,277.9,295.5,276.5,295.8z"/>
		<path id="XMLID_55_" class="st15" d="M286.8,339.5l-8.6,2.5c-1.2,0.3-1.9,1.6-1.5,2.8l2.1,7c0.4,1.2,1.6,1.9,2.8,1.5l7.8-2.5
			c1.1-0.3,1.7-1.4,1.5-2.5l-1.3-7.1C289.3,339.9,288,339.1,286.8,339.5z"/>
	</g>
</g>
<g id="man_fix">
	<g id="skin">
		<defs>
			<path id="XMLID_34_" d="M191.6,289.7c0,0,9.9-1.5,12.9,8.3c2.9,9.7,2.5,10.6,1.2,12.9c-1.2,2.3-2.3,4-5.6,3.9
				c-1.3,4.8-1,9.9-0.9,11.1c0.1,1.2,4.6,2.2,6.2,2.3c1.6,0.1,5.3,0.1,4.5,6.6c-0.7,6.5-3.4,24-3.4,24s15.4,21.2,19,24.1
				c3.6,2.9,9.3,5.8,9.3,5.8s3.7-3.1,6.1-2.5c2.5,0.6,6.2,1.7,3.3,6.7c-1.1,1.7-6.7,3.4-8.9,4c-2.2,0.6-4.4-0.2-7-2.1
				c-2.6-1.8-23.4-16.7-24.6-17.6c-1.2-1-3.3-2.1-3.3-2.1s-8.5,12.1-11.1,28.8c0,0-2.5,15.4-4.7,29.4s-4.4,21.6-4.4,21.6
				s0.4,4.8,0,7.9c-0.4,3.1-4.5,50.4-3.9,52.6c0.6,2.2,1.1,3.7,5,5.1c3.9,1.5,7.9,2,9.6,2.9c1.7,0.9,4.4,2.8-1.7,2.8
				c-6.1,0-18.7,1.1-18.9,0c-0.2-1.1,0-11.6,0-18.9c0-7.4,1.3-27.4-0.1-34.4s0.4-14.9,1.4-16.9c-1.7-5.3-0.6-22.1-0.4-27.2
				c0.2-5.1,0.1-3.9-1.5-3.9s-6.8,8.5-9.9,17.3c-3.1,8.8-8.1,17.1-8.1,17.1s-1.3,5-2.4,8.6s-14.9,30.5-16.7,37.9s-1.3,19.1-1.3,19.1
				s0.4,1.2-1.7,1.8c-2,0.6-8.5,1.2-8.6,0c-0.2-1.2,2.6-5.5,3.9-9.5c1.3-4,5.3-21.7,6.6-29.4c1.3-7.7,6.4-25.7,7-27.7
				c0.6-2,2.8-7.4,3.5-9.9s7.5-21.7,8.8-25.7c1.3-4,11.9-24.6,11.9-29.4s3.3-18.7,4-24.6s2.2-15.6,1.3-18c-0.9-2.4,2.4-1.7-0.9-2.4
				c-3.3-0.7-6.2-1.1-8.3,1.7c-2,2.8-12.3,11.6-14,16.9c0.2,5.9-2.2,20.6-0.2,23.2c2.4-0.6,6.1-0.6,6.1-0.6s-4,2-4.4,5.5
				c-0.4,3.5,1.3,8.5,2.2,10.8c0.9,2.4-0.2,4.4-2.6,2.9s-6.1-5.5-6.6-7.9c-0.6-2.4-1.3-10.5-1.5-11.8s-2.6-15.6-2.6-20.6
				c0-5-2-11.8,4.8-18.7c6.8-7,25.7-23.9,29.2-25.9c3.5-2,11.4-1.3,13.9-1.3s3.1,1.1,4-1.5s1.7-11.3,1.5-12.2
				c-0.2-0.9-2.3-4.1-3.4-5.1s-4.1-6-0.6-11.1C186.3,292,189.4,289.8,191.6,289.7z"/>
		</defs>
		<clipPath id="XMLID_73_">
			<use xlink:href="#XMLID_34_"  style="overflow:visible;"/>
		</clipPath>
		<rect id="XMLID_64_" x="114" y="285.7" class="st17" width="138.9" height="267.6"/>
		<path id="XMLID_63_" class="st18" d="M186.1,308.6c0,0,9.7,5.8,11.5,6c-0.3,3.3-1.2,4.9-1.7,6.9s-0.5,5.1,1.7,6.8
			c2.2,1.7-22.8,8.5-27.4,9.7c-4.6,1.3-22.3,12.7-25.8,18.7s-6.8,9.4-5.8,11.9c1,2.5,2.8,0.6,3,4.9c0.3,4.2,0,17.8,0.7,21.4
			s-0.5,7.1,2.1,9.9c2.6,2.8,4.7,6.2,3.7,8.1c-1,1.8-13.4-2.5-14.4-5.5s-4.6-12.6-4.2-18.2c0.4-5.6,2.3-16.9,2.5-20.2
			c0.2-3.3,1.2-24.1,2.1-25.5c0.9-1.4,8.5-10,13.4-12.8c4.9-2.8,20.3-11,20.3-11l9.6-4L186.1,308.6z"/>
	</g>
	<path id="XMLID_68_" class="st19" d="M186.9,311.5c0,0,0.7-1-2.4-4.4c-3.1-3.4-3.2-4.2-3.4-5.2c-0.1-1-0.7-1.8-0.5-3.1
		s-1-3.7-1.1-4.8c-0.1-1-0.5-1.5,0-2.6c0,0-0.4-1.8-0.3-3.5c0.2-1.7,1-2.3,1.1-3.1c0.1-0.7,3-2,3.6-2.4c0.6-0.4-0.1-1,1.1-1.2
		c1.2-0.2,2.9-1,3.3-1.3s2.1-0.9,2.8-0.8s1.9,0,2.2-0.3c0.3-0.3,2.4-0.2,2.4-0.2h1.8h1.3c0.8,0,1.5,0.4,1.9,1.1
		c0.7,1.4,1.9,3.7,2,4.4c0.1,1.1,0.5,2.3,0.6,2.9s1.4,1.7,1.1,3.3s-0.7,4.4-0.7,4.4l0,1c0,0-3.4-0.4-6.7-0.1
		c-3.3,0.4-5.5,1.8-5.6,2.4s1.3,2.9,1.3,2.9l-1.2,1.9l0.5,2.3l-1.3,0.1c0,0-1.1-3.7-2.3-4c-1.2-0.4-2.7,1-2.1,2.5
		c0.6,1.5,2.9,3.3,3.1,5C189.3,310.6,188.4,310.7,186.9,311.5z"/>
	<path id="XMLID_86_" class="st20" d="M162.7,390.5c0,0-3.3,7.4-6.7,15.6s-15.3,43.5-17.6,50.2s-14,51-13.8,52.9
		c0.3,1.7,6.8,3,8.1,1.6c2-6.9,7.5-19.7,11.5-28.4c4-8.7,9.2-22,9.2-22l14.9-32.3c0,0,0.6,8.6,0,16.4c-0.6,7.8-1.2,12.4-0.9,17.1
		c0.3,4.7,0.8,23.2,1.2,27.8c0.4,4.7,0,20.1,0,20.1s6.5,3.6,9.2-1.3c0.2-8.4,5.1-47.1,5.3-54.4c0.2-7.3,5.9-35.6,5.9-39.6
		s1.8-15.8,1.8-17.1c0,0-9.9,0.1-12.8-0.8C175.1,395.5,162.7,390.5,162.7,390.5z"/>
	<g id="XMLID_90_">
		<path id="XMLID_87_" class="st20" d="M124.6,517c0,0,0,0-1.9,3c-1.9,3-3.5,5.2-3.1,6.4s11,1.8,11.9,1.2c0.8-0.6,1-2.9,1-4.6
			s-1.3-5.2-1.3-5.2S127,518,124.6,517z"/>
		<path id="XMLID_88_" class="st20" d="M170,515.6c0,0,3.3,1.7,4.6,1.4c1.3-0.3,1.5-1.4,1.5-1.4s3.6,1.7,5.6,3s7.2,3.5,9,4.1
			c1.8,0.6,6.4,4.3,0,4.3c-6.4,0-17.2,0.2-18.9-0.2c-1.7-0.4-2.8,0.9-2.6-4.5C169.5,517.1,170,515.6,170,515.6z"/>
	</g>
	<g id="XMLID_85_">
		<defs>
			<path id="XMLID_69_" d="M186.2,324.1c0,0,2.1,3.2,6.8,4c4.7,0.7,6.2-1.7,6.2-1.7s8.7,1.7,10,2.6s3,18.2-1.1,29.3
				c7.1,12.1,7.1,12.1,7.1,12.1s-3.7,9.8-8.8,13c-3.3-2.1-4.7-3.7-4.7-3.7s-6.7,14.9-8,19.2c-6.7,0.4-22.7-1-32.6-8.5
				c2.4-9.1,5.4-30.7,6.1-38.2c-8.5,3.3-13.5,5.5-16,7.9c-2.5,2.4-6.5,9.5-6.5,9.5l-9.7-0.6c0,0-1-7.7,1-11.9
				c2-4.2,13.5-18.1,23.2-25.6c9.7-7.5,10.8-6.3,12.6-6.9C173.6,324.1,186.2,324.1,186.2,324.1z"/>
		</defs>
		<clipPath id="XMLID_74_">
			<use xlink:href="#XMLID_69_"  style="overflow:visible;"/>
		</clipPath>
		<rect id="XMLID_70_" x="120.4" y="309.3" class="st21" width="111.5" height="92.4"/>
		<path id="XMLID_67_" class="st22" d="M212.3,353l-4.2,5.3c0,0-3.3,16.9-6.4,21.4c1,5.4,3.1,8.7,3.1,8.7l14.3-6.2l1.3-21.4
			L212.3,353z"/>
	</g>
	<g id="XMLID_91_">
		<path id="XMLID_126_" class="st23" d="M340.6,384.1l-24.5,21.2c-0.7,0.6-1.5,0.9-2.4,1l-16.5,2.2c-1,0.1-1.9-0.1-2.7-0.6
			L263.3,388c0,0-135.9,39.5-151.4,44.4c-15.4,5-22.4-4.7-23.7-12s1.7-14.2,16.4-17.7c14.7-3.5,33.5-8,33.5-8s0.3,2.8,0.8,6.9
			c0.6,4.4,5.7,8.3,6.9,9.1c2.7,0.9,2.5,0,2.6-1.8c0.1-1.8-2.2-5.6-2.5-8c-0.9-8.2,4.7-9.6,4.7-9.6l108.4-21.5l4.4-21.3
			c0-0.2,0.1-0.4,0.2-0.6c0.1-0.4,0.4-0.9,0.7-1.2l11.4-13.2c1-1.2,2.5-1.8,4.1-1.6l43.5,4.2c1.1,0.1,1.9,1.1,1.7,2.2l-1.1,6.5
			c-0.1,0.4-0.2,0.7-0.5,1c-0.2,0.3-0.5,0.5-0.9,0.5l-35.6,9.5l-3.3,7.6c-2.7,6.2-0.8,13.4,4.6,17.5l7.8,6l38.7-12.4
			c0.5-0.2,1-0.2,1.5,0c0.5,0.2,1,0.5,1.3,1l3.6,5.2C341.7,381.8,341.5,383.2,340.6,384.1z"/>
		<path id="XMLID_113_" class="st24" d="M325,338.3l-1.1,6.5c-0.1,0.4-0.2,0.7-0.5,1l-0.8-1.1l0.8-7.7l-45-4.1l-13.1,14.4l-1.7,0.6
			c0.1-0.4,0.4-0.9,0.7-1.2l11.4-13.2c1-1.2,2.5-1.8,4.1-1.6l43.5,4.2C324.4,336.2,325.2,337.2,325,338.3z"/>
		<path id="XMLID_110_" class="st24" d="M336.1,374.6l-0.2,0.9l-40.1,13c0,0-6.7-4.6-11.1-9.6c-4.4-5.1-3.9-10.9-3.2-12.8
			c0.6-1.9,4.4-10.7,4.4-10.7l0.9,0.6l-3.3,7.6c-2.7,6.2-0.8,13.4,4.6,17.5l7.8,6l38.7-12.4C335.1,374.4,335.6,374.4,336.1,374.6z"
			/>
	</g>
</g>
<g id="man_2">
	<g id="XMLID_107_">
		<defs>
			<path id="XMLID_93_" d="M802.7,276.1c0,0,1.1-10.5,10.1-10.3c9,0.2,13,6.5,10.1,15.7c1.8-1.4,4.2,1.6,2.5,4.7
				c-1.6,3.1-4,1.3-4,1.3s-0.5,11.2,0.2,13s1.8,3.6,4.3,4.2c2.5,0.5,5.8,2.5,5.8,2.5s-10.7,7.2-18.5,5.4c-7.8-1.8-9.4-6.9-9.4-6.9
				s4.9,0.5,5.1-2.4c0.2-2.9-1.3-7.4-1.3-7.4s-6-1.4-6-7.4c-0.2-5.6,0-6.9,0-6.9s-2.2-1.4-2-3.4
				C799.9,276.3,801.6,274.5,802.7,276.1z"/>
		</defs>
		<clipPath id="XMLID_75_">
			<use xlink:href="#XMLID_93_"  style="overflow:visible;"/>
		</clipPath>
		<rect id="XMLID_99_" x="788.5" y="263.3" class="st25" width="50.2" height="53.8"/>
		<path id="XMLID_61_" class="st26" d="M804.2,294.5c0,0,7,4.7,12.3-1.5c0,2.2-3.2,7.4-8.9,6.9c-5.3-0.7-5.7-3.4-5.7-3.4
			L804.2,294.5z"/>
	</g>
	<path id="XMLID_109_" d="M806.6,289.8c0,0,0.3,2.1-0.6,2.7c-0.9,0.6-3-2-3.4-3.6c-0.4-1.6-0.7-5-0.7-5l-0.6,0.8
		c0,0-0.4,5.5,0.7,7.6c1.1,2.1,3.8,3.9,5.2,4.2c1.4,0.3,6.7-0.1,8.6-2.2c1.1-1.2,2.2-3.2,2.9-4.6c0.5-1,0.2-2.2-0.6-2.9l0,0
		c0,0-0.7,2.9-2.5,4.5c-1.8,1.6-4.4,2.3-5.1,2c-0.7-0.3-1.2-3-1.2-3S807.9,289.6,806.6,289.8z"/>
	<path id="XMLID_111_" d="M808.3,285.3h-1.1c-0.1,0-0.2,0-0.3,0.1l-1.8,1.2c0,0,1-0.1,1.6-0.1s1.2,0.3,1.2,0.3l0.1-0.4L808.3,285.3z
		"/>
	<path id="XMLID_125_" d="M808.6,286.9l0.5-1.4l1.7,0.6c0.2,0.1,0.4,0.2,0.5,0.4l1,1.9c0,0-1.7-1.3-2.4-1.5
		C809.2,286.8,808.6,286.9,808.6,286.9z"/>
	<g id="XMLID_108_">
		<path id="XMLID_153_" class="st27" d="M778.2,330.5c0,0-6,11.8-7.3,14c-1.4,2.2-3.3,3.4-3.3,6.4c0,3,12.2,20.8,15.3,24.7
			c2.4,2.7,2.8,3.7,2.8,3.7s-3.1,5.3-3.5,5.2c-0.4-0.1-2-1.4-3.1-0.7c-1.1,0.7-1.1,1.6-0.1,2.3c0.9,0.7,3.5,1.6,4.5,1.9
			c0.9,0.3,2.9-2,4.5-3.5c1.5-1.5,4.1-6.2,4.1-6.9c0-0.7-5.6-12.3-7.7-17c-2.2-4.6-4.5-7.9-4.5-7.9l9.3-12.5l1-3.4L778.2,330.5z"/>
		<path id="XMLID_162_" class="st27" d="M843.5,340.4l3.1,8.4c0,0-1.1,6.1-3.1,13.8c-2,7.7-4.2,16.8-5.2,18.2
			c-0.9,1.4-2.4,5.2-2.4,6.5s1.6,15.2,1.9,15.6c0.3,0.4,1.9,0,2.7-4.3s1.8-13.4,2.6-14.9s10.9-23.6,13-28.1c2.2-4.5,2.7-4.7,2.7-6.8
			c0-2-5.8-13-5.8-13L843.5,340.4z"/>
	</g>
	<path id="XMLID_130_" class="st28" d="M808.8,304.1c0,0,4,2.5,7.5,2.1c3.5-0.5,6.6-3.4,6.6-3.4s6.7,1.5,8.8,1.7s9.3,2.7,9.3,2.7
		s10.6,10,15.7,30.1c-2.7,4-7.7,7.1-15.3,6.1l-4.4-9.2c0,0-1.4,14.7-1.4,20.1c-0.1,5.4,0.4,22.5,0.4,22.5s-7.8,3.8-16.3,4.9
		s-30.9-10.9-30.9-10.9l1.8-30.8c0,0-7.6,0.9-15-8.9c4.5-6.5,10.9-20.3,10.9-20.3s12.1-4.5,15.4-5.2
		C805.2,305,806.8,305,808.8,304.1z"/>
	<g id="XMLID_92_">
		<path id="XMLID_140_" class="st29" d="M789.5,513.8c0,0-0.8,1.8-3.8,3.9c-3,2.2-6.2,0.5-8.8,1.9c-2.6,1.4-6.8,5.6-3,9.8
			c0,0.8,1.1,1.1,3.9,1.4s19.5,0.5,21.7,0c2.3-0.5,1.7-2.6,1.7-5.7s-1.4-12.3-1.7-13.2c-0.3-0.8-4.4-0.3-6.3,0
			C791.4,512.2,789.6,510.7,789.5,513.8z"/>
		<path id="XMLID_163_" class="st29" d="M838,513.8c0,0,1.1,3.1,0.2,6.9s-0.9,6.6,0.3,8.7c1.1,2,5,1.7,7.3,1.7c2.3,0,5.7,0,6.4,0
			c0.7,0,1.6-1.9,1.1-5.2c-0.5-3.3-3.9-8.1-5.3-11c-1.4-2.9-1.9-5-1.9-5l-8,1.6V513.8z"/>
	</g>
	<path id="XMLID_200_" class="st30" d="M848,510.7c0,0-1.1,1-2.2,2.2c-0.6,0.6-3.1,0.9-5.4,1c-2.1,0.1-4,0-4,0s-6.9-24.6-9-32.4
		c-2.1-7.9-2.7-17.1-4-23.5c-1.4-4.6-3.9-23.1-5.4-33.1s-5.3-19-5.3-19s-2,3.7-2.6,7.2c-0.5,3.5-3,28.9-4.1,35.1
		c-0.2,1.2-0.3,2.1-0.4,2.8c-0.2,3.1,0.6,3,0.5,7.4c-0.1,2.6-1.2,15.2-2.3,27.5c-1.2,13.3-2.5,26.3-2.5,26.3s-7.3,1.8-13,1.6
		c0.7-3.7-0.9-51.1-0.9-56.9c0-5.7-0.3-21.6,0-34.9c0.3-13.3,0.7-43.5,0.9-46.9c0.2-3.4,0.7-25.3,1-28.8c0.3-3.5,1.5-5.9,1.5-5.9
		s2.3-6.3,3.2-13.8c1.1-10.9,2.8-19.3,2.8-19.3s1.7-0.6,3.8-1.2c-2.3,5.9-1.4,19.3-1.4,19.3s6-0.3,11.9-0.2
		c5.9,0.1,14.5,0.7,14.5,0.7s0.1-0.4,0-1.8c0-4.2,1.7-20.5,1.7-20.5c1.3-0.9,4.5,0.8,4.5,0.8s-0.5,5.4-1.6,17.1s0.5,34.9,0.5,34.9
		l4.9,1.2c0,0,0,0,0,2.2c0,1.6,2.2,28.7,3.5,46.8c0,0,0,0,0,0c0.5,6.9,0.8,12.5,0.9,14.9c0.1,8.8-1.1,29.2-0.5,32.7
		c0.5,3.5,0,0,2,14.9C843.6,484.2,848,510.7,848,510.7z"/>
	<path id="XMLID_194_" class="st29" d="M848,510.7c0,0-1.1,1-2.2,2.2c-0.6,0.6-3.1,0.9-5.4,1c-0.7-3.7-2.2-10.4-4.5-16.1
		c-3.3-8.3-7.2-25.7-7.2-25.7v-11.2l6.1-6.4c0,0,3.9-20.5,3.9-23.6c0-1.5,0.2-12.7,0.5-24.1c0.5,6.9,0.8,12.5,0.9,14.9
		c0.1,8.8-1.1,29.2-0.5,32.7c0.5,3.5,0,0,2,14.9C843.6,484.2,848,510.7,848,510.7z"/>
	<path id="XMLID_199_" class="st29" d="M806,458.3c-0.1,2.6-1.2,15.2-2.3,27.5c-1-5.3-2.6-10.9-3.5-11.5c-1.4-0.9-0.4-11.2,0-12.5
		c0.2-0.7,2.9-6.1,5.2-11C805.3,454,806.2,453.9,806,458.3z"/>
</g>
</svg>
