<?xml version="1.0" encoding="utf-8"?>
<!-- Generator: Adobe Illustrator 19.0.0, SVG Export Plug-In . SVG Version: 6.00 Build 0)  -->
<svg version="1.1" id="Calque_1" xmlns="http://www.w3.org/2000/svg" xmlns:xlink="http://www.w3.org/1999/xlink" x="0px" y="0px"
	 viewBox="0 0 476 232" style="enable-background:new 0 0 476 232;" xml:space="preserve">
<style type="text/css">
	.st0{fill:#B8D1E0;}
	.st1{clip-path:url(#XMLID_2_);fill:#34ABC6;}
	.st2{clip-path:url(#XMLID_2_);fill:#2C6684;}
	.st3{clip-path:url(#XMLID_2_);fill:#C8E7FD;}
	.st4{clip-path:url(#XMLID_11_);fill:url(#XMLID_12_);}
	.st5{clip-path:url(#XMLID_11_);fill:url(#XMLID_14_);}
	.st6{clip-path:url(#XMLID_11_);fill:#270C1A;}
	.st7{clip-path:url(#XMLID_15_);fill:#270C1A;}
	.st8{clip-path:url(#XMLID_15_);fill:#9C2948;}
	.st9{fill:#C8E7FD;}
	.st10{fill:#91CEF8;}
	.st11{clip-path:url(#XMLID_16_);fill:#34ABC6;}
	.st12{clip-path:url(#XMLID_16_);fill:#C8E7FD;}
	.st13{clip-path:url(#XMLID_16_);fill:#2C6684;}
	.st14{fill:#2C6684;}
	.st15{clip-path:url(#XMLID_17_);fill:#34ABC6;}
	.st16{clip-path:url(#XMLID_17_);fill:#C8E7FD;}
	.st17{clip-path:url(#XMLID_17_);fill:#2C6684;}
	.st18{clip-path:url(#XMLID_18_);fill:#2C6684;}
	.st19{clip-path:url(#XMLID_18_);fill:#34ABC6;}
	.st20{clip-path:url(#XMLID_19_);fill:#DEEEF9;}
	.st21{clip-path:url(#XMLID_19_);fill:#C8E7FD;}
	.st22{clip-path:url(#XMLID_19_);fill:#91CEF8;}
	.st23{fill:#34ABC6;}
	.st24{fill:#284956;}
	.st25{fill:#366A7A;}
	.st26{fill:#FFFFFF;}
	.st27{clip-path:url(#XMLID_20_);fill:#A57467;}
	.st28{clip-path:url(#XMLID_20_);}
	.st29{fill:#8E625A;}
	.st30{fill:#202123;}
	.st31{clip-path:url(#XMLID_21_);fill:#C68F14;}
	.st32{clip-path:url(#XMLID_21_);fill:#91640A;}
	.st33{clip-path:url(#XMLID_22_);fill:#3147A3;}
	.st34{clip-path:url(#XMLID_22_);fill:#283D7F;}
	.st35{fill:url(#XMLID_23_);}
	.st36{fill:url(#XMLID_24_);}
	.st37{fill:#333333;}
	.st38{fill:#666666;}
</style>
<ellipse id="ombre" class="st0" cx="240" cy="216.9" rx="226.5" ry="9.6"/>
<g id="chair3">
	<defs>
		<path id="XMLID_217_" d="M247.3,169c0,0-5.1-44.8-3.6-48.6c8-3,24.9-6.1,39.1,0c1,15.5-0.3,37.3-1,47.1
			C281.8,167.5,269.6,170.5,247.3,169z"/>
	</defs>
	<clipPath id="XMLID_2_">
		<use xlink:href="#XMLID_217_"  style="overflow:visible;"/>
	</clipPath>
	<rect id="XMLID_222_" x="236.8" y="113.3" class="st1" width="54.9" height="61.9"/>
	<path id="XMLID_228_" class="st2" d="M277.9,118l2.1-3h-31l0.8,3H239v55h49v-55H277.9z M281.7,151.8c-0.9,6.3-4.1,10.3-6.7,11.7
		s-17.2,3.4-19.4,2.4c-2.2-0.9-2.6-1.4-2.6-1.4s-6.4-9.9-7.1-20.3c-0.8-10.4-0.3-19.6,1.3-21.3s15.8-1.7,21.5-1.7s11.8,0.6,12.4,4
		C281.8,128.5,282.6,145.4,281.7,151.8z"/>
	<path id="XMLID_219_" class="st3" d="M254,140h17C271,140,262.8,145,254,140z"/>
	<path id="XMLID_189_" class="st2" d="M249,138.5l28.6-0.3C277.6,138.2,262.3,143.8,249,138.5z"/>
	<path id="XMLID_220_" class="st3" d="M280.4,124.1c0,0,0.4,3.5,0,4.7s-1.4-0.4-1.9-1.4s-1-2.7-0.7-3.3S280.3,123.1,280.4,124.1z"/>
	<path id="XMLID_218_" class="st3" d="M255.7,121.5c0,0,8.7,0.8,15.6-0.4C271.3,121,261.8,120.2,255.7,121.5z"/>
	<path id="XMLID_221_" class="st3" d="M280.6,138.8c0,0-0.5-0.2-1.1,0.7c-0.6,1-0.6,2,0,2.6c0.6,0.6,0.8,1.1,1.1,0
		C281,140.9,281.6,138.9,280.6,138.8z"/>
</g>
<g id="table">
	<g id="XMLID_234_">
		<defs>
			<polygon id="XMLID_230_" points="79.8,161 92.3,218.7 408.5,218.2 425,158.8 			"/>
		</defs>
		<clipPath id="XMLID_11_">
			<use xlink:href="#XMLID_230_"  style="overflow:visible;"/>
		</clipPath>
		<linearGradient id="XMLID_12_" gradientUnits="userSpaceOnUse" x1="60.5" y1="188" x2="451" y2="188">
			<stop  offset="5.000000e-002" style="stop-color:#731E5F"/>
			<stop  offset="0.1583" style="stop-color:#5E181F"/>
			<stop  offset="0.3042" style="stop-color:#300D33"/>
			<stop  offset="0.5333" style="stop-color:#731E2B"/>
			<stop  offset="0.7542" style="stop-color:#882623"/>
			<stop  offset="0.8292" style="stop-color:#882623"/>
			<stop  offset="1" style="stop-color:#330D2D"/>
		</linearGradient>
		<rect id="XMLID_231_" x="60.5" y="154" class="st4" width="390.5" height="68"/>
		<linearGradient id="XMLID_14_" gradientUnits="userSpaceOnUse" x1="89" y1="216.0833" x2="411.6779" y2="216.0833">
			<stop  offset="5.000000e-002" style="stop-color:#8D8D8D"/>
			<stop  offset="0.5333" style="stop-color:#C0C0C0"/>
			<stop  offset="1" style="stop-color:#8D8D8D"/>
		</linearGradient>
		<path id="XMLID_232_" class="st5" d="M89,214c0,0,85.7-2.7,169.3-2.7s153.3-1.2,153.3-1.2l-3.3,11.8l-318.7-1.3L89,214z"/>
		<path id="XMLID_233_" class="st6" d="M74.3,188.7c0,0,108.7-20.4,181.7-20.9s112.2-0.7,165.8,17.8c11.8-23.8,11.8-26.9,11.8-26.9
			l-363.5,2.4L74.3,188.7z"/>
	</g>
	<g id="XMLID_229_">
		<defs>
			<path id="XMLID_224_" d="M68,158.2l-1.9,5.2c0,0,197-0.3,224.5-0.3s152.3,0.6,152.3,0.6L442,154H339c0,0-160.5,2.6-186,2.1
				S68,158.2,68,158.2z"/>
		</defs>
		<clipPath id="XMLID_15_">
			<use xlink:href="#XMLID_224_"  style="overflow:visible;"/>
		</clipPath>
		<rect id="XMLID_223_" x="60.3" y="149.2" class="st7" width="387" height="19.2"/>
		<path id="XMLID_225_" class="st8" d="M61.3,158.4c0,0,277.2-0.3,298.3-0.8c21.2-0.5,86-3.2,86-3.2l-17.2-7.7l-363.8,8.5
			L61.3,158.4z"/>
	</g>
</g>
<g id="chair">
	<g id="XMLID_119_">
		<path id="XMLID_13_" class="st9" d="M106.8,182.4L53,181.8l-13.4-59.3l10.9-4.4c0,0-10-1.5-16.6-0.6c0,0,10.1,59,15.6,70.9
			c0,0,14.5,0.7,26.5,1V203h3v-13.5c2.5,0.1,4.9,0.1,6.9,0.1c11.6,0,25.1-0.9,25.1-0.9l0.1-4.3L106.8,182.4z"/>
		<path id="XMLID_117_" class="st10" d="M51.2,188c0,0,22.9,1.2,33.9,1.3c11.9-0.3,25.9-1.1,25.9-1.1V186l-26.3,0.9l-0.1,1.7
			L51.2,188z"/>
	</g>
	<path id="XMLID_137_" class="st10" d="M74.8,162.8c0,0,12.8-4.7,22.6-4.8c0,0,6,8.7,6.3,22.8c-2.3,0-4.1-0.4-4.1-0.4
		s0-14.8-3.8-19.9c0,0-10.9,0.7-19.8,6.8C75.4,164.7,74.8,162.8,74.8,162.8z"/>
	<g id="mousse">
		<defs>
			<path id="XMLID_7_" d="M35.8,118.5c0,0,11.8-3.8,28.4,0.9c0,0,7.9,7.3,4.6,22.3l10.6,37.5c0,0,28.9-2.4,31.8,5.4l-27.5,0.6
				l-31.9-1.5C51.8,183.6,37.3,131.1,35.8,118.5z"/>
		</defs>
		<clipPath id="XMLID_16_">
			<use xlink:href="#XMLID_7_"  style="overflow:visible;"/>
		</clipPath>
		<polygon id="XMLID_3_" class="st11" points="26,112 68.5,114.7 85.3,174.7 118.3,179.3 121.8,191.3 43.5,188.8 		"/>
		<path id="XMLID_9_" class="st12" d="M52.6,141.8l11.8,0.4c0,0-2.6,1.5-6.3,1.6S52.6,141.8,52.6,141.8z"/>
		<path id="XMLID_10_" class="st12" d="M40.1,117.8l17.5,0.3c0,0-8.9,1.1-12.9,1S40.1,117.8,40.1,117.8z"/>
		<path id="XMLID_4_" class="st13" d="M35.8,113.8c0,0,9.3,8.8,4.5,31.2c-3.3-10.6-9-28.7-9-28.7L35.8,113.8z"/>
		<path id="XMLID_5_" class="st13" d="M41,146c0,0,3.4,3.1,5.3,10.2c1.9,7.1,4.6,21.2,7.9,23.5c3.3,2.3,17.2-1.3,18.7-7.8
			s1.4-15.2,1.4-15.2l7,19.9l1.3,4.4l28.1-0.4l4.3,6.3l-4.8-0.9c0,0-2.8-2.6-7.3-3.4c-4.5-0.8-19.3-0.2-19.3-0.2l2.3,5.4L73.4,187
			c0,0,0.3-4.7-4-5.3c-4.3-0.7-9.5-0.2-12.7,0.3c-3.2,0.4,1.5,4.5,1.5,4.5l-10-1.3L40,148.3L41,146z"/>
		<path id="XMLID_6_" class="st13" d="M43.5,120.3c0,0,11-1.7,26.5,0c4,11.3,0.8,20.7,0.8,20.7l0.6,1.3l-26.9-1.6l22-1.4
			c0,0,2.8-9.7-3.8-17.2C54.5,121.5,43.5,120.3,43.5,120.3z"/>
		<path id="XMLID_8_" class="st12" d="M83,178.8l-27.4,3.3c0,0,25.7,0.5,27.9,0.4s26.5-0.8,26.5-0.8s-4.4-3.3-7.9-3.5
			S83,178.8,83,178.8z"/>
	</g>
	<path id="XMLID_138_" class="st9" d="M43.7,164.5c0,0,12.7-6.8,28.9-6.4c4.2,13.5,4.3,25.9,4.5,29.3c-4.3,0.2-4.3,0.2-4.3,0.2
		s0.8-19.2-4.3-26.8c0,0-17.9,0.4-23.1,9.8C44.7,167.2,43.7,164.5,43.7,164.5z"/>
	<path id="XMLID_140_" class="st14" d="M68.2,189.2c0,0,3.7,4.1,9.4,4.1s9.1-3.7,9.1-3.7L68.2,189.2z"/>
	<g id="XMLID_141_">
		<path id="XMLID_161_" class="st14" d="M106.7,211.5c-6.5-4.5-26.1-8.7-26.1-8.7l0.2-4.3l-1.3-0.4c-1.2-0.4-2.4-0.4-3.6,0l-1.1,0.4
			l-0.3,4.3c-17.5,4.8-22.2,7.7-23.4,8.8c-1.5,0.1-2.7,1.4-2.7,2.9c0,1.6,1.3,3,3,3s3-1.3,3-3c0-1.2-0.7-2.1-1.6-2.6
			c2.5-1.5,9.7-3,13.8-3.8c-1.3,1.4-1.6,2.8-1.7,3.5c-1.4,0.3-2.4,1.5-2.4,2.9c0,1.6,1.3,3,3,3s3-1.3,3-3c0-1.1-0.6-2-1.5-2.6
			c1.6-2.6,6.5-4.2,11-4.9c6.9,0.8,10.4,3.5,11.9,5c-0.8,0.5-1.3,1.4-1.3,2.5c0,1.6,1.3,3,3,3s3-1.3,3-3c0-1.6-1.2-2.8-2.8-2.9
			c-0.2-0.7-0.5-1.6-1.1-2.6c6.9,0.4,11.7,2.1,14.2,3.2c-0.8,0.5-1.3,1.4-1.3,2.4c0,1.6,1.3,3,3,3s3-1.3,3-3
			C109.4,212.9,108.2,211.7,106.7,211.5z"/>
		<ellipse id="XMLID_139_" class="st10" cx="52.3" cy="214.9" rx="2" ry="2.1"/>
		<ellipse id="XMLID_150_" class="st10" cx="105.3" cy="214.9" rx="2" ry="2.1"/>
		<ellipse id="XMLID_157_" class="st10" cx="89.9" cy="214.9" rx="1.7" ry="2.1"/>
		<ellipse id="XMLID_158_" class="st10" cx="66.9" cy="214.9" rx="1.7" ry="2.1"/>
	</g>
</g>
<g id="chair_1_">
	<g id="XMLID_214_">
		<path id="XMLID_216_" class="st9" d="M349.3,184.4l53.7-0.7l13.4-59.3l-10.9-4.4c0,0,10-1.5,16.6-0.6c0,0-10.1,59-15.6,70.9
			c0,0-14.5,0.7-26.5,1V205h-3v-13.5c-2,0.1-4.9,0.1-6.9,0.1c-11.6,0-25.1-0.9-25.1-0.9l-0.1-4.3L349.3,184.4z"/>
		<path id="XMLID_215_" class="st10" d="M404.9,190c0,0-22.9,1.2-33.9,1.3c-11.9-0.3-25.9-1.1-25.9-1.1V188l26.3,0.9l0.1,1.7
			L404.9,190z"/>
	</g>
	<path id="XMLID_213_" class="st10" d="M381.2,164.8c0,0-12.8-4.7-22.6-4.8c0,0-6,8.7-6.3,22.8c2.3,0,4.1-0.4,4.1-0.4
		s0-14.8,3.8-19.9c0,0,10.9,0.7,19.8,6.8C380.6,166.7,381.2,164.8,381.2,164.8z"/>
	<g id="mousse_1_">
		<defs>
			<path id="XMLID_199_" d="M420.3,120.5c0,0-11.8-3.8-28.4,0.9c0,0-7.9,7.3-4.6,22.3l-10.6,37.5c0,0-28.9-2.4-31.8,5.4l27.5,0.6
				l31.9-1.5C404.3,185.6,418.8,133.1,420.3,120.5z"/>
		</defs>
		<clipPath id="XMLID_17_">
			<use xlink:href="#XMLID_199_"  style="overflow:visible;"/>
		</clipPath>
		<polygon id="XMLID_212_" class="st15" points="430.1,114 387.6,116.7 370.7,176.7 337.7,181.3 334.2,193.3 412.6,190.8 		"/>
		<path id="XMLID_211_" class="st16" d="M403.5,143.8l-11.8,0.4c0,0,2.6,1.5,6.3,1.6S403.5,143.8,403.5,143.8z"/>
		<path id="XMLID_210_" class="st16" d="M416,119.8l-17.5,0.3c0,0,8.9,1.1,12.9,1S416,119.8,416,119.8z"/>
		<path id="XMLID_209_" class="st17" d="M420.3,115.8c0,0-9.3,8.8-4.5,31.2c3.3-10.6,9-28.7,9-28.7L420.3,115.8z"/>
		<path id="XMLID_208_" class="st17" d="M415.1,148c0,0-3.4,3.1-5.3,10.2c-1.9,7.1-4.6,21.2-7.9,23.5c-3.3,2.3-17.2-1.3-18.7-7.8
			s-1.4-15.2-1.4-15.2l-7,19.9l-1.3,4.4l-28.1-0.4l-4.3,6.3l4.8-0.9c0,0,2.8-2.6,7.3-3.4c4.5-0.8,19.3-0.2,19.3-0.2l-2.3,5.4
			l12.4-0.9c0,0-0.3-4.7,4-5.3c4.3-0.7,9.5-0.2,12.7,0.3c3.2,0.4-1.5,4.5-1.5,4.5l10-1.3l8.3-36.8L415.1,148z"/>
		<path id="XMLID_207_" class="st17" d="M412.6,122.3c0,0-11-1.7-26.5,0c-4,11.3-0.8,20.7-0.8,20.7l-0.6,1.3l26.9-1.6l-22-1.4
			c0,0-2.8-9.7,3.8-17.2C401.6,123.5,412.6,122.3,412.6,122.3z"/>
		<path id="XMLID_206_" class="st16" d="M373.1,180.8l27.4,3.3c0,0-25.7,0.5-27.9,0.4s-26.5-0.8-26.5-0.8s4.4-3.3,7.9-3.5
			S373.1,180.8,373.1,180.8z"/>
	</g>
	<path id="XMLID_198_" class="st9" d="M412.4,166.5c0,0-12.7-6.8-28.9-6.4c-4.2,13.5-4.3,25.9-4.5,29.3c4.3,0.2,4.3,0.2,4.3,0.2
		s-0.8-19.2,4.3-26.8c0,0,17.9,0.4,23.1,9.8C411.4,169.2,412.4,166.5,412.4,166.5z"/>
	<path id="XMLID_197_" class="st14" d="M387.8,191.2c0,0-3.7,4.1-9.4,4.1s-9.1-3.7-9.1-3.7L387.8,191.2z"/>
	<g id="XMLID_190_">
		<path id="XMLID_196_" class="st14" d="M349.4,213.5c6.5-4.5,26.1-8.7,26.1-8.7l-0.2-4.3l1.3-0.4c1.2-0.4,2.4-0.4,3.6,0l1.1,0.4
			l0.3,4.3c17.5,4.8,22.2,7.7,23.4,8.8c1.5,0.1,2.7,1.4,2.7,2.9c0,1.6-1.3,3-3,3s-3-1.3-3-3c0-1.2,0.7-2.1,1.6-2.6
			c-2.5-1.5-9.7-3-13.8-3.8c1.3,1.4,1.6,2.8,1.7,3.5c1.4,0.3,2.4,1.5,2.4,2.9c0,1.6-1.3,3-3,3s-3-1.3-3-3c0-1.1,0.6-2,1.5-2.6
			c-1.6-2.6-6.5-4.2-11-4.9c-6.9,0.8-10.4,3.5-11.9,5c0.8,0.5,1.3,1.4,1.3,2.5c0,1.6-1.3,3-3,3s-3-1.3-3-3c0-1.6,1.2-2.8,2.8-2.9
			c0.2-0.7,0.5-1.6,1.1-2.6c-6.9,0.4-11.7,2.1-14.2,3.2c0.8,0.5,1.3,1.4,1.3,2.4c0,1.6-1.3,3-3,3s-3-1.3-3-3
			C346.7,214.9,347.9,213.7,349.4,213.5z"/>
		<ellipse id="XMLID_195_" class="st10" cx="403.8" cy="216.9" rx="2" ry="2.1"/>
		<ellipse id="XMLID_194_" class="st10" cx="350.8" cy="216.9" rx="2" ry="2.1"/>
		<ellipse id="XMLID_192_" class="st10" cx="366.1" cy="216.9" rx="1.7" ry="2.1"/>
		<ellipse id="XMLID_191_" class="st10" cx="389.1" cy="216.9" rx="1.7" ry="2.1"/>
	</g>
</g>
<g id="chair2">
	<g id="XMLID_177_">
		<defs>
			<path id="XMLID_175_" d="M157.6,109.6c0,0,8.7,3,9.6,14.8s-0.6,12.1-0.3,16.8s8.4,38.1,8.4,38.1s21.6-0.2,26,0s5.2,6.4,5.2,6.4
				l-33.8,0.9l-9.6-37.1l-7.1-34.1L157.6,109.6z"/>
		</defs>
		<clipPath id="XMLID_18_">
			<use xlink:href="#XMLID_175_"  style="overflow:visible;"/>
		</clipPath>
		<rect id="XMLID_159_" x="150.3" y="105.8" class="st18" width="63.5" height="87.3"/>
		<path id="XMLID_176_" class="st19" d="M176.1,177.1l-1.4,3.4h22.8c4.1,0,7.9,2.5,9.3,6.4c0.2,0.6,0.4,1.2,0.6,1.9
			c1.4-8.4-4.7-12.1-4.7-12.1L176.1,177.1z"/>
	</g>
	<g id="XMLID_167_">
		<defs>
			<path id="XMLID_172_" d="M203,186c0.3-11-3-23.1-5.8-28c-10.9-1.6-22.5,3.2-27.4,5.6c-4.1-22.4-9.3-53.6-9.3-53.6
				s-9.1-2.3-17.3-2.3s-16.8,5.2-16.8,5.2c4.8,48,13.3,76.1,13.3,76.1c8.4,2.3,66.3,0,66.3,0v-3H203z M171.3,171.6
				c7.4-11,23.9-11.2,23.9-11.2c4,9,4,21.6,3.9,25.6h-24.7C173.8,184,172.7,179,171.3,171.6z"/>
		</defs>
		<clipPath id="XMLID_19_">
			<use xlink:href="#XMLID_172_"  style="overflow:visible;"/>
		</clipPath>
		<rect id="XMLID_173_" x="120" y="109" class="st20" width="97.5" height="84.2"/>
		<path id="XMLID_166_" class="st21" d="M121.4,114.4c0,0,20-10.8,37.5-3.1c2.5,16.9,6.6,39.4,10.5,43.3s3.9,3.9,3.9,3.9l24-3
			c0,0,5.6,18.4,4.6,30.6c0,0.6,0.4,1.1,1,1l0,0c1-0.1,1.9,0.4,2.4,1.2l1.3,2.5l-72.6,2.4C133.9,193.1,121.5,123.8,121.4,114.4z"/>
		<path id="XMLID_181_" class="st22" d="M209.4,191c-12.5-1.2-26-2.7-38-4.1l0,0l-9.3-28.3c-1.9-5.7-7.2-9.6-13.2-9.6h0
			c-6.6,0-12.3,4.7-13.7,11.2l-2.3,11.5l0,0l3.3,23.4l0,0l17.8,6.7h0l16.4-8.5l0,0C180.8,192.9,193.9,192.3,209.4,191L209.4,191z"/>
		<path id="XMLID_164_" class="st22" d="M169.5,165v3.6c0,0.9,0.4,1.8,1.1,2.4l2.7,2.5l5.8-5.1l10.6-2l6.9,17.7l3.8,2.3
			c0,0,1.2-19.4-5.1-26.3c-5,2.8-12.3,3.8-12.3,3.8l-9.5,3c-1.2,0.4-2.5-0.1-3.3-1.1L169.5,165z"/>
	</g>
	<g id="XMLID_186_">
		<rect id="XMLID_178_" x="165.9" y="191.6" class="st9" width="3.3" height="9.6"/>
		<path id="XMLID_179_" class="st14" d="M159.4,190c0,0,2.9,2.4,9.8,2.4s6-2.5,6-2.5L159.4,190z"/>
		<path id="XMLID_188_" class="st14" d="M196.3,210.7L196.3,210.7L196.3,210.7c-0.1,0-0.2-0.1-0.3-0.1l-1.1-0.3
			c-9.7-3.9-24.9-7.3-24.9-7.3v-4.6l0.1,0.1c-1.4,0.5-2.7,0.6-4.2,0.3l-0.6-0.1l0.3,4.3c0,0-4.2,3.1-13.7,4.9
			c-7.1,1.4-9.6,3-10.4,3.7c-1.5,0.2-2.6,1.5-2.6,3c0,1.7,1.4,3.1,3.1,3.1s3.1-1.4,3.1-3.1c0-1.4-1-2.7-2.3-3
			c2.3-1.8,8.9-2,13.9-2.5c-0.8,0.9-1.1,1.8-1.2,2.4c-1.4,0.3-2.5,1.5-2.5,3c0,1.7,1.4,3.1,3.1,3.1s3.1-1.4,3.1-3.1
			c0-1.2-0.7-2.3-1.8-2.8c2.6-3.7,10-4.4,10-4.4l2.1,0.1c4.3-0.1,11.3,3.6,12.5,4.3c-1.1,0.4-1.9,1.6-1.9,2.9c0,1.7,1.4,3.1,3.1,3.1
			s3.1-1.4,3.1-3.1c0-1.5-1.1-2.8-2.5-3l0,0l-0.4-0.5l0,0c-0.3-0.4-1.1-1.3-3-2.6c4.4,0.1,10.8,1.9,13.1,2.5
			c-0.9,0.5-1.4,1.5-1.4,2.6c0,1.7,1.4,3.1,3.1,3.1s3.1-1.4,3.1-3.1C198.1,212.2,197.4,211.2,196.3,210.7z"/>
		<path id="XMLID_180_" class="st23" d="M157,211.6c0,0,2.6-3.5,9.1-4.4c-2.9,0.2-2.9,0.2-2.9,0.2s-4.2,1.1-6.3,3.7
			C156.8,211.5,156.8,211.9,157,211.6z"/>
		<path id="XMLID_183_" class="st23" d="M175,190h-5c0,0,3.9,0.7,4.4,0.6C174.9,190.4,175,190.2,175,190z"/>
		<ellipse id="XMLID_182_" class="st9" cx="143.1" cy="215.2" rx="2" ry="2.4"/>
		<ellipse id="XMLID_185_" class="st9" cx="194.1" cy="214.2" rx="2" ry="2.4"/>
		<ellipse id="XMLID_184_" class="st9" cx="157.7" cy="214.8" rx="1.6" ry="2"/>
		<ellipse id="XMLID_187_" class="st9" cx="181.7" cy="214.8" rx="1.6" ry="2"/>
	</g>
</g>
<g id="clock">
	<ellipse id="XMLID_245_" class="st0" cx="410.6" cy="27.6" rx="11.8" ry="16.2"/>
	<path id="XMLID_236_" class="st9" d="M406.4,9.1c0,0-7.4,1-9.9,9.9s2.3,20.8,11.6,20.8s12-12.1,10.6-17.3S416.7,9.2,406.4,9.1z"/>
	<path id="XMLID_237_" class="st10" d="M416.5,20.1c0,0-0.8-3.3-4.4-2.8c-3.6,0.6-2.4,2.2-2.7,7.8s-1.3,7.3-4.8,7.6
		s-4.2,1.5-2.1,3.4c2.1,1.9,8.8,3,12.3-3.3S416.5,20.1,416.5,20.1z"/>
	<path id="XMLID_252_" class="st24" d="M408.3,7.5c-7.6,0-13.8,7.5-13.8,16.8c0,9.3,6.2,16.8,13.8,16.8s13.8-7.5,13.8-16.8
		C422.1,15,415.9,7.5,408.3,7.5z M407.2,38.4c-5.9,0-10.7-6.3-10.7-14c0-7.7,4.8-14,10.7-14c5.9,0,10.7,6.3,10.7,14
		C417.9,32.1,413.1,38.4,407.2,38.4z"/>
	<polygon id="XMLID_238_" class="st24" points="406.5,24.1 405.8,12 407,12 407,24 	"/>
	<polygon id="XMLID_243_" class="st24" points="406.8,23.7 411.8,27.4 411,28.3 406.5,24.1 	"/>
	<path id="XMLID_244_" class="st14" d="M416,11.2c0.6,0.5,2.4,2.2,2.9,3.1s-0.2,1-0.6,0.5s-2-2.6-2.6-3S415.4,10.7,416,11.2z"/>
</g>
<g id="cooler">
	<path id="XMLID_285_" class="st0" d="M121.4,9.2l-12.6,0.8c-1.8,0.1-3.2,1.7-3,3.6l3,24c0.3,2.2,2.2,3.9,4.4,3.8l103.5-1.8
		c2.3,0,4.2-1.9,4.2-4.2V15L121.4,9.2z"/>
	<path id="XMLID_246_" class="st9" d="M217.6,37.5H117.2c-2.8,0-5.1-2.3-5.1-5.1V12.2c0-2.8,2.3-5.1,5.1-5.1h100.4
		c2.8,0,5.1,2.3,5.1,5.1v20.3C222.7,35.2,220.4,37.5,217.6,37.5z"/>
	<path id="XMLID_247_" class="st25" d="M213.7,36.2h-92.5c-1.4,0-2.6-1.2-2.6-2.6v0c0-1.4,1.2-2.6,2.6-2.6h92.5
		c1.4,0,2.6,1.2,2.6,2.6v0C216.3,35,215.1,36.2,213.7,36.2z"/>
	<path id="XMLID_260_" class="st24" d="M184.2,23c0,3-7.5,5.7-16.8,5.7c-9.3,0-16.8-2.7-16.8-5.7H184.2z"/>
	<path id="XMLID_249_" class="st10" d="M115,24.6c0,1.8,1.6,3.1,3.3,2.7c8.6-1.7,32.1-6,48.9-6c16.9,0,40.6,5,49,6.9
		c1.6,0.4,3.1-0.9,3.1-2.5v-13c0-1.5-1.2-2.7-2.7-2.7H117c-1.1,0-2,0.9-2,2V24.6z"/>
	<polygon id="XMLID_248_" class="st9" points="118.5,32 216.4,32 214.8,33 120.1,33 	"/>
	<polygon id="XMLID_254_" class="st9" points="118.5,34 216.4,34 214.8,35 120.1,35 	"/>
	<g id="XMLID_253_">
		<path id="XMLID_256_" class="st26" d="M166.7,24.7h0.1c0,0,0,0,0,0v0.4c0,0-0.1,0.1-0.3,0.3c-0.1,0-0.2,0-0.3,0h-0.1c0,0,0,0,0,0
			c0-0.1,0-0.2,0.1-0.2C166.6,24.9,166.7,24.7,166.7,24.7z M167,24.4c0,0,0.1,0.1,0.3,0.3v1c0,0-0.1,0.1-0.3,0.3c0,0,0,0-0.1-0.1
			L167,24.4C167,24.5,167,24.5,167,24.4z M167.2,26.1C167.2,26.1,167.3,26.1,167.2,26.1l0.1,1.5c0,0,0,0-0.1,0.1
			c0,0-0.1-0.1-0.3-0.3v-1C167,26.3,167,26.2,167.2,26.1z"/>
		<path id="XMLID_261_" class="st26" d="M167.9,24.5c0,0,0.1,0.1,0.3,0.3v0.9c0,0-0.1,0.1-0.3,0.3c0,0,0,0-0.1-0.1L167.9,24.5
			C167.8,24.6,167.9,24.5,167.9,24.5z M167.9,26.1c0,0,0.1,0.1,0.3,0.3v0.9c0,0-0.1,0.1-0.3,0.3c0,0,0,0-0.1-0.1L167.9,26.1
			C167.8,26.1,167.9,26.1,167.9,26.1z M168.3,27.3h0.9c0,0,0.1,0.1,0.3,0.3c0,0,0,0-0.1,0.1h-1.3c0,0,0,0-0.1-0.1
			C168,27.5,168.1,27.4,168.3,27.3z M168.1,24.4h1.3c0,0,0,0,0.1,0.1c0,0-0.1,0.1-0.3,0.3h-0.9C168.3,24.8,168.2,24.7,168.1,24.4
			C168,24.5,168,24.4,168.1,24.4z M168.2,25.8h1.1c0,0,0.1,0.1,0.2,0.2v0c0,0-0.1,0.1-0.2,0.2h-1.1c0,0-0.1-0.1-0.2-0.2v0
			C168,26,168.1,25.9,168.2,25.8z M169.6,26.1C169.6,26.1,169.6,26.1,169.6,26.1l0.1,1.4c0,0,0,0-0.1,0.1c0,0-0.1-0.1-0.3-0.3v-0.9
			C169.3,26.3,169.4,26.2,169.6,26.1z"/>
	</g>
	<g id="XMLID_255_">
		<path id="XMLID_269_" class="st24" d="M163.2,17c0.2,0.1,0.3,0.2,0.4,0.3s0.2,0.3,0.2,0.5h-0.7c0-0.1-0.1-0.2-0.2-0.2
			c-0.1-0.1-0.2-0.1-0.3-0.1c-0.1,0-0.3,0.1-0.3,0.2c-0.1,0.1-0.1,0.2-0.1,0.4c0,0.2,0,0.3,0.1,0.4c0.1,0.1,0.2,0.2,0.3,0.2
			c0.1,0,0.2,0,0.3-0.1c0.1-0.1,0.1-0.1,0.2-0.2h0.7c-0.1,0.3-0.2,0.5-0.4,0.6c-0.2,0.2-0.4,0.2-0.7,0.2c-0.2,0-0.4,0-0.6-0.1
			c-0.2-0.1-0.3-0.2-0.4-0.4c-0.1-0.2-0.1-0.4-0.1-0.6s0-0.4,0.1-0.6c0.1-0.2,0.2-0.3,0.4-0.4c0.2-0.1,0.4-0.1,0.6-0.1
			C162.9,16.9,163.1,17,163.2,17z"/>
		<path id="XMLID_271_" class="st24" d="M165.8,17.1c0.2,0.1,0.3,0.2,0.4,0.4c0.1,0.2,0.2,0.4,0.2,0.6c0,0.2-0.1,0.4-0.2,0.6
			c-0.1,0.2-0.2,0.3-0.4,0.4s-0.4,0.2-0.6,0.2c-0.2,0-0.4,0-0.6-0.2s-0.3-0.2-0.4-0.4c-0.1-0.2-0.2-0.4-0.2-0.6
			c0-0.2,0.1-0.4,0.2-0.6c0.1-0.2,0.2-0.3,0.4-0.4s0.4-0.2,0.6-0.2C165.4,16.9,165.6,17,165.8,17.1z M164.8,17.6
			c-0.1,0.1-0.1,0.2-0.1,0.4c0,0.2,0,0.3,0.1,0.4c0.1,0.1,0.2,0.2,0.4,0.2c0.2,0,0.3-0.1,0.4-0.2c0.1-0.1,0.1-0.2,0.1-0.4
			c0-0.2,0-0.3-0.1-0.4c-0.1-0.1-0.2-0.2-0.4-0.2C165,17.5,164.9,17.5,164.8,17.6z"/>
		<path id="XMLID_274_" class="st24" d="M168.3,17.1c0.2,0.1,0.3,0.2,0.4,0.4c0.1,0.2,0.2,0.4,0.2,0.6c0,0.2-0.1,0.4-0.2,0.6
			c-0.1,0.2-0.2,0.3-0.4,0.4s-0.4,0.2-0.6,0.2c-0.2,0-0.4,0-0.6-0.2s-0.3-0.2-0.4-0.4c-0.1-0.2-0.2-0.4-0.2-0.6
			c0-0.2,0.1-0.4,0.2-0.6c0.1-0.2,0.2-0.3,0.4-0.4s0.4-0.2,0.6-0.2C168,16.9,168.2,17,168.3,17.1z M167.4,17.6
			c-0.1,0.1-0.1,0.2-0.1,0.4c0,0.2,0,0.3,0.1,0.4c0.1,0.1,0.2,0.2,0.4,0.2c0.2,0,0.3-0.1,0.4-0.2c0.1-0.1,0.1-0.2,0.1-0.4
			c0-0.2,0-0.3-0.1-0.4c-0.1-0.1-0.2-0.2-0.4-0.2C167.6,17.5,167.5,17.5,167.4,17.6z"/>
		<path id="XMLID_277_" class="st24" d="M169.8,18.7h0.7v0.5h-1.3v-2.3h0.6V18.7z"/>
		<path id="XMLID_279_" class="st24" d="M171.4,17.4v0.4h0.7v0.5h-0.7v0.4h0.8v0.5h-1.5v-2.3h1.5v0.5H171.4z"/>
		<path id="XMLID_281_" class="st24" d="M173.7,19.2l-0.5-0.8h-0.1v0.8h-0.6v-2.3h1c0.2,0,0.3,0,0.5,0.1c0.1,0.1,0.2,0.2,0.3,0.3
			c0.1,0.1,0.1,0.2,0.1,0.4c0,0.2,0,0.3-0.1,0.4c-0.1,0.1-0.2,0.2-0.4,0.2l0.5,0.9H173.7z M173.2,18h0.3c0.2,0,0.3-0.1,0.3-0.2
			c0-0.1,0-0.1-0.1-0.2c0,0-0.1-0.1-0.2-0.1h-0.3V18z"/>
	</g>
	<path id="XMLID_268_" class="st26" d="M214.5,11.7h-9.1c-0.3,0-0.5-0.2-0.5-0.5v0c0-0.3,0.2-0.5,0.5-0.5h9.1c0.3,0,0.5,0.2,0.5,0.5
		v0C215,11.5,214.7,11.7,214.5,11.7z"/>
</g>
<g id="man_1_">
	<g id="XMLID_293_">
		<defs>
			<path id="XMLID_287_" d="M297.1,83.2l-0.4-0.9c-0.1-0.4,0.1-0.7,0.4-0.8c0.7-0.2,1.7-0.7,2.4-1.8c1.1-1.9,4.6-3.7,7.7-1.3
				c3.1,2.4,3.8,6,0.6,9.3c-1,1-4.1,2.7-3.3,6.4c0.3,1,1.6,3.6,1.6,3.6s3.6,0.9,5,3.9c1.3,2.9-2.4,14-6.2,18.7
				c-0.3,0.4-0.9,0.4-1.3,0.2l-0.7-0.5c0,0-1.3,3.4-1.3,9.6c0,6.2,0.5,6.9,0.5,6.9s0,15.6-0.8,18l-0.5,1.4c-0.1,0.2-0.1,0.4-0.1,0.6
				c0,2.6,0.4,21.5,0.2,23.5l-0.2,1.5c0,0.3,0,0.7,0.1,1c0.3,0.9,0.9,3.1,1,7.2c0.2,5.6,2.4,25.1,2.8,26.9c0.5,1.9,0,2.2-0.9,2.4
				c-0.9,0.2-11.9,0.7-12.3,0.5c-0.3-0.2,3.2-1.3,4.8-1.9c1.5-0.6,3.9-2.1,3.3-5.9c-0.5-3.8-4.5-26.7-5.2-28
				c-0.7-1.3-1.4-4.5-1.4-4.5l-0.8-12.6c0,0-4.9,11.5-6.5,13.1l0,0c-0.6,0.5-0.6,1.4-0.1,2c0.4,0.5,0.8,1.1,0.8,1.8
				c0.2,1.4-0.4,7.5-1.3,12.3c-0.9,4.9-1.6,18.6-1.5,20.8c0.2,2.2,0.5,2.8-1.7,2.9s-10.4-0.2-11,0c-0.5,0.2,0.4-0.7,3.5-1.7
				c3.1-1,4.4-2.1,4.2-6.6c-0.2-4.5-0.2-25-0.7-27.4c-0.5-2.4-0.8-5-0.8-5s2.7-17.6,3.3-25.4s1.7-14.6,1.7-15.3s0.7-13.3,1.2-15.6
				c0.2-1.1,0.3-1.9,0.3-2.5c0-0.6-0.4-1.1-0.9-1.2c-1.3-0.3-3.8-0.9-5.3-1.2c-2.1-0.5-3.1-1.3-2.4-2.7c0.7-1.3,7.3-10.6,9.6-13.1
				c0.2-0.2,0.3-0.6,0.2-0.9l-1.7-5.5c0,0-2.7-5.7-3.4-6.9c-0.7-1.3,0.5-2.2,0.7-1.7c0.2,0.5,0.8,1.8,0.8,1.8s0.5,0.2,0.4-0.4
				s-0.3-1.4-0.4-2.4s0.5-1.2,0.9-0.4s1,2.6,1.2,2.7c0.2,0.1,0.4,0,0.4-0.6c0-0.6-0.7-2.6-0.7-2.9s0.4-0.9,1.1,0.5
				c0.6,1.4,1.3,3.3,1.5,4c0.2,0.6,0.6,1.3,0.9,1.1c0.3-0.2,0.4-0.7,0.4-1.5c0-0.7,0.5-0.7,0.8-0.3s0.2,1.8,0,2.7
				c-0.3,1-0.8,2.7-0.1,4.4c0.3,0.8,0.7,1.4,1,1.8c0.3,0.4,0.7,0.5,1.1,0.3c0.8-0.4,2.2-0.9,2.8-1c0.9-0.1,5.5,0.2,5.5,0.2
				s1.3-5.4,0.3-6.4c-1.5-0.3-2.8-1.5-2.5-3.2S297.1,83.2,297.1,83.2z"/>
		</defs>
		<clipPath id="XMLID_20_">
			<use xlink:href="#XMLID_287_"  style="overflow:visible;"/>
		</clipPath>
		<rect id="XMLID_289_" x="268.3" y="67" class="st27" width="45.9" height="158.4"/>
		<g id="XMLID_294_" class="st28">
			<path id="XMLID_284_" class="st29" d="M306.2,217.3l-3.1-1.7c0,0-1.2-6.6-1.4-10.7c-0.2-4.1-2.4-11.4-2.6-13.1
				c-0.2-1.7-1.5-7.9,0.4-7.8s2.8,0.5,3.4,2.4c0.5,1.9,3.6,12.1,3.3,14.7s-0.5,8.5-0.5,10.2S306.2,217.3,306.2,217.3z"/>
			<path id="XMLID_288_" class="st29" d="M285.3,212c0,0-1.2-13.5-1.5-16.3c-0.3-2.7-0.9-8.8-0.9-10.3s1.5-2.2,2.4-2
				c0.9,0.2,2,0.4,2.4,2.8c0.4,2.4,1.7,7.7,0.9,11.8C287.7,202.1,285.3,212,285.3,212z"/>
			<path id="XMLID_290_" class="st29" d="M303.4,138.5c0,0-3.7,8.5-4.2,9.8c-0.5,1.3-1.5,7.9-2.7,9c-1.2,1.2-2.5,1.4-2.5,1.4
				s0.7,7.1-1.9,11.3c2,6.7,3.2,10.2,4.4,10.9c1.1,0.7,3.6,0.9,3.9,1.3c0.3,0.4,2.1,1.3,2.1,1.3l2.7-3.6c0,0-0.3-8.3,0-17.7
				c0.3-9.3,0.9-17,0.5-18.5C305.1,142.5,303.4,138.5,303.4,138.5z"/>
			<path id="XMLID_291_" class="st29" d="M307.1,89.1c0,0-1.7,0.3-2.6,0.8c-0.9,0.5-1.2,1.1-1.8,2.5s-0.3,4.2-1.1,5.4
				c-0.8,1.1-2.1,2.4-3.4,2.6s-3,0.8-3.3,1c-0.3,0.2-4.2,6.2-3.8,10.4c0.4,4.2-0.7,6.1-0.7,7c0,0.9-0.3,4,1.6,5.9
				c1.9,1.9,2.9,3.3,1.8,6.4c-1,3.1,0,6.9,0.9,7.2c0.9,0.2,5,0.2,5.6-1.1c0.5-1.2-0.2-11,3.7-14.1c3.9-3.1,3.6-2.4,3.9-3.1
				c0.3-0.6,6.3-15.7,6.2-16.4c0-0.7-3.5-7.4-3.5-7.4l-4.9-3.8L307.1,89.1z"/>
			<path id="XMLID_292_" class="st29" d="M288,91.4c0,0-1.8,2.1-1.9,3.2c-0.2,1.1,0,1.8,0.4,2.5c0.4,0.7,2,1.3,2.3,1
				c0.3-0.3,1.6-2.3,1.6-2.3L288,91.4z"/>
		</g>
	</g>
	<path id="XMLID_295_" class="st30" d="M303,77.5c-0.4-0.2-0.3-0.8,0.1-0.9c1.3-0.3,3.6-0.5,5.6,1.2c3.2,2.7,2.8,6.5,1,9
		c-1.4,1.9-3.8,2.5-4.9,3.7c-0.3,0.3-0.9,0.1-0.9-0.4c0.1-0.8,0.4-1.8,1.1-2.6c0.1-0.1,0.3-0.2,0.5-0.1c0.7,0.1,2-0.7,1.7-1.8
		c-0.3-1.2-1.3-1.4-1.7-0.9c-0.4,0.6-0.4,0.6-0.4,0.6l-0.5-0.3c-0.2-0.1-0.3-0.4-0.2-0.6l0.9-2.3c0.3-0.8,0.2-1.6-0.2-2.3
		C304.7,79,304,78.1,303,77.5z"/>
	<g id="costume">
		<defs>
			<path id="XMLID_296_" d="M296,95.9c0,0,8.2,0,10.9,0.9s8.1,3.7,4.6,13.5c-3.5,9.8-5.1,10.4-5.1,10.4l-2.6,3.1l0.5,20.1
				c0,0-16.3,2.1-21,0.8c-4.6-1.3-4.9-4.9-4.9-4.9s2-17.3,2.1-18.2c0.2-0.9,1.1-2.6,1.1-2.6s-4.9,0.1-6.4-0.6s-2.1-3.1,0.5-6.9
				c2.6-3.8,8.4-11,8.4-11l-0.9-3.8c0,0,0.9-1.4,4.8-2.4c0.5,2.2,0.5,2.2,0.5,2.2S290.8,95.3,296,95.9z"/>
		</defs>
		<clipPath id="XMLID_21_">
			<use xlink:href="#XMLID_296_"  style="overflow:visible;"/>
		</clipPath>
		<rect id="XMLID_297_" x="272.8" y="85.6" class="st31" width="49.2" height="70"/>
		<path id="XMLID_298_" class="st32" d="M278,120.5c0,0,2.7-0.2,4.9-2.4c2.1-2.3,9.4-8.3,11.7-10.9c2.3-2.6,3.2-5.3,2.2-7.6
			c-1-2.4-1.8-4.2-5.7-4.2c-2.3-0.1-2.3-0.1-2.3-0.1l-0.7,2.7l-1.4,1.7c0,0-1.4-4-1.1-5.2c1.2-0.9,4.6-1.3,4.6-1.3
			s22.7,2.3,23.5,3.5c0.8,1.2-2.2,2-2.2,2l-0.6,0.7c0,0,3.4,4.2-4.4,21.5c-0.2,1.6-0.1,3.2-0.1,3.2l2.7,11.4l1.8,6.2l-2.6,6.4
			c0,0-20.5-1.3-20.7-1.4c-0.2,0-7.1-2.4-7.5-5.7s-0.1-18.4-0.1-18.4L278,120.5z"/>
	</g>
	<g id="chaussures">
		<path id="XMLID_305_" class="st24" d="M278,215.5c0,0-1.5,0.5-3.8,1.4c-2.4,0.9-3.8,2-4.2,2.3c-0.4,0.3-0.5,0.8,0.3,0.8
			c0.9,0.1,12.4,0,13.2,0c0.9,0,0.9-1.7,0.7-2.5c-0.2-0.8-0.4-1.7-0.4-1.7L278,215.5z"/>
		<path id="XMLID_304_" class="st24" d="M298.3,215.7c0,0-2.7,1.4-4.8,2.1c-2,0.7-2.6,1.4-2.5,1.7c0,0.3,0.3,0.5,0.9,0.5
			s11.9,0,12.9,0c0.9,0,0.8-1.7-0.2-4.7C303.4,215.8,298.8,215.9,298.3,215.7z"/>
	</g>
	<g id="pantalon">
		<defs>
			<path id="XMLID_301_" d="M303.2,142.7l-1,35.2l2.8,38c0,0-2.1,2-4.6,1.3c-2.5-0.8-2.5-1.2-2.5-1.2s-2.4-27.9-5.4-35.2
				c-0.3-0.6-0.4-1.3-0.5-2c-0.7-7.4-0.4-9.9-0.4-9.9l-3.6,11.6c-0.1,0.3-0.1,0.6-0.2,0.8c-0.2,1.5-0.7,6.4-1.1,11
				c-0.5,5.4-2.6,22.3-2.3,24c-2.7,1.2-7.1-0.9-7.1-0.9s-1.1-29.4-1.2-33.4c0-0.1,0-0.2,0-0.3c0.5-6.5,3.4-42.2,3.4-42.2
				S279.7,144.1,303.2,142.7z"/>
		</defs>
		<clipPath id="XMLID_22_">
			<use xlink:href="#XMLID_301_"  style="overflow:visible;"/>
		</clipPath>
		<rect id="XMLID_302_" x="272.8" y="135.4" class="st33" width="49.8" height="96.3"/>
		<path id="XMLID_300_" class="st34" d="M303.2,139.4c0,0-6.4,19.7-8.1,21.8c0,0-1.3,0.9-1.7,2.7c-0.5,1.9-3.4,11.5-3.4,11.5l2,19.4
			l3,26.2l16.6,0.4c0,0-7.2-30.9-7.3-31.6c-0.1-0.8,3.1-47.7,3.1-47.7L303.2,139.4z"/>
	</g>
</g>
<g id="lampe">
	<linearGradient id="XMLID_23_" gradientUnits="userSpaceOnUse" x1="271.8333" y1="164.8542" x2="271.8333" y2="64.8995">
		<stop  offset="0" style="stop-color:#FDF9C8;stop-opacity:0"/>
		<stop  offset="0.207" style="stop-color:#FCF8BF;stop-opacity:5.336316e-002"/>
		<stop  offset="0.55" style="stop-color:#FAF4A5;stop-opacity:0.1418"/>
		<stop  offset="0.7757" style="stop-color:#F8F191;stop-opacity:0.2"/>
	</linearGradient>
	<path id="XMLID_239_" class="st35" d="M239.9,64.9L112.5,139l64.6,15.3c56.7,13.5,115.7,14,172.7,1.5l81.4-17.9L287.3,66.1
		L239.9,64.9z"/>
	<linearGradient id="XMLID_24_" gradientUnits="userSpaceOnUse" x1="245.8756" y1="217.125" x2="245.8756" y2="65">
		<stop  offset="0" style="stop-color:#FDF9C8;stop-opacity:0"/>
		<stop  offset="0.207" style="stop-color:#FCF8BF;stop-opacity:5.336316e-002"/>
		<stop  offset="0.55" style="stop-color:#FAF4A5;stop-opacity:0.1418"/>
		<stop  offset="0.7757" style="stop-color:#F8F191;stop-opacity:0.2"/>
	</linearGradient>
	<path id="XMLID_241_" class="st36" d="M256.9,65L139.4,213.1c0,0,55.1,4,129.3,4s83.6-5.1,83.6-5.1L268.5,65H256.9z"/>
	<polygon id="XMLID_242_" class="st37" points="291.5,68 262,54.9 262,0 261,0 261,54.9 233.3,68 	"/>
	<path id="XMLID_240_" class="st38" d="M256.1,58.5l-9.2,4.5c-0.7,0.4-0.5,1.5,0.3,1.5h7.7l0,0c-0.3-1.8,0.3-3.7,1.6-5l0.1-0.1
		C257.2,59,256.7,58.3,256.1,58.5z"/>
</g>
</svg>
