<?xml version="1.0" encoding="utf-8"?>
<!-- Generator: Adobe Illustrator 19.0.0, SVG Export Plug-In . SVG Version: 6.00 Build 0)  -->
<svg version="1.1" id="Calque_1" xmlns="http://www.w3.org/2000/svg" xmlns:xlink="http://www.w3.org/1999/xlink" x="0px" y="0px"
	 viewBox="0 0 893 445" style="enable-background:new 0 0 893 445;" xml:space="preserve">
<style type="text/css">
	.st0{fill:#FFF6E3;}
	.st1{fill:#D3D3D3;}
	.st2{fill:#7199BC;}
	.st3{fill:#7CA5D1;}
	.st4{fill:#91CEF8;}
	.st5{fill:#4660ED;}
	.st6{clip-path:url(#XMLID_158_);fill:#91CEF8;}
	.st7{clip-path:url(#XMLID_158_);fill:#7DB4F4;}
	.st8{clip-path:url(#XMLID_158_);fill:#445EE9;}
	.st9{clip-path:url(#XMLID_158_);fill:#4660ED;}
	.st10{clip-path:url(#XMLID_158_);fill:#C8E7FD;}
	.st11{clip-path:url(#XMLID_158_);}
	.st12{fill:#F3FAFF;}
	.st13{clip-path:url(#XMLID_158_);fill:#141964;}
	.st14{clip-path:url(#XMLID_159_);fill:#4660ED;}
	.st15{clip-path:url(#XMLID_159_);fill:#C8E7FD;}
	.st16{clip-path:url(#XMLID_159_);}
	.st17{fill:#C8E7FD;}
	.st18{fill:#202123;}
	.st19{clip-path:url(#XMLID_160_);fill:#A57467;}
	.st20{clip-path:url(#XMLID_160_);}
	.st21{fill:#8E625A;}
	.st22{fill:#F79B2D;}
	.st23{clip-path:url(#XMLID_161_);fill:#A57467;}
	.st24{clip-path:url(#XMLID_161_);fill:#8E625A;}
	.st25{clip-path:url(#XMLID_162_);fill:#3147A3;}
	.st26{clip-path:url(#XMLID_162_);fill:#283D7F;}
	.st27{clip-path:url(#XMLID_163_);fill:#8E61C9;}
	.st28{clip-path:url(#XMLID_163_);}
	.st29{fill:#5C447A;}
</style>
<path id="XMLID_91_" class="st0" d="M479,75c0,0-123.5,45-237.3-4S58,17,18,71s45,119,49,167s-13,76-43,97s-36.7,84.2,60,88.9
	c96.7,4.7,104.7-25.9,167.9-21.9S466,446,529,445s155-8,206-66s83-53.2,113-66.1C878,300,925,223,823,200s-126-35-133-77
	s-25-71-70-80S518.1,64.5,479,75z"/>
<ellipse id="ombre" class="st1" cx="228" cy="426.2" rx="51" ry="6.5"/>
<ellipse id="ombre_1_" class="st1" cx="718" cy="419.2" rx="51" ry="6.5"/>
<g id="box">
	<path id="XMLID_65_" class="st2" d="M787.7,328.9h18.1v91.9c0,1.4-1.1,2.5-2.5,2.5H788L787.7,328.9z"/>
	<path id="XMLID_122_" class="st3" d="M792.3,322.2l17.4,0.5c0.9,0,1.6,0.8,1.6,1.7v3.6c0,0.9-0.8,1.7-1.7,1.7l-17.6-0.4
		L792.3,322.2z"/>
	<path id="XMLID_63_" class="st4" d="M788.9,328.3H724v92.4c0,1.4,1.2,2.6,2.6,2.6h62.3V328.3z"/>
	<path id="XMLID_103_" class="st5" d="M785.9,360.4h-58.6v-29.3h58.6V360.4z M728.1,359.6h57v-27.7h-57V359.6z"/>
	<path id="XMLID_123_" class="st5" d="M785.9,388.9h-58.6v-29.3h58.6V388.9z M728.1,388.1h57v-27.7h-57V388.1z"/>
	<path id="XMLID_124_" class="st5" d="M785.9,417.4h-58.6v-29.3h58.6V417.4z M728.1,416.6h57v-27.7h-57V416.6z"/>
	<path id="XMLID_98_" class="st5" d="M760.7,336.6h-10.6c-0.7,0-1.2-0.6-1.2-1.2l0,0c0-0.7,0.6-1.2,1.2-1.2h10.6
		c0.7,0,1.2,0.6,1.2,1.2l0,0C762,336,761.4,336.6,760.7,336.6z"/>
	<path id="XMLID_115_" class="st5" d="M760.7,365.3h-10.6c-0.7,0-1.2-0.6-1.2-1.2l0,0c0-0.7,0.6-1.2,1.2-1.2h10.6
		c0.7,0,1.2,0.6,1.2,1.2l0,0C762,364.7,761.4,365.3,760.7,365.3z"/>
	<path id="XMLID_121_" class="st5" d="M760.7,394.9h-10.6c-0.7,0-1.2-0.6-1.2-1.2l0,0c0-0.7,0.6-1.2,1.2-1.2h10.6
		c0.7,0,1.2,0.6,1.2,1.2l0,0C762,394.3,761.4,394.9,760.7,394.9z"/>
	<path id="XMLID_105_" class="st5" d="M792.3,329.2h-71.8c-1.1,0-1.9-0.9-1.9-1.9v-3.1c0-1.1,0.9-1.9,1.9-1.9h71.8V329.2z"/>
</g>
<g id="papier_contrat">
	<defs>
		<path id="XMLID_2_" d="M595.5,33L595.5,33c0-12.6-10.4-22.7-23-22.4l-282,7c-22.7,0.6-40.3,20.1-38.5,42.8l25.8,324.7
			c1.5,18.8,16.8,33.4,35.6,34.1l276.6,9.9c14.5,0.5,26.5-11.1,26.5-25.6v0h33.7c15.1,0,27.3-12.2,27.3-27.3v-212
			c0-14.7-11.9-26.7-26.7-26.7h-1c-8.5,0-16.8,1.4-24.9,3.9c-10.4,3.3-31.5,7.3-70.9,6.9l1.3-109.7C555.3,38.7,575.3,44,595.5,33z"
			/>
	</defs>
	<clipPath id="XMLID_158_">
		<use xlink:href="#XMLID_2_"  style="overflow:visible;"/>
	</clipPath>
	<rect id="XMLID_6_" x="136.6" y="-11.4" class="st6" width="579" height="466.5"/>
	<path id="XMLID_7_" class="st7" d="M554.1,143.7l-3.2,246.6c-0.3,21.5,16.6,39.4,38.2,40.3l42.6,1.7l9.3-315.7L554.1,143.7z"/>
	<path id="XMLID_4_" class="st8" d="M555.5,37v-2.5c0-11,9-20,20-20l0,0c11,0,20,9,20,20v12H557l-1.1-5.6
		C555.6,39.7,555.5,38.3,555.5,37z"/>
	<path id="XMLID_3_" class="st9" d="M616.5,405l-2.2-213.7c-0.4-39.9,30.6-73,70.4-75.2l36.3-2l-10.3,292L616.5,405z"/>
	<path id="XMLID_9_" class="st10" d="M543,19l-244.5,8.4C273,28.3,253.3,50.1,255,75.6l27,292.9c0,0-2,51.5,46,50.8l225.5,3.7v0
		c-15.2-13.6-23.6-33.3-22.9-53.7L543,19z"/>
	<g id="XMLID_18_" class="st11">
		<path id="XMLID_8_" class="st12" d="M303.4,66.1l198.6-5c8.7-0.2,15.6,7,15.2,15.6l-0.7,12.1c-0.4,7.7-6.6,13.7-14.3,14
			l-198.2,6.8c-6.3,0.2-11.6-4.9-11.6-11.2V77.2C292.5,71.2,297.3,66.2,303.4,66.1z"/>
		<path id="XMLID_10_" class="st12" d="M304.5,131.7l15.6-0.6c7.7-0.3,14,6,13.7,13.7l-0.9,19.1c-0.5,10.4-9,18.6-19.4,18.6h0
			c-9.9,0-18.2-7.4-19.3-17.3l-2.1-18.9C291.1,138.7,296.8,132,304.5,131.7z"/>
		<path id="XMLID_11_" class="st12" d="M301.6,210.4l21.1-0.9c6.3-0.3,11.4,4.9,11.2,11.1l-1,28.1c-0.2,6.4-5.5,11.4-11.9,11.2
			l-15.8-0.3c-5.9-0.1-10.8-4.7-11.3-10.6l-2.5-26.9C290.8,216,295.5,210.6,301.6,210.4z"/>
		<path id="XMLID_12_" class="st12" d="M303,286.5l18.4-0.6c6.1-0.2,11.1,4.7,11.1,10.7v33c0,4.6-3.8,8.3-8.4,8.2l-21.6-0.7
			c-4.2-0.1-7.7-3.5-7.9-7.7l-1.9-31.5C292.3,291.8,297,286.7,303,286.5z"/>
		<path id="XMLID_13_" class="st12" d="M349.1,135.7l157.5-3.7c3.6-0.1,6.5,2.9,6.2,6.5v0c-0.2,3.1-2.7,5.6-5.9,5.7l-157.5,5.9
			c-3.3,0.1-6-2.5-6-5.7v-2.9C343.5,138.3,346,135.8,349.1,135.7z"/>
		<path id="XMLID_14_" class="st12" d="M349.3,163.5l143.1-5.5c2.7-0.1,4.8,2.4,4.2,5l-0.9,4c-0.4,1.8-2,3.2-3.9,3.2l-142.2,4.6
			c-2.3,0.1-4.1-1.7-4.1-4v-3.4C345.5,165.4,347.2,163.6,349.3,163.5z"/>
		<path id="XMLID_15_" class="st12" d="M348,213.4l146.2-4.2c2.3-0.1,4.2,1.9,4,4.2l-0.3,4.6c-0.1,2-1.8,3.6-3.8,3.7l-145.9,4.9
			c-2.6,0.1-4.8-2-4.8-4.7V218C343.5,215.5,345.5,213.4,348,213.4z"/>
		<path id="XMLID_16_" class="st12" d="M351.7,289.4l165-3.8c2.4-0.1,4.2,2,4,4.3l-0.4,4.3c-0.2,2-1.8,3.5-3.8,3.5l-164.1,4.5
			c-2.2,0.1-4.2-1.6-4.4-3.8l-0.5-4.2C347.3,291.7,349.2,289.4,351.7,289.4z"/>
		<path id="XMLID_17_" class="st12" d="M354.4,317.6l138.1-4.6c2.7-0.1,5,2.1,5,4.8v3.5c0,2.6-2.1,4.8-4.7,4.8l-137.4,2.4
			c-1.5,0-2.9-1.1-3.1-2.6l-0.8-4.6C351.1,319.4,352.5,317.7,354.4,317.6z"/>
	</g>
	<g id="XMLID_19_" class="st11">
		<path id="XMLID_21_" class="st5" d="M314.9,161c-1.9,0-3.7-1-4.6-2.7c-1.3-2.3-5.8-5-8.7-6.2c-2.7-1.1-4-4.2-2.9-6.9
			c1.1-2.7,4.2-4,6.9-2.9c1,0.4,4.1,1.8,7.4,4c2.6-5.1,7.3-11.6,15.3-17.1c2.4-1.7,5.7-1,7.4,1.4c1.7,2.4,1,5.7-1.4,7.4
			c-11.7,8-14,18.4-14.1,18.8c-0.5,2.2-2.2,3.8-4.4,4.2C315.4,161,315.1,161,314.9,161z"/>
		<path id="XMLID_20_" class="st5" d="M318.9,242c-1.9,0-3.7-1-4.6-2.7c-1.3-2.3-5.8-5-8.7-6.2c-2.7-1.1-4-4.2-2.9-6.9
			c1.1-2.7,4.2-4,6.9-2.9c1,0.4,4.1,1.8,7.4,4c2.6-5.1,7.3-11.6,15.3-17.1c2.4-1.7,5.7-1,7.4,1.4c1.7,2.4,1,5.7-1.4,7.4
			c-11.7,8-14,18.4-14.1,18.8c-0.5,2.2-2.2,3.8-4.4,4.2C319.4,242,319.1,242,318.9,242z"/>
		<path id="XMLID_33_" class="st5" d="M318.9,315c-1.9,0-3.7-1-4.6-2.7c-1.3-2.3-5.8-5-8.7-6.2c-2.7-1.1-4-4.2-2.9-6.9
			c1.1-2.7,4.2-4,6.9-2.9c1,0.4,4.1,1.8,7.4,4c2.6-5.1,7.3-11.6,15.3-17.1c2.4-1.7,5.7-1,7.4,1.4s1,5.7-1.4,7.4
			c-11.7,8-14,18.4-14.1,18.8c-0.5,2.2-2.2,3.8-4.4,4.2C319.4,315,319.1,315,318.9,315z"/>
	</g>
	<path id="Sign" class="st13" d="M431.9,403.7c-1.6,0-2.9-0.8-3.6-2.3c-1.5-2.9-1.1-8.6,0.5-15.1c-11.7,4.4-21.5,8.1-25.9,9.6
		c-4.5,1.6-7.8,0.8-9.2-2.1c-3.3-7.1,5.5-25.5,30.3-40.3c7.3-4.3,13.1-5,17.3-2.1c1.5,1,2.6,2.4,3.6,4.1c3.2-2.5,5.5-2,6.9-1
		c1.6,1.1,2.9,2.4,4,3.8c1.5-2.6,3.3-4.6,5.6-5.6c2.9-1.2,5.3-0.5,7,2c0.1,0.1,0.2,0.3,0.3,0.5c1.1-1.4,2.3-2.6,3.7-3.2
		c1.5-0.7,2.7-0.7,3.6,0c2.2,1.8,1.6,7.6,0.1,15.3c6.6-2.5,12.5-4.8,17.2-6.6c2.7-1,5.7-0.7,8.1,1c2.4,1.6,3.8,4.3,3.8,7.2h-1
		c0-2.6-1.2-4.9-3.4-6.4c-2.1-1.5-4.7-1.8-7.2-0.9c-4.8,1.8-10.9,4.2-17.8,6.8c-0.2,0.9-0.4,1.9-0.6,2.9c-0.7,3.4-1.3,6.4-1.3,7.8
		c0,0.5,0,0.8,0.1,0.9c0.5-0.4,1.5-1.8,2.3-3c1.8-2.6,4-5.8,6.3-7.3l0.5,0.8c-2.2,1.4-4.4,4.5-6.1,7c-1.8,2.7-2.6,3.8-3.5,3.5
		c-0.6-0.2-0.7-1.1-0.7-2c0-1.5,0.6-4.5,1.4-8c0.2-0.7,0.3-1.5,0.5-2.3c-1.4,0.5-2.8,1.1-4.3,1.6c-0.6,4.2-1.8,7.8-3.5,9.5
		c-0.7,0.7-1.4,1-2,0.7c-1-0.4-1.6-2.1-1.7-5.1c0-0.7,0-1.5,0-2.4c-1,0.4-2,0.8-3,1.1c-0.3,5.5-2.3,10.5-5.2,13
		c-1,0.8-1.7,0.7-2.2,0.5c-2.1-1-2.2-6.8-2.1-9.3c0-0.2,0-0.4,0-0.6c-1.3,0.5-2.6,1-3.9,1.5c-0.1,0.4-0.1,0.8-0.2,1.2
		c-1.9,10.2-6.8,21.2-13.3,22.8C432.9,403.6,432.4,403.7,431.9,403.7z M430,385.9c-1.7,6.5-2.2,12.3-0.8,15c0.8,1.5,2.1,2,4,1.6
		c5.2-1.2,10.3-10.1,12.5-22c0-0.2,0.1-0.4,0.1-0.6C440.3,382,435,384,430,385.9z M435.4,350.7c-3.1,0-6.7,1.2-10.9,3.7
		c-25.1,15-32.6,33.1-29.9,39c1.1,2.4,4,3,7.9,1.6c4.5-1.6,14.5-5.3,26.5-9.9c2.9-10.9,9-23.6,14.9-28.9c-0.9-1.6-2-3-3.4-3.9
		C439.2,351.2,437.4,350.7,435.4,350.7z M451.8,377.6c0,0.3,0,0.7,0,1c-0.2,5.2,0.7,7.9,1.5,8.3c0.3,0.1,0.7,0,1.1-0.4
		c2.6-2.2,4.4-6.7,4.8-11.8C456.8,375.8,454.3,376.7,451.8,377.6z M444.5,357.1c-5.6,5.1-11.3,17.1-14.2,27.6
		c5-1.9,10.3-3.9,15.7-5.9C447.1,371.5,447.2,362.9,444.5,357.1z M464.2,372.9c-0.1,1-0.1,1.9-0.1,2.7c0.1,2.8,0.6,4.1,1.1,4.2
		c0.3,0.1,0.7-0.3,0.9-0.5c1.5-1.5,2.6-4.7,3.1-8.4C467.6,371.6,465.9,372.3,464.2,372.9z M445.3,356.5c2.8,5.9,2.8,14.5,1.7,21.9
		c1.3-0.5,2.5-1,3.8-1.4c0.4-5.4,1.8-12.4,4.4-17.6c-1.1-1.4-2.4-2.7-4-3.9C449.6,354.3,447.6,354.6,445.3,356.5z M455.9,360.3
		c-2.3,4.7-3.6,11.1-4,16.3c2.5-0.9,4.9-1.9,7.4-2.8c0-0.7,0-1.5,0-2.2C459.1,368.7,458.5,364.2,455.9,360.3z M456.4,359.2
		c3,4.3,3.7,9.2,3.8,12.2c0,0.6,0,1.3,0,1.9c1-0.4,2-0.8,3-1.1c0.4-5,1.9-11.6,4.7-16c-0.1-0.3-0.3-0.6-0.5-0.8
		c-1.4-2.1-3.3-2.7-5.8-1.7C459.6,354.6,457.8,356.6,456.4,359.2z M468.5,357.3c-2.3,3.9-3.7,9.6-4.2,14.5c1.7-0.7,3.4-1.3,5.1-2
		C469.9,365.5,469.7,360.7,468.5,357.3z M469.1,356.3c1.5,3.4,1.8,8.5,1.4,13.2c1.5-0.6,2.9-1.1,4.4-1.7c1.2-6.2,2.4-13.4,0.4-15
		c-0.6-0.4-1.4-0.4-2.5,0.1C471.4,353.6,470.2,354.8,469.1,356.3z"/>
</g>
<g id="crayon">
	<defs>
		<path id="XMLID_36_" d="M690.8,390.6l-136.6,25.2l-41,17.5l46,3.5l134.4-24.2c5.1-0.9,8.1-6.3,6.2-11.1l-2.9-7.5
			C695.9,391.5,693.4,390.1,690.8,390.6z"/>
	</defs>
	<clipPath id="XMLID_159_">
		<use xlink:href="#XMLID_36_"  style="overflow:visible;"/>
	</clipPath>
	<polygon id="XMLID_38_" class="st14" points="552.1,414.9 697.6,387.6 705.3,413.6 557.8,441.1 	"/>
	<path id="XMLID_37_" class="st15" d="M552.5,411.4l0.7,0.8c6.1,8,7.9,18.5,4.6,28l0,0l-52.1-5.4L552.5,411.4z"/>
	<g id="XMLID_40_" class="st16">
		
			<rect id="XMLID_42_" x="628.2" y="353.7" transform="matrix(0.1718 0.9851 -0.9851 0.1718 932.9143 -272.7287)" class="st17" width="1" height="129.6"/>
		
			<rect id="XMLID_43_" x="627.2" y="348.7" transform="matrix(0.1718 0.9851 -0.9851 0.1718 927.1605 -275.8844)" class="st17" width="1" height="129.6"/>
		
			<rect id="XMLID_44_" x="626.2" y="342.7" transform="matrix(0.1699 0.9855 -0.9855 0.1699 922.7292 -278.4716)" class="st17" width="1" height="131.6"/>
	</g>
	<path id="XMLID_34_" class="st14" d="M530.5,421.9l1,1.1c3.6,4,4.2,9.8,1.5,14.4v0l-22.3-4.3L530.5,421.9z"/>
</g>
<g id="girl">
	<path id="XMLID_48_" class="st18" d="M257.6,255.7l1.5-4.4c0.7-2.1-0.2-4.3-2.1-5.4l-1.6-0.9c-3.7-2.1-8.3-1.4-11.2,1.7l-2.2,2.3
		c-2.3,2.4-3.6,5.7-3.6,9.1l0,0c0,0,2.9,10.9-2.3,18.5s-20.5,16.3-13.5,29.5c2,3.9,19.5,14.6,23.6-2.6s1-27.9,3.3-34.8
		S257.6,255.7,257.6,255.7z"/>
	<g id="talons">
		<path id="XMLID_51_" d="M208.8,418.6c0,0,0.6,6.1-0.3,7.9s-2.9,2.8-5.9,2.8s-0.6,0.1-2.1,0s-2.8-2.4-2.1-4s3.9-6.3,3.9-6.3
			L208.8,418.6z"/>
		<path id="XMLID_53_" d="M245.2,414.7c0,0-1.2,0.6-2.3,1.6c-1.2,1-1.4,3.8-0.8,6.6s1,4.4,0.9,5.3c1.2,0.1,1.2,0.1,1.2,0.1l0.6-6.8
			c0,0,4.9,2.7,6.2,4.5s2.8,2.5,4.2,2.5s5.9,0,5.9,0s-2.9-4.2-6-5.4c-3-1.1-4.6-3-6.9-4.1C245.9,418,245.2,414.7,245.2,414.7z"/>
	</g>
	<g id="XMLID_46_">
		<defs>
			<path id="XMLID_41_" d="M243.8,280.1c0,0,4.5-9.1,3.8-16.4c0,0-4.6-3.4-3.8-6.6s4.4-0.1,4.4,1.5c0,0-0.4-5.6,3.1-7.3s5.8,0,5.8,0
				s1.4,2.9,2.9,4s2.5,9,0,11.1c-1.4,1-4.4,0.1-4.4,0.1s-1,7.8,0.4,9.4s10.6,0.3,16.5-5.4s21.3-23.3,21.3-23.3l0.6-6
				c0.1-1,0.6-1.8,1.4-2.4c2.3-1.6,7-5,8.3-5.7c1.8-1,2.1,0.6,0,2.8s-1.8,1.5-1.8,1.5l0.3,2.5c0.2,1.5-0.4,2.9-1.5,3.9l-4.3,3.6
				l-29.1,36.2c-0.8,1-1.4,2.3-1.6,3.6l-6.5,25.7l0.7,8.7l-2.4,23.3c-0.1,1.4-0.4,2.8-0.6,4.2c-1.2,5.9-4.7,23.7-6,40
				c-1.1,14.6-1.1,22.8-1,26c0,1.1,0.4,2.1,1.1,3l5.9,7.5c0,0-5.4-1.1-8.8-4.5c-1.9-1.9-3.1-3.2-3.8-4c-0.5-0.6-0.4-1.4,0.1-1.9l0,0
				c0.6-0.5,0.9-1.3,0.8-2.1l-3.6-26.8c-0.8-5.9,0.3-12,3.2-17.3v0c0.5-0.8,0.7-1.8,0.7-2.7l0.5-18.7l-11.7,19.1
				c-0.4,0.7-1,1.3-1.7,1.8l0,0c-0.8,0.5-1.4,1.3-1.8,2.1l-20.5,41.7c-0.2,0.4-0.4,0.9-0.5,1.3l-2.1,10.1c-0.1,0.6-0.5,1-1,1.3
				l-2.4,1.2c-1,0.5-2.2-0.1-2.4-1.1l-0.5-1.7c-0.3-1.3-0.2-2.6,0.5-3.7l4.9-8.8c0.2-0.3,0.3-0.7,0.4-1.1l5.3-22.9
				c1.7-7.4,5.5-14.1,10.9-19.4l2.1-2c1-0.9,1.6-2.1,1.9-3.5l5-26.5l0.9-10.8c0.2-2.4,1.3-4.6,3.2-6.2l2.4-2.1
				c0.9-0.8,1.6-1.8,2.1-2.9l1.3-3.2c0.9-2.2,1.2-4.6,1.1-6.9c0,0,1.3-10.3-0.6-10.3s-12.4,13.5-12.4,13.5l-5.2,7.9
				c-0.7,0.8-1.1,1.7-1.4,2.7c-0.7,3-2.1,9.5-1.6,11.9c0,0,3.7,0.2,5.4,1.5c1,0.6-0.3,1.3-1.4,1.6s-1.9,0.1-1.9,0.1s1.2,3.4,3,4.4
				c0.6,0.4,0.8,1.5-0.9,2.1s-6.6-3.7-7.4-8.8s-0.4-15.8,1.1-18.9s19.4-27.3,20.8-28.4S243.8,280.1,243.8,280.1z"/>
		</defs>
		<clipPath id="XMLID_160_">
			<use xlink:href="#XMLID_41_"  style="overflow:visible;"/>
		</clipPath>
		<rect id="XMLID_39_" x="189" y="224.5" class="st19" width="121" height="214"/>
		<g id="XMLID_52_" class="st20">
			<g id="XMLID_109_">
				<g id="XMLID_113_">
					<path id="XMLID_114_" class="st21" d="M257.2,267.8c0,0-10.5-4.7-10.4-4.6c0,0-2.1,8.2-2.1,8.2l-4.6,10.4c0,0,5.4,4.4,9.3,3.4
						s8.9-6.8,8.9-6.8s-4.9-0.9-4.4-7.6C253.9,268.7,257.2,267.8,257.2,267.8z"/>
				</g>
				<path id="XMLID_112_" class="st21" d="M207.9,401.4c0,0,0.8,7.6-0.5,10.2s-2.3,8-1.3,9.9c0.6,1,2.1,0,2.1,0s1.8,5.6-5.1,6.4
					c-5.6-3.8-3.8-7.6-2.8-10.4S207.9,401.4,207.9,401.4z"/>
				<path id="XMLID_111_" class="st21" d="M245,410.6l1.6,3.5c0.3,0.7,0.2,1.6-0.3,2.2l0,0c-0.2,0.2-0.2,0.5,0,0.6
					c1.2,1.5,6.5,7.6,14.7,10.4c-8.4-0.7-16.4-6.3-17.8-9.6s0.6-4.6,0.6-4.6L245,410.6z"/>
				<polygon id="XMLID_110_" class="st21" points="233.7,367.1 232.3,366.4 230,366.9 230,370 231.3,369.4 				"/>
			</g>
		</g>
	</g>
	<path id="XMLID_49_" class="st22" d="M243.8,279.5c0,0,8.4,1.3,12.1-3.8c3.2,0.3,16.2-5.3,25.3-15.2c9.2-9.9,11.8-14.1,11.8-14.1
		l1,0.2c1.6,0.4,2.8,1.6,3.2,3.1l0,0c0,0-16.8,25.8-29.5,35.2l1.5,3c1.2,2.4,1.1,5.2-0.1,7.5l-7.4,14.3c-0.8,1.6-1.3,3.4-1.3,5.2
		l-0.5,47.3l-7.6,1.3c-6.3,1.1-12.8,1.1-19.2,0l-7.9-1.4l5.4-19.8c0.9-3.2,1.3-6.6,1.2-9.9l-0.2-9.2c-0.1-2.6,1-5.1,3-6.8l3.6-3
		c1.4-1.2,2.4-2.9,2.6-4.7l1.9-12.3c0.1-0.7-0.4-1.3-1-1.3l0,0c-0.4,0-0.7,0.1-1,0.4l-7.4,8.4c-1.9,2.1-3.4,4.5-4.7,7l-0.9,1.9
		c-1,2.1-3.4,3.1-5.6,2.5l0,0c-0.9-0.2-1.6-0.7-2.2-1.4l0,0c-1.3-1.5-1.6-3.6-0.7-5.4l2.2-4.3c4.1-8,10-15.1,17.1-20.6L243.8,279.5z
		"/>
</g>
<g id="man">
	<g id="XMLID_97_">
		<defs>
			<path id="XMLID_93_" d="M724.5,224.8c2.7,0.2,8,1.5,9.4,6s-2,9.2-2.3,11.8c-0.3,2.6,0.2,8.3,1.4,9.5l9.7,2.9
				c3.6,1.1,5.4,5.1,3.9,8.5l-4.4,9.6c-1.3,2.9-2.1,6.1-2.3,9.3l-1.6,25.8c-0.1,1.7,0.3,3.3,1.3,4.8l0,0c0.9,1.4,1.4,3,1.3,4.6
				l-0.7,17.9l-0.3,1.5c-0.3,1.4-0.4,2.7-0.5,4.1l-0.3,18.3c0,0.9-0.3,1.8-0.7,2.6l0,0c-0.2,0.3-0.2,0.6-0.1,1l0.4,1
				c0.7,1.9,0.8,4,0.3,6l-0.1,0.6l-2.3,47H730l-3.4-47.2l-0.9-2.4c-0.4-1.2-0.5-2.4-0.2-3.6l0,0c0.3-1.4,0-2.8-0.8-3.9l0,0
				c-0.4-0.5-0.6-1-0.8-1.6l-2-9.3l-4.8,12.9c-0.3,0.7-0.6,1.4-1.1,2.1l-0.9,1.2c-0.5,0.7-0.4,1.6,0.1,2.2l0,0
				c1,1.1,1.4,2.5,1.2,3.9l-0.1,0.8c-0.9,5.5-2.3,11-4.2,16.3l-9.9,28.6l-6.7-0.9c0,0,9.6-44.5,8.3-50.1l-0.1-0.5
				c-0.3-2.3-0.2-4.7,0.4-7l0.5-1.6L706,315l0.8-3.4c0.2-1,0.4-2,0.4-3l-0.1-18l-2.2-0.1c-3-0.1-5.7-2-6.9-4.8l0,0
				c-0.6-1.4-0.8-3-0.4-4.6l3.5-17.4c0.1-0.7,0.4-1.4,0.7-2.1l1.2-2.6c1.2-2.6,3.5-4.5,6.2-5.2l5.7-1.4c0.4-0.1,0.6-0.6,0.5-1
				l-1.8-4.2l-0.9-3.3l-0.2,0.1c-0.7,0.4-1.6,0-1.8-0.8l0,0c-0.1-0.5,0.2-0.9,0.5-1.1l1.8-1.1c0.2-0.1,0.5-0.2,0.8-0.2l2.5,0.4
				c0,0-1.4-4.1,0.1-11.7C717.1,226.4,720,224.3,724.5,224.8z"/>
		</defs>
		<clipPath id="XMLID_161_">
			<use xlink:href="#XMLID_93_"  style="overflow:visible;"/>
		</clipPath>
		<rect id="XMLID_94_" x="695.6" y="222.3" class="st23" width="53.4" height="204.3"/>
		<path id="XMLID_95_" class="st24" d="M709.6,241.1c0,0,4.6,0.5,5.2,1.2s1.8,6.7,1.8,6.7l1,3.5l-6.1-1
			C711.5,251.4,706.8,241.4,709.6,241.1z"/>
		<path id="XMLID_96_" class="st24" d="M730.6,241.1c0,0-0.1,2-1.7,3.3s-5.3,2-7.4,1s-4.7-4-4.7-4s1.8,1.9,2.2,3.7s1.6,4.3,1.6,4.3
			s3.8,2.5,6.4-0.6s5.5-4.5,5.5-4.5l0.7-4.6L730.6,241.1z"/>
	</g>
	<g id="XMLID_61_">
		<path id="XMLID_59_" d="M694.2,412.7c0,0-2.6,4.4-9.4,4.9c-1.6,0.1-2.9,2.4-2.9,2.4H704l0.4-3.6l-9.3-4.4L694.2,412.7z"/>
		<path id="XMLID_60_" d="M728.8,415.7c0,0-0.5,2.3-0.2,3.3c7.5,0,9.4,0,9.4,0s0.3-1.6-0.9-3C735.1,416.5,728.8,415.7,728.8,415.7z"
			/>
	</g>
	<g id="XMLID_58_">
		<defs>
			<path id="XMLID_55_" d="M742.2,310.7c0,0,0.6,88.5-4.4,106.7c-9.3-0.2-9.3-0.2-9.3-0.2l-8.2-56.7c0,0-5,41-15.8,56.8
				c-4.8-1-10.8-5.2-10.8-5.2s5.6-21.3,8.5-70.5c0.3-5.8-0.2-22.8,1.2-25.7c1.3-2.8,1.3-2.8,1.3-2.8S722.8,320.2,742.2,310.7z"/>
		</defs>
		<clipPath id="XMLID_162_">
			<use xlink:href="#XMLID_55_"  style="overflow:visible;"/>
		</clipPath>
		<rect id="XMLID_56_" x="691" y="307.7" class="st25" width="57.3" height="115.3"/>
		<path id="XMLID_54_" class="st26" d="M697,314.2c0,0,13,39.7,22.4,50.4c-1.6-15.9-7.8-50.4-7.8-50.4l-14.7-3.5V314.2z"/>
	</g>
	<g id="XMLID_5_">
		<defs>
			<path id="XMLID_128_" d="M744.1,254c-3.4-1.5-12.1-3.9-12.1-3.9s-0.8,4.4-6.3,4.6c-2.4-0.1-3.7-0.9-3.7-0.9l-2.8-6.2l-3.4-0.8
				l-2.8,1.5l0.4,2.4l-10,2.6c0,0-5.4,14.8-7.2,24.3s1.7,13.8,1.7,13.8s5.3,1.1,7.2,0.9c-0.4,3-1.4,9.5-1.3,13.6
				c0.2,4.1-0.6,7.9-0.6,7.9s6.5,3.9,18.8,3.7c12.3-0.2,22.3-4.4,22.3-4.4s-0.6-7.9-1.1-16.6c-0.5-8.7-1.6-17.9-1.6-17.9
				s7.1-8.5,7.8-14.6C750.1,258.1,747.6,255.5,744.1,254z M734.4,290.1c-1.5,1.4-4.7,0.9-4.7,0.9s0.6-0.9,0.5-1.5s-1.4-2.7-1.4-2.7
				c1.3,0.5,6.4-2.3,8.3-3.8C739.3,285.1,735.9,288.7,734.4,290.1z"/>
		</defs>
		<clipPath id="XMLID_163_">
			<use xlink:href="#XMLID_128_"  style="overflow:visible;"/>
		</clipPath>
		<rect id="XMLID_1_" x="693.6" y="243.8" class="st27" width="56.6" height="75.4"/>
		<g id="XMLID_35_" class="st28">
			<path id="XMLID_100_" class="st29" d="M714.7,256.1c0,0,6.8,23.3,13.4,26.2c1,0.4,2.3,2.9,10.3-2.3c-1.8,2.7-7,7.1-9.8,7.3
				s-10.3-6.3-12-13.5S714.7,256.1,714.7,256.1z"/>
			<path id="XMLID_101_" class="st29" d="M705.3,268.1c0,0-4.4,9.1-4.1,13.6c0.3,0.8,3.6,0.3,5.9,0.6
				C707.2,278.9,708.5,271.1,705.3,268.1z"/>
			<path id="XMLID_104_" class="st29" d="M729.4,291.1c0,0-18.9,1.8-26.5,1.3c-4,5.7-2.3,11.2-2.3,11.2s24.9-5.1,32.9-12.8
				c-1.3,0.3-3.6-0.4-3.6-0.4S729.9,291,729.4,291.1z"/>
		</g>
	</g>
	<path id="XMLID_90_" class="st18" d="M716.6,229c0,0,3.7,1.2,9.3,1.1c1.4,1.7,1.4,3.3,1,5.6c1.9,0.6,1.9,0.6,1.9,0.6
		s1.5-0.8,2.1-0.4c0.6,0.3,1.8,3.1-0.5,4.9c0.2,1.4,1.1,3.1,1.1,3.1s2.6-6.2,4.1-8.8c1.5-2.6,2.5-6.3,1.3-8.2
		c-1.3-1.9-12.6-9-19-6.3C716.5,221.1,717.3,224,716.6,229z"/>
</g>
</svg>
