<?xml version="1.0" encoding="utf-8"?>
<!-- Generator: Adobe Illustrator 23.0.2, SVG Export Plug-In . SVG Version: 6.00 Build 0)  -->
<svg version="1.1" id="Calque_1" xmlns="http://www.w3.org/2000/svg" xmlns:xlink="http://www.w3.org/1999/xlink" x="0px" y="0px"
	 viewBox="0 0 960 560" style="enable-background:new 0 0 960 560;" xml:space="preserve">
<style type="text/css">
	.st0{fill:#D4E8F8;}
	.st1{clip-path:url(#XMLID_22_);fill:#3358A7;}
	.st2{clip-path:url(#XMLID_22_);fill:#213E7A;}
	.st3{clip-path:url(#XMLID_22_);fill:#193660;}
	.st4{clip-path:url(#XMLID_23_);fill:#DFDFDE;}
	.st5{clip-path:url(#XMLID_23_);fill:#6B50A1;}
	.st6{clip-path:url(#XMLID_23_);fill:#9AB8A5;}
	.st7{fill:#16234A;}
	.st8{fill:url(#XMLID_24_);}
	.st9{fill:#589054;}
	.st10{clip-path:url(#XMLID_25_);fill:url(#XMLID_26_);}
	.st11{clip-path:url(#XMLID_25_);fill:#93CC99;}
	.st12{clip-path:url(#XMLID_27_);fill:#B21F2C;}
	.st13{clip-path:url(#XMLID_27_);fill:#701020;}
	.st14{clip-path:url(#XMLID_27_);fill:#55121F;}
	.st15{clip-path:url(#XMLID_28_);fill:#D3D3D3;}
	.st16{clip-path:url(#XMLID_28_);fill:#D77927;}
	.st17{clip-path:url(#XMLID_28_);fill:#A390AD;}
	.st18{fill:#3F1313;}
	.st19{fill:url(#XMLID_29_);}
	.st20{fill:#604D85;}
	.st21{clip-path:url(#XMLID_30_);fill:url(#XMLID_31_);}
	.st22{clip-path:url(#XMLID_30_);fill:#A48BC1;}
	.st23{fill:#3187C3;}
	.st24{fill:#FDB515;}
	.st25{fill:#FFFFFF;}
	.st26{opacity:0.8;fill:#459DCC;}
</style>
<g>
	<polygon class="st0" points="252.03,481.31 105.56,433.34 593.73,427.83 635.62,476.17 	"/>
	<g id="classeur_2_1_">
		<g id="XMLID_16_">
			<defs>
				<path id="XMLID_17_" d="M848.19,479.16l6.25-391.29c0,0-22.23-18.21-66.77-16.96l-10.92,0.74L543.15,91.53l-23.81,379.49
					l241.55,6.67l9.98,1.48H848.19z"/>
			</defs>
			<clipPath id="XMLID_22_">
				<use xlink:href="#XMLID_17_"  style="overflow:visible;"/>
			</clipPath>
			<polygon id="XMLID_20_" class="st1" points="527.33,79.44 507.04,486.95 862.9,486.95 862.9,79.32 816.67,61.14 759.04,61.14 			
				"/>
			<path id="XMLID_19_" class="st2" d="M759.37,486.95l18.13-434.29c0,0,66.35,3.44,85.39,27.16
				c-1.16,47.05-8.46,404.53-8.46,404.53L759.37,486.95z"/>
			<path id="XMLID_18_" class="st3" d="M770.87,481.76l16.8-418.97c0,0,71.33,4.57,81.72,30.49c-1.3,45.82-8.22,388.48-8.22,388.48
				H770.87z"/>
		</g>
		<g id="XMLID_11_">
			<defs>
				<path id="XMLID_12_" d="M792,88.47l-4.89,239.8c0,0,42.05-0.43,57.29,2.02l3.29-229.48C847.69,100.81,832.67,87.91,792,88.47z"
					/>
			</defs>
			<clipPath id="XMLID_23_">
				<use xlink:href="#XMLID_12_"  style="overflow:visible;"/>
			</clipPath>
			<path id="XMLID_15_" class="st4" d="M787.29,86.89l-10.97,245.52l71.62,0.85l1.11-235.43C849.04,97.84,821.25,81.22,787.29,86.89
				z"/>
			<path id="XMLID_14_" class="st5" d="M786.43,131.46c0,0,35.16-8.03,62.02,4.57c-0.07,33.17-0.07,33.17-0.07,33.17
				s-14.08-7.5-60.87-3.61C787.59,143.3,786.43,131.46,786.43,131.46z"/>
			<path id="XMLID_13_" class="st6" d="M786.78,184.52c0,0,40.84-4.3,61.37,3.35c-0.15,17.34,0.04,18.35,0.04,18.35
				s-18.3-6.29-61.49-4.37C786.69,190.96,786.78,184.52,786.78,184.52z"/>
		</g>
		<g id="XMLID_1_">
			
				<ellipse id="XMLID_10_" transform="matrix(0.9998 -0.0199 0.0199 0.9998 -7.6329 16.2305)" class="st7" cx="812.97" cy="392.23" rx="23.13" ry="35.6"/>
			
				<linearGradient id="XMLID_24_" gradientUnits="userSpaceOnUse" x1="810.1729" y1="450.7253" x2="810.1729" y2="389.81" gradientTransform="matrix(0.9941 -0.108 0.108 0.9941 -38.3354 55.6169)">
				<stop  offset="0" style="stop-color:#141D45"/>
				<stop  offset="1" style="stop-color:#15293B"/>
			</linearGradient>
			<path id="XMLID_9_" class="st8" d="M828.56,387.1c-1.29,16.98-9.52,30.2-18.38,29.53c-8.87-0.67-15.01-14.98-13.72-31.96
				s9.52-30.2,18.38-29.53C823.7,355.81,829.84,370.12,828.56,387.1z"/>
			<path id="XMLID_8_" class="st9" d="M812.04,355.62c0,0,15.73,4.5,14.03,30.2c-1.7,25.7-19.06,28.17-19.06,28.17
				s16.67,5.82,24.53-10.53C839.4,387.1,834.39,349.08,812.04,355.62z"/>
			<g id="XMLID_2_">
				<defs>
					<path id="XMLID_3_" d="M816.39,346.43c-13-0.86-24.66,15.53-26.06,36.6c-1.39,21.07,8.04,38.85,21.03,39.71
						c13.02,0.86,24.69-15.53,26.08-36.6C838.82,365.07,829.41,347.29,816.39,346.43z M833.26,385.58
						c-0.68,15.87-9.29,28.38-19.26,27.98c-9.95-0.43-17.49-13.64-16.84-29.48c0.68-15.87,9.29-28.41,19.26-27.98
						C826.39,356.5,833.91,369.7,833.26,385.58z"/>
				</defs>
				<clipPath id="XMLID_25_">
					<use xlink:href="#XMLID_3_"  style="overflow:visible;"/>
				</clipPath>
				
					<linearGradient id="XMLID_26_" gradientUnits="userSpaceOnUse" x1="811.9509" y1="462.1366" x2="811.9509" y2="377.5765" gradientTransform="matrix(0.9941 -0.108 0.108 0.9941 -38.3354 55.6169)">
					<stop  offset="0" style="stop-color:#9FD3A9"/>
					<stop  offset="1" style="stop-color:#DEF0E6"/>
				</linearGradient>
				<path id="XMLID_7_" class="st10" d="M799.33,344.38l24.66,0.24l13.86,9.01l4.8,18.94l-4,35.28l-16.85,19.14l-12.62,0.06
					l-15.98-9l-5.31-13.45l-3.23-16.94c0,0,4.57-22.82,4.35-23.45c-0.22-0.63,6.63-15.75,6.63-15.75L799.33,344.38z"/>
				<path id="XMLID_6_" class="st11" d="M812.81,423.82l2.62-8.77c0,0,10.38-1.94,15.18-13.2l1.84,6.68c0,0,5.97-6.56,7.47-26.64
					c1.5-20.08-6.72-34.09-19.39-36.13c-0.14,2.88-1.17,8.02-1.17,8.02s-8.24-1.83-16.53,7.47l-6.7-5.32c0,0-8.99,15.67-6.94,36.75
					C791.23,413.76,801.86,424.3,812.81,423.82z"/>
			</g>
		</g>
	</g>
	<g id="classeur_2">
		<g id="XMLID_365_">
			<defs>
				<path id="XMLID_362_" d="M779.82,479.16l6.58-412.02c0,0-23.41-19.17-70.31-17.86l-11.5,0.78L458.63,71l-25.07,399.59
					l254.35,7.02l10.51,1.55H779.82z"/>
			</defs>
			<clipPath id="XMLID_27_">
				<use xlink:href="#XMLID_362_"  style="overflow:visible;"/>
			</clipPath>
			<polygon id="XMLID_368_" class="st12" points="441.97,58.27 420.6,487.37 795.31,487.37 795.31,58.14 746.64,39 685.95,39 			"/>
			<path id="XMLID_361_" class="st13" d="M686.3,487.37l19.09-457.3c0,0,69.86,3.62,89.91,28.6c-1.22,49.55-8.9,425.96-8.9,425.96
				L686.3,487.37z"/>
			<path id="XMLID_363_" class="st14" d="M698.41,481.9L716.1,40.74c0,0,75.11,4.82,86.04,32.1c-1.37,48.25-8.66,409.06-8.66,409.06
				H698.41z"/>
		</g>
		<g id="XMLID_369_">
			<defs>
				<path id="XMLID_370_" d="M720.66,67.77l-5.15,252.5c0,0,44.28-0.46,60.32,2.13l3.47-241.64
					C779.3,80.77,763.48,67.19,720.66,67.77z"/>
			</defs>
			<clipPath id="XMLID_28_">
				<use xlink:href="#XMLID_370_"  style="overflow:visible;"/>
			</clipPath>
			<path id="XMLID_373_" class="st15" d="M715.69,66.11l-11.55,258.53l75.41,0.9l1.17-247.9C780.72,77.64,751.46,60.14,715.69,66.11
				z"/>
			<path id="XMLID_372_" class="st16" d="M714.79,113.04c0,0,37.02-8.45,65.31,4.81c-0.08,34.92-0.08,34.92-0.08,34.92
				s-14.83-7.9-64.09-3.81C716.01,125.51,714.79,113.04,714.79,113.04z"/>
			<path id="XMLID_371_" class="st17" d="M715.16,168.92c0,0,43.01-4.53,64.62,3.53c-0.15,18.26,0.04,19.32,0.04,19.32
				s-19.27-6.62-64.75-4.61C715.07,175.7,715.16,168.92,715.16,168.92z"/>
		</g>
		<g id="XMLID_374_">
			
				<ellipse id="XMLID_383_" transform="matrix(0.9998 -0.0199 0.0199 0.9998 -7.5553 14.8341)" class="st18" cx="742.73" cy="387.63" rx="24.36" ry="37.49"/>
			
				<linearGradient id="XMLID_29_" gradientUnits="userSpaceOnUse" x1="740.8599" y1="439.8354" x2="740.8599" y2="375.6934" gradientTransform="matrix(0.9941 -0.108 0.108 0.9941 -38.3354 55.6169)">
				<stop  offset="0" style="stop-color:#3A1311"/>
				<stop  offset="1" style="stop-color:#30111A"/>
			</linearGradient>
			<path id="XMLID_382_" class="st19" d="M759.15,382.23c-1.35,17.88-10.02,31.8-19.35,31.09c-9.34-0.71-15.81-15.77-14.45-33.65
				c1.35-17.88,10.02-31.8,19.35-31.09C754.03,349.28,760.5,364.35,759.15,382.23z"/>
			<path id="XMLID_381_" class="st20" d="M741.76,349.07c0,0,16.56,4.73,14.77,31.8s-20.07,29.66-20.07,29.66
				s17.56,6.13,25.83-11.09C770.56,382.22,765.29,342.18,741.76,349.07z"/>
			<g id="XMLID_375_">
				<defs>
					<path id="XMLID_376_" d="M746.34,339.4c-13.68-0.91-25.97,16.35-27.44,38.54c-1.47,22.19,8.46,40.91,22.14,41.81
						c13.71,0.9,26-16.36,27.46-38.54C769.95,359.03,760.05,340.3,746.34,339.4z M764.1,380.62c-0.71,16.72-9.79,29.88-20.28,29.46
						c-10.47-0.46-18.42-14.36-17.73-31.05c0.71-16.72,9.78-29.91,20.28-29.46C756.87,350,764.79,363.91,764.1,380.62z"/>
				</defs>
				<clipPath id="XMLID_30_">
					<use xlink:href="#XMLID_376_"  style="overflow:visible;"/>
				</clipPath>
				
					<linearGradient id="XMLID_31_" gradientUnits="userSpaceOnUse" x1="742.7321" y1="451.8513" x2="742.7321" y2="362.8119" gradientTransform="matrix(0.9941 -0.108 0.108 0.9941 -38.3354 55.6169)">
					<stop  offset="0" style="stop-color:#B096C7"/>
					<stop  offset="1" style="stop-color:#E3D3E8"/>
				</linearGradient>
				<path id="XMLID_380_" class="st21" d="M728.38,337.24l25.97,0.25l14.6,9.49l5.06,19.94l-4.21,37.15l-17.75,20.16l-13.29,0.06
					l-16.83-9.48l-5.59-14.16l-3.4-17.84c0,0,4.81-24.03,4.58-24.69c-0.23-0.66,6.98-16.59,6.98-16.59L728.38,337.24z"/>
				<path id="XMLID_379_" class="st22" d="M742.57,420.89l2.76-9.24c0,0,10.93-2.05,15.98-13.9l1.94,7.03c0,0,6.28-6.9,7.87-28.05
					c1.58-21.15-7.07-35.9-20.41-38.04c-0.15,3.04-1.23,8.44-1.23,8.44s-8.68-1.93-17.41,7.87l-7.05-5.6c0,0-9.47,16.5-7.31,38.69
					C719.85,410.3,731.04,421.39,742.57,420.89z"/>
			</g>
		</g>
	</g>
	<g>
		<path class="st23" d="M411.27,228.2v-34.24c0-6.03-4.89-10.93-10.93-10.93H252.03c-6.03,0-10.93,4.89-10.93,10.93v34.24v15.65
			v226.53c0,6.03,4.89,10.93,10.93,10.93h394.74c6.03,0,10.93-4.89,10.93-10.93V239.12c0-6.03-4.89-10.93-10.93-10.93H411.27z"/>
		<path class="st24" d="M259.5,443.97l-41.19-186.84c-1.36-6.15,2.75-12.17,8.98-13.15L501.2,201c5.54-0.87,10.84,2.59,12.26,8.02
			l53.89,204.99c1.72,6.55-2.87,13.08-9.62,13.66l-286.62,24.83C265.65,452.98,260.68,449.33,259.5,443.97z"/>
		<path class="st0" d="M635.62,230.65v214.11c0,8.28-6.72,15-15,15H265.51c-8.28,0-15-6.72-15-15V230.65c0-8.28,6.72-15,15-15
			h355.11C628.91,215.65,635.62,222.37,635.62,230.65z"/>
		<path class="st25" d="M593.81,264.19H296.43c-3.54,0-6.42-2.87-6.42-6.42v0c0-3.54,2.87-6.42,6.42-6.42h297.38
			c3.54,0,6.42,2.87,6.42,6.42v0C600.23,261.32,597.35,264.19,593.81,264.19z"/>
		<path class="st25" d="M526.02,298.23H296.15c-3.39,0-6.14-2.75-6.14-6.14l0,0c0-3.39,2.75-6.14,6.14-6.14h229.87
			c3.39,0,6.14,2.75,6.14,6.14l0,0C532.16,295.48,529.41,298.23,526.02,298.23z"/>
		<path class="st26" d="M257.54,481.31h392.85c4.42,0,8.41-2.67,10.1-6.75l84.7-205.01c2.97-7.19-2.32-15.1-10.1-15.1h-391.5
			c-4.4,0-8.37,2.64-10.07,6.7l-86.05,205.01C244.44,473.35,249.73,481.31,257.54,481.31z"/>
	</g>
</g>
</svg>
