<?xml version="1.0" encoding="utf-8"?>
<!-- Generator: Adobe Illustrator 23.0.2, SVG Export Plug-In . SVG Version: 6.00 Build 0)  -->
<svg version="1.1" id="Calque_2" xmlns="http://www.w3.org/2000/svg" xmlns:xlink="http://www.w3.org/1999/xlink" x="0px" y="0px"
	 viewBox="0 0 960 560" style="enable-background:new 0 0 960 560;" xml:space="preserve">
<style type="text/css">
	.st0{enable-background:new    ;}
	.st1{clip-path:url(#XMLID_3_);}
	.st2{fill:#E6E6E5;}
	.st3{clip-path:url(#XMLID_4_);fill:#459DCC;}
	.st4{clip-path:url(#XMLID_4_);}
	.st5{fill:#3187C3;}
	.st6{clip-path:url(#XMLID_5_);fill:#56305F;}
	.st7{fill:#212223;}
	.st8{clip-path:url(#SVGID_2_);fill:#A67468;}
	.st9{clip-path:url(#SVGID_2_);fill:#8F635B;}
	.st10{fill:#BE1E2D;}
	.st11{fill:#FFFFFF;}
	.st12{fill:#CB234F;}
	.st13{clip-path:url(#SVGID_4_);fill:#5991CC;}
	.st14{clip-path:url(#SVGID_4_);fill:#497AAD;}
	.st15{fill:#497AAD;}
</style>
<g>
	<g id="XMLID_101_">
		<g id="XMLID_169_" class="st0">
			<defs>
				<polygon id="XMLID_170_" class="st0" points="265.2,535.37 88.6,427.1 578.53,426 755.13,534.27 				"/>
			</defs>
			<clipPath id="XMLID_3_">
				<use xlink:href="#XMLID_170_"  style="overflow:visible;"/>
			</clipPath>
			<g id="XMLID_171_" class="st1">
				<path id="XMLID_173_" class="st2" d="M408.59,527.74l-5.13-5.19l96.84-0.22l4.95,4.73L408.59,527.74 M321.57,426.58
					c-92.44,0.21-183.67,0.96-222.83,2.97c-3.17,0.16-4.44,0.93-3,1.82c17.21,10.71,120.84,74.97,154.17,89.59l119.4,0.34
					l11.48,9.41c2.06,1.68,9.41,3.16,16.1,3.23c25.79,0.27,86.79,0.86,131.72,0.83c5.25,0,10.71-0.01,16.26-0.02
					c43.48-0.1,93.84-0.44,114.44-0.6c5.29-0.04,7.98-1.02,5.74-2.4c-2.28-1.4-8.29-2.37-13.7-2.36l-0.12,0l-109.08,0.44l-8.83-8.36
					l178.19-0.7c7.17-0.03,10.67-1.51,8-3.36c-19.95-13.87-98.11-67.74-138.29-88.43c-2.14-1.1-7-1.94-11.32-1.96
					C540.63,426.85,430.27,426.34,321.57,426.58"/>
			</g>
		</g>
	</g>
	<g>
		<g id="XMLID_72_">
			<defs>
				<path id="XMLID_73_" d="M746.22,163.18c-0.31-3.87-3.48-6.89-7.36-7c-48.77-1.42-347.8-9.44-431.64,5.23
					c-3.12,0.54-5.4,3.23-5.42,6.4c-0.24,37.86-1.31,264.95,7.3,316.67l107.92,2.15l-3.5,33.22c-0.63,5.95,3.86,11.21,9.84,11.51
					c23.02,1.16,77.54,3.71,118.39,3.97c42.17,0.26,98.25-0.73,119.61-1.15c4.87-0.1,8.77-3.54,8.77-8.41
					c0-4.94-4.01-8.41-8.95-8.41h-0.11l-99.71,0.69l4.37-29.52l162.86-1.07c6.55-0.04,11.92-5.24,12.25-11.78
					C743.23,426.69,752.05,236.37,746.22,163.18z M531.91,508.04l-88.77,1.61l3.03-18.31h88.26L531.91,508.04z"/>
			</defs>
			<clipPath id="XMLID_4_">
				<use xlink:href="#XMLID_73_"  style="overflow:visible;"/>
			</clipPath>
			<rect id="XMLID_211_" x="269.13" y="124.78" class="st3" width="506.39" height="449.9"/>
			<g id="XMLID_77_" class="st4">
				<path id="XMLID_168_" class="st5" d="M491.81,519.45l-61.86-1.74c-5.47-0.15-9.7-4.83-9.33-10.28l0.39-5.7
					c0.24-3.46,3.22-6.09,6.69-5.9l21.74,1.17l1.26-5.3l-33.69-5.08l-93.41,3.82c-11.6-24.71-5.55-346-5.55-346l-35.56-2.77
					l-7.57,81.2l13.87,273.87l93.06,4.79l12.36,41.11l99.11-3.78L491.81,519.45z M308.98,274.58c0,0.62-0.15,1.02-0.71,0.75
					l-2.61-1.18c-0.29-0.14-0.72-0.43-0.72-0.75v-10.93c0-0.69,1.29-1.08,1.84-0.67l2.12,1.78c0.21,0.16,0.08,0.4,0.08,0.67V274.58z
					 M308.98,248.1c0,0.62-0.15,1.02-0.71,0.75l-2.61-1.18c-0.29-0.14-0.72-0.43-0.72-0.75v-10.93c0-0.69,1.29-1.08,1.84-0.67
					l2.12,1.78c0.21,0.16,0.08,0.4,0.08,0.67V248.1z M308.98,221.62c0,0.62-0.15,1.02-0.71,0.75l-2.61-1.18
					c-0.29-0.14-0.72-0.43-0.72-0.75V209.5c0-0.69,1.29-1.08,1.84-0.67l2.12,1.78c0.21,0.16,0.08,0.4,0.08,0.67V221.62z
					 M308.98,197.06c0,0.63-0.15,1.03-0.71,0.75l-2.61-1.18c-0.28-0.14-0.72-0.43-0.72-0.75v-10.93c0-0.69,1.29-1.08,1.84-0.67
					l2.12,1.78c0.21,0.16,0.08,0.4,0.08,0.67V197.06z"/>
				<path id="XMLID_132_" class="st5" d="M529.39,490.45h38.84v5.04h-23.14c-2.11,0-3.95,1.44-4.45,3.49l-0.42,1.7
					c-0.9,3.7-4.02,6.43-7.8,6.85l-0.51,0.06l-4.54-4.29L529.39,490.45z"/>
				<path id="XMLID_100_" class="st5" d="M327.64,172.69l2.77-2.77c0,0,289.58-12.34,400.01-1.37c2.08,0.21,3.71,1.88,3.84,3.97
					c2.2,35.07,2.31,278.95-5.14,301.79c-14.63-34.55-39.09-114.49-39.09-114.49L334.45,177.74L327.64,172.69z"/>
			</g>
		</g>
		<g id="XMLID_2_">
			<defs>
				<path id="XMLID_19_" d="M327.64,172.69c0,0,237.56-13.11,405.01,0c0,0,4.54,159.89-3.53,301.61l-397.44,5.04
					C331.67,479.35,323.6,304.33,327.64,172.69z"/>
			</defs>
			<clipPath id="XMLID_5_">
				<use xlink:href="#XMLID_19_"  style="overflow:visible;"/>
			</clipPath>
			<rect id="XMLID_66_" x="260.73" y="153.69" class="st6" width="512.17" height="338.26"/>
		</g>
	</g>
	<g>
		<path class="st7" d="M505.64,161.69c0,0-4.57,16.33-9.96,28.09c-5.39,11.76-6.86,25.97-4.57,32.01
			c2.29,6.04,9.09,14.53,6.75,25.64c-2.34,11.11-16.06,17.8-26.35,24.66c-10.29,6.86-14.37,20.74-7.68,33.32
			c6.7,12.58,29.4,22.54,49.97,24.5c20.58,1.96,32.17,2.94,36.42,12.74s2.78,15.68-1.8,23.35c-1.63,1.8,7.02,1.63,14.86-3.59
			c7.84-5.23,26.62-13.39,29.23-34.13c0.49-4.41,11.43-8.66,22.21-12.41c10.78-3.76,24.01-14.7,8.82-47.85s-5.06-63.86-4.41-79.04
			c0.65-15.19-17.15-37.89-37.4-45.07c-20.25-7.19-21.56-17.47-33.32-20.9c-11.76-3.43-23.35-0.49-27.44,9.64
			s-11.78,8.49-17.65,8.33s-2.95,9.31,0,14.21C506.29,160.06,506.07,160.18,505.64,161.69z"/>
		<g id="body">
			<defs>
				<path id="SVGID_1_" d="M512.66,162.67c0,0-22.95,41.48-6.29,78.72c5.39,11.02,17.64,15.92,25.72,15.43
					c1.47,12.25,6.12,28.66-24.99,38.71c-20.58,4.41-37.97,0.73-44.09,9.06c-6.12,8.33-19.6,65.16-28.42,93.09
					c-8.82,27.93-14.21,44.58-14.21,44.58s-3.92,2.45-19.6-5.14c-15.68-7.59-50.95-30.62-60.75-32.34
					c-9.8-1.71-34.38,4.98-38.62,5.96c-4.25,0.98-5.63,2.04-7.02,2.61c-1.39,0.57-1.06,3.51,0.49,3.43
					c1.55-0.08,14.86-2.37,17.56-2.37c-0.08,1.8,1.14,5.23,1.8,5.47s2.04,0.24,2.04,0.24s1.88,5.47,3.27,7.35
					c1.39,1.88,3.59,3.18,15.19,3.43c11.6,0.24,17.23-0.57,20.41,0.82c3.18,1.39,22.62,19.6,33.15,26.13
					c10.53,6.53,30.13,15.6,42.95,11.43c12.82-4.16,16.66-20.58,20.17-32.01s23.03-62.63,23.03-62.63l9.5,101.82l106.97-1.37
					l9.28-132.14c0,0,19.92,41.16,24.5,55.85c4.57,14.7,15.8,49.93,21.8,53.85s21.19,7.35,32.34-18.25
					c11.15-25.6,28.17-81.33,31.36-88.43c3.18-7.1,5.63-9.8,7.84-18.86c2.2-9.06,2.94-18.37,0-21.56c-2.94-3.18-1.22-4.41-5.14-4.16
					c-3.92,0.24-13.96-1.96-17.88-0.24c-3.92,1.71-6.12,5.63-6.12,5.63s-2.2,6.86-3.18,8.82c-0.98,1.96,4.41,10.53,6.37,14.94
					c1.96,4.41,1.47,10.78-4.16,23.27c-5.63,12.49-23.27,54.14-25.23,58.55c-1.96,4.41-5.63-7.84-7.84-14.45
					c-2.2-6.61-19.84-71.29-24.5-80.84c-4.65-9.55-24.99-15.19-38.46-19.6c-13.47-4.41-26.7-9.55-27.93-26.95
					s-0.24-20.82-0.24-20.82s22.05-11.51,24.01-42.13c-3.92,4.65-14.45,2.69-15.19-8.57c-0.73-11.27,0.24-22.05,0.24-22.05
					l-17.64-12.98C555.12,163.98,514.29,171.16,512.66,162.67z"/>
			</defs>
			<clipPath id="SVGID_2_">
				<use xlink:href="#SVGID_1_"  style="overflow:visible;"/>
			</clipPath>
			<rect x="252.34" y="77.75" class="st8" width="503.66" height="472.3"/>
			<path class="st9" d="M532.1,256.82c0,0,7.68,0,17.47-4.25c-2.2,5.96-12.25,15.92-24.5,16.09c4.98-5.55,5.47-8.74,5.47-8.74
				L532.1,256.82z"/>
		</g>
		<g>
			<path class="st10" d="M545,218.44c0,0-7.33,2.89-13.09,2.58c-1.07-0.09-1.68,0-2.08,0.43c-0.58-0.21-0.64-0.55-1.9-0.21
				c-1.26,0.34-1.8,0.41-1.8,1.01s0,0.6,0,0.6l2.84,1.07c0,0,12.68-2.03,13.63-2.74C543.55,220.47,545,218.44,545,218.44z"/>
			<path class="st10" d="M542.54,223.12c0,0-4.93,6.38-7.6,7.76c-2.66,1.38-8.11,1.26-8.94,0.64s-0.83-2.1,0.7-2.55
				s9-1.83,11.45-3.17S542.54,223.12,542.54,223.12z"/>
			<path class="st11" d="M526.13,222.85c0,0,11.84,0.57,18.86-4.41c-2.69,8.25-11.35,12.33-18.29,10.53
				C526.87,226.69,527.28,224.32,526.13,222.85z"/>
		</g>
		<g id="casque">
			<path class="st11" d="M593.61,197.59c1.97-7.52,8.47-36.01-1.33-51.33c-3.64-5.69-9.05-8.95-16.05-9.7
				c-4.66-0.58-6.92,1.3-6.92,1.3l3.95,2.34l3.54,1.73c0,0,8.21,3.19,10.94,7.46c8.34,13.02,2.54,39.13,0.68,46.44
				c-8.31-0.98-16.44,6.22-18.45,16.59c-0.9,4.63-0.42,9.13,1.09,12.9c-5,3.56-20.29,12.77-44.93,12.77
				c-1.51-1.71-4.08-1.1-5.19,0.55s-0.06,2.69,1.96,3c2.02,0.31,3.08-0.73,3.23-1.41c0,0,31.41-0.9,46.19-12.37
				c2.16,3.67,5.45,6.3,9.49,7.09c8.63,1.67,17.31-5.7,19.4-16.47C602.93,209.61,599.64,201.22,593.61,197.59z"/>
			
				<ellipse transform="matrix(0.1904 -0.9817 0.9817 0.1904 264.123 751.171)" class="st12" cx="587.51" cy="215.44" rx="15.57" ry="12.47"/>
		</g>
		<g id="eyes">
			<path class="st7" d="M520.13,186.94c-1.43-0.76-3.04-1.27-4.73-1.4c-0.84-0.07-1.7-0.03-2.55,0.11c-0.8,0.14-1.57,0.34-2.37,0.64
				c-0.78,0.3-1.57,0.73-2.31,1.38c-0.69,0.69-1.43,1.71-1.01,3.16c0.07,0.23,0.23,0.42,0.46,0.53c0.42,0.18,0.91-0.01,1.09-0.43
				l0.28-0.65c0.13-0.29,1.11-1.07,2.38-1.31c0.61-0.18,1.29-0.29,1.94-0.4c0.62-0.07,1.24-0.13,1.88-0.09
				c1.27,0.07,2.54,0.38,3.81,0.86c1.23,0.5,2.51,1.17,3.6,1.91l0.07,0.05c0.36,0.24,0.84,0.22,1.18-0.08
				c0.39-0.35,0.43-0.96,0.07-1.36C522.82,188.62,521.57,187.7,520.13,186.94z"/>
			<path class="st7" d="M554.58,191.75c-1.1-1.86-2.7-2.88-4.34-3.76c-1.66-0.83-3.46-1.41-5.34-1.63c-1.85-0.23-3.9-0.15-5.76,0.63
				c-1.86,0.77-3.43,2.04-4.38,3.91c-0.17,0.34-0.13,0.76,0.13,1.06c0.34,0.4,0.95,0.44,1.35,0.1l0.14-0.12
				c1.06-0.91,2.45-1.67,3.8-2.06c1.37-0.39,2.85-0.51,4.38-0.36c1.53,0.14,3.07,0.51,4.54,1.06c1.45,0.54,2.95,1.29,3.88,2.22
				l0.12,0.12c0.3,0.3,0.78,0.37,1.16,0.15C554.7,192.79,554.85,192.2,554.58,191.75z"/>
		</g>
		<g>
			<defs>
				<path id="SVGID_3_" d="M512.5,289.16c0,0-16.9,4.29-34.79,6.98s-21.56,5.02-27.44,26.7c-5.88,21.68-9.06,32.09-9.06,32.09
					l21.43,13.35c0,0,13.35,92.6,14.21,109.58c20.13,0.65,125.96-1.63,125.96-1.63l4.9-95.05l51.61-32.01
					c0,0-20.25-47.03-31.36-50.63c-11.11-3.59-48.99-8.17-48.99-8.17s-11.02,15.68-28.7,23.84c-17.68,8.17-23.56,11.11-23.56,11.11
					s-15.35-11.11-16-18.45C510.05,299.53,512.5,289.16,512.5,289.16z"/>
			</defs>
			<clipPath id="SVGID_4_">
				<use xlink:href="#SVGID_3_"  style="overflow:visible;"/>
			</clipPath>
			<rect x="424.47" y="270.78" class="st13" width="236.97" height="254.77"/>
			<path class="st14" d="M461.63,328.02l1.02,40.26l-2.57,4.82l-3.51-6.37l-2.29-0.24C454.28,366.48,458.69,331.94,461.63,328.02z"
				/>
			<polygon class="st14" points="607.71,381.18 597.26,356.44 606.57,427.97 615.88,401.35 			"/>
		</g>
		<g>
			<path class="st11" d="M519.72,287.44c0,0,0-2.82-3.18-2.82s-8.27,7.84-13.2,10.53c1.32,5.14,3.64,17.64,11.6,24.74
				c7.96,7.1,4.78,21.92,4.78,21.92l14.45-0.61c0,0,8.57-17.27,18.86-22.05s29.52-14.7,37.48-21.56
				c-4.78-2.94-11.27-9.8-13.72-12.98c-2.45-3.18-6-4.9-7.35-4.04c-1.35,0.86-8.21,13.11-16.05,19.23s-18.01,12-19.97,17.39
				c-0.86,2.33-3.06,1.22-6-4.9C524.5,306.18,519.11,302.51,519.72,287.44z"/>
			<polygon class="st11" points="578.48,349.5 540.1,348.68 540.1,357.01 577.66,358.81 			"/>
		</g>
		<g>
			<path class="st15" d="M371.88,315.53l-9.15-29.4h21.46c17.93,0,32.71-14.07,33.58-31.98l4.05-83.34
				c0.82-16.79-12.58-30.85-29.38-30.85H199.38c-14.68,0-26.95,11.19-28.29,25.82l-7.99,87.3c-1.67,18.27,12.78,33.99,31.13,33.86
				l135.76-0.98L371.88,315.53z"/>
			<g>
				<path class="st11" d="M376.91,174.75H214.98c-3.59,0-6.49,2.91-6.49,6.49c0,3.59,2.91,6.49,6.49,6.49h161.93
					c3.59,0,6.49-2.91,6.49-6.49C383.4,177.66,380.49,174.75,376.91,174.75z"/>
				<path class="st11" d="M210.57,219.34h67.61c3.31,0,6-2.69,6-6s-2.69-6-6-6h-67.61c-3.31,0-6,2.69-6,6
					S207.26,219.34,210.57,219.34z"/>
				<path class="st11" d="M330.36,219.34c3.31,0,6-2.69,6-6s-2.69-6-6-6h-27.44c-3.31,0-6,2.69-6,6s2.69,6,6,6H330.36z"/>
				<path class="st11" d="M339.06,241.39H209.47c-2.71,0-4.9,2.19-4.9,4.9c0,2.71,2.19,4.9,4.9,4.9h129.59c2.71,0,4.9-2.19,4.9-4.9
					C343.96,243.58,341.76,241.39,339.06,241.39z"/>
			</g>
		</g>
		<g>
			<path class="st12" d="M666.51,112.74l13.6-63.72c2.83-13.28,14.5-22.81,28.07-22.95l139.97-1.43
				c14.62-0.15,25.67,13.2,22.8,27.53l-10.65,53.15c-3.1,15.46-16.68,26.59-32.45,26.59H720.23l-54.87,37.95l16.66-37.95l0,0
				C671.93,131.9,664.4,122.6,666.51,112.74z"/>
			<g>
				<path class="st11" d="M758.23,88.14l3.69-16.28c4.41,0,8.28-0.38,11.61-1.14c3.32-0.76,5.93-2.08,7.81-3.96
					c1.88-1.88,2.82-4.45,2.82-7.7c0-2.75-1-4.79-2.99-6.13c-1.99-1.34-4.5-2.01-7.54-2.01c-3.76,0-6.82,0.94-9.17,2.82
					c-2.35,1.88-4.07,4.52-5.15,7.92l-13.35-6.08c1.23-3.18,3.11-6.06,5.64-8.63c2.53-2.57,5.73-4.61,9.6-6.13
					c3.87-1.52,8.44-2.28,13.73-2.28c4.85,0,9.13,0.76,12.86,2.28c3.73,1.52,6.65,3.69,8.79,6.51c2.13,2.82,3.2,6.18,3.2,10.09
					c0,4.56-1.05,8.43-3.15,11.61c-2.1,3.18-5.08,5.66-8.95,7.43c-3.87,1.77-8.41,2.88-13.62,3.31l-2.28,8.36H758.23z
					 M761.37,112.01c-2.53,0-4.58-0.62-6.13-1.84c-1.56-1.23-2.33-2.96-2.33-5.21c0-2.89,0.87-5.21,2.6-6.94
					c1.74-1.73,4.05-2.6,6.94-2.6c2.53,0,4.58,0.63,6.13,1.9c1.55,1.27,2.33,3.02,2.33,5.26c0,2.9-0.87,5.19-2.6,6.89
					C766.58,111.16,764.27,112.01,761.37,112.01z"/>
			</g>
		</g>
	</g>
</g>
</svg>
