<?xml version="1.0" encoding="utf-8"?>
<!-- Generator: Adobe Illustrator 19.0.0, SVG Export Plug-In . SVG Version: 6.00 Build 0)  -->
<svg version="1.1" xmlns="http://www.w3.org/2000/svg" xmlns:xlink="http://www.w3.org/1999/xlink" x="0px" y="0px"
	 viewBox="0 0 570 520.5" style="enable-background:new 0 0 570 520.5;" xml:space="preserve">
<style type="text/css">
	.st0{fill:#E6E6E6;}
	.st1{fill:#D0E6F4;}
	.st2{fill:#A0D1F9;}
	.st3{fill:#D7EFFF;}
	.st4{fill:#62EFAC;}
	.st5{fill:#FFE2CF;}
	.st6{fill:url(#XMLID_168_);}
	.st7{fill:#FFD6BB;}
	.st8{fill:#1A1A1A;}
	.st9{fill:#FFFFFF;}
	.st10{clip-path:url(#XMLID_169_);fill:#0099CB;}
	.st11{clip-path:url(#XMLID_169_);}
	.st12{fill:#FFCC33;}
	.st13{fill:#0099CB;}
	.st14{font-family:'Roboto-Medium';}
	.st15{font-size:21.9448px;}
	.st16{font-family:'Roboto-Bold';}
	.st17{font-size:19.5669px;}
	.st18{font-family:'Roboto-Regular';}
	.st19{font-size:8.9358px;}
	.st20{clip-path:url(#XMLID_169_);fill:#FFCC33;}
	.st21{font-family:'Roboto-MediumItalic';}
	.st22{font-size:6.6926px;}
	.st23{font-size:5.7365px;}
	.st24{clip-path:url(#XMLID_169_);fill:#FFFFFF;}
	.st25{fill:#4D4D4D;}
	.st26{fill:#A57467;}
	.st27{fill:#474747;}
	.st28{fill:#C1962B;}
	.st29{fill:#73A1F2;}
	.st30{fill:#5B5C5C;}
</style>
<g id="Calque_2">
	<path id="XMLID_85_" class="st0" d="M570,405.4c0,19.3-30.4,52.4-67.9,74.1c-37.5,21.7-67.9,23.6-67.9,4.3s30.4-52.4,67.9-74.1
		C539.6,388.1,570,386.1,570,405.4z"/>
	<polygon id="XMLID_67_" class="st1" points="440.6,179.8 365.6,223.1 365.6,144.8 440.6,101.5 	"/>
	<g id="XMLID_66_">
		<path id="XMLID_58_" class="st2" d="M487.4,179.2l-82.6,47.7c-5.7,3.3-10.3-0.2-10.3-7.8V165c0-7.6,4.6-16.3,10.3-19.6l82.6-47.7
			c5.7-3.3,10.3,0.2,10.3,7.8v54.1C497.6,167.2,493.1,175.9,487.4,179.2z"/>
		<polygon id="XMLID_61_" class="st3" points="486.7,114.5 431.8,146.1 431.8,142.1 486.7,110.5 		"/>
		<polygon id="XMLID_64_" class="st3" points="453.2,149.1 431.8,161.5 431.8,154.8 453.2,142.5 		"/>
		<polygon id="XMLID_65_" class="st3" points="476.3,143.1 431.8,168.8 431.8,170.6 476.3,144.9 		"/>
	</g>
	<path id="XMLID_104_" class="st4" d="M152.3,261.1c-5.3-3.1-12.7-2.6-20.8,2.1c-8.1,4.7-15.5,12.7-20.8,22
		c-5.3,9.2-8.6,19.6-8.6,29c0,18.8,13.2,26.4,29.4,17c8.1-4.7,15.5-12.7,20.8-22c5.3-9.2,8.6-19.6,8.6-29
		C160.9,270.7,157.6,264.1,152.3,261.1z M154.2,277.3l-23,36c-1,1.5-2.2,2.7-3.4,3.4c-1.4,0.8-2.8,1-3.9,0.3l-10.9-7.5
		c-1.9-1.3-1.8-5.2,0.3-8.7c2.1-3.5,5.4-5.2,7.4-3.9l7.5,5.2l19.2-30c2.2-3.4,5.5-5,7.4-3.6C156.6,269.9,156.4,273.9,154.2,277.3z"
		/>
	<polygon id="XMLID_57_" class="st5" points="121.7,137.1 29.9,190.1 29.9,121.4 121.7,68.4 	"/>
	<g id="XMLID_53_">
		
			<linearGradient id="XMLID_168_" gradientUnits="userSpaceOnUse" x1="-57.9247" y1="-30.3969" x2="-57.9247" y2="-128.5459" gradientTransform="matrix(0.866 -0.5 -0.5 1.4434 166.6554 214.9765)">
			<stop  offset="0" style="stop-color:#FCBBA9"/>
			<stop  offset="1" style="stop-color:#FFD2B3"/>
		</linearGradient>
		<path id="XMLID_38_" class="st6" d="M243.4,135.6L69,236.2c-6.5,3.8-11.8-0.2-11.8-8.9v-81.8c0-8.7,5.3-18.8,11.8-22.6L243.4,22.2
			c6.5-3.8,11.8,0.2,11.8,8.9V113C255.2,121.7,249.9,131.8,243.4,135.6z"/>
		<path id="XMLID_41_" class="st7" d="M68,177.8c0-17.1,12-37.9,26.8-46.5c14.8-8.6,26.8-1.6,26.8,15.5s-12,37.9-26.8,46.5
			S68,194.9,68,177.8z"/>
		<polygon id="XMLID_50_" class="st7" points="203.6,79.8 131.5,121.4 131.5,117.2 203.6,75.6 		"/>
		<polygon id="XMLID_51_" class="st7" points="244.3,75.1 131.5,140.2 131.5,134.4 244.3,69.3 		"/>
		<polygon id="XMLID_52_" class="st7" points="194.3,125.4 131.5,161.7 131.5,152.4 194.3,116.2 		"/>
	</g>
	<g id="XMLID_75_">
		<path id="XMLID_212_" class="st8" d="M373.5,58.9c-0.3-2.1-0.7-4.1-1.3-5.9c2.5-0.1,4.9-0.4,6.9-0.8c-0.6-2.1-8.5-6.6-13.6-9.4
			c-5.2-3.9-12.3-4-20.2,0.5l-121,70c-15.8,9.1-28.5,33.7-28.5,54.8v295.4c0,6.7,2,12.3,3,16.4v0c0,0,3.4,8,17.9,13.7
			c1.5-1.7,2.5-3.9,2.8-6.2c1.6-0.6,3.2-1.3,4.9-2.2l121-70c15.8-9.1,28.5-33.7,28.5-54.8V65.1c0-1,0-2-0.1-2.9
			c1.5-0.6,2.4-0.9,2.4-0.9L373.5,58.9z M361.9,86.3v264.5c0,21.3-12.8,46.3-28.8,55.5l-98.3,56.9c-7.5,4.3-14.3,4.4-19.4,1.1
			l-2.4-10.8l2.1-301.7l-0.4-1.1l2.3,0.4l61-39.2c0,0,5.5-3.4,13.1-8.1l20.2-11.7c1.1-0.6,2.1-1.6,3-2.7c10.4-6.4,19-11.7,19.2-11.8
			c0.3-0.2,12.7-5,24.1-9.4C360.5,72.6,361.9,78.7,361.9,86.3z"/>
		<path id="XMLID_87_" class="st9" d="M344.7,412.2l-99,57.1c-15.8,9.1-28.7-0.6-28.7-21.7V182.8c0-21.1,12.8-45.7,28.7-54.8
			l99-57.1c15.8-9.1,28.7,0.6,28.7,21.7v264.8C373.3,378.5,360.5,403,344.7,412.2z"/>
		<polygon id="XMLID_207_" class="st9" points="226.1,134 364.5,54.1 378.9,71.3 378.9,372.8 361.7,408.4 233.4,482.7 212.9,473.3 
			212.9,168.7 		"/>
		<g id="XMLID_200_">
			<defs>
				<path id="XMLID_126_" d="M344.7,412.2l-99,57.1c-15.8,9.1-28.7-0.6-28.7-21.7V182.8c0-21.1,12.8-45.7,28.7-54.8l99-57.1
					c15.8-9.1,28.7,0.6,28.7,21.7v264.8C373.3,378.5,360.5,403,344.7,412.2z"/>
			</defs>
			<clipPath id="XMLID_169_">
				<use xlink:href="#XMLID_126_"  style="overflow:visible;"/>
			</clipPath>
			<polygon id="XMLID_88_" class="st10" points="399.8,107.3 196.1,224.9 196.1,143.3 399.8,25.8 			"/>
			<g id="XMLID_90_" class="st11">
				<path id="XMLID_211_" class="st9" d="M279.4,153.8l-1.4,11.8l-2.3,1.3l0.8-6.7l-2.4,7.6l-2,1.1l-0.7-5.8l-0.8,6.7l-2.3,1.3
					l1.4-11.8l2.8-1.6l1.1,6.5l2.9-8.8L279.4,153.8z"/>
				<path id="XMLID_205_" class="st9" d="M282.2,154.4l0.8,4.5l2-6l2.5-1.5l-5.9,16.3l-2.5,1.5l2.2-5.8l-1.6-7.4L282.2,154.4z"/>
				<path id="XMLID_197_" class="st12" d="M289.6,155.2l-0.5,4l-2.3,1.3l1.5-11.9l3.4-2c0.9-0.5,1.5-0.6,2-0.4
					c0.4,0.3,0.7,0.8,0.7,1.7c0,0.2,0,0.5-0.1,0.8c-0.1,0.8-0.3,1.5-0.6,2.2c-0.3,0.7-0.7,1.4-1.2,2c-0.5,0.6-1.1,1.1-1.7,1.5
					L289.6,155.2z M291.6,151.3c0.2-0.3,0.3-0.7,0.4-1.1c0-0.2,0-0.3,0-0.3c0-0.6-0.3-0.7-0.9-0.4l-0.9,0.5l-0.3,2.6l0.9-0.5
					C291.2,151.9,291.4,151.6,291.6,151.3z"/>
				<path id="XMLID_189_" class="st12" d="M300.2,144.4c0.4,0,0.8,0.3,1,0.7c0.2,0.4,0.4,1,0.4,1.8c0,0.3,0,0.7-0.1,1.1
					c-0.1,0.9-0.4,1.8-0.7,2.7c-0.4,0.9-0.8,1.6-1.4,2.3c-0.6,0.7-1.2,1.2-1.8,1.5c-0.6,0.3-1.1,0.5-1.6,0.5c-0.5,0-0.8-0.3-1.1-0.7
					c-0.3-0.4-0.4-1-0.4-1.8c0-0.3,0-0.7,0.1-1.1c0.1-0.9,0.4-1.8,0.7-2.7c0.4-0.9,0.8-1.6,1.4-2.3c0.6-0.7,1.2-1.2,1.8-1.6
					C299.2,144.5,299.7,144.3,300.2,144.4z M297.5,148.6c-0.2,0.5-0.4,1-0.5,1.6c0,0.2,0,0.4,0,0.5c0,0.4,0.1,0.7,0.3,0.9
					c0.2,0.1,0.4,0.1,0.6,0c0.3-0.2,0.6-0.5,0.8-1c0.2-0.5,0.4-1,0.5-1.7c0-0.2,0-0.4,0-0.5c0-0.4-0.1-0.7-0.3-0.8
					c-0.2-0.1-0.4-0.1-0.6,0C298,147.8,297.7,148.1,297.5,148.6z"/>
				<path id="XMLID_132_" class="st12" d="M307.4,140.6c0.5,0.3,0.8,0.9,0.9,1.7l-2.3,1.3c0-0.3-0.1-0.5-0.3-0.5
					c-0.2-0.1-0.4,0-0.7,0.2c-0.2,0.1-0.4,0.3-0.5,0.4c-0.1,0.2-0.2,0.3-0.2,0.5c0,0.2,0.1,0.3,0.3,0.3c0.2,0,0.5,0,0.9-0.1
					c0.5-0.1,0.9-0.2,1.2-0.2c0.3,0,0.6,0.1,0.8,0.3c0.2,0.2,0.4,0.6,0.4,1.1c0,0.2,0,0.4,0,0.6c-0.1,0.7-0.4,1.5-0.9,2.2
					c-0.5,0.7-1.2,1.3-2,1.8c-0.9,0.5-1.6,0.7-2.2,0.5c-0.6-0.2-0.9-0.8-0.9-1.8l2.3-1.3c0,0.3,0.1,0.5,0.3,0.6
					c0.2,0.1,0.4,0,0.8-0.2c0.4-0.2,0.6-0.5,0.6-0.9c0-0.2,0-0.4-0.2-0.4c-0.2,0-0.5,0-0.9,0.1c-0.5,0.1-0.9,0.2-1.2,0.2
					c-0.3,0-0.6-0.1-0.8-0.3c-0.2-0.2-0.3-0.6-0.3-1.1c0-0.1,0-0.3,0-0.6c0.1-0.7,0.4-1.4,0.9-2.2c0.5-0.7,1.2-1.3,2-1.8
					C306.2,140.5,306.9,140.3,307.4,140.6z"/>
				<path id="XMLID_108_" class="st12" d="M314,136.8c0.5,0.3,0.8,0.9,0.9,1.7l-2.3,1.3c0-0.3-0.1-0.5-0.3-0.5
					c-0.2-0.1-0.4,0-0.7,0.2c-0.2,0.1-0.4,0.3-0.5,0.4c-0.1,0.2-0.2,0.3-0.2,0.5c0,0.2,0.1,0.3,0.3,0.3c0.2,0,0.5,0,0.9-0.1
					c0.5-0.1,0.9-0.2,1.2-0.2c0.3,0,0.6,0.1,0.8,0.3c0.2,0.2,0.4,0.6,0.4,1.1c0,0.2,0,0.4,0,0.6c-0.1,0.7-0.4,1.5-0.9,2.2
					c-0.5,0.7-1.2,1.3-2,1.8c-0.9,0.5-1.6,0.7-2.2,0.5c-0.6-0.2-0.9-0.8-0.9-1.8l2.3-1.3c0,0.3,0.1,0.5,0.3,0.6
					c0.2,0.1,0.4,0,0.8-0.2c0.4-0.2,0.6-0.5,0.6-0.9c0-0.2,0-0.4-0.2-0.4c-0.2,0-0.5,0-0.9,0.1c-0.5,0.1-0.9,0.2-1.2,0.2
					c-0.3,0-0.6-0.1-0.8-0.3c-0.2-0.2-0.3-0.6-0.3-1.1c0-0.1,0-0.3,0-0.6c0.1-0.7,0.4-1.4,0.9-2.2c0.5-0.7,1.2-1.3,2-1.8
					C312.8,136.6,313.5,136.5,314,136.8z"/>
				<path id="XMLID_91_" class="st12" d="M319.9,133c0.3,0.1,0.5,0.3,0.6,0.7l0.2-1.5l2.3-1.3l-1.2,9.4l-2.3,1.3l0.2-1.5
					c-0.2,0.6-0.5,1.1-0.9,1.6c-0.4,0.5-0.8,0.9-1.3,1.1c-0.7,0.4-1.3,0.4-1.7,0c-0.4-0.4-0.6-1.1-0.6-2.2c0-0.4,0-0.8,0.1-1.4
					c0.1-0.9,0.3-1.8,0.7-2.6c0.3-0.8,0.7-1.5,1.2-2.1c0.5-0.6,0.9-1,1.4-1.3C319.1,133,319.5,132.9,319.9,133z M318.2,136.7
					c-0.3,0.5-0.4,1-0.5,1.6c0,0.2,0,0.3,0,0.5c0,0.4,0.1,0.7,0.3,0.9c0.2,0.1,0.4,0.1,0.7-0.1c0.3-0.2,0.6-0.5,0.9-1
					c0.3-0.5,0.4-1,0.5-1.6c0-0.2,0-0.3,0-0.5c0-0.4-0.1-0.7-0.3-0.8c-0.2-0.1-0.4-0.1-0.7,0.1C318.8,135.9,318.5,136.2,318.2,136.7
					z"/>
			</g>
			<g id="XMLID_89_" class="st11">
				<text transform="matrix(0.75 -0.433 0 1 273.8933 225.5047)" class="st13 st14 st15">Solde </text>
			</g>
			<g id="XMLID_92_" class="st11">
				<text transform="matrix(0.75 -0.433 0 1 255.6086 264.9792)" class="st16 st17">17.500 Fcfa</text>
			</g>
			<g id="XMLID_93_" class="st11">
				<text transform="matrix(0.75 -0.433 0 1 339.0481 358.0671)" class="st13 st18 st19" style="text-decoration: underline;">Retour</text>
			</g>
			<polygon id="XMLID_94_" class="st20" points="395,388.6 206.4,497.5 206.4,443.5 395,334.6 			"/>
			<g id="XMLID_95_" class="st11">
				<text transform="matrix(0.75 -0.433 0 1 252.7399 432.9929)" class="st9 st21 st22">Votre solution de paiement sécurisée </text>
			</g>
			<g id="XMLID_102_" class="st11">
				<text transform="matrix(0.75 -0.433 0 1 265.5493 440.8943)" class="st9 st18 st23">MyPossa. All rights reserved</text>
			</g>
			<polygon id="XMLID_109_" class="st24" points="353.6,381.4 239.7,447.2 239.7,446.7 353.6,381 			"/>
			<g id="XMLID_110_" class="st11">
				<path id="XMLID_187_" class="st9" d="M262,444.4c-1.2,0.7-2.2,0-2.2-1.6c0-1.6,1-3.5,2.2-4.1s2.2,0,2.2,1.6
					C264.1,441.9,263.2,443.7,262,444.4z M262,439c-1,0.6-1.9,2.2-1.9,3.6c0,1.4,0.8,2,1.9,1.4s1.9-2.2,1.9-3.6
					C263.8,439.1,263,438.4,262,439z"/>
				<g id="XMLID_125_">
					<path id="XMLID_133_" class="st9" d="M261.9,442.6c0.1-0.1,0.2-0.2,0.3-0.4c0.1-0.2,0.1-0.3,0.1-0.5l0.4-0.2l0,0
						c0,0.3-0.1,0.5-0.3,0.8c-0.2,0.3-0.4,0.5-0.6,0.7c-0.3,0.2-0.6,0.2-0.7,0c-0.2-0.2-0.3-0.5-0.3-0.9V442c0-0.4,0.1-0.8,0.3-1.2
						c0.2-0.4,0.4-0.7,0.7-0.9c0.3-0.1,0.5-0.2,0.6,0c0.2,0.1,0.2,0.3,0.2,0.6l0,0l-0.4,0.2c0-0.2,0-0.3-0.1-0.4
						c-0.1-0.1-0.2-0.1-0.3,0c-0.2,0.1-0.4,0.3-0.4,0.6c-0.1,0.3-0.1,0.5-0.1,0.8v0.1c0,0.3,0,0.5,0.1,0.7S261.7,442.7,261.9,442.6z
						"/>
				</g>
			</g>
		</g>
		<path id="XMLID_138_" class="st25" d="M384.9,71.8c0-21.1-12.8-30.8-28.7-21.7l-120.9,70c-15.8,9.1-28.4,33.7-28.4,54.8v295.4
			c0,21.1,12.6,30.8,28.4,21.7l121-70c15.8-9.1,28.5-33.7,28.5-54.8V71.8z M373.2,357.4c0,21.3-13.1,46.3-29,55.5l-98.5,56.9
			c-15.8,9.1-28.8-0.7-28.8-21.8V183.5c0-21.2,12.9-45.9,28.8-55l12.1-7c2-1.1,3.6,0.1,3.6,2.7v0.3c0,5.3,3.1,7.5,7,5.2L322,98.8
			c4-2.3,6.8-7.9,6.8-13.2v-0.3c0-2.6,1.6-5.7,3.6-6.9l12.3-7.1c15.8-9.1,28.6,0.6,28.6,21.6V357.4z"/>
	</g>
	<g id="XMLID_68_">
		<path id="XMLID_84_" class="st26" d="M462.2,270.9c0-9.3-6.8-16.9-15.1-16.9s-15.3,7.6-15.3,16.9c0,7.7,5,14.2,10.8,16.3v11.9
			h14.1v-15.2C460.1,280.8,462.2,276.1,462.2,270.9z"/>
		<path id="XMLID_105_" class="st27" d="M438.3,469c0,0-11.7,0.6-17.4,6.7c-0.5,1-0.3,1.5,2.8,2.9s23.6,6,24.5,6.2
			c0.9,0.2,2,0.9,1.5-5.2s-0.5-6.1-0.5-6.1L438.3,469z"/>
		<path id="XMLID_116_" class="st27" d="M457.3,455.5c0,0-11.3,0.6-16.7,6.4c-0.5,0.9-0.3,1.5,2.7,2.8c3,1.3,22.7,5.8,23.6,6
			c0.9,0.2,2,0.9,1.5-5c-0.5-5.9-0.5-5.9-0.5-5.9L457.3,455.5z"/>
		<polygon id="XMLID_111_" class="st28" points="450.3,353.2 453.9,459.8 468,463.4 474.1,338.4 		"/>
		<path id="XMLID_74_" class="st12" d="M440.7,353.9v7.8l-9.1,5.6l3.6,106.7l14.1,3.5l5-102.6c4.5-1.6,15.3-6.6,17.6-18.4
			c2.9-15,3-19.3,3-19.3L440.7,353.9z"/>
		<path id="XMLID_146_" class="st26" d="M419.9,341.8c-3.2,3.5-6.8,7.2-9.1,9.1c-5,4.3-9.9-1.2-11.1-2.4c-1.3-1.2-15.9-12.8-22-18.9
			c-6.1-6.1-7.1-7.4-7.6-8.4c-0.5-1-3.9-2.8-4.3-3.5c-0.4-0.7,0.3-3.6,1-4.9c-1.3-1-2.5-2.4-1.9-2.7c0.5-0.3,3.3,1.9,3.3,1.9
			s2.3,0,5.9,2.1c3.5,2.1,31.3,22.3,31.3,22.3s3.7-5,6.9-9.5C412.1,327.2,412.6,337.3,419.9,341.8z"/>
		<path id="XMLID_162_" class="st29" d="M476.7,296.5V329c0,0.3-0.1,0.6-0.1,0.9c-0.1,2.9-0.4,12-0.4,15.8
			c-0.1,4.5-10.1,18.3-30.9,22.6c-6.4,1.1-12,1.2-14.9-2c0,0-0.1-0.1-0.1-0.1c0,0,0-0.1,0-0.1h-0.1c-1.8-1.3-3-4.7-3-8.7v-23.7
			l0,0.3c0,0-1.1,1.2-2.7,3c0,0,0,0,0,0c0,0,0,0,0,0c0,0-0.1,0.1-0.2,0.2c0,0.1-0.1,0.1-0.1,0.2c-0.1,0.1-0.3,0.3-0.5,0.5
			c-1,1.1-2.1,2.3-3.3,3.5c-0.1,0.1-0.3,0.3-0.4,0.4h0c-7.3-4.5-7.8-14.6-7.8-14.6l0.3-0.4c0.7-1,1.3-1.9,1.9-2.7l0.1-0.1
			c0.4-0.7,0.8-1.3,1.2-1.8c1.6-2.7,12.2-11.3,19.6-17.2c1.5-1.7,3.2-3.2,5-4.2l24-13.8C471,283,476.7,287.2,476.7,296.5z"/>
		<path id="XMLID_72_" class="st30" d="M440.7,270.8c0,0,1-1.5,2.8-0.6c1.8,0.9,0.2,5.2-1.8,5.7c-0.6-0.3-1-0.6-1-0.6
			s2.1,3.7,3.2,4.1c1,0.4,1.9,2.7,2.4,3.5c0.5,0.9,2.4,3.8,10.5,1.1c0.6-0.2,7.6-6.7,5-18.2c-1.3-5.7-7.1-10.9-12-11.7
			c-4.9-0.8-10.7,0.8-13.8,4.8c-0.5,0.5-0.5,2.1,0.3,2.3c0.8,0.2,1.6,0.4,2.2,0.6c0.4,0.2,1.1,1,0.8,2.5c-0.4,1.5-1.5,3.7-1,4.5
			c0.5,0.8,0.6,1.6,0.3,3.1c-0.3,1.5-0.9,3-0.5,3.3c0.3,0.3,0.9,0.6,1.2,0.1C439.5,274.6,440.4,271.6,440.7,270.8z"/>
		<path id="XMLID_163_" class="st29" d="M424.4,336.9C424.4,336.9,424.4,336.9,424.4,336.9C424.4,336.9,424.4,336.9,424.4,336.9
			c-0.1,0.1-0.1,0.1-0.3,0.3c0,0-0.1,0.1-0.1,0.2c-0.1,0.1-0.3,0.3-0.5,0.5c-0.6,0.6-1.6,1.9-3.3,3.7c-0.1,0.1-0.3,0-0.4,0.6h0
			c-7.3-4.5-7.8-14.8-7.8-14.8l0.3-0.5l1.9-2.7l0.1-0.1L424.4,336.9z"/>
	</g>
</g>
<g id="Calque_3">
</g>
</svg>
