<?xml version="1.0" encoding="utf-8"?>
<!-- Generator: Adobe Illustrator 19.0.0, SVG Export Plug-In . SVG Version: 6.00 Build 0)  -->
<svg version="1.1" xmlns="http://www.w3.org/2000/svg" xmlns:xlink="http://www.w3.org/1999/xlink" x="0px" y="0px"
	 viewBox="0 0 571.5 560" style="enable-background:new 0 0 571.5 560;" xml:space="preserve">
<style type="text/css">
	.st0{display:none;}
	.st1{display:inline;fill:#FFFFFF;}
	.st2{fill:#D3D3D3;}
	.st3{fill:#BABABA;}
	.st4{fill:#E6E6E6;}
	.st5{fill:#D0E6F4;}
	.st6{fill:#A0D1F9;}
	.st7{fill:#D7EFFF;}
	.st8{fill:#62EFAC;}
	.st9{fill:#FFE2CF;}
	.st10{fill:url(#XMLID_5_);}
	.st11{fill:#FFD6BB;}
	.st12{fill:#0A0A0A;}
	.st13{fill:#202123;}
	.st14{fill:#09090A;}
	.st15{clip-path:url(#XMLID_9_);}
	.st16{fill:#FFFFFF;}
	.st17{fill:#0071BC;}
	.st18{fill:#FFCC33;}
	.st19{fill:#A57467;}
	.st20{fill:#474747;}
	.st21{fill:#C9801F;}
	.st22{fill:#F79B2D;}
	.st23{fill:#5D2AFF;}
	.st24{opacity:0.75;}
	.st25{fill:#4BA36F;}
	.st26{fill:#69B788;}
	.st27{fill:#88EAAF;}
	.st28{fill:#469164;}
	.st29{fill:#469B69;}
	.st30{fill:#B4D1CA;}
	.st31{fill:#D7F9F2;}
	.st32{fill:#B1C9C3;}
	.st33{fill:#EDC7A2;}
	.st34{fill:#A8DFE2;}
</style>
<g id="Calque_1" class="st0">
	<rect id="XMLID_1_" x="-157.6" class="st1" width="960" height="560"/>
</g>
<g id="Calque_2">
	
		<rect id="XMLID_15_" x="-70.6" y="50" transform="matrix(0.866 0.5 -0.5 0.866 80.3483 -197.864)" class="st0" width="960" height="2"/>
	<path id="XMLID_8_" class="st2" d="M220.6,428.2c0,0-49.6,38.8-51.4,86.2c-1.8,47.3,54.9,58,135.5,28s186.2-100.9,182.4-159.8
		S341.8,327.3,220.6,428.2z"/>
	<path id="XMLID_30_" class="st3" d="M436.4,411.3c0,0-30.7,77-142.7,121.7c-34.7,13.3-102.6,32.3-78.3-40.5s117.6-91.3,149-99.4
		C395.7,385,442.4,391.6,436.4,411.3z"/>
	<path id="XMLID_85_" class="st4" d="M571.5,463.5c0,19.3-30.4,52.4-67.9,74.1c-37.5,21.7-67.9,23.6-67.9,4.3s30.4-52.4,67.9-74.1
		C541.1,446.2,571.5,444.2,571.5,463.5z"/>
	<polygon id="XMLID_67_" class="st5" points="446.9,215.2 371.9,258.5 371.9,180.2 446.9,136.8 	"/>
	<g id="XMLID_66_">
		<path id="XMLID_58_" class="st6" d="M493.7,214.5L411,262.3c-5.7,3.3-10.3-0.2-10.3-7.8v-54.1c0-7.6,4.6-16.3,10.3-19.6l82.6-47.7
			c5.7-3.3,10.3,0.2,10.3,7.8v54.1C503.9,202.5,499.3,211.3,493.7,214.5z"/>
		<polygon id="XMLID_61_" class="st7" points="492.9,149.8 438.1,181.5 438.1,177.5 492.9,145.8 		"/>
		<polygon id="XMLID_64_" class="st7" points="459.5,184.5 438.1,196.8 438.1,190.1 459.5,177.8 		"/>
		<polygon id="XMLID_65_" class="st7" points="482.5,178.5 438.1,204.1 438.1,205.9 482.5,180.2 		"/>
	</g>
	<path id="XMLID_104_" class="st8" d="M232,230.2c-5.3-3.1-12.7-2.6-20.8,2.1c-8.1,4.7-15.5,12.7-20.8,22c-5.3,9.2-8.6,19.6-8.6,29
		c0,18.8,13.2,26.4,29.4,17c8.1-4.7,15.5-12.7,20.8-22c5.3-9.2,8.6-19.6,8.6-29C240.6,239.8,237.3,233.2,232,230.2z M233.9,246.4
		l-23,36c-1,1.5-2.2,2.7-3.4,3.4c-1.4,0.8-2.8,1-3.9,0.3l-10.9-7.5c-1.9-1.3-1.8-5.2,0.3-8.7c2.1-3.5,5.4-5.2,7.4-3.9l7.5,5.2
		l19.2-30c2.2-3.4,5.5-5,7.4-3.6C236.4,239,236.1,243,233.9,246.4z"/>
	<polygon id="XMLID_57_" class="st9" points="109.2,153.2 17.4,206.2 17.4,137.5 109.2,84.5 	"/>
	<g id="XMLID_53_">
		
			<linearGradient id="XMLID_5_" gradientUnits="userSpaceOnUse" x1="-97.632" y1="-15.6685" x2="-97.632" y2="-113.8174" gradientTransform="matrix(0.866 -0.5 -0.5 1.4434 195.9071 189.9657)">
			<stop  offset="0" style="stop-color:#FCBBA9"/>
			<stop  offset="1" style="stop-color:#FFD2B3"/>
		</linearGradient>
		<path id="XMLID_38_" class="st10" d="M230.9,151.7L56.5,252.3c-6.5,3.8-11.8-0.2-11.8-8.9v-81.8c0-8.7,5.3-18.8,11.8-22.6
			L230.9,38.3c6.5-3.8,11.8,0.2,11.8,8.9v81.8C242.7,137.8,237.4,147.9,230.9,151.7z"/>
		<path id="XMLID_41_" class="st11" d="M55.5,193.9c0-17.1,12-37.9,26.8-46.5c14.8-8.6,26.8-1.6,26.8,15.5s-12,37.9-26.8,46.5
			S55.5,211,55.5,193.9z"/>
		<polygon id="XMLID_50_" class="st11" points="191.1,95.9 119,137.5 119,133.3 191.1,91.7 		"/>
		<polygon id="XMLID_51_" class="st11" points="231.8,91.2 119,156.3 119,150.5 231.8,85.4 		"/>
		<polygon id="XMLID_52_" class="st11" points="181.8,141.5 119,177.8 119,168.5 181.8,132.3 		"/>
	</g>
	<g id="XMLID_2_">
		<path id="XMLID_4_" class="st12" d="M399.6,28.3l-10-5.6l0,0c-0.6-0.5-1.5-0.5-2.5,0l-145.9,84.2c-1.9,1.1-3.7,4.1-3.7,6.7v410.5
			c0,1.5,0.7,2.5,1.5,2.9l0.1,0l10.3,5.8l7.8-7.4l-0.9-7.3l130.8-75.5c1.9-1.1,3.5-4.1,3.5-6.7v-399l6.9-0.4L399.6,28.3z"/>
		<g id="XMLID_226_">
			<path id="XMLID_75_" class="st13" d="M397.2,448.4l-145.8,84.2c-1.9,1.1-3.5-0.1-3.5-2.7V119.4c0-2.6,1.6-5.6,3.5-6.7l145.8-84.2
				c1.9-1.1,3.5,0.1,3.5,2.7v410.5C400.7,444.2,399.1,447.2,397.2,448.4z"/>
			<path id="XMLID_80_" class="st14" d="M314.1,469c0-7.3,4.4-15.7,9.9-18.8c5.4-3.1,9.9,0.2,9.9,7.5c0,7.3-4.4,15.7-9.9,18.8
				C318.5,479.6,314.1,476.3,314.1,469z"/>
			<g id="XMLID_221_">
				<defs>
					<polygon id="XMLID_76_" points="390.9,401.3 257.8,478.1 257.8,123.2 390.9,46.4 					"/>
				</defs>
				<clipPath id="XMLID_9_">
					<use xlink:href="#XMLID_76_"  style="overflow:visible;"/>
				</clipPath>
				<g id="XMLID_87_" class="st15">
					<polygon id="XMLID_89_" class="st16" points="390.9,404 257.1,481.3 257.1,124.1 390.9,46.8 					"/>
					<g id="XMLID_81_">
						<polygon id="XMLID_90_" points="271.4,127.7 263.4,131.8 263.4,129.9 271.4,125.8 						"/>
						<polygon id="XMLID_503_" points="271.4,129.6 263.4,133.6 263.4,132.7 271.4,128.6 						"/>
						<polygon id="XMLID_227_" points="271.4,131.5 263.4,135.5 263.4,134.6 271.4,130.5 						"/>
						<polygon id="XMLID_504_" points="271.4,133.3 263.4,137.4 263.4,136.5 271.4,132.4 						"/>
					</g>
					<g id="XMLID_133_">
						
							
						<g id="XMLID_502_">
							<path id="XMLID_525_" class="st16" d="M316.5,223.2l-49.7,28.7c-1.1,0.6-1.9,0-1.9-1.5v-51.3c0-1.4,0.9-3.1,1.9-3.7
								l49.7-28.7c1.1-0.6,1.9,0,1.9,1.5v51.3C318.4,220.9,317.5,222.6,316.5,223.2z"/>
						</g>
					</g>
					<g id="XMLID_484_">
						
							
						<g id="XMLID_500_">
							<path id="XMLID_522_" class="st16" d="M380.8,185.9l-49.7,28.7c-1.1,0.6-1.9,0-1.9-1.5v-51.3c0-1.4,0.9-3.1,1.9-3.7
								l49.7-28.7c1.1-0.6,1.9,0,1.9,1.5v51.3C382.7,183.7,381.9,185.3,380.8,185.9z"/>
						</g>
					</g>
					<g id="XMLID_489_">
						
							
						<g id="XMLID_499_">
							<path id="XMLID_519_" class="st16" d="M381.2,255l-49.7,28.7c-1.1,0.6-1.9,0-1.9-1.5V231c0-1.4,0.9-3.1,1.9-3.7l49.7-28.7
								c1.1-0.6,1.9,0,1.9,1.5v51.3C383.1,252.8,382.2,254.4,381.2,255z"/>
						</g>
					</g>
					<g id="XMLID_496_">
						
							
						<g id="XMLID_501_">
							<path id="XMLID_521_" class="st16" d="M316.5,292.4l-49.7,28.7c-1.1,0.6-1.9,0-1.9-1.5v-51.3c0-1.4,0.9-3.1,1.9-3.7
								l49.7-28.7c1.1-0.6,1.9,0,1.9,1.5v51.3C318.4,290.1,317.5,291.8,316.5,292.4z"/>
						</g>
					</g>
					<g id="XMLID_88_">
						<path id="XMLID_189_" d="M288.7,119.8c0-1-0.1-2.1-0.1-3l0,0c-0.2,0.9-0.4,2-0.7,3.1l-0.9,4l-0.5,0.3l-0.9-2.9
							c-0.3-0.9-0.5-1.7-0.6-2.4l0,0c0,0.9-0.1,2.1-0.1,3.2l-0.1,3.1l-0.7,0.4l0.4-7.3l0.9-0.5l0.9,2.9c0.2,0.7,0.4,1.4,0.5,2.1l0,0
							c0.1-0.8,0.3-1.7,0.6-2.7l0.9-4l0.9-0.5l0.3,6.9l-0.7,0.4L288.7,119.8z"/>
						<path id="XMLID_223_" d="M290.8,116.6l0.8,2.5c0.1,0.3,0.2,0.6,0.2,0.9l0,0c0.1-0.3,0.1-0.8,0.2-1.2l0.8-3.4l0.7-0.4l-1,4.2
							c-0.5,2-0.8,3.1-1.3,4c-0.3,0.6-0.7,1-0.9,1.1l-0.2-0.7c0.2-0.2,0.4-0.5,0.6-0.8c0.2-0.3,0.4-0.8,0.6-1.4
							c0-0.1,0.1-0.2,0.1-0.3c0-0.1,0-0.1,0-0.2l-1.4-3.9L290.8,116.6z"/>
						<path id="XMLID_225_" d="M294.3,112.6c0.3-0.3,0.8-0.6,1.3-0.9c0.7-0.4,1.2-0.5,1.5-0.3c0.3,0.2,0.5,0.6,0.5,1.2
							c0,0.6-0.1,1.2-0.4,1.8c-0.4,0.7-1,1.3-1.6,1.7c-0.2,0.1-0.4,0.2-0.6,0.3v2.9l-0.7,0.4V112.6z M295,115.6
							c0.1,0,0.3-0.1,0.6-0.3c0.8-0.5,1.3-1.3,1.3-2.3c0-0.9-0.5-1.1-1.3-0.7c-0.3,0.2-0.5,0.3-0.6,0.4V115.6z"/>
						<path id="XMLID_232_" d="M303.1,110.9c0,2.5-1.1,4.4-2.5,5.2c-1.4,0.8-2.4-0.1-2.4-2.2c0-2.3,1.1-4.3,2.5-5.2
							C302.2,107.9,303.1,108.8,303.1,110.9z M299,113.4c0,1.5,0.6,2.5,1.7,1.9c1.1-0.6,1.7-2.3,1.7-3.9c0-1.4-0.6-2.6-1.7-1.9
							C299.5,110.2,299,111.9,299,113.4z"/>
						<path id="XMLID_235_" d="M303.9,113c0.3,0.1,0.8,0,1.2-0.2c0.7-0.4,1.1-1.1,1.1-1.9c0-0.7-0.3-0.9-1-0.8
							c-0.9,0.1-1.4-0.2-1.4-1.2c0-1.1,0.7-2.3,1.7-2.9c0.5-0.3,0.9-0.4,1.2-0.3l-0.2,0.9c-0.2,0-0.5,0-1,0.2c-0.7,0.4-1,1.2-1,1.6
							c0,0.7,0.3,0.8,1.1,0.8c0.9-0.1,1.4,0.3,1.4,1.3c0,1.1-0.6,2.4-1.9,3.1c-0.5,0.3-1.1,0.4-1.4,0.3L303.9,113z"/>
						<path id="XMLID_237_" d="M307.8,110.7c0.3,0.1,0.8,0,1.2-0.2c0.7-0.4,1.1-1.1,1.1-1.9c0-0.7-0.3-0.9-1-0.8
							c-0.9,0.1-1.4-0.2-1.4-1.2c0-1.1,0.7-2.3,1.7-2.9c0.5-0.3,0.9-0.4,1.2-0.3l-0.2,0.9c-0.2,0-0.5,0-1,0.2c-0.7,0.4-1,1.2-1,1.6
							c0,0.7,0.3,0.8,1.1,0.8c0.9-0.1,1.4,0.3,1.4,1.3c0,1.1-0.6,2.4-1.9,3.1c-0.5,0.3-1.1,0.4-1.4,0.3L307.8,110.7z"/>
						<path id="XMLID_239_" d="M312.7,106.8l-0.6,2.6l-0.7,0.4l1.8-8.2l0.8-0.5l1.8,6.1l-0.7,0.4l-0.6-1.9L312.7,106.8z
							 M314.4,105.1l-0.5-1.7c-0.1-0.4-0.2-0.8-0.3-1.1l0,0c-0.1,0.5-0.2,1-0.3,1.4l-0.5,2.4L314.4,105.1z"/>
					</g>
					<g id="XMLID_109_">
						<path id="XMLID_102_" class="st17" d="M373.2,79.7l15.8-9.1c0.6-0.3,1-1.2,1-2V55c0-0.8-0.5-1.1-1-0.8l-15.8,9.1
							c-0.6,0.3-1,1.2-1,2v13.6C372.1,79.7,372.6,80,373.2,79.7z"/>
						<path id="XMLID_126_" class="st16" d="M380.5,70c-1,0.6-1.8,0-1.8-1.4c0-1.3,0.8-2.9,1.8-3.5c0.2-0.1,0.3-0.1,0.5-0.2l0,0
							l-0.2,1.1l2.5-2.4l-2-1l-0.1,0.9c-0.1,0-0.2,0-0.2,0c-0.2,0.1-0.3,0.1-0.5,0.2c-1.5,0.9-2.8,3.3-2.8,5.4c0,2.1,1.3,3,2.8,2.1
							c1.3-0.7,2.3-2.5,2.7-4.2l-0.9-0.3C382.2,68,381.5,69.4,380.5,70z"/>
					</g>
					<polygon id="XMLID_110_" class="st17" points="390.8,114.8 257.1,192 257.1,152.2 390.8,74.9 					"/>
					<g id="XMLID_125_">
						<path id="XMLID_242_" class="st18" d="M261.4,156v-1l2.8-1.6v0.8c-0.2,0.4-0.5,1-0.7,1.7s-0.4,1.4-0.5,2.1
							c-0.1,0.7-0.2,1.3-0.2,1.8l-0.8,0.5c0-0.8,0.1-1.7,0.4-2.6c0.2-0.9,0.5-1.9,0.9-2.7L261.4,156z"/>
						<path id="XMLID_244_" class="st18" d="M267.5,152.8l-0.8,0.6c0-0.2-0.1-0.3-0.2-0.4c-0.1-0.1-0.2,0-0.3,0
							c-0.2,0.1-0.3,0.3-0.4,0.6c-0.1,0.3-0.2,0.7-0.2,1.4c0.2-0.4,0.5-0.7,0.8-0.9c0.3-0.2,0.6-0.2,0.9,0c0.2,0.2,0.4,0.6,0.4,1.1
							c0,0.6-0.1,1.1-0.4,1.6c-0.3,0.5-0.6,0.9-1,1.1c-0.4,0.2-0.8,0.2-1.1-0.1c-0.3-0.3-0.4-0.9-0.4-1.9c0-1,0.1-1.9,0.4-2.5
							c0.3-0.6,0.7-1.1,1.1-1.3c0.3-0.2,0.6-0.2,0.8-0.1C267.3,152.1,267.5,152.4,267.5,152.8z M265.7,156.2c0,0.4,0.1,0.6,0.2,0.7
							c0.1,0.1,0.3,0.1,0.4,0c0.2-0.1,0.3-0.2,0.4-0.5c0.1-0.2,0.2-0.5,0.2-0.9c0-0.4-0.1-0.6-0.2-0.7c-0.1-0.1-0.2-0.1-0.4,0
							c-0.2,0.1-0.3,0.2-0.4,0.5C265.7,155.6,265.7,155.9,265.7,156.2z"/>
						<path id="XMLID_247_" class="st18" d="M268.1,155.3l0.8-0.6c0,0.2,0.1,0.4,0.2,0.5c0.1,0.1,0.2,0.1,0.4,0
							c0.2-0.1,0.3-0.3,0.4-0.5c0.1-0.3,0.2-0.6,0.2-0.9c0-0.3-0.1-0.6-0.2-0.7c-0.1-0.1-0.3-0.1-0.5,0c-0.2,0.1-0.4,0.4-0.6,0.8
							l-0.7,0.3l0.4-3.2l2.2-1.2v1l-1.5,0.9l-0.1,1c0.2-0.2,0.4-0.4,0.6-0.5c0.4-0.2,0.7-0.2,0.9,0c0.3,0.2,0.4,0.6,0.4,1.1
							c0,0.5-0.1,0.9-0.3,1.4c-0.3,0.7-0.7,1.1-1.2,1.4c-0.4,0.2-0.7,0.3-1,0.1S268.1,155.7,268.1,155.3z"/>
						<path id="XMLID_249_" class="st18" d="M272.1,151.4c-0.2,0-0.4-0.1-0.5-0.2c-0.1-0.2-0.1-0.4-0.1-0.6c0-0.4,0.1-0.8,0.3-1.2
							c0.2-0.4,0.5-0.7,0.9-1c0.4-0.2,0.7-0.3,0.9-0.1c0.2,0.1,0.3,0.4,0.3,0.9c0,0.3-0.1,0.5-0.2,0.8c-0.1,0.3-0.2,0.5-0.4,0.7
							c0.2,0,0.4,0.1,0.5,0.2c0.1,0.2,0.2,0.4,0.2,0.7c0,0.5-0.1,1-0.4,1.5s-0.6,0.8-1,1.1c-0.4,0.2-0.7,0.3-1,0.2
							c-0.3-0.1-0.5-0.5-0.5-1.1c0-0.3,0.1-0.6,0.2-0.9S271.8,151.7,272.1,151.4z M272.1,152.7c0,0.3,0.1,0.5,0.2,0.6
							c0.1,0.1,0.3,0.1,0.4,0c0.2-0.1,0.3-0.3,0.4-0.5c0.1-0.2,0.2-0.5,0.2-0.8c0-0.3-0.1-0.4-0.2-0.5c-0.1-0.1-0.3-0.1-0.4,0
							c-0.2,0.1-0.3,0.3-0.4,0.5C272.2,152.2,272.1,152.5,272.1,152.7z M272.2,150.2c0,0.2,0,0.4,0.1,0.4s0.2,0.1,0.4,0
							c0.2-0.1,0.3-0.2,0.4-0.4s0.1-0.4,0.1-0.6c0-0.2,0-0.3-0.1-0.4c-0.1-0.1-0.2-0.1-0.4,0c-0.2,0.1-0.3,0.2-0.4,0.4
							C272.3,149.8,272.2,150,272.2,150.2z"/>
						<path id="XMLID_253_" class="st18" d="M274.7,148.4v-1l2.8-1.6v0.8c-0.2,0.4-0.5,1-0.7,1.7c-0.2,0.7-0.4,1.4-0.5,2.1
							c-0.1,0.7-0.2,1.3-0.2,1.8l-0.8,0.5c0-0.8,0.1-1.7,0.4-2.6c0.2-0.9,0.5-1.9,0.9-2.7L274.7,148.4z"/>
						<path id="XMLID_255_" class="st18" d="M278,149.7l0.8-0.6c0,0.2,0.1,0.3,0.2,0.4c0.1,0.1,0.2,0,0.3,0c0.2-0.1,0.3-0.3,0.4-0.6
							c0.1-0.3,0.2-0.7,0.2-1.4c-0.2,0.4-0.5,0.7-0.8,0.9c-0.3,0.2-0.6,0.2-0.9,0c-0.2-0.2-0.4-0.6-0.4-1.1c0-0.6,0.1-1.1,0.4-1.6
							c0.3-0.5,0.6-0.9,1-1.1c0.4-0.2,0.8-0.2,1.1,0.1c0.3,0.3,0.4,0.9,0.4,2c0,1-0.1,1.9-0.4,2.5c-0.3,0.6-0.7,1.1-1.1,1.3
							c-0.3,0.2-0.6,0.2-0.8,0.1C278.2,150.4,278,150.1,278,149.7z M279.8,146.3c0-0.4-0.1-0.6-0.2-0.7c-0.1-0.1-0.3-0.1-0.4,0
							c-0.2,0.1-0.3,0.2-0.4,0.5c-0.1,0.2-0.1,0.5-0.1,0.9c0,0.4,0.1,0.6,0.2,0.7s0.2,0.1,0.4,0c0.2-0.1,0.3-0.2,0.4-0.5
							C279.8,146.9,279.8,146.6,279.8,146.3z"/>
						<path id="XMLID_258_" class="st18" d="M282.6,142.6c0.4-0.2,0.7-0.2,1,0c0.3,0.3,0.4,1,0.4,2.1c0,1.1-0.1,1.9-0.4,2.6
							c-0.2,0.5-0.6,0.9-1,1.1c-0.4,0.2-0.7,0.2-1-0.1s-0.4-1-0.4-2.1c0-1.1,0.1-1.9,0.4-2.5C281.9,143.3,282.2,142.9,282.6,142.6z
							 M282.6,143.5c-0.1,0.1-0.2,0.2-0.3,0.3c-0.1,0.1-0.1,0.3-0.2,0.6c-0.1,0.3-0.1,0.8-0.1,1.5c0,0.7,0,1.1,0.1,1.3
							c0.1,0.2,0.1,0.3,0.2,0.4s0.2,0,0.3,0s0.2-0.1,0.3-0.3c0.1-0.1,0.1-0.3,0.2-0.6c0.1-0.3,0.1-0.8,0.1-1.5s0-1.1-0.1-1.3
							c-0.1-0.2-0.1-0.3-0.2-0.4C282.8,143.5,282.7,143.5,282.6,143.5z"/>
						<path id="XMLID_261_" class="st18" d="M284.6,145.9l0.8-0.6c0,0.2,0.1,0.3,0.2,0.4s0.2,0,0.3,0c0.2-0.1,0.3-0.3,0.4-0.6
							s0.2-0.7,0.2-1.4c-0.2,0.4-0.5,0.7-0.8,0.9c-0.3,0.2-0.6,0.2-0.9,0c-0.2-0.2-0.4-0.6-0.4-1.1c0-0.6,0.1-1.1,0.4-1.6
							c0.3-0.5,0.6-0.9,1-1.1c0.4-0.2,0.8-0.2,1.1,0.1c0.3,0.3,0.4,0.9,0.4,2c0,1-0.1,1.9-0.4,2.5s-0.7,1.1-1.1,1.3
							c-0.3,0.2-0.6,0.2-0.8,0.1C284.8,146.6,284.7,146.3,284.6,145.9z M286.4,142.5c0-0.4-0.1-0.6-0.2-0.7c-0.1-0.1-0.3-0.1-0.4,0
							c-0.2,0.1-0.3,0.2-0.4,0.5c-0.1,0.2-0.1,0.5-0.1,0.9c0,0.4,0.1,0.6,0.2,0.7c0.1,0.1,0.2,0.1,0.4,0c0.2-0.1,0.3-0.2,0.4-0.5
							C286.4,143,286.4,142.8,286.4,142.5z"/>
						<path id="XMLID_264_" class="st18" d="M288.6,141.8c-0.2,0-0.4-0.1-0.5-0.2c-0.1-0.2-0.1-0.4-0.1-0.6c0-0.4,0.1-0.8,0.3-1.2
							c0.2-0.4,0.5-0.7,0.9-1c0.4-0.2,0.7-0.3,0.9-0.1c0.2,0.1,0.3,0.4,0.3,0.9c0,0.3-0.1,0.5-0.2,0.8c-0.1,0.3-0.2,0.5-0.4,0.7
							c0.2,0,0.4,0.1,0.5,0.2c0.1,0.2,0.2,0.4,0.2,0.7c0,0.5-0.1,1-0.4,1.5c-0.3,0.5-0.6,0.8-1,1.1c-0.4,0.2-0.7,0.3-1,0.2
							c-0.3-0.1-0.5-0.5-0.5-1.1c0-0.3,0.1-0.6,0.2-0.9S288.3,142.1,288.6,141.8z M288.7,143.1c0,0.3,0.1,0.5,0.2,0.6
							c0.1,0.1,0.3,0.1,0.4,0c0.2-0.1,0.3-0.3,0.4-0.5c0.1-0.2,0.2-0.5,0.2-0.8c0-0.3-0.1-0.4-0.2-0.5c-0.1-0.1-0.3-0.1-0.4,0
							c-0.2,0.1-0.3,0.3-0.4,0.5C288.7,142.7,288.7,142.9,288.7,143.1z M288.7,140.7c0,0.2,0,0.4,0.1,0.4s0.2,0.1,0.4,0
							c0.2-0.1,0.3-0.2,0.4-0.4c0.1-0.2,0.1-0.4,0.1-0.6c0-0.2,0-0.3-0.1-0.4c-0.1-0.1-0.2-0.1-0.4,0c-0.2,0.1-0.3,0.2-0.4,0.4
							C288.8,140.3,288.7,140.4,288.7,140.7z"/>
						<path id="XMLID_272_" class="st18" d="M292.6,136.9c0.4-0.2,0.7-0.2,1,0c0.3,0.3,0.4,1,0.4,2.1c0,1.1-0.1,1.9-0.4,2.6
							c-0.2,0.5-0.6,0.9-1,1.1c-0.4,0.2-0.7,0.2-1-0.1c-0.3-0.3-0.4-1-0.4-2.1c0-1.1,0.1-1.9,0.4-2.5
							C291.8,137.5,292.2,137.1,292.6,136.9z M292.6,137.8c-0.1,0.1-0.2,0.2-0.3,0.3c-0.1,0.1-0.1,0.3-0.2,0.6
							c-0.1,0.3-0.1,0.8-0.1,1.5s0,1.1,0.1,1.3c0.1,0.2,0.1,0.3,0.2,0.4c0.1,0,0.2,0,0.3,0c0.1-0.1,0.2-0.1,0.3-0.3
							c0.1-0.1,0.1-0.3,0.2-0.6c0.1-0.3,0.1-0.8,0.1-1.5s0-1.1-0.1-1.3s-0.1-0.3-0.2-0.4C292.8,137.7,292.7,137.8,292.6,137.8z"/>
					</g>
					<g id="XMLID_130_">
						<path id="XMLID_275_" class="st18" d="M355.2,106.4l-0.8,0.5v-4.1c-0.3,0.5-0.6,1-1.1,1.4v-1c0.2-0.2,0.4-0.5,0.7-0.9
							c0.2-0.4,0.4-0.8,0.5-1.2l0.7-0.4V106.4z"/>
						<path id="XMLID_277_" class="st18" d="M357.8,99.2c0.4-0.2,0.7-0.2,1,0c0.3,0.3,0.4,1,0.4,2.1c0,1.1-0.1,1.9-0.4,2.6
							c-0.2,0.5-0.6,0.9-1,1.1c-0.4,0.2-0.7,0.2-1-0.1c-0.3-0.3-0.4-1-0.4-2.1c0-1.1,0.1-1.9,0.4-2.5
							C357.1,99.8,357.4,99.5,357.8,99.2z M357.8,100.1c-0.1,0.1-0.2,0.2-0.3,0.3c-0.1,0.1-0.1,0.3-0.2,0.6
							c-0.1,0.3-0.1,0.8-0.1,1.5s0,1.1,0.1,1.3c0.1,0.2,0.1,0.3,0.2,0.4c0.1,0,0.2,0,0.3,0c0.1-0.1,0.2-0.1,0.3-0.3
							c0.1-0.1,0.1-0.3,0.2-0.6c0.1-0.3,0.1-0.8,0.1-1.5c0-0.7,0-1.1-0.1-1.3c-0.1-0.2-0.1-0.3-0.2-0.4
							C358,100.1,357.9,100.1,357.8,100.1z"/>
						<path id="XMLID_280_" class="st18" d="M361.8,102.6l-0.8,0.5V99c-0.3,0.5-0.6,1-1.1,1.4v-1c0.2-0.2,0.4-0.5,0.7-0.9
							c0.2-0.4,0.4-0.8,0.5-1.2l0.7-0.4V102.6z"/>
						<path id="XMLID_282_" class="st18" d="M366.1,94.5c0.4-0.2,0.7-0.2,1,0c0.3,0.3,0.4,1,0.4,2.1c0,1.1-0.1,1.9-0.4,2.6
							c-0.2,0.5-0.6,0.9-1,1.1c-0.4,0.2-0.7,0.2-1-0.1c-0.3-0.3-0.4-1-0.4-2.1c0-1.1,0.1-1.9,0.4-2.5
							C365.4,95.1,365.7,94.7,366.1,94.5z M366.1,95.4c-0.1,0.1-0.2,0.2-0.3,0.3c-0.1,0.1-0.1,0.3-0.2,0.6c-0.1,0.3-0.1,0.8-0.1,1.5
							c0,0.7,0,1.1,0.1,1.3c0.1,0.2,0.1,0.3,0.2,0.4s0.2,0,0.3,0s0.2-0.1,0.3-0.3c0.1-0.1,0.1-0.3,0.2-0.6c0.1-0.3,0.1-0.8,0.1-1.5
							c0-0.7,0-1.1-0.1-1.3c-0.1-0.2-0.1-0.3-0.2-0.4C366.3,95.3,366.2,95.3,366.1,95.4z"/>
						<path id="XMLID_285_" class="st18" d="M369.4,92.6c0.4-0.2,0.7-0.2,1,0c0.3,0.3,0.4,1,0.4,2.1c0,1.1-0.1,1.9-0.4,2.6
							c-0.2,0.5-0.6,0.9-1,1.1c-0.4,0.2-0.7,0.2-1-0.1c-0.3-0.3-0.4-1-0.4-2.1c0-1.1,0.1-1.9,0.4-2.5
							C368.7,93.2,369,92.8,369.4,92.6z M369.4,93.5c-0.1,0.1-0.2,0.2-0.3,0.3c-0.1,0.1-0.1,0.3-0.2,0.6c-0.1,0.3-0.1,0.8-0.1,1.5
							c0,0.7,0,1.1,0.1,1.3c0.1,0.2,0.1,0.3,0.2,0.4s0.2,0,0.3,0c0.1-0.1,0.2-0.1,0.3-0.3c0.1-0.1,0.1-0.3,0.2-0.6
							c0.1-0.3,0.1-0.8,0.1-1.5c0-0.7,0-1.1-0.1-1.3c-0.1-0.2-0.1-0.3-0.2-0.4C369.6,93.4,369.5,93.4,369.4,93.5z"/>
						<path id="XMLID_288_" class="st18" d="M372.7,90.6c0.4-0.2,0.7-0.2,1,0c0.3,0.3,0.4,1,0.4,2.1c0,1.1-0.1,1.9-0.4,2.6
							c-0.2,0.5-0.6,0.9-1,1.1c-0.4,0.2-0.7,0.2-1-0.1c-0.3-0.3-0.4-1-0.4-2.1c0-1.1,0.1-1.9,0.4-2.5
							C372,91.3,372.3,90.9,372.7,90.6z M372.7,91.5c-0.1,0.1-0.2,0.2-0.3,0.3c-0.1,0.1-0.1,0.3-0.2,0.6c-0.1,0.3-0.1,0.8-0.1,1.5
							c0,0.7,0,1.1,0.1,1.3c0.1,0.2,0.1,0.3,0.2,0.4s0.2,0,0.3,0s0.2-0.1,0.3-0.3c0.1-0.1,0.1-0.3,0.2-0.6c0.1-0.3,0.1-0.8,0.1-1.5
							c0-0.7,0-1.1-0.1-1.3c-0.1-0.2-0.1-0.3-0.2-0.4C372.9,91.5,372.8,91.5,372.7,91.5z"/>
						<path id="XMLID_308_" class="st18" d="M376,94.4l1.5-3.8l-1.3-2l1-0.6l0.9,1.3l0.8-2.3l1-0.6l-1.3,3.5l1.5,2.1l-1,0.6
							l-0.9-1.4l-0.9,2.5L376,94.4z"/>
						<path id="XMLID_310_" class="st18" d="M384.3,89.7l-0.9,0.5l-0.4-1.1l-1.7,1l-0.4,1.5l-0.9,0.5l1.7-6.6l0.9-0.5L384.3,89.7z
							 M382.7,88.3l-0.6-1.8l-0.6,2.4L382.7,88.3z"/>
						<path id="XMLID_313_" class="st18" d="M384.7,89.4v-5.7l2.9-1.7v1l-2.1,1.2v1.3l1.8-1v1l-1.8,1v2.4L384.7,89.4z"/>
					</g>
					<g id="XMLID_132_">
						<path id="XMLID_168_" class="st16" d="M375.3,103.8c0.3-0.2,0.6-0.2,0.8,0c0.2,0.3,0.3,0.8,0.3,1.7c0,0.9-0.1,1.6-0.3,2.1
							c-0.2,0.4-0.5,0.7-0.8,0.9c-0.3,0.2-0.6,0.2-0.8,0c-0.2-0.2-0.3-0.8-0.3-1.7c0-0.9,0.1-1.6,0.3-2.1
							C374.7,104.3,375,104,375.3,103.8z M375.3,104.6c-0.1,0-0.2,0.1-0.2,0.2c-0.1,0.1-0.1,0.3-0.2,0.5c0,0.3-0.1,0.7-0.1,1.2
							s0,0.9,0.1,1.1s0.1,0.3,0.2,0.3s0.1,0,0.2,0c0.1,0,0.2-0.1,0.2-0.2c0.1-0.1,0.1-0.3,0.2-0.5c0-0.3,0.1-0.7,0.1-1.2
							s0-0.9-0.1-1.1c0-0.2-0.1-0.3-0.2-0.3C375.5,104.5,375.4,104.5,375.3,104.6z"/>
						<path id="XMLID_344_" class="st16" d="M378.1,107l1.2-3.2l-1.1-1.6l0.8-0.5l0.7,1.1l0.7-1.9l0.8-0.5l-1.1,2.9l1.2,1.7
							l-0.9,0.5l-0.8-1.2l-0.8,2.1L378.1,107z"/>
						<path id="XMLID_346_" class="st16" d="M385,103l-0.8,0.5l-0.3-0.9l-1.4,0.8l-0.3,1.2l-0.8,0.4l1.4-5.5l0.8-0.4L385,103z
							 M383.7,101.9l-0.5-1.5l-0.5,2L383.7,101.9z"/>
						<path id="XMLID_349_" class="st16" d="M385.4,102.8v-4.7l2.4-1.4v0.8l-1.7,1v1.1l1.5-0.9v0.8l-1.5,0.9v2L385.4,102.8z"/>
					</g>
					<g id="XMLID_136_">
						<path id="XMLID_315_" class="st16" d="M262.4,169.1l0.7-0.4v3c0,0.4,0,0.7-0.1,0.9c-0.1,0.3-0.2,0.6-0.4,0.9
							c-0.2,0.3-0.4,0.5-0.7,0.7c-0.4,0.2-0.6,0.2-0.8,0.1c-0.2-0.2-0.3-0.5-0.3-1l0.7-0.5c0,0.3,0,0.4,0.1,0.5
							c0.1,0.1,0.2,0.1,0.4,0.1c0.2-0.1,0.3-0.2,0.3-0.4c0.1-0.2,0.1-0.4,0.1-0.8V169.1z"/>
						<path id="XMLID_317_" class="st16" d="M265.4,171.1l0.7-0.2c-0.1,0.4-0.2,0.7-0.4,1s-0.4,0.5-0.7,0.7c-0.4,0.3-0.8,0.3-1,0
							c-0.2-0.2-0.3-0.6-0.3-1c0-0.6,0.1-1.1,0.3-1.5s0.5-0.8,0.8-1c0.4-0.2,0.7-0.2,0.9,0c0.2,0.2,0.3,0.7,0.3,1.4l-1.7,1
							c0,0.3,0.1,0.4,0.2,0.5c0.1,0.1,0.2,0.1,0.4,0c0.1-0.1,0.2-0.2,0.3-0.3C265.3,171.4,265.3,171.3,265.4,171.1z M265.4,170.1
							c0-0.3-0.1-0.4-0.2-0.5c-0.1-0.1-0.2-0.1-0.4,0c-0.1,0.1-0.3,0.2-0.4,0.4c-0.1,0.2-0.1,0.4-0.1,0.7L265.4,170.1z"/>
						<path id="XMLID_320_" class="st16" d="M267.1,168.7l-0.6,0.2c0.1-0.4,0.2-0.7,0.4-0.9c0.2-0.3,0.4-0.5,0.8-0.7
							c0.3-0.2,0.5-0.3,0.7-0.2c0.1,0,0.3,0.1,0.3,0.2c0.1,0.1,0.1,0.4,0.1,0.8l0,1.1c0,0.3,0,0.5,0,0.6c0,0.1,0.1,0.3,0.1,0.4
							l-0.7,0.4c0-0.1,0-0.1-0.1-0.2c0,0,0-0.1,0-0.1c-0.1,0.2-0.2,0.4-0.4,0.6c-0.1,0.2-0.3,0.3-0.4,0.4c-0.3,0.2-0.5,0.2-0.6,0.1
							c-0.2-0.1-0.2-0.3-0.2-0.6c0-0.2,0-0.4,0.1-0.6c0.1-0.2,0.2-0.4,0.3-0.5c0.1-0.2,0.3-0.3,0.5-0.5c0.3-0.3,0.5-0.5,0.7-0.6
							v-0.1c0-0.2,0-0.3-0.1-0.3c-0.1,0-0.2,0-0.4,0.1c-0.1,0.1-0.2,0.2-0.3,0.3S267.2,168.6,267.1,168.7z M268,169
							c-0.1,0.1-0.2,0.2-0.4,0.4c-0.2,0.2-0.3,0.3-0.4,0.4c-0.1,0.1-0.1,0.3-0.1,0.4c0,0.1,0,0.2,0.1,0.3c0.1,0.1,0.2,0,0.3,0
							c0.1-0.1,0.2-0.2,0.4-0.4c0.1-0.1,0.1-0.3,0.2-0.4c0-0.1,0-0.2,0-0.5V169z"/>
						<path id="XMLID_323_" class="st16" d="M271.7,168.5l-0.7,0.4v-1.7c0-0.4,0-0.6,0-0.7s-0.1-0.1-0.1-0.2c-0.1,0-0.1,0-0.2,0
							c-0.1,0.1-0.2,0.2-0.3,0.3c-0.1,0.1-0.2,0.3-0.2,0.5c0,0.2-0.1,0.4-0.1,0.8v1.6l-0.7,0.4v-3.4l0.6-0.4v0.5
							c0.2-0.5,0.5-0.9,0.8-1.1c0.1-0.1,0.3-0.1,0.4-0.1c0.1,0,0.2,0,0.3,0.1c0.1,0.1,0.1,0.2,0.1,0.3c0,0.1,0,0.3,0,0.6V168.5z"/>
						<path id="XMLID_325_" class="st16" d="M275.1,161.8l0.7-0.4v3c0,0.4,0,0.7-0.1,0.9c-0.1,0.3-0.2,0.6-0.4,0.9
							c-0.2,0.3-0.4,0.5-0.7,0.7c-0.4,0.2-0.6,0.2-0.8,0.1c-0.2-0.2-0.3-0.5-0.3-1l0.7-0.5c0,0.3,0,0.4,0.1,0.5
							c0.1,0.1,0.2,0.1,0.4,0.1c0.2-0.1,0.3-0.2,0.3-0.4c0.1-0.2,0.1-0.4,0.1-0.8V161.8z"/>
						<path id="XMLID_327_" class="st16" d="M277,163l-0.6,0.2c0.1-0.4,0.2-0.7,0.4-0.9c0.2-0.3,0.4-0.5,0.8-0.7
							c0.3-0.2,0.5-0.3,0.7-0.2s0.3,0.1,0.3,0.2c0.1,0.1,0.1,0.4,0.1,0.8l0,1.1c0,0.3,0,0.5,0,0.6c0,0.1,0.1,0.3,0.1,0.4l-0.7,0.4
							c0-0.1,0-0.1-0.1-0.2c0,0,0-0.1,0-0.1c-0.1,0.2-0.2,0.4-0.4,0.6c-0.1,0.2-0.3,0.3-0.4,0.4c-0.3,0.2-0.5,0.2-0.6,0.1
							c-0.2-0.1-0.2-0.3-0.2-0.6c0-0.2,0-0.4,0.1-0.6c0.1-0.2,0.2-0.4,0.3-0.5c0.1-0.2,0.3-0.3,0.5-0.5c0.3-0.3,0.5-0.5,0.7-0.6
							v-0.1c0-0.2,0-0.3-0.1-0.3c-0.1,0-0.2,0-0.4,0.1c-0.1,0.1-0.2,0.2-0.3,0.3C277.1,162.7,277.1,162.8,277,163z M277.9,163.2
							c-0.1,0.1-0.2,0.2-0.4,0.4c-0.2,0.2-0.3,0.3-0.4,0.4c-0.1,0.1-0.1,0.3-0.1,0.4c0,0.1,0,0.2,0.1,0.3c0.1,0.1,0.2,0,0.3,0
							c0.1-0.1,0.2-0.2,0.4-0.4c0.1-0.1,0.1-0.3,0.2-0.4c0-0.1,0-0.2,0-0.5V163.2z"/>
						<path id="XMLID_330_" class="st16" d="M281.5,160.4l-0.7,0.5c0-0.2-0.1-0.3-0.2-0.3c-0.1,0-0.2,0-0.3,0
							c-0.2,0.1-0.3,0.3-0.4,0.5c-0.1,0.2-0.2,0.5-0.2,0.9c0,0.4,0.1,0.7,0.2,0.8c0.1,0.1,0.2,0.1,0.4,0c0.1-0.1,0.2-0.2,0.3-0.3
							c0.1-0.1,0.1-0.3,0.2-0.6l0.7-0.2c-0.1,0.4-0.2,0.8-0.4,1.2c-0.2,0.3-0.5,0.6-0.8,0.8c-0.4,0.2-0.7,0.2-0.9,0
							c-0.2-0.2-0.3-0.6-0.3-1.1c0-0.6,0.1-1.1,0.3-1.5c0.2-0.4,0.5-0.8,0.9-1c0.3-0.2,0.6-0.2,0.7-0.2
							C281.3,159.9,281.4,160.1,281.5,160.4z"/>
						<path id="XMLID_332_" class="st16" d="M283.7,162.9v-1.7c-0.1,0.2-0.2,0.4-0.3,0.6c-0.1,0.2-0.3,0.3-0.4,0.4
							c-0.3,0.2-0.5,0.2-0.7,0c-0.2-0.2-0.3-0.6-0.3-1.2c0-0.5,0.1-1,0.3-1.5c0.2-0.4,0.5-0.7,0.8-0.9c0.2-0.1,0.3-0.1,0.4-0.1
							c0.1,0,0.2,0.1,0.3,0.2v-0.5l0.6-0.4v4.7L283.7,162.9z M283.7,159.8c0-0.4-0.1-0.6-0.2-0.7c-0.1-0.1-0.2-0.1-0.4,0
							c-0.2,0.1-0.3,0.3-0.4,0.5c-0.1,0.2-0.2,0.5-0.2,0.9c0,0.4,0.1,0.6,0.2,0.7c0.1,0.1,0.2,0.1,0.4,0c0.2-0.1,0.3-0.3,0.4-0.5
							C283.7,160.5,283.7,160.2,283.7,159.8z"/>
						<path id="XMLID_335_" class="st16" d="M286.8,159.8v-0.5c-0.1,0.2-0.2,0.5-0.4,0.6c-0.2,0.2-0.3,0.3-0.5,0.4
							c-0.2,0.1-0.3,0.1-0.5,0.1c-0.1,0-0.2-0.1-0.3-0.3c-0.1-0.1-0.1-0.4-0.1-0.7v-2.2l0.7-0.4v1.6c0,0.5,0,0.8,0,0.9
							s0.1,0.2,0.1,0.2c0.1,0,0.1,0,0.3,0c0.1-0.1,0.2-0.2,0.3-0.3c0.1-0.1,0.2-0.3,0.2-0.4c0-0.1,0.1-0.5,0.1-1v-1.4l0.7-0.4v3.4
							L286.8,159.8z"/>
						<path id="XMLID_337_" class="st16" d="M289.6,157.1l0.7-0.2c-0.1,0.4-0.2,0.7-0.4,1s-0.4,0.5-0.7,0.7c-0.4,0.3-0.8,0.3-1,0
							c-0.2-0.2-0.3-0.6-0.3-1c0-0.6,0.1-1.1,0.3-1.5s0.5-0.8,0.8-1c0.4-0.2,0.7-0.2,0.9,0c0.2,0.2,0.3,0.7,0.3,1.4l-1.7,1
							c0,0.3,0.1,0.4,0.2,0.5c0.1,0.1,0.2,0.1,0.4,0c0.1-0.1,0.2-0.2,0.3-0.3C289.5,157.4,289.5,157.3,289.6,157.1z M289.6,156.1
							c0-0.3-0.1-0.4-0.2-0.5c-0.1-0.1-0.2-0.1-0.4,0c-0.1,0.1-0.3,0.2-0.4,0.4c-0.1,0.2-0.1,0.4-0.1,0.7L289.6,156.1z"/>
						<path id="XMLID_340_" class="st16" d="M290.6,156.6l0.7-0.5c0,0.2,0.1,0.3,0.2,0.3c0.1,0,0.2,0,0.4-0.1
							c0.2-0.1,0.3-0.2,0.4-0.4c0.1-0.1,0.1-0.2,0.1-0.3c0-0.1,0-0.1,0-0.1c0,0-0.1,0-0.2,0c-0.5,0.2-0.9,0.2-1,0.2
							c-0.2-0.1-0.3-0.3-0.3-0.6c0-0.3,0.1-0.6,0.3-0.9c0.2-0.3,0.4-0.6,0.8-0.8c0.4-0.2,0.6-0.3,0.8-0.2c0.2,0.1,0.3,0.2,0.4,0.5
							l-0.6,0.5c0-0.1-0.1-0.2-0.2-0.2c-0.1,0-0.2,0-0.3,0.1c-0.2,0.1-0.3,0.2-0.4,0.3c-0.1,0.1-0.1,0.2-0.1,0.2
							c0,0.1,0,0.1,0.1,0.1c0.1,0,0.3,0,0.6-0.1c0.4-0.1,0.6-0.1,0.8,0c0.1,0.1,0.2,0.3,0.2,0.6c0,0.3-0.1,0.6-0.3,1
							c-0.2,0.3-0.5,0.6-0.9,0.8c-0.3,0.2-0.6,0.3-0.8,0.2C290.8,157.1,290.7,156.9,290.6,156.6z"/>
					</g>
					<path id="XMLID_192_" class="st17" d="M291.3,187.3c0,0-11.6,7.7-11.5,16.4c0.2,8.6,9.8,16.2,11.9,15.3
						c2.1-0.9,12-17.9,11.9-29.2C303.5,187.7,304.9,179.3,291.3,187.3z M291.7,212.7c-4.5,2.6-8.1-0.2-8.1-6.2c0-6,3.6-13,8.1-15.6
						c4.5-2.6,8.1,0.2,8.1,6.2C299.9,203.1,296.2,210.1,291.7,212.7z"/>
					<path id="XMLID_152_" class="st17" d="M291.3,195.4c-2.2,1.3-4.1,4.5-4.5,7.6l0,0c0,0,0,0,0,0.1c0,0,0,0.1,0,0.1l0,0
						c0,0.1,0,0.2,0,0.4l-0.8,0.4l1,3.2l1.3-4.3l-0.3,0.1c0-0.1-0.1-0.5,0.2-1.6c0.6-1.9,1.8-3.8,3.2-4.6c0.9-0.5,1.8-0.6,2.4-0.1
						l0.6-1.4C293.6,194.7,292.5,194.7,291.3,195.4z"/>
					<path id="XMLID_148_" class="st18" d="M295.9,198.6c0-0.4,0-0.6-0.1-0.8l0.6-0.5l-1.6-2.4l-0.6,4.2l0.5-0.4
						c0.1,0.2,0.1,0.4,0.1,0.5c0,0.1,0,0.1,0,0.2c0,2.6-1.6,5.7-3.6,6.9c-0.9,0.5-1.7,0.5-2.4,0.2l-0.6,1.4c0.8,0.4,1.8,0.4,2.9-0.3
						c2.5-1.5,4.6-5.4,4.6-8.8C295.9,198.8,295.9,198.7,295.9,198.6L295.9,198.6z"/>
					<path id="XMLID_161_" class="st18" d="M355.7,150.1c0,0-11.6,7.7-11.5,16.4c0.2,8.6,9.8,16.2,11.9,15.3
						c2.1-0.9,12-17.9,11.9-29.2C367.9,150.6,369.3,142.1,355.7,150.1z M356.1,175.5c-4.5,2.6-8.1-0.2-8.1-6.2c0-6,3.6-13,8.1-15.6
						c4.5-2.6,8.1,0.2,8.1,6.2C364.3,166,360.6,172.9,356.1,175.5z"/>
					<path id="XMLID_157_" class="st18" d="M291.3,256.9c0,0-11.6,7.7-11.5,16.4c0.2,8.6,9.8,16.2,11.9,15.3
						c2.1-0.9,12-17.9,11.9-29.2C303.5,257.4,304.9,248.9,291.3,256.9z M291.7,282.4c-4.5,2.6-8.1-0.2-8.1-6.2c0-6,3.6-13,8.1-15.6
						c4.5-2.6,8.1,0.2,8.1,6.2C299.9,272.8,296.2,279.8,291.7,282.4z"/>
					<path id="XMLID_188_" class="st17" d="M355.8,219.7c0,0-11.6,7.7-11.5,16.4c0.2,8.6,9.8,16.2,11.9,15.3
						c2.1-0.9,12-17.9,11.9-29.2C368.1,220.1,369.5,211.7,355.8,219.7z M356.3,245.1c-4.5,2.6-8.1-0.2-8.1-6.2c0-6,3.6-13,8.1-15.6
						c4.5-2.6,8.1,0.2,8.1,6.2C364.4,235.5,360.8,242.5,356.3,245.1z"/>
					<path id="XMLID_200_" class="st18" d="M352.4,158.9v16l8-4.9v-16L352.4,158.9z M355.9,172.1c-0.3,0.2-0.5,0-0.5-0.4
						c0-0.4,0.2-0.8,0.5-0.9c0.3-0.2,0.5,0,0.5,0.4C356.4,171.5,356.2,171.9,355.9,172.1z M358.4,168.9l-5,3.7v-13.1l5-3.7V168.9z"
						/>
					<g id="XMLID_138_">
						<path id="XMLID_196_" class="st18" d="M294.3,278.1l-5.2,3c-1.5,0.9-2.7-0.1-2.7-2.1v-9.3c0-2,1.2-4.4,2.7-5.3l5.2-3
							c1.5-0.9,2.7,0.1,2.7,2.1v9.3C297.1,274.9,295.8,277.2,294.3,278.1z M289.1,265.7c-1,0.6-1.9,2.2-1.9,3.6v9.3
							c0,1.4,0.8,2,1.9,1.4l5.2-3c1-0.6,1.9-2.2,1.9-3.6v-9.3c0-1.4-0.8-2-1.9-1.4L289.1,265.7z"/>
						<polygon id="XMLID_197_" class="st18" points="295.4,269.7 289.4,273.4 289.4,272.4 295.4,268.8 						"/>
						<polygon id="XMLID_198_" class="st18" points="295.4,272.5 289.4,276.2 289.4,275.3 295.4,271.6 						"/>
						<polygon id="XMLID_204_" class="st18" points="295.4,275.4 289.4,279 289.4,277.1 295.4,273.5 						"/>
						<polygon id="XMLID_205_" class="st17" points="293.4,269.1 289.4,271.5 289.4,269.6 293.4,267.2 						"/>
						<polygon id="XMLID_206_" class="st17" points="295.4,265 289.4,268.7 289.4,267.7 295.4,264.1 						"/>
					</g>
					<g id="XMLID_213_">
						<polygon id="XMLID_195_" class="st17" points="355.7,235.4 355.1,235.8 355.1,238.2 355.7,237.8 						"/>
						<g id="XMLID_210_">
							<path id="XMLID_219_" class="st17" d="M360.2,231.9l-1.3-3.9l-0.5,0.4v-2.8l-4,2v2.8l-1.7,1.1l-1.3,5.7l2-0.9v3.8l5-3.7v-3.8
								L360.2,231.9z M352.8,235.5l0.4-1.2l5.6-3.3l0.4,0.7l-6.2,3.6L352.8,235.5z M358.4,235.9l-4,2v-2.8l4-2V235.9z"/>
							<polygon id="XMLID_211_" class="st17" points="356.6,234.9 356,235.3 356,237.7 356.6,237.3 							"/>
							<polygon id="XMLID_212_" class="st17" points="357.4,234.4 356.8,234.8 356.8,237.2 357.4,236.8 							"/>
						</g>
					</g>
					<g id="XMLID_214_">
						<path id="XMLID_351_" d="M280.1,236.4v-3.8l1-0.6c0.2-0.1,0.4-0.2,0.5-0.2c0.2,0,0.3,0,0.4,0c0.1,0.1,0.3,0.2,0.3,0.5
							c0.1,0.2,0.1,0.5,0.1,0.8c0,0.3,0,0.6-0.1,0.8c-0.1,0.3-0.1,0.5-0.2,0.7c-0.1,0.2-0.2,0.4-0.3,0.5c-0.1,0.1-0.2,0.3-0.3,0.4
							c-0.1,0.1-0.3,0.2-0.5,0.3L280.1,236.4z M280.5,235.7l0.6-0.3c0.2-0.1,0.3-0.2,0.4-0.3c0.1-0.1,0.2-0.2,0.3-0.3
							c0.1-0.2,0.2-0.4,0.2-0.6s0.1-0.5,0.1-0.8c0-0.4,0-0.7-0.1-0.8c-0.1-0.2-0.2-0.2-0.4-0.2c-0.1,0-0.3,0.1-0.5,0.2l-0.6,0.3
							V235.7z"/>
						<path id="XMLID_354_" d="M284.3,233.1l0.4-0.1c-0.1,0.3-0.2,0.6-0.3,0.8c-0.2,0.2-0.3,0.4-0.6,0.6c-0.3,0.2-0.5,0.2-0.7,0
							c-0.2-0.1-0.3-0.4-0.3-0.9c0-0.5,0.1-0.9,0.3-1.2c0.2-0.4,0.4-0.6,0.7-0.8c0.3-0.2,0.5-0.2,0.7,0c0.2,0.1,0.3,0.4,0.3,0.9
							c0,0,0,0.1,0,0.1l-1.5,0.9c0,0.3,0.1,0.5,0.2,0.6c0.1,0.1,0.3,0.1,0.4,0c0.1-0.1,0.2-0.2,0.3-0.3
							C284.2,233.5,284.3,233.3,284.3,233.1z M283.2,233l1.1-0.7c0-0.2-0.1-0.4-0.1-0.4c-0.1-0.1-0.3-0.1-0.4,0
							c-0.2,0.1-0.3,0.2-0.4,0.4C283.3,232.5,283.2,232.7,283.2,233z M283.6,231.3l0.3-0.9l0.5-0.3l-0.4,1L283.6,231.3z"/>
						<path id="XMLID_358_" d="M285.1,234.6v-3.8l0.3-0.2v0.4c0.1-0.2,0.2-0.3,0.3-0.5c0.1-0.1,0.2-0.2,0.3-0.3
							c0.2-0.1,0.3-0.1,0.5-0.1c0.1,0,0.2,0.2,0.3,0.3c0.1,0.2,0.1,0.4,0.1,0.7c0,0.3,0,0.6-0.1,0.8s-0.2,0.5-0.3,0.7
							c-0.1,0.2-0.3,0.3-0.5,0.4c-0.1,0.1-0.2,0.1-0.3,0.1s-0.2-0.1-0.2-0.1v1.3L285.1,234.6z M285.5,232c0,0.4,0.1,0.6,0.2,0.7
							c0.1,0.1,0.2,0.1,0.4,0c0.2-0.1,0.3-0.3,0.4-0.5c0.1-0.2,0.2-0.5,0.2-0.9c0-0.3-0.1-0.6-0.2-0.7s-0.2-0.1-0.4,0
							c-0.1,0.1-0.3,0.3-0.4,0.5S285.5,231.6,285.5,232z"/>
						<path id="XMLID_361_" d="M287.2,230.9c0-0.5,0.1-0.9,0.3-1.3c0.2-0.3,0.4-0.5,0.6-0.7c0.3-0.2,0.5-0.2,0.7,0
							c0.2,0.1,0.3,0.4,0.3,0.9c0,0.4,0,0.7-0.1,0.9s-0.2,0.5-0.3,0.7s-0.3,0.4-0.5,0.5c-0.3,0.2-0.5,0.2-0.7,0
							C287.3,231.7,287.2,231.4,287.2,230.9z M288.2,228.2l-0.2,0.6l-0.4,0.2l0.4-1l0.4-0.2l0.4,0.5l-0.4,0.2L288.2,228.2z
							 M287.6,230.7c0,0.4,0.1,0.6,0.2,0.7c0.1,0.1,0.3,0.1,0.4,0c0.2-0.1,0.3-0.3,0.4-0.5c0.1-0.2,0.2-0.5,0.2-0.9
							c0-0.3-0.1-0.6-0.2-0.7c-0.1-0.1-0.3-0.1-0.4,0c-0.2,0.1-0.3,0.3-0.4,0.5C287.6,230.1,287.6,230.4,287.6,230.7z"/>
						<path id="XMLID_365_" d="M290.3,230.1l0.1,0.4c-0.1,0.1-0.2,0.1-0.3,0.2c-0.1,0.1-0.2,0.1-0.3,0.1s-0.1-0.1-0.1-0.1
							c0-0.1,0-0.2,0-0.5v-1.6l-0.3,0.1v-0.4l0.3-0.1v-0.7l0.3-0.5v1l0.4-0.2v0.4l-0.4,0.2v1.6c0,0.1,0,0.2,0,0.2c0,0,0,0,0.1,0.1
							c0,0,0.1,0,0.1,0C290.2,230.2,290.2,230.2,290.3,230.1z"/>
						<path id="XMLID_367_" d="M290.4,230.5l0.8-4.4l0.3-0.2l-0.8,4.4L290.4,230.5z"/>
						<path id="XMLID_369_" d="M291.8,229.7v-3.8l1-0.6c0.2-0.1,0.4-0.2,0.5-0.2c0.2,0,0.3,0,0.4,0c0.1,0.1,0.3,0.2,0.3,0.5
							c0.1,0.2,0.1,0.5,0.1,0.8c0,0.3,0,0.6-0.1,0.8c-0.1,0.3-0.1,0.5-0.2,0.7c-0.1,0.2-0.2,0.4-0.3,0.5s-0.2,0.3-0.3,0.4
							s-0.3,0.2-0.5,0.3L291.8,229.7z M292.2,229l0.6-0.3c0.2-0.1,0.3-0.2,0.4-0.3c0.1-0.1,0.2-0.2,0.3-0.3c0.1-0.2,0.2-0.4,0.2-0.6
							c0-0.2,0.1-0.5,0.1-0.8c0-0.4,0-0.7-0.1-0.8c-0.1-0.2-0.2-0.2-0.4-0.2c-0.1,0-0.3,0.1-0.5,0.2l-0.6,0.3V229z"/>
						<path id="XMLID_372_" d="M296,226.3l0.4-0.1c-0.1,0.3-0.2,0.6-0.3,0.8c-0.2,0.2-0.3,0.4-0.6,0.6c-0.3,0.2-0.5,0.2-0.7,0
							c-0.2-0.1-0.3-0.4-0.3-0.9c0-0.5,0.1-0.9,0.3-1.2c0.2-0.4,0.4-0.6,0.7-0.8c0.3-0.2,0.5-0.2,0.7,0c0.2,0.1,0.3,0.4,0.3,0.9
							c0,0,0,0.1,0,0.1l-1.5,0.9c0,0.3,0.1,0.5,0.2,0.6c0.1,0.1,0.3,0.1,0.4,0c0.1-0.1,0.2-0.2,0.3-0.3
							C295.9,226.8,296,226.6,296,226.3z M294.9,226.2l1.1-0.7c0-0.2-0.1-0.4-0.1-0.4c-0.1-0.1-0.3-0.1-0.4,0
							c-0.2,0.1-0.3,0.2-0.4,0.4C294.9,225.8,294.9,226,294.9,226.2z"/>
						<path id="XMLID_375_" d="M296.8,227.8V224l0.3-0.2v0.4c0.1-0.2,0.2-0.3,0.3-0.5s0.2-0.2,0.3-0.3c0.2-0.1,0.3-0.1,0.5-0.1
							c0.1,0,0.2,0.2,0.3,0.3c0.1,0.2,0.1,0.4,0.1,0.7c0,0.3,0,0.6-0.1,0.8s-0.2,0.5-0.3,0.7c-0.1,0.2-0.3,0.3-0.5,0.4
							c-0.1,0.1-0.2,0.1-0.3,0.1c-0.1,0-0.2-0.1-0.2-0.1v1.3L296.8,227.8z M297.1,225.2c0,0.4,0.1,0.6,0.2,0.7s0.2,0.1,0.4,0
							c0.2-0.1,0.3-0.3,0.4-0.5s0.2-0.5,0.2-0.9c0-0.3-0.1-0.6-0.2-0.7c-0.1-0.1-0.2-0.1-0.4,0c-0.1,0.1-0.3,0.3-0.4,0.5
							C297.2,224.6,297.1,224.9,297.1,225.2z"/>
						<path id="XMLID_378_" d="M298.9,224.2c0-0.5,0.1-0.9,0.3-1.3c0.2-0.3,0.4-0.5,0.6-0.7c0.3-0.2,0.5-0.2,0.7,0
							c0.2,0.1,0.3,0.4,0.3,0.9c0,0.4,0,0.7-0.1,0.9c-0.1,0.2-0.2,0.5-0.3,0.7c-0.2,0.2-0.3,0.4-0.5,0.5c-0.3,0.2-0.5,0.2-0.7,0
							C299,225,298.9,224.7,298.9,224.2z M299.2,224c0,0.4,0.1,0.6,0.2,0.7c0.1,0.1,0.3,0.1,0.4,0c0.2-0.1,0.3-0.3,0.4-0.5
							s0.2-0.5,0.2-0.9c0-0.3-0.1-0.6-0.2-0.7c-0.1-0.1-0.3-0.1-0.4,0c-0.2,0.1-0.3,0.3-0.4,0.5C299.3,223.3,299.2,223.6,299.2,224z
							"/>
						<path id="XMLID_381_" d="M301.1,223.5l0.3-0.3c0,0.2,0.1,0.3,0.2,0.3c0.1,0,0.2,0,0.4-0.1c0.2-0.1,0.3-0.2,0.4-0.3
							c0.1-0.1,0.1-0.3,0.1-0.4c0-0.1,0-0.2-0.1-0.2c0,0-0.2,0-0.4,0c-0.3,0.1-0.4,0.1-0.5,0.1c-0.1,0-0.2,0-0.2-0.1
							c-0.1-0.1-0.1-0.2-0.1-0.3c0-0.1,0-0.2,0.1-0.4s0.1-0.2,0.2-0.4c0.1-0.1,0.1-0.2,0.2-0.3c0.1-0.1,0.2-0.2,0.3-0.2
							c0.2-0.1,0.3-0.1,0.4-0.2c0.1,0,0.2,0,0.3,0.1s0.1,0.2,0.1,0.4l-0.3,0.3c0-0.1-0.1-0.2-0.1-0.3c-0.1,0-0.2,0-0.3,0.1
							c-0.2,0.1-0.3,0.2-0.3,0.3s-0.1,0.2-0.1,0.3c0,0.1,0,0.1,0,0.1c0,0,0.1,0,0.1,0c0,0,0.1,0,0.3-0.1c0.2-0.1,0.4-0.1,0.5-0.1
							c0.1,0,0.2,0,0.2,0.1s0.1,0.2,0.1,0.3c0,0.2,0,0.3-0.1,0.5c-0.1,0.2-0.2,0.3-0.3,0.5s-0.3,0.3-0.4,0.4
							c-0.3,0.2-0.5,0.2-0.6,0.1C301.2,223.9,301.1,223.7,301.1,223.5z"/>
						<path id="XMLID_383_" d="M303.2,219.8v-0.5l0.3-0.2v0.5L303.2,219.8z M303.2,223.1v-2.7l0.3-0.2v2.7L303.2,223.1z"/>
						<path id="XMLID_386_" d="M304.8,221.7l0.1,0.4c-0.1,0.1-0.2,0.1-0.3,0.2c-0.1,0.1-0.2,0.1-0.3,0.1s-0.1-0.1-0.1-0.1
							c0-0.1,0-0.2,0-0.5v-1.6l-0.3,0.1v-0.4l0.3-0.1v-0.7l0.3-0.5v1l0.4-0.2v0.4l-0.4,0.2v1.6c0,0.1,0,0.2,0,0.2c0,0,0,0,0.1,0.1
							c0,0,0.1,0,0.1,0C304.7,221.8,304.8,221.8,304.8,221.7z"/>
					</g>
					<g id="XMLID_216_">
						<path id="XMLID_388_" d="M351.3,195.3l1.1-4.4l0.4-0.2l1.2,3.1l-0.4,0.2l-0.3-1l-1.2,0.7l-0.3,1.3L351.3,195.3z M352.1,193.3
							l1-0.6l-0.3-0.9c-0.1-0.3-0.2-0.5-0.2-0.7c0,0.3-0.1,0.5-0.2,0.8L352.1,193.3z"/>
						<path id="XMLID_391_" d="M354.2,190.4v-0.5l0.3-0.2v0.5L354.2,190.4z M354.2,193.6v-2.7l0.3-0.2v2.7L354.2,193.6z"/>
						<path id="XMLID_394_" d="M355,193.1v-2.7l0.3-0.2v0.4c0.1-0.2,0.2-0.4,0.2-0.5c0.1-0.1,0.1-0.2,0.2-0.2
							c0.1-0.1,0.2-0.1,0.4-0.1l-0.1,0.5c-0.1,0-0.2,0-0.3,0c-0.1,0-0.1,0.1-0.2,0.2c-0.1,0.1-0.1,0.2-0.1,0.3
							c0,0.2-0.1,0.4-0.1,0.6v1.4L355,193.1z"/>
						<path id="XMLID_396_" d="M357.1,191.5l0.1,0.4c-0.1,0.1-0.2,0.1-0.3,0.2c-0.1,0.1-0.2,0.1-0.3,0.1s-0.1-0.1-0.1-0.1
							c0-0.1,0-0.2,0-0.5V190l-0.3,0.1v-0.4l0.3-0.1v-0.7l0.3-0.5v1l0.4-0.2v0.4l-0.4,0.2v1.6c0,0.1,0,0.2,0,0.2c0,0,0,0,0.1,0.1
							c0,0,0.1,0,0.1,0C357,191.6,357.1,191.6,357.1,191.5z"/>
						<path id="XMLID_398_" d="M357.5,188.5V188l0.3-0.2v0.5L357.5,188.5z M357.5,191.7V189l0.3-0.2v2.7L357.5,191.7z"/>
						<path id="XMLID_401_" d="M358.4,191.2v-2.7l0.3-0.2v0.4c0.1-0.2,0.1-0.3,0.3-0.5c0.1-0.1,0.2-0.3,0.4-0.3
							c0.2-0.1,0.3-0.1,0.4-0.1s0.2,0.1,0.2,0.2c0.2-0.4,0.4-0.7,0.6-0.8c0.2-0.1,0.4-0.1,0.5,0c0.1,0.1,0.2,0.3,0.2,0.6v1.9
							l-0.3,0.2v-1.7c0-0.2,0-0.3,0-0.4s-0.1-0.1-0.1-0.1c-0.1,0-0.1,0-0.2,0c-0.1,0.1-0.3,0.2-0.4,0.4c-0.1,0.2-0.1,0.4-0.1,0.7
							v1.6l-0.3,0.2v-1.8c0-0.2,0-0.3-0.1-0.4c-0.1-0.1-0.1-0.1-0.3,0c-0.1,0.1-0.2,0.1-0.3,0.3c-0.1,0.1-0.1,0.3-0.2,0.4
							c0,0.2-0.1,0.4-0.1,0.6v1.4L358.4,191.2z"/>
						<path id="XMLID_403_" d="M363.1,187.6l0.4-0.1c-0.1,0.3-0.2,0.6-0.3,0.8c-0.2,0.2-0.3,0.4-0.6,0.6c-0.3,0.2-0.5,0.2-0.7,0
							c-0.2-0.1-0.3-0.4-0.3-0.9c0-0.5,0.1-0.9,0.3-1.2c0.2-0.4,0.4-0.6,0.7-0.8c0.3-0.2,0.5-0.2,0.7,0c0.2,0.1,0.3,0.4,0.3,0.9
							c0,0,0,0.1,0,0.1l-1.5,0.9c0,0.3,0.1,0.5,0.2,0.6c0.1,0.1,0.3,0.1,0.4,0c0.1-0.1,0.2-0.2,0.3-0.3
							C362.9,188,363,187.9,363.1,187.6z M361.9,187.5l1.1-0.7c0-0.2-0.1-0.4-0.1-0.4c-0.1-0.1-0.3-0.1-0.4,0
							c-0.2,0.1-0.3,0.2-0.4,0.4C362,187.1,361.9,187.3,361.9,187.5z"/>
					</g>
					<g id="XMLID_217_">
						<path id="XMLID_451_" d="M342.8,269.7v-3.8l1.1-0.6c0.2-0.1,0.3-0.2,0.4-0.2c0.1,0,0.3-0.1,0.4,0c0.1,0,0.2,0.1,0.2,0.2
							s0.1,0.3,0.1,0.5c0,0.3-0.1,0.6-0.2,0.9c-0.2,0.3-0.4,0.6-0.8,0.8l-0.7,0.4v1.5L342.8,269.7z M343.1,267.5l0.7-0.4
							c0.2-0.1,0.4-0.3,0.5-0.5c0.1-0.2,0.2-0.4,0.2-0.6c0-0.2,0-0.3-0.1-0.4s-0.1-0.1-0.2-0.1c-0.1,0-0.2,0.1-0.4,0.2l-0.7,0.4
							V267.5z"/>
						<path id="XMLID_454_" d="M346.7,267.1c-0.1,0.2-0.3,0.4-0.4,0.5c-0.1,0.1-0.2,0.2-0.4,0.3c-0.2,0.1-0.4,0.2-0.5,0.1
							s-0.2-0.2-0.2-0.5c0-0.1,0-0.3,0.1-0.4c0-0.1,0.1-0.3,0.2-0.4c0.1-0.1,0.2-0.2,0.3-0.3c0.1-0.1,0.2-0.1,0.3-0.2
							c0.3-0.2,0.5-0.4,0.6-0.5c0-0.1,0-0.1,0-0.1c0-0.2,0-0.3-0.1-0.3c-0.1-0.1-0.2,0-0.4,0.1c-0.2,0.1-0.3,0.2-0.4,0.3
							c-0.1,0.1-0.1,0.3-0.2,0.5l-0.3,0.1c0-0.2,0.1-0.4,0.2-0.6s0.2-0.3,0.3-0.5c0.1-0.1,0.3-0.3,0.5-0.4c0.2-0.1,0.3-0.2,0.4-0.2
							c0.1,0,0.2,0,0.2,0.1s0.1,0.1,0.1,0.3c0,0.1,0,0.2,0,0.4v0.6c0,0.4,0,0.7,0,0.8c0,0.1,0,0.2,0.1,0.3l-0.4,0.2
							C346.7,267.3,346.7,267.2,346.7,267.1z M346.7,266.1c-0.1,0.1-0.3,0.3-0.6,0.5c-0.1,0.1-0.2,0.2-0.3,0.3
							c-0.1,0.1-0.1,0.1-0.1,0.2s0,0.2,0,0.2c0,0.1,0,0.2,0.1,0.2s0.2,0,0.3-0.1c0.1-0.1,0.3-0.2,0.4-0.3c0.1-0.1,0.2-0.3,0.2-0.5
							c0-0.1,0.1-0.3,0.1-0.5V266.1z"/>
						<path id="XMLID_457_" d="M347.6,268l0-0.4c0.1,0,0.1,0,0.2-0.1c0.1,0,0.1-0.1,0.2-0.2c0-0.1,0.1-0.1,0.1-0.2
							c0-0.1,0.1-0.2,0.1-0.4c0,0,0-0.1,0-0.1l-0.8-2.3l0.4-0.2l0.4,1.3c0.1,0.2,0.1,0.4,0.1,0.5c0-0.2,0.1-0.5,0.1-0.7l0.4-1.9
							l0.3-0.2l-0.8,3.2c-0.1,0.3-0.1,0.6-0.2,0.7c-0.1,0.2-0.1,0.3-0.2,0.5s-0.2,0.2-0.3,0.3C347.7,268,347.6,268,347.6,268z"/>
						<path id="XMLID_459_" d="M351,264.1l0.4-0.1c-0.1,0.3-0.2,0.6-0.3,0.8c-0.2,0.2-0.3,0.4-0.6,0.6c-0.3,0.2-0.5,0.2-0.7,0
							c-0.2-0.1-0.3-0.4-0.3-0.9c0-0.5,0.1-0.9,0.3-1.2s0.4-0.6,0.7-0.8c0.3-0.2,0.5-0.2,0.7,0s0.3,0.4,0.3,0.9c0,0,0,0.1,0,0.1
							l-1.5,0.9c0,0.3,0.1,0.5,0.2,0.6c0.1,0.1,0.3,0.1,0.4,0c0.1-0.1,0.2-0.2,0.3-0.3C350.8,264.5,350.9,264.3,351,264.1z
							 M349.8,264l1.1-0.7c0-0.2-0.1-0.4-0.1-0.4c-0.1-0.1-0.3-0.1-0.4,0c-0.2,0.1-0.3,0.2-0.4,0.4
							C349.9,263.6,349.8,263.8,349.8,264z"/>
						<path id="XMLID_462_" d="M351.8,264.5v-2.7l0.3-0.2v0.4c0.1-0.2,0.2-0.4,0.2-0.5c0.1-0.1,0.1-0.2,0.2-0.2
							c0.1-0.1,0.2-0.1,0.4-0.1l-0.1,0.5c-0.1,0-0.2,0-0.3,0c-0.1,0-0.1,0.1-0.2,0.2c-0.1,0.1-0.1,0.2-0.1,0.3
							c0,0.2-0.1,0.4-0.1,0.6v1.4L351.8,264.5z"/>
						<path id="XMLID_464_" d="M354.2,263.1v-3.8l0.6-0.3l0.7,2.3c0.1,0.2,0.1,0.4,0.1,0.5c0-0.2,0.1-0.4,0.2-0.7l0.7-3l0.5-0.3v3.8
							l-0.4,0.2v-3.2l-0.8,3.6l-0.3,0.2l-0.8-2.7v3.2L354.2,263.1z"/>
						<path id="XMLID_466_" d="M358.8,260.1c-0.1,0.2-0.3,0.4-0.4,0.5c-0.1,0.1-0.2,0.2-0.4,0.3c-0.2,0.1-0.4,0.2-0.5,0.1
							c-0.1-0.1-0.2-0.2-0.2-0.5c0-0.1,0-0.3,0.1-0.4c0-0.1,0.1-0.3,0.2-0.4c0.1-0.1,0.2-0.2,0.3-0.3c0.1-0.1,0.2-0.1,0.3-0.2
							c0.3-0.2,0.5-0.4,0.6-0.5c0-0.1,0-0.1,0-0.1c0-0.2,0-0.3-0.1-0.3c-0.1-0.1-0.2,0-0.4,0.1c-0.2,0.1-0.3,0.2-0.4,0.3
							c-0.1,0.1-0.1,0.3-0.2,0.5l-0.3,0.1c0-0.2,0.1-0.4,0.2-0.6s0.2-0.3,0.3-0.5c0.1-0.1,0.3-0.3,0.5-0.4c0.2-0.1,0.3-0.2,0.4-0.2
							c0.1,0,0.2,0,0.2,0.1s0.1,0.1,0.1,0.3c0,0.1,0,0.2,0,0.4v0.6c0,0.4,0,0.7,0,0.8c0,0.1,0,0.2,0.1,0.3l-0.4,0.2
							C358.8,260.3,358.8,260.2,358.8,260.1z M358.8,259.1c-0.1,0.1-0.3,0.3-0.6,0.5c-0.1,0.1-0.2,0.2-0.3,0.3
							c-0.1,0.1-0.1,0.1-0.1,0.2s0,0.2,0,0.2c0,0.1,0,0.2,0.1,0.2c0.1,0,0.2,0,0.3-0.1c0.1-0.1,0.3-0.2,0.4-0.3s0.2-0.3,0.2-0.5
							c0-0.1,0.1-0.3,0.1-0.5V259.1z"/>
						<path id="XMLID_469_" d="M359.7,260v-2.7l0.3-0.2v0.4c0.1-0.2,0.2-0.4,0.2-0.5c0.1-0.1,0.1-0.2,0.2-0.2
							c0.1-0.1,0.2-0.1,0.4-0.1l-0.1,0.5c-0.1,0-0.2,0-0.3,0c-0.1,0-0.1,0.1-0.2,0.2s-0.1,0.2-0.1,0.3c0,0.2-0.1,0.4-0.1,0.6v1.4
							L359.7,260z"/>
						<path id="XMLID_471_" d="M362.3,257.4l0.3-0.1c0,0.3-0.1,0.6-0.3,0.9c-0.2,0.3-0.3,0.5-0.6,0.6c-0.3,0.2-0.5,0.2-0.7,0
							s-0.3-0.4-0.3-0.9c0-0.3,0-0.6,0.1-0.8c0.1-0.3,0.2-0.5,0.3-0.7s0.3-0.3,0.5-0.4c0.2-0.1,0.4-0.2,0.5-0.1
							c0.1,0.1,0.2,0.2,0.3,0.5l-0.3,0.3c0-0.2-0.1-0.3-0.2-0.3s-0.2,0-0.3,0c-0.2,0.1-0.3,0.3-0.4,0.5c-0.1,0.2-0.2,0.5-0.2,0.9
							c0,0.4,0.1,0.6,0.2,0.7c0.1,0.1,0.2,0.1,0.4,0c0.1-0.1,0.3-0.2,0.3-0.4S362.3,257.7,362.3,257.4z"/>
						<path id="XMLID_473_" d="M363,258.1v-3.8l0.3-0.2v1.4c0.2-0.3,0.4-0.6,0.6-0.7c0.2-0.1,0.3-0.1,0.4-0.1c0.1,0,0.2,0.1,0.2,0.2
							s0.1,0.3,0.1,0.6v1.7l-0.3,0.2v-1.7c0-0.2,0-0.4-0.1-0.4s-0.2-0.1-0.3,0c-0.1,0.1-0.2,0.2-0.3,0.3c-0.1,0.1-0.2,0.3-0.2,0.4
							s-0.1,0.3-0.1,0.5v1.5L363,258.1z"/>
						<path id="XMLID_475_" d="M366.5,255.7c-0.1,0.2-0.3,0.4-0.4,0.5c-0.1,0.1-0.2,0.2-0.4,0.3c-0.2,0.1-0.4,0.2-0.5,0.1
							c-0.1-0.1-0.2-0.2-0.2-0.5c0-0.1,0-0.3,0.1-0.4c0-0.1,0.1-0.3,0.2-0.4c0.1-0.1,0.2-0.2,0.3-0.3c0.1-0.1,0.2-0.1,0.3-0.2
							c0.3-0.2,0.5-0.4,0.6-0.5c0-0.1,0-0.1,0-0.1c0-0.2,0-0.3-0.1-0.3c-0.1-0.1-0.2,0-0.4,0.1c-0.2,0.1-0.3,0.2-0.4,0.3
							c-0.1,0.1-0.1,0.3-0.2,0.5l-0.3,0.1c0-0.2,0.1-0.4,0.2-0.6c0.1-0.2,0.2-0.3,0.3-0.5c0.1-0.1,0.3-0.3,0.5-0.4
							c0.2-0.1,0.3-0.2,0.4-0.2c0.1,0,0.2,0,0.2,0.1s0.1,0.1,0.1,0.3c0,0.1,0,0.2,0,0.4v0.6c0,0.4,0,0.7,0,0.8c0,0.1,0,0.2,0.1,0.3
							l-0.4,0.2C366.6,255.9,366.5,255.8,366.5,255.7z M366.5,254.7c-0.1,0.1-0.3,0.3-0.6,0.5c-0.1,0.1-0.2,0.2-0.3,0.3
							c-0.1,0.1-0.1,0.1-0.1,0.2c0,0.1,0,0.2,0,0.2c0,0.1,0,0.2,0.1,0.2c0.1,0,0.2,0,0.3-0.1c0.1-0.1,0.3-0.2,0.4-0.3
							c0.1-0.1,0.2-0.3,0.2-0.5c0-0.1,0.1-0.3,0.1-0.5V254.7z"/>
						<path id="XMLID_478_" d="M367.4,255.5v-2.7l0.3-0.2v0.4c0.2-0.4,0.4-0.7,0.7-0.8c0.1-0.1,0.2-0.1,0.3-0.1c0.1,0,0.2,0,0.2,0.1
							c0.1,0.1,0.1,0.2,0.1,0.3c0,0.1,0,0.2,0,0.4v1.7l-0.3,0.2v-1.7c0-0.2,0-0.3,0-0.4c0-0.1-0.1-0.1-0.1-0.1c-0.1,0-0.1,0-0.2,0.1
							c-0.1,0.1-0.3,0.2-0.4,0.4c-0.1,0.2-0.2,0.5-0.2,0.8v1.5L367.4,255.5z"/>
						<path id="XMLID_480_" d="M370.9,253.5v-0.3c-0.1,0.3-0.3,0.6-0.6,0.7c-0.2,0.1-0.3,0.1-0.5,0.1c-0.1,0-0.2-0.1-0.3-0.3
							s-0.1-0.4-0.1-0.7c0-0.3,0-0.5,0.1-0.8c0.1-0.3,0.2-0.5,0.3-0.7s0.3-0.3,0.5-0.4c0.1-0.1,0.2-0.1,0.3-0.1
							c0.1,0,0.2,0.1,0.2,0.1v-1.4l0.3-0.2v3.8L370.9,253.5z M369.8,252.7c0,0.4,0.1,0.6,0.2,0.7c0.1,0.1,0.2,0.1,0.4,0
							c0.2-0.1,0.3-0.2,0.4-0.5c0.1-0.2,0.2-0.5,0.2-0.9c0-0.4-0.1-0.6-0.2-0.7s-0.2-0.1-0.4,0c-0.2,0.1-0.3,0.2-0.4,0.5
							C369.9,252.1,369.8,252.4,369.8,252.7z"/>
					</g>
					<g id="XMLID_222_">
						<path id="XMLID_406_" d="M274.2,309.3v-3.8l1.1-0.6c0.2-0.1,0.3-0.2,0.4-0.2c0.1,0,0.3-0.1,0.4,0c0.1,0,0.2,0.1,0.2,0.2
							c0.1,0.1,0.1,0.3,0.1,0.5c0,0.3-0.1,0.6-0.2,0.9c-0.2,0.3-0.4,0.6-0.8,0.8l-0.7,0.4v1.5L274.2,309.3z M274.6,307.1l0.7-0.4
							c0.2-0.1,0.4-0.3,0.5-0.5c0.1-0.2,0.2-0.4,0.2-0.6c0-0.2,0-0.3-0.1-0.4s-0.1-0.1-0.2-0.1c-0.1,0-0.2,0.1-0.4,0.2l-0.7,0.4
							V307.1z"/>
						<path id="XMLID_409_" d="M278.1,306.7c-0.1,0.2-0.3,0.4-0.4,0.5c-0.1,0.1-0.2,0.2-0.4,0.3c-0.2,0.1-0.4,0.2-0.5,0.1
							s-0.2-0.2-0.2-0.5c0-0.1,0-0.3,0.1-0.4c0-0.1,0.1-0.3,0.2-0.4c0.1-0.1,0.2-0.2,0.3-0.3c0.1-0.1,0.2-0.1,0.3-0.2
							c0.3-0.2,0.5-0.4,0.6-0.5c0-0.1,0-0.1,0-0.1c0-0.2,0-0.3-0.1-0.3c-0.1-0.1-0.2,0-0.4,0.1c-0.2,0.1-0.3,0.2-0.4,0.3
							c-0.1,0.1-0.1,0.3-0.2,0.5l-0.3,0.1c0-0.2,0.1-0.4,0.2-0.6s0.2-0.3,0.3-0.5c0.1-0.1,0.3-0.3,0.5-0.4c0.2-0.1,0.3-0.2,0.4-0.2
							c0.1,0,0.2,0,0.2,0.1s0.1,0.1,0.1,0.3c0,0.1,0,0.2,0,0.4v0.6c0,0.4,0,0.7,0,0.8c0,0.1,0,0.2,0.1,0.3l-0.4,0.2
							C278.2,306.9,278.1,306.8,278.1,306.7z M278.1,305.7c-0.1,0.1-0.3,0.3-0.6,0.5c-0.1,0.1-0.2,0.2-0.3,0.3
							c-0.1,0.1-0.1,0.1-0.1,0.2s0,0.2,0,0.2c0,0.1,0,0.2,0.1,0.2s0.2,0,0.3-0.1c0.1-0.1,0.3-0.2,0.4-0.3s0.2-0.3,0.2-0.5
							c0-0.1,0.1-0.3,0.1-0.5V305.7z"/>
						<path id="XMLID_412_" d="M279,303.3v-0.5l0.3-0.2v0.5L279,303.3z M279,306.6v-2.7l0.3-0.2v2.7L279,306.6z"/>
						<path id="XMLID_415_" d="M281.3,304.4l0.4-0.1c-0.1,0.3-0.2,0.6-0.3,0.8c-0.2,0.2-0.3,0.4-0.6,0.6c-0.3,0.2-0.5,0.2-0.7,0
							c-0.2-0.1-0.3-0.4-0.3-0.9c0-0.5,0.1-0.9,0.3-1.2s0.4-0.6,0.7-0.8c0.3-0.2,0.5-0.2,0.7,0s0.3,0.4,0.3,0.9c0,0,0,0.1,0,0.1
							l-1.5,0.9c0,0.3,0.1,0.5,0.2,0.6c0.1,0.1,0.3,0.1,0.4,0c0.1-0.1,0.2-0.2,0.3-0.3C281.1,304.8,281.2,304.6,281.3,304.4z
							 M280.1,304.3l1.1-0.7c0-0.2-0.1-0.4-0.1-0.4c-0.1-0.1-0.3-0.1-0.4,0c-0.2,0.1-0.3,0.2-0.4,0.4
							C280.2,303.8,280.1,304,280.1,304.3z"/>
						<path id="XMLID_418_" d="M282.1,304.8V302l0.3-0.2v0.4c0.1-0.2,0.1-0.3,0.3-0.5c0.1-0.1,0.2-0.3,0.4-0.3
							c0.2-0.1,0.3-0.1,0.4-0.1c0.1,0,0.2,0.1,0.2,0.2c0.2-0.4,0.4-0.7,0.6-0.8c0.2-0.1,0.4-0.1,0.5,0c0.1,0.1,0.2,0.3,0.2,0.6v1.9
							l-0.3,0.2v-1.7c0-0.2,0-0.3,0-0.4c0-0.1-0.1-0.1-0.1-0.1s-0.1,0-0.2,0c-0.1,0.1-0.3,0.2-0.4,0.4c-0.1,0.2-0.1,0.4-0.1,0.7v1.6
							l-0.3,0.2v-1.8c0-0.2,0-0.3-0.1-0.4c-0.1-0.1-0.1-0.1-0.3,0c-0.1,0.1-0.2,0.1-0.3,0.3c-0.1,0.1-0.1,0.3-0.2,0.4
							s-0.1,0.4-0.1,0.6v1.4L282.1,304.8z"/>
						<path id="XMLID_420_" d="M286.8,301.2l0.4-0.1c-0.1,0.3-0.2,0.6-0.3,0.8c-0.2,0.2-0.3,0.4-0.6,0.6c-0.3,0.2-0.5,0.2-0.7,0
							c-0.2-0.1-0.3-0.4-0.3-0.9c0-0.5,0.1-0.9,0.3-1.2s0.4-0.6,0.7-0.8c0.3-0.2,0.5-0.2,0.7,0c0.2,0.1,0.3,0.4,0.3,0.9
							c0,0,0,0.1,0,0.1l-1.5,0.9c0,0.3,0.1,0.5,0.2,0.6s0.3,0.1,0.4,0c0.1-0.1,0.2-0.2,0.3-0.3C286.6,301.6,286.7,301.4,286.8,301.2
							z M285.6,301.1l1.1-0.7c0-0.2-0.1-0.4-0.1-0.4c-0.1-0.1-0.3-0.1-0.4,0c-0.2,0.1-0.3,0.2-0.4,0.4
							C285.7,300.6,285.6,300.8,285.6,301.1z"/>
						<path id="XMLID_423_" d="M287.6,301.6v-2.7l0.3-0.2v0.4c0.2-0.4,0.4-0.7,0.7-0.8c0.1-0.1,0.2-0.1,0.3-0.1c0.1,0,0.2,0,0.2,0.1
							s0.1,0.2,0.1,0.3c0,0.1,0,0.2,0,0.4v1.7l-0.3,0.2v-1.7c0-0.2,0-0.3,0-0.4c0-0.1-0.1-0.1-0.1-0.1s-0.1,0-0.2,0.1
							c-0.1,0.1-0.3,0.2-0.4,0.4s-0.2,0.5-0.2,0.8v1.5L287.6,301.6z"/>
						<path id="XMLID_425_" d="M290.5,299.5l0.1,0.4c-0.1,0.1-0.2,0.1-0.3,0.2c-0.1,0.1-0.2,0.1-0.3,0.1s-0.1-0.1-0.1-0.1
							c0-0.1,0-0.2,0-0.5v-1.6l-0.3,0.1v-0.4l0.3-0.1v-0.7l0.3-0.5v1l0.4-0.2v0.4l-0.4,0.2v1.6c0,0.1,0,0.2,0,0.2c0,0,0,0,0.1,0.1
							c0,0,0.1,0,0.1,0C290.4,299.6,290.5,299.5,290.5,299.5z"/>
						<path id="XMLID_427_" d="M293.3,298.3v-0.3c-0.1,0.3-0.3,0.6-0.6,0.7c-0.2,0.1-0.3,0.1-0.5,0.1c-0.1,0-0.2-0.1-0.3-0.3
							c-0.1-0.2-0.1-0.4-0.1-0.7c0-0.3,0-0.5,0.1-0.8c0.1-0.3,0.2-0.5,0.3-0.7s0.3-0.3,0.5-0.4c0.1-0.1,0.2-0.1,0.3-0.1
							c0.1,0,0.2,0.1,0.2,0.1v-1.4l0.3-0.2v3.8L293.3,298.3z M292.2,297.6c0,0.4,0.1,0.6,0.2,0.7c0.1,0.1,0.2,0.1,0.4,0
							c0.2-0.1,0.3-0.2,0.4-0.5c0.1-0.2,0.2-0.5,0.2-0.9c0-0.4-0.1-0.6-0.2-0.7c-0.1-0.1-0.2-0.1-0.4,0c-0.2,0.1-0.3,0.2-0.4,0.5
							C292.3,296.9,292.2,297.2,292.2,297.6z"/>
						<path id="XMLID_430_" d="M295.6,296.1l0.4-0.1c-0.1,0.3-0.2,0.6-0.3,0.8c-0.2,0.2-0.3,0.4-0.6,0.6c-0.3,0.2-0.5,0.2-0.7,0
							c-0.2-0.1-0.3-0.4-0.3-0.9c0-0.5,0.1-0.9,0.3-1.2c0.2-0.4,0.4-0.6,0.7-0.8c0.3-0.2,0.5-0.2,0.7,0s0.3,0.4,0.3,0.9
							c0,0,0,0.1,0,0.1l-1.5,0.9c0,0.3,0.1,0.5,0.2,0.6c0.1,0.1,0.3,0.1,0.4,0c0.1-0.1,0.2-0.2,0.3-0.3
							C295.5,296.5,295.5,296.3,295.6,296.1z M294.4,296l1.1-0.7c0-0.2-0.1-0.4-0.1-0.4c-0.1-0.1-0.3-0.1-0.4,0
							c-0.2,0.1-0.3,0.2-0.4,0.4C294.5,295.5,294.5,295.8,294.4,296z"/>
						<path id="XMLID_433_" d="M297.6,295.8v-2.4l-0.3,0.2v-0.4l0.3-0.2v-0.3c0-0.2,0-0.3,0-0.4c0-0.1,0.1-0.3,0.2-0.4
							c0.1-0.1,0.2-0.2,0.4-0.3c0.1-0.1,0.2-0.1,0.3-0.1l-0.1,0.4c-0.1,0-0.1,0.1-0.2,0.1c-0.1,0.1-0.2,0.1-0.2,0.2
							s-0.1,0.2-0.1,0.4v0.3l0.4-0.2v0.4l-0.4,0.2v2.4L297.6,295.8z"/>
						<path id="XMLID_435_" d="M299.9,294.1c-0.1,0.2-0.3,0.4-0.4,0.5c-0.1,0.1-0.2,0.2-0.4,0.3c-0.2,0.1-0.4,0.2-0.5,0.1
							s-0.2-0.2-0.2-0.5c0-0.1,0-0.3,0.1-0.4c0-0.1,0.1-0.3,0.2-0.4c0.1-0.1,0.2-0.2,0.3-0.3c0.1-0.1,0.2-0.1,0.3-0.2
							c0.3-0.2,0.5-0.4,0.6-0.5c0-0.1,0-0.1,0-0.1c0-0.2,0-0.3-0.1-0.3c-0.1-0.1-0.2,0-0.4,0.1c-0.2,0.1-0.3,0.2-0.4,0.3
							c-0.1,0.1-0.1,0.3-0.2,0.5l-0.3,0.1c0-0.2,0.1-0.4,0.2-0.6s0.2-0.3,0.3-0.5c0.1-0.1,0.3-0.3,0.5-0.4c0.2-0.1,0.3-0.2,0.4-0.2
							c0.1,0,0.2,0,0.2,0.1s0.1,0.1,0.1,0.3c0,0.1,0,0.2,0,0.4v0.6c0,0.4,0,0.7,0,0.8c0,0.1,0,0.2,0.1,0.3l-0.4,0.2
							C300,294.3,299.9,294.3,299.9,294.1z M299.9,293.1c-0.1,0.1-0.3,0.3-0.6,0.5c-0.1,0.1-0.2,0.2-0.3,0.3
							c-0.1,0.1-0.1,0.1-0.1,0.2s0,0.2,0,0.2c0,0.1,0,0.2,0.1,0.2c0.1,0,0.2,0,0.3-0.1c0.1-0.1,0.3-0.2,0.4-0.3
							c0.1-0.1,0.2-0.3,0.2-0.5c0-0.1,0.1-0.3,0.1-0.5V293.1z"/>
						<path id="XMLID_438_" d="M302.1,292.2l0.3-0.1c0,0.3-0.1,0.6-0.3,0.9c-0.2,0.3-0.3,0.5-0.6,0.6c-0.3,0.2-0.5,0.2-0.7,0
							c-0.2-0.1-0.3-0.4-0.3-0.9c0-0.3,0-0.6,0.1-0.8c0.1-0.3,0.2-0.5,0.3-0.7c0.1-0.2,0.3-0.3,0.5-0.4c0.2-0.1,0.4-0.2,0.5-0.1
							c0.1,0.1,0.2,0.2,0.3,0.5l-0.3,0.3c0-0.2-0.1-0.3-0.2-0.3c-0.1,0-0.2,0-0.3,0c-0.2,0.1-0.3,0.3-0.4,0.5
							c-0.1,0.2-0.2,0.5-0.2,0.9c0,0.4,0.1,0.6,0.2,0.7c0.1,0.1,0.2,0.1,0.4,0c0.1-0.1,0.3-0.2,0.3-0.4S302.1,292.4,302.1,292.2z"/>
						<path id="XMLID_440_" d="M303.5,292l0.1,0.4c-0.1,0.1-0.2,0.1-0.3,0.2c-0.1,0.1-0.2,0.1-0.3,0.1s-0.1-0.1-0.1-0.1
							c0-0.1,0-0.2,0-0.5v-1.6l-0.3,0.1v-0.4l0.3-0.1v-0.7l0.3-0.5v1l0.4-0.2v0.4l-0.4,0.2v1.6c0,0.1,0,0.2,0,0.2c0,0,0,0,0.1,0.1
							c0,0,0.1,0,0.1,0C303.4,292.1,303.5,292,303.5,292z"/>
						<path id="XMLID_442_" d="M305.2,291.4V291c-0.2,0.4-0.4,0.7-0.7,0.8c-0.1,0.1-0.2,0.1-0.3,0.1s-0.2,0-0.2-0.1
							s-0.1-0.2-0.1-0.3c0-0.1,0-0.2,0-0.4v-1.7l0.3-0.2v1.5c0,0.2,0,0.4,0,0.5c0,0.1,0.1,0.2,0.1,0.2s0.2,0,0.3,0
							c0.1-0.1,0.2-0.2,0.3-0.3s0.2-0.3,0.2-0.4s0.1-0.3,0.1-0.6v-1.5l0.3-0.2v2.7L305.2,291.4z"/>
						<path id="XMLID_444_" d="M306.1,290.9v-2.7l0.3-0.2v0.4c0.1-0.2,0.2-0.4,0.2-0.5c0.1-0.1,0.1-0.2,0.2-0.2
							c0.1-0.1,0.2-0.1,0.4-0.1l-0.1,0.5c-0.1,0-0.2,0-0.3,0c-0.1,0-0.1,0.1-0.2,0.2s-0.1,0.2-0.1,0.3c0,0.2-0.1,0.4-0.1,0.6v1.4
							L306.1,290.9z"/>
						<path id="XMLID_446_" d="M308.8,288.5l0.4-0.1c-0.1,0.3-0.2,0.6-0.3,0.8c-0.2,0.2-0.3,0.4-0.6,0.6c-0.3,0.2-0.5,0.2-0.7,0
							c-0.2-0.1-0.3-0.4-0.3-0.9c0-0.5,0.1-0.9,0.3-1.2c0.2-0.4,0.4-0.6,0.7-0.8c0.3-0.2,0.5-0.2,0.7,0c0.2,0.1,0.3,0.4,0.3,0.9
							c0,0,0,0.1,0,0.1l-1.5,0.9c0,0.3,0.1,0.5,0.2,0.6c0.1,0.1,0.3,0.1,0.4,0c0.1-0.1,0.2-0.2,0.3-0.3
							C308.7,288.9,308.7,288.7,308.8,288.5z M307.7,288.4l1.1-0.7c0-0.2-0.1-0.4-0.1-0.4c-0.1-0.1-0.3-0.1-0.4,0
							c-0.2,0.1-0.3,0.2-0.4,0.4C307.7,287.9,307.7,288.1,307.7,288.4z"/>
						<path id="XMLID_449_" d="M309.5,288.1l0.3-0.3c0,0.2,0.1,0.3,0.2,0.3c0.1,0,0.2,0,0.4-0.1c0.2-0.1,0.3-0.2,0.4-0.3
							c0.1-0.1,0.1-0.3,0.1-0.4c0-0.1,0-0.2-0.1-0.2c0,0-0.2,0-0.4,0c-0.3,0.1-0.4,0.1-0.5,0.1c-0.1,0-0.2,0-0.2-0.1
							c-0.1-0.1-0.1-0.2-0.1-0.3c0-0.1,0-0.2,0.1-0.4c0-0.1,0.1-0.2,0.2-0.4c0.1-0.1,0.1-0.2,0.2-0.3c0.1-0.1,0.2-0.2,0.3-0.2
							c0.2-0.1,0.3-0.1,0.4-0.2c0.1,0,0.2,0,0.3,0.1c0.1,0.1,0.1,0.2,0.1,0.4l-0.3,0.3c0-0.1-0.1-0.2-0.1-0.3c-0.1,0-0.2,0-0.3,0.1
							c-0.2,0.1-0.3,0.2-0.3,0.3c-0.1,0.1-0.1,0.2-0.1,0.3c0,0.1,0,0.1,0,0.1c0,0,0.1,0,0.1,0c0,0,0.1,0,0.3-0.1
							c0.2-0.1,0.4-0.1,0.5-0.1s0.2,0,0.2,0.1c0.1,0.1,0.1,0.2,0.1,0.3c0,0.2,0,0.3-0.1,0.5c-0.1,0.2-0.2,0.3-0.3,0.5
							c-0.1,0.1-0.3,0.3-0.4,0.4c-0.3,0.2-0.5,0.2-0.6,0.1C309.6,288.6,309.5,288.4,309.5,288.1z"/>
					</g>
					<polygon id="XMLID_483_" points="390.9,404.4 256.7,481.8 256.7,459.7 390.9,382.2 					"/>
					<path id="XMLID_505_" class="st16" d="M324.1,437.8c-2.5,1.4-4.5-0.1-4.5-3.4c0-3.3,2-7.1,4.5-8.5c2.5-1.4,4.5,0.1,4.5,3.4
						C328.5,432.6,326.5,436.4,324.1,437.8z M324.1,427.3c-1.9,1.1-3.5,4.1-3.5,6.6c0,2.5,1.6,3.7,3.5,2.6c1.9-1.1,3.5-4.1,3.5-6.6
						C327.5,427.3,326,426.2,324.1,427.3z"/>
					<path id="XMLID_506_" class="st16" d="M295.4,455.5l-9-1.8l9-11V455.5z M288.5,452.5l5.9,1.2v-8.4L288.5,452.5z"/>
					<path id="XMLID_507_" class="st16" d="M348.4,425.1v-12.8l9,0.6L348.4,425.1z M349.4,413.6v8.4l5.9-8L349.4,413.6z"/>
				</g>
			</g>
		</g>
	</g>
	<g id="XMLID_68_">
		<path id="XMLID_84_" class="st19" d="M529.9,187.2c0-14.5-10.5-26.3-23.5-26.3s-23.8,11.8-23.8,26.3c0,12,7.8,22.1,16.8,25.3V231
			h22v-23.6C526.6,202.6,529.9,195.3,529.9,187.2z"/>
		<path id="XMLID_105_" class="st20" d="M492.6,495.3c0,0-18.3,1-27,10.4c-0.8,1.5-0.5,2.4,4.4,4.5s36.7,9.4,38.1,9.7
			s3.2,1.4,2.4-8.1c-0.8-9.5-0.8-9.5-0.8-9.5L492.6,495.3z"/>
		<path id="XMLID_116_" class="st20" d="M522.3,474.3c0,0-17.6,1-26,10c-0.7,1.4-0.5,2.3,4.2,4.3c4.7,2,35.4,9,36.7,9.3
			s3.1,1.3,2.3-7.8c-0.8-9.2-0.8-9.2-0.8-9.2L522.3,474.3z"/>
		<polygon id="XMLID_111_" class="st21" points="511.3,315.1 516.9,481 538.9,486.5 548.4,292.2 		"/>
		<path id="XMLID_74_" class="st22" d="M496.4,316.3v12.1l-14.1,8.7l5.6,165.9l22,5.5l7.8-159.6c7.1-2.5,23.8-10.3,27.4-28.6
			c4.6-23.3,4.6-30,4.6-30L496.4,316.3z"/>
		<path id="XMLID_146_" class="st19" d="M464.1,297.5c-5,5.4-10.6,11.1-14.2,14.2c-7.8,6.7-15.3-1.8-17.3-3.7
			c-2-1.8-24.7-19.8-34.2-29.3s-11-11.5-11.8-13c-0.8-1.5-6-4.3-6.7-5.4c-0.7-1.1,0.5-5.6,1.5-7.6c-2-1.5-3.8-3.7-3-4.2
			c0.8-0.5,5.2,3,5.2,3s3.6,0,9.1,3.3c5.5,3.3,48.6,34.7,48.6,34.7s5.8-7.8,10.7-14.8C452,274.8,452.7,290.5,464.1,297.5z"/>
		<path id="XMLID_162_" class="st23" d="M552.4,227v50.5c0,0.4-0.2,0.9-0.2,1.3c-0.1,4.5-0.6,18.7-0.7,24.5
			c-0.2,7-15.7,28.5-48,35.1c-10,1.7-18.6,1.8-23.1-3.1c0,0-0.1-0.2-0.2-0.2c0,0-0.1-0.2-0.1-0.2H480c-2.8-2-4.6-7.2-4.6-13.5v-36.8
			l0,0.5c0,0-1.7,1.9-4.2,4.7c0,0,0,0,0,0c0,0,0,0,0,0c0,0.1-0.1,0.2-0.3,0.4c-0.1,0.1-0.2,0.2-0.2,0.3c-0.2,0.2-0.4,0.5-0.7,0.8
			c-1.5,1.7-3.3,3.5-5.1,5.5c-0.2,0.2-0.4,0.4-0.6,0.7h0c-11.3-7-12.1-22.8-12.1-22.8l0.4-0.6c1-1.5,2-2.9,2.9-4.2l0.1-0.2
			c0.7-1,1.3-2,1.8-2.8c2.5-4.1,18.9-17.5,30.5-26.8c2.4-2.7,5-4.9,7.7-6.5l37.3-21.5C543.5,206,552.4,212.6,552.4,227z"/>
		<path id="XMLID_72_" class="st13" d="M496.4,187c0,0,1.5-2.3,4.3-1c2.8,1.3,0.3,8.1-2.8,8.8c-1-0.5-1.5-1-1.5-1s3.3,5.8,4.9,6.4
			c1.6,0.7,3,4.2,3.8,5.5s3.8,5.9,16.3,1.7c0.9-0.3,11.8-10.3,7.8-28.3c-2.1-8.9-11-16.9-18.7-18.2s-16.7,1.2-21.5,7.4
			c-0.8,0.8-0.8,3.3,0.5,3.6c1.3,0.3,2.4,0.7,3.4,0.9c0.7,0.3,1.8,1.6,1.2,3.9s-2.3,5.8-1.6,7s0.9,2.5,0.5,4.8
			c-0.4,2.3-1.3,4.7-0.8,5.2s1.3,0.9,1.8,0.1C494.6,193,495.9,188.3,496.4,187z"/>
		<path id="XMLID_163_" class="st23" d="M471.1,289.9C471.1,289.9,471.1,289.9,471.1,289.9C471.1,289.9,471.1,289.9,471.1,289.9
			c-0.1,0.1-0.2,0.2-0.4,0.4c-0.1,0.1-0.1,0.2-0.2,0.3c-0.2,0.2-0.4,0.5-0.7,0.8c-0.9,1-2.5,2.9-5.1,5.7c-0.2,0.2-0.4-0.1-0.6,0.9h0
			c-11.3-7-12.1-23-12.1-23l0.4-0.7l2.9-4.3l0.1-0.2L471.1,289.9z"/>
		<ellipse id="XMLID_6_" class="st13" cx="485.9" cy="184.9" rx="1.3" ry="2.4"/>
	</g>
	<g id="XMLID_43_" class="st24">
		<polygon id="XMLID_35_" class="st25" points="61.3,499.5 57.4,497.3 57.4,401.4 183.6,329 188.4,329 188.4,339.8 112.1,423.2 
			118.2,459.9 		"/>
		<polygon id="XMLID_36_" class="st26" points="188.4,426.1 61.4,499.5 61.4,402.8 188.4,329.4 		"/>
		<polygon id="XMLID_18_" class="st27" points="188.4,426.1 61.4,499.5 78.7,408 205.7,334.7 		"/>
		<polygon id="XMLID_37_" class="st28" points="61.4,402.8 57.4,401.4 183.6,329 188.4,329 		"/>
		<polygon id="XMLID_39_" class="st25" points="61.4,499.5 78.7,408 75.2,406.9 59.3,497 		"/>
		<polygon id="XMLID_40_" class="st29" points="78.8,408.3 205.7,335 201.4,335 75.2,406.9 		"/>
	</g>
	<polygon id="XMLID_46_" class="st30" points="216.4,354.7 220.6,350.3 216.1,349.3 120.4,404.4 120.4,445.3 124.8,446.3 
		133.4,437.9 216.4,390.1 	"/>
	<polygon id="XMLID_42_" class="st31" points="220.4,391.1 124.9,446.3 124.9,405.4 220.4,350.3 	"/>
	<g id="XMLID_7_">
		<path id="XMLID_13_" class="st32" d="M137.9,432.1v-25.9l4.3-2.5v25.9L137.9,432.1z"/>
		<path id="XMLID_17_" class="st32" d="M144.7,428.2v-25.9l4.6-2.7l2.1,11.2v-12.4l4.3-2.5v25.9l-4.4,2.5l-2.2-11.7v13L144.7,428.2z
			"/>
		<path id="XMLID_20_" class="st32" d="M159.6,418c-1-0.6-1.5-2-1.5-4V402c0-2.6,0.4-4.8,1.3-6.6c0.9-1.8,2.3-3.3,4.2-4.4
			c1.7-1,3-1.2,4-0.7c1,0.5,1.5,1.7,1.5,3.6v4.5l-4.5,2.6v-3.8c0-0.7-0.1-1.2-0.2-1.4c-0.2-0.2-0.4-0.2-0.8,0
			c-0.4,0.2-0.7,0.6-0.8,1c-0.1,0.4-0.2,0.9-0.2,1.5v13c0,0.7,0.1,1.1,0.3,1.3c0.2,0.2,0.4,0.2,0.8,0c0.7-0.4,1-1.3,1-2.6v-4.7
			l4.5-2.6v4.9c0,4.3-1.9,7.6-5.7,9.8C161.9,418.5,160.6,418.6,159.6,418z"/>
		<path id="XMLID_22_" class="st32" d="M172.6,410.4c-0.9-0.7-1.4-2.3-1.4-4.6v-12.3c0-2.2,0.5-4.2,1.4-5.9c0.9-1.7,2.3-3,4.1-4.1
			c1.8-1,3.2-1.3,4.1-0.7c0.9,0.6,1.4,2,1.4,4.2v12.3c0,2.3-0.5,4.4-1.4,6.2c-0.9,1.8-2.3,3.2-4.1,4.3
			C174.9,411,173.5,411.1,172.6,410.4z M177.5,404.1c0.1-0.5,0.2-1.1,0.2-1.8v-12.7c0-0.6-0.1-1-0.2-1.3c-0.1-0.3-0.4-0.3-0.8-0.1
			c-0.7,0.4-1.1,1.3-1.1,2.6v12.6c0,0.7,0.1,1.3,0.2,1.6c0.2,0.3,0.4,0.3,0.9,0.1C177.1,404.9,177.4,404.6,177.5,404.1z"/>
		<path id="XMLID_25_" class="st32" d="M184.7,405.1v-25.9l6.8-3.9l1.9,14.7l1.9-16.9l6.9-4V395l-4.1,2.4v-18.7l-2.6,20.1l-4,2.3
			l-2.7-17.1v18.7L184.7,405.1z"/>
		<path id="XMLID_27_" class="st32" d="M204.8,393.5v-25.9l9-5.2v5l-4.4,2.5v5l4.2-2.4v4.9l-4.2,2.4v5.9l4.7-2.7v5L204.8,393.5z"/>
	</g>
	<polygon id="XMLID_31_" class="st33" points="173.7,282.2 150.4,283.1 150.4,289.9 100.4,318.5 100.4,329.8 150.4,301.2 
		150.4,308.2 	"/>
	<polygon id="XMLID_29_" class="st34" points="72.1,360.8 95.4,359.9 95.4,353.1 145.4,324.5 145.4,313.2 95.4,341.8 95.4,334.7 	
		"/>
</g>
<g id="Calque_3">
</g>
</svg>
