<?xml version="1.0" encoding="utf-8"?>
<!-- Generator: Adobe Illustrator 19.0.0, SVG Export Plug-In . SVG Version: 6.00 Build 0)  -->
<svg version="1.1" id="Calque_1" xmlns="http://www.w3.org/2000/svg" xmlns:xlink="http://www.w3.org/1999/xlink" x="0px" y="0px"
	 viewBox="-5 257 600 280" style="enable-background:new -5 257 600 280;" xml:space="preserve">
<style type="text/css">
	.st0{fill:#E3F1FF;}
	.st1{fill:#FAFFE6;}
	.st2{fill:#DBDBDB;}
	.st3{clip-path:url(#SVGID_2_);fill:#AC2C69;}
	.st4{clip-path:url(#SVGID_4_);fill:#6A1B44;}
	.st5{clip-path:url(#SVGID_6_);fill:#501537;}
	.st6{clip-path:url(#SVGID_8_);fill:#CDCDCD;}
	.st7{clip-path:url(#SVGID_10_);fill:#D2671F;}
	.st8{clip-path:url(#SVGID_12_);fill:#998FA7;}
	.st9{fill:#5B1B31;}
	.st10{fill:url(#XMLID_2_);}
	.st11{fill:#57517E;}
	.st12{clip-path:url(#SVGID_14_);fill:url(#XMLID_3_);}
	.st13{clip-path:url(#SVGID_16_);fill:#AC98F9;}
	.st14{clip-path:url(#SVGID_18_);fill:#E8DEF6;}
	.st15{clip-path:url(#SVGID_20_);fill:#796C89;}
	.st16{clip-path:url(#SVGID_22_);fill:#D7CCF3;}
	.st17{clip-path:url(#SVGID_24_);fill:#B4A4D2;}
	.st18{clip-path:url(#SVGID_26_);fill:#B4A4D2;}
	.st19{clip-path:url(#SVGID_28_);fill:#D7CCF3;}
	.st20{clip-path:url(#SVGID_30_);fill:#7B6E89;}
	.st21{clip-path:url(#SVGID_32_);fill:#B4A4D2;}
	.st22{clip-path:url(#SVGID_34_);fill:#7B6E89;}
	.st23{fill:url(#XMLID_5_);}
	.st24{clip-path:url(#SVGID_36_);fill:#E8DEF6;}
	.st25{clip-path:url(#SVGID_38_);fill:#796C89;}
	.st26{clip-path:url(#SVGID_40_);fill:#5B76C4;}
	.st27{clip-path:url(#SVGID_42_);fill:#374782;}
	.st28{clip-path:url(#SVGID_44_);fill:#2C306D;}
	.st29{fill:#292956;}
	.st30{fill:url(#XMLID_6_);}
	.st31{fill:#5F4C84;}
	.st32{clip-path:url(#SVGID_46_);fill:url(#XMLID_7_);}
	.st33{clip-path:url(#SVGID_48_);fill:#BA8AFF;}
	.st34{clip-path:url(#SVGID_50_);fill:#D3D3D3;}
	.st35{clip-path:url(#SVGID_52_);fill:#D87805;}
	.st36{clip-path:url(#SVGID_54_);fill:#A390AD;}
	.st37{fill:#456184;}
	.st38{clip-path:url(#SVGID_56_);fill:#B2182B;}
	.st39{clip-path:url(#SVGID_58_);fill:#700F1F;}
	.st40{clip-path:url(#SVGID_60_);fill:#560C1C;}
	.st41{clip-path:url(#SVGID_62_);fill:#D3D3D3;}
	.st42{clip-path:url(#SVGID_64_);fill:#D87805;}
	.st43{clip-path:url(#SVGID_66_);fill:#A390AD;}
	.st44{fill:#420B0B;}
	.st45{fill:url(#XMLID_8_);}
	.st46{clip-path:url(#SVGID_68_);fill:url(#XMLID_9_);}
	.st47{clip-path:url(#SVGID_70_);fill:#BA8AFF;}
	.st48{fill:#8C1327;}
	.st49{clip-path:url(#SVGID_72_);fill:url(#XMLID_10_);}
	.st50{clip-path:url(#SVGID_74_);fill:#682710;}
	.st51{clip-path:url(#SVGID_76_);fill:#7F1E04;}
	.st52{clip-path:url(#SVGID_78_);fill:url(#XMLID_11_);}
	.st53{clip-path:url(#SVGID_80_);fill:#DD5612;}
	.st54{clip-path:url(#SVGID_82_);fill:url(#XMLID_12_);}
	.st55{clip-path:url(#SVGID_84_);fill:#71AEAF;}
	.st56{clip-path:url(#SVGID_86_);fill:#CDF6FC;}
	.st57{clip-path:url(#SVGID_88_);fill:#CCFEFF;}
	.st58{clip-path:url(#SVGID_90_);fill:url(#XMLID_13_);}
	.st59{clip-path:url(#SVGID_92_);fill:url(#XMLID_14_);}
	.st60{clip-path:url(#SVGID_94_);fill:url(#XMLID_15_);}
	.st61{clip-path:url(#SVGID_96_);fill:#560015;}
	.st62{clip-path:url(#SVGID_98_);fill:#560015;}
	.st63{clip-path:url(#SVGID_100_);fill:#E8DEF6;}
	.st64{clip-path:url(#SVGID_102_);fill:#B4A4D2;}
	.st65{fill:#B4A4D2;}
	.st66{fill:#796C89;}
	.st67{fill:#7B6E89;}
	.st68{clip-path:url(#SVGID_104_);fill:#F2C07C;}
	.st69{clip-path:url(#SVGID_106_);fill:url(#XMLID_16_);}
	.st70{clip-path:url(#SVGID_108_);fill:url(#XMLID_17_);}
	.st71{clip-path:url(#SVGID_110_);fill:url(#XMLID_18_);}
	.st72{clip-path:url(#SVGID_112_);fill:#ADADAD;}
	.st73{clip-path:url(#SVGID_114_);fill:#DB3183;}
	.st74{clip-path:url(#SVGID_116_);fill:#FF64D0;}
	.st75{clip-path:url(#SVGID_118_);fill:#232323;}
	.st76{clip-path:url(#SVGID_120_);fill:url(#XMLID_19_);}
	.st77{clip-path:url(#SVGID_122_);fill:#844404;}
	.st78{clip-path:url(#SVGID_124_);fill:#B74106;}
	.st79{fill:url(#XMLID_20_);}
	.st80{clip-path:url(#SVGID_126_);fill:url(#XMLID_21_);}
	.st81{clip-path:url(#SVGID_128_);fill:#3C0484;}
	.st82{clip-path:url(#SVGID_130_);fill:#2906B7;}
	.st83{fill:url(#XMLID_22_);}
	.st84{fill:url(#XMLID_23_);}
	.st85{fill:url(#XMLID_24_);}
	.st86{clip-path:url(#SVGID_132_);fill:#A57467;}
	.st87{clip-path:url(#SVGID_134_);fill:#8E625A;}
	.st88{fill:#1A1A1A;}
	.st89{fill:#0E3B63;}
	.st90{clip-path:url(#SVGID_136_);fill:#20568C;}
	.st91{clip-path:url(#SVGID_138_);}
	.st92{fill:#1D4E81;}
	.st93{clip-path:url(#SVGID_140_);fill:url(#XMLID_25_);}
	.st94{clip-path:url(#SVGID_142_);}
	.st95{fill:url(#XMLID_26_);}
	.st96{fill:url(#XMLID_27_);}
</style>
<circle id="XMLID_360_" class="st0" cx="228.8" cy="383.7" r="51.3"/>
<circle id="XMLID_408_" class="st1" cx="382" cy="447.7" r="89.2"/>
<circle id="XMLID_409_" class="st0" cx="540.5" cy="434" r="11.5"/>
<ellipse class="st2" cx="307.8" cy="531.3" rx="277.8" ry="5.7"/>
<g id="classeur_3">
	<g id="XMLID_547_">
		<g>
			<defs>
				<path id="SVGID_1_" d="M410.3,533l2.4-150.7c0,0-8.6-7-25.7-6.5l-4.2,0.3l-90,7.7L283.6,530l93,2.6l3.8,0.6h29.9V533z"/>
			</defs>
			<clipPath id="SVGID_2_">
				<use xlink:href="#SVGID_1_"  style="overflow:visible;"/>
			</clipPath>
			<polygon id="XMLID_554_" class="st3" points="286.8,379 278.9,536 416,536 416,379 398.2,372 376,372 			"/>
		</g>
		<g>
			<defs>
				<path id="SVGID_3_" d="M410.3,533l2.4-150.7c0,0-8.6-7-25.7-6.5l-4.2,0.3l-90,7.7L283.6,530l93,2.6l3.8,0.6h29.9V533z"/>
			</defs>
			<clipPath id="SVGID_4_">
				<use xlink:href="#SVGID_3_"  style="overflow:visible;"/>
			</clipPath>
			<path id="XMLID_552_" class="st4" d="M376.1,536l7-167.3c0,0,25.6,1.3,32.9,10.5c-0.4,18.1-3.3,155.8-3.3,155.8L376.1,536z"/>
		</g>
		<g>
			<defs>
				<path id="SVGID_5_" d="M410.3,533l2.4-150.7c0,0-8.6-7-25.7-6.5l-4.2,0.3l-90,7.7L283.6,530l93,2.6l3.8,0.6h29.9V533z"/>
			</defs>
			<clipPath id="SVGID_6_">
				<use xlink:href="#SVGID_5_"  style="overflow:visible;"/>
			</clipPath>
			<path id="XMLID_551_" class="st5" d="M380.6,534l6.5-161.4c0,0,27.5,1.8,31.5,11.7C418,402,415.3,534,415.3,534H380.6z"/>
		</g>
	</g>
	<g id="XMLID_538_">
		<g>
			<defs>
				<path id="SVGID_7_" d="M388.7,382.5l-1.9,92.4c0,0,16.2-0.2,22.1,0.8l1.3-88.4C410.1,387.3,404.4,382.3,388.7,382.5z"/>
			</defs>
			<clipPath id="SVGID_8_">
				<use xlink:href="#SVGID_7_"  style="overflow:visible;"/>
			</clipPath>
			<path id="XMLID_546_" class="st6" d="M386.9,381.9l-4.2,94.6l27.6,0.3l0.4-90.7C410.7,386.1,400,379.7,386.9,381.9z"/>
		</g>
		<g>
			<defs>
				<path id="SVGID_9_" d="M388.7,382.5l-1.9,92.4c0,0,16.2-0.2,22.1,0.8l1.3-88.4C410.1,387.3,404.4,382.3,388.7,382.5z"/>
			</defs>
			<clipPath id="SVGID_10_">
				<use xlink:href="#SVGID_9_"  style="overflow:visible;"/>
			</clipPath>
			<path id="XMLID_544_" class="st7" d="M386.5,399.1c0,0,13.5-3.1,23.9,1.8c0,12.8,0,12.8,0,12.8s-5.4-2.9-23.4-1.4
				C387,403.6,386.5,399.1,386.5,399.1z"/>
		</g>
		<g>
			<defs>
				<path id="SVGID_11_" d="M388.7,382.5l-1.9,92.4c0,0,16.2-0.2,22.1,0.8l1.3-88.4C410.1,387.3,404.4,382.3,388.7,382.5z"/>
			</defs>
			<clipPath id="SVGID_12_">
				<use xlink:href="#SVGID_11_"  style="overflow:visible;"/>
			</clipPath>
			<path id="XMLID_543_" class="st8" d="M386.7,419.5c0,0,15.7-1.7,23.6,1.3c-0.1,6.7,0,7.1,0,7.1s-7-2.4-23.7-1.7
				C386.7,422,386.7,419.5,386.7,419.5z"/>
		</g>
	</g>
	<g id="XMLID_521_">
		
			<ellipse id="XMLID_537_" transform="matrix(1.986944e-002 0.9998 -0.9998 1.986944e-002 888.2985 92.9494)" class="st9" cx="396.7" cy="499.5" rx="13.7" ry="8.9"/>
		
			<linearGradient id="XMLID_2_" gradientUnits="userSpaceOnUse" x1="368.7105" y1="278.6686" x2="368.7105" y2="302.1287" gradientTransform="matrix(0.9941 -0.108 -0.108 -0.9941 61.4304 825.5843)">
			<stop  offset="0" style="stop-color:#390713"/>
			<stop  offset="1" style="stop-color:#2E0623"/>
		</linearGradient>
		<path id="XMLID_536_" class="st10" d="M402.8,497.5c-0.5,6.5-3.7,11.6-7.1,11.4s-5.8-5.8-5.3-12.3s3.7-11.6,7.1-11.4
			C400.9,485.5,403.3,491,402.8,497.5z"/>
		<path id="XMLID_535_" class="st11" d="M396.4,485.4c0,0,6.1,1.7,5.4,11.6c-0.7,9.9-7.3,10.8-7.3,10.8s6.4,2.2,9.4-4.1
			C406.9,497.5,405,482.9,396.4,485.4z"/>
		<g id="XMLID_529_">
			<g>
				<defs>
					<path id="SVGID_13_" d="M398.1,481.9c-5-0.3-9.5,6-10,14.1s3.1,15,8.1,15.3c5,0.3,9.5-6,10-14.1
						C406.7,489.1,403.1,482.2,398.1,481.9z M404.6,497c-0.3,6.1-3.6,10.9-7.4,10.8c-3.8-0.2-6.7-5.3-6.5-11.4
						c0.3-6.1,3.6-10.9,7.4-10.8C401.9,485.8,404.8,490.8,404.6,497z"/>
				</defs>
				<clipPath id="SVGID_14_">
					<use xlink:href="#SVGID_13_"  style="overflow:visible;"/>
				</clipPath>
				
					<linearGradient id="XMLID_3_" gradientUnits="userSpaceOnUse" x1="369.3907" y1="274.2735" x2="369.3907" y2="306.8415" gradientTransform="matrix(0.9941 -0.108 -0.108 -0.9941 61.4304 825.5843)">
					<stop  offset="0" style="stop-color:#B5A0F9"/>
					<stop  offset="1" style="stop-color:#DED5F9"/>
				</linearGradient>
				<path id="XMLID_534_" class="st12" d="M391.5,481.1l9.5,0.1l5.3,3.5l1.9,7.3l-1.5,13.6l-6.5,7.4h-4.9l-6.2-3.5l-2-5.2l-1.2-6.5
					c0,0,1.8-8.8,1.7-9c-0.1-0.2,2.6-6.1,2.6-6.1L391.5,481.1z"/>
			</g>
			<g>
				<defs>
					<path id="SVGID_15_" d="M398.1,481.9c-5-0.3-9.5,6-10,14.1s3.1,15,8.1,15.3c5,0.3,9.5-6,10-14.1
						C406.7,489.1,403.1,482.2,398.1,481.9z M404.6,497c-0.3,6.1-3.6,10.9-7.4,10.8c-3.8-0.2-6.7-5.3-6.5-11.4
						c0.3-6.1,3.6-10.9,7.4-10.8C401.9,485.8,404.8,490.8,404.6,497z"/>
				</defs>
				<clipPath id="SVGID_16_">
					<use xlink:href="#SVGID_15_"  style="overflow:visible;"/>
				</clipPath>
				<path id="XMLID_533_" class="st13" d="M396.7,511.7l1-3.4c0,0,4-0.7,5.8-5.1l0.7,2.6c0,0,2.3-2.5,2.9-10.3s-2.6-13.1-7.5-13.9
					c-0.1,1.1-0.5,3.1-0.5,3.1s-3.2-0.7-6.4,2.9l-2.6-2c0,0-3.5,6-2.7,14.2C388.4,507.8,392.5,511.9,396.7,511.7z"/>
			</g>
		</g>
	</g>
</g>
<g id="XMLID_405_">
	<g>
		<defs>
			<path id="SVGID_17_" d="M293.1,533.2l77.6,1.4l94-1l2.1-13.6H458l0.8-2.9l2.6-0.4l0.5-1.7H488c0,0-22.9-11.4-23.6-14.1
				c0.8-4.3,2.3-12.6,2.3-12.6l-3.5-1.2l0.4-2.7l-2.6-0.7l0.7-4.8H483l-20.7-4.1l0.7-4.9H363l-63.2,3.1l-0.8,5.2l-2,0.3v6.4
				l-2.7,0.6L293.1,533.2z"/>
		</defs>
		<clipPath id="SVGID_18_">
			<use xlink:href="#SVGID_17_"  style="overflow:visible;"/>
		</clipPath>
		<polygon id="XMLID_407_" class="st14" points="297,470.7 368.9,467 471,467 492.5,479 494.8,521.6 468.7,539.5 288.4,536.6 
			289.3,482.9 		"/>
	</g>
	<g>
		<defs>
			<path id="SVGID_19_" d="M293.1,533.2l77.6,1.4l94-1l2.1-13.6H458l0.8-2.9l2.6-0.4l0.5-1.7H488c0,0-22.9-11.4-23.6-14.1
				c0.8-4.3,2.3-12.6,2.3-12.6l-3.5-1.2l0.4-2.7l-2.6-0.7l0.7-4.8H483l-20.7-4.1l0.7-4.9H363l-63.2,3.1l-0.8,5.2l-2,0.3v6.4
				l-2.7,0.6L293.1,533.2z"/>
		</defs>
		<clipPath id="SVGID_20_">
			<use xlink:href="#SVGID_19_"  style="overflow:visible;"/>
		</clipPath>
		<polygon id="XMLID_398_" class="st15" points="370.6,535.5 372.6,522 365,522 364.5,519.5 367.8,519 368.9,489 367,489 
			367.1,485.8 364.5,485.9 357.3,484 365,484 364.5,465.9 284.8,470.4 282.3,516.1 289.6,539.9 370,538.1 		"/>
	</g>
	<g>
		<defs>
			<path id="SVGID_21_" d="M293.1,533.2l77.6,1.4l94-1l2.1-13.6H458l0.8-2.9l2.6-0.4l0.5-1.7H488c0,0-22.9-11.4-23.6-14.1
				c0.8-4.3,2.3-12.6,2.3-12.6l-3.5-1.2l0.4-2.7l-2.6-0.7l0.7-4.8H483l-20.7-4.1l0.7-4.9H363l-63.2,3.1l-0.8,5.2l-2,0.3v6.4
				l-2.7,0.6L293.1,533.2z"/>
		</defs>
		<clipPath id="SVGID_22_">
			<use xlink:href="#SVGID_21_"  style="overflow:visible;"/>
		</clipPath>
		<path id="XMLID_400_" class="st16" d="M465,474l-99.7,4.3l99.2,0.5l9,2.2h9.5l2.5-1.1l0.7-3c0,0-9.8-1.9-10.1-1.9
			s-8.3-0.9-8.3-0.9H465V474z"/>
	</g>
	<g>
		<defs>
			<path id="SVGID_23_" d="M293.1,533.2l77.6,1.4l94-1l2.1-13.6H458l0.8-2.9l2.6-0.4l0.5-1.7H488c0,0-22.9-11.4-23.6-14.1
				c0.8-4.3,2.3-12.6,2.3-12.6l-3.5-1.2l0.4-2.7l-2.6-0.7l0.7-4.8H483l-20.7-4.1l0.7-4.9H363l-63.2,3.1l-0.8,5.2l-2,0.3v6.4
				l-2.7,0.6L293.1,533.2z"/>
		</defs>
		<clipPath id="SVGID_24_">
			<use xlink:href="#SVGID_23_"  style="overflow:visible;"/>
		</clipPath>
		<polygon id="XMLID_399_" class="st17" points="357.8,483.5 365,485.6 465.4,484.7 463.6,483.1 		"/>
	</g>
	<g>
		<defs>
			<path id="SVGID_25_" d="M293.1,533.2l77.6,1.4l94-1l2.1-13.6H458l0.8-2.9l2.6-0.4l0.5-1.7H488c0,0-22.9-11.4-23.6-14.1
				c0.8-4.3,2.3-12.6,2.3-12.6l-3.5-1.2l0.4-2.7l-2.6-0.7l0.7-4.8H483l-20.7-4.1l0.7-4.9H363l-63.2,3.1l-0.8,5.2l-2,0.3v6.4
				l-2.7,0.6L293.1,533.2z"/>
		</defs>
		<clipPath id="SVGID_26_">
			<use xlink:href="#SVGID_25_"  style="overflow:visible;"/>
		</clipPath>
		<polygon id="XMLID_401_" class="st18" points="463.2,488 371.3,488.6 467.1,489.3 469,488 		"/>
	</g>
	<g>
		<defs>
			<path id="SVGID_27_" d="M293.1,533.2l77.6,1.4l94-1l2.1-13.6H458l0.8-2.9l2.6-0.4l0.5-1.7H488c0,0-22.9-11.4-23.6-14.1
				c0.8-4.3,2.3-12.6,2.3-12.6l-3.5-1.2l0.4-2.7l-2.6-0.7l0.7-4.8H483l-20.7-4.1l0.7-4.9H363l-63.2,3.1l-0.8,5.2l-2,0.3v6.4
				l-2.7,0.6L293.1,533.2z"/>
		</defs>
		<clipPath id="SVGID_28_">
			<use xlink:href="#SVGID_27_"  style="overflow:visible;"/>
		</clipPath>
		<polygon id="XMLID_402_" class="st19" points="462.9,508.7 390.5,513.7 468.5,514.5 474,516.7 491.2,518.6 495.9,513.6 
			479.9,503.9 464.6,499.4 		"/>
	</g>
	<g>
		<defs>
			<path id="SVGID_29_" d="M293.1,533.2l77.6,1.4l94-1l2.1-13.6H458l0.8-2.9l2.6-0.4l0.5-1.7H488c0,0-22.9-11.4-23.6-14.1
				c0.8-4.3,2.3-12.6,2.3-12.6l-3.5-1.2l0.4-2.7l-2.6-0.7l0.7-4.8H483l-20.7-4.1l0.7-4.9H363l-63.2,3.1l-0.8,5.2l-2,0.3v6.4
				l-2.7,0.6L293.1,533.2z"/>
		</defs>
		<clipPath id="SVGID_30_">
			<use xlink:href="#SVGID_29_"  style="overflow:visible;"/>
		</clipPath>
		<polygon id="XMLID_403_" class="st20" points="468.2,518.8 444.5,530.4 433.4,520.2 432.8,517.7 390.8,513.7 413.4,513.9 
			463.5,514.4 463.7,517.5 		"/>
	</g>
	<g>
		<defs>
			<path id="SVGID_31_" d="M293.1,533.2l77.6,1.4l94-1l2.1-13.6H458l0.8-2.9l2.6-0.4l0.5-1.7H488c0,0-22.9-11.4-23.6-14.1
				c0.8-4.3,2.3-12.6,2.3-12.6l-3.5-1.2l0.4-2.7l-2.6-0.7l0.7-4.8H483l-20.7-4.1l0.7-4.9H363l-63.2,3.1l-0.8,5.2l-2,0.3v6.4
				l-2.7,0.6L293.1,533.2z"/>
		</defs>
		<clipPath id="SVGID_32_">
			<use xlink:href="#SVGID_31_"  style="overflow:visible;"/>
		</clipPath>
		<polygon id="XMLID_404_" class="st21" points="364.5,519.2 432.8,517.7 433.4,520.2 365,521.5 		"/>
	</g>
	<g>
		<defs>
			<path id="SVGID_33_" d="M293.1,533.2l77.6,1.4l94-1l2.1-13.6H458l0.8-2.9l2.6-0.4l0.5-1.7H488c0,0-22.9-11.4-23.6-14.1
				c0.8-4.3,2.3-12.6,2.3-12.6l-3.5-1.2l0.4-2.7l-2.6-0.7l0.7-4.8H483l-20.7-4.1l0.7-4.9H363l-63.2,3.1l-0.8,5.2l-2,0.3v6.4
				l-2.7,0.6L293.1,533.2z"/>
		</defs>
		<clipPath id="SVGID_34_">
			<use xlink:href="#SVGID_33_"  style="overflow:visible;"/>
		</clipPath>
		<polygon id="XMLID_406_" class="st22" points="365.3,478.1 416.7,483.2 429.5,485 430.5,486.8 449.8,487.6 465.6,494.1 
			470.8,490.9 471.8,484.9 464.1,478.4 		"/>
	</g>
</g>
<g id="paper">
	
		<linearGradient id="XMLID_5_" gradientUnits="userSpaceOnUse" x1="300.8" y1="447.8913" x2="300.8" y2="464" gradientTransform="matrix(1 0 0 -1 0 796)">
		<stop  offset="0" style="stop-color:#D46600"/>
		<stop  offset="0.7559" style="stop-color:#E58500"/>
	</linearGradient>
	<path id="XMLID_384_" class="st23" d="M292.6,347.3c0,0,0.1-10.3,3.6-15.3H309c0,0-7.1,9.6-7.6,16
		C296,348.4,292.6,347.3,292.6,347.3z"/>
	<g id="XMLID_411_">
		<g>
			<defs>
				<path id="SVGID_35_" d="M274.6,367.5l4.1-22.5H366l5,1.7v3.3l2.1,0.5l11.6-0.9l-2,4.5l2.1,0.8l-6.3,22.3c0,0-10-5.2-15.3-6
					c-5.3-0.8-15.7-1.1-15.7-1.1L274.6,367.5z"/>
			</defs>
			<clipPath id="SVGID_36_">
				<use xlink:href="#SVGID_35_"  style="overflow:visible;"/>
			</clipPath>
			<polygon id="XMLID_413_" class="st24" points="275,343 363,343 368.8,337.4 396,349.7 392.9,386.6 371.5,390.6 329.7,375.7 
				272.9,370.7 270.6,364.1 			"/>
		</g>
		<g>
			<defs>
				<path id="SVGID_37_" d="M274.6,367.5l4.1-22.5H366l5,1.7v3.3l2.1,0.5l11.6-0.9l-2,4.5l2.1,0.8l-6.3,22.3c0,0-10-5.2-15.3-6
					c-5.3-0.8-15.7-1.1-15.7-1.1L274.6,367.5z"/>
			</defs>
			<clipPath id="SVGID_38_">
				<use xlink:href="#SVGID_37_"  style="overflow:visible;"/>
			</clipPath>
			<polygon id="XMLID_412_" class="st25" points="366,344.5 360.3,371.1 363.1,375.3 378.6,380.9 382.3,378.4 388.3,353.3 
				382.8,354.1 372.3,377.6 371.3,376.5 377.9,352.2 373.4,350.5 372.7,344.5 367.3,341.9 			"/>
		</g>
	</g>
</g>
<g id="classeur1">
	<g id="XMLID_359_">
		<g>
			<defs>
				<path id="SVGID_39_" d="M264.7,364.8l88.4,3.2l4.2,0.3c0,0,16.8,2.5,24.4,10.3L355.1,524l-29.4-4.9l-4.3-0.8l-3.8-1.5
					l-83.2-26.5L264.7,364.8z"/>
			</defs>
			<clipPath id="SVGID_40_">
				<use xlink:href="#SVGID_39_"  style="overflow:visible;"/>
			</clipPath>
			<polygon id="XMLID_356_" class="st26" points="259.9,360.2 362.8,366 388.5,374.2 358.5,528.9 312.3,521.3 229.1,491.7 			"/>
		</g>
		<g>
			<defs>
				<path id="SVGID_41_" d="M264.7,364.8l88.4,3.2l4.2,0.3c0,0,16.8,2.5,24.4,10.3L355.1,524l-29.4-4.9l-4.3-0.8l-3.8-1.5
					l-83.2-26.5L264.7,364.8z"/>
			</defs>
			<clipPath id="SVGID_42_">
				<use xlink:href="#SVGID_41_"  style="overflow:visible;"/>
			</clipPath>
			<polygon id="XMLID_357_" class="st27" points="321,518.4 353,368.1 354.3,366.6 365.1,368 385.7,374.8 382.6,399.3 357.4,527.3 
				321,520.4 			"/>
		</g>
		<g>
			<defs>
				<path id="SVGID_43_" d="M264.7,364.8l88.4,3.2l4.2,0.3c0,0,16.8,2.5,24.4,10.3L355.1,524l-29.4-4.9l-4.3-0.8l-3.8-1.5
					l-83.2-26.5L264.7,364.8z"/>
			</defs>
			<clipPath id="SVGID_44_">
				<use xlink:href="#SVGID_43_"  style="overflow:visible;"/>
			</clipPath>
			<polygon id="XMLID_358_" class="st28" points="325,519.2 357,368.4 358.8,367 383.2,375.3 384.5,382.1 356,527.3 325,522.1 			
				"/>
		</g>
	</g>
	<g id="XMLID_343_">
		
			<ellipse id="XMLID_342_" transform="matrix(-8.827194e-002 0.9961 -0.9961 -8.827194e-002 870.716 191.9218)" class="st29" cx="347.5" cy="494.4" rx="13.7" ry="8.9"/>
		
			<linearGradient id="XMLID_6_" gradientUnits="userSpaceOnUse" x1="347.6" y1="292.2321" x2="347.6" y2="315.6935" gradientTransform="matrix(1 0 0 -1 0 796)">
			<stop  offset="0" style="stop-color:#2D003F"/>
			<stop  offset="1" style="stop-color:#130034"/>
		</linearGradient>
		<path id="XMLID_341_" class="st30" d="M353.7,493.2c-1.2,6.4-4.9,11.2-8.3,10.5c-3.4-0.6-5.1-6.4-3.9-12.8s4.9-11.2,8.3-10.5
			C353.2,481,354.9,486.7,353.7,493.2z"/>
		<path id="XMLID_340_" class="st31" d="M348.7,480.4c0,0,5.8,2.4,4.1,12.1c-1.7,9.8-8.5,10-8.5,10s6.1,2.9,9.8-3
			C357.9,493.6,357.6,478.8,348.7,480.4z"/>
		<g id="XMLID_338_">
			<g>
				<defs>
					<path id="SVGID_45_" d="M350.8,477.1c-4.9-0.9-10.1,4.9-11.5,12.9s1.5,15.2,6.4,16.1c5,0.9,10.1-4.9,11.5-12.9
						C358.6,485.1,355.7,478,350.8,477.1z M355.6,492.8c-0.9,6.1-4.7,10.5-8.5,9.9c-3.8-0.6-6.1-6-5.2-12s4.7-10.5,8.5-9.9
						C354.2,481.3,356.5,486.7,355.6,492.8z"/>
				</defs>
				<clipPath id="SVGID_46_">
					<use xlink:href="#SVGID_45_"  style="overflow:visible;"/>
				</clipPath>
				
					<linearGradient id="XMLID_7_" gradientUnits="userSpaceOnUse" x1="348.3" y1="287.8487" x2="348.3" y2="320.4167" gradientTransform="matrix(1 0 0 -1 0 796)">
					<stop  offset="0" style="stop-color:#C394FF"/>
					<stop  offset="1" style="stop-color:#E7D4FF"/>
				</linearGradient>
				<path id="XMLID_337_" class="st32" d="M344.3,475.6l9.4,1.1l4.9,4l1.1,7.5l-3,13.3l-7.3,6.6l-4.8-0.5l-5.7-4.1l-1.5-5.4
					l-0.5-6.6c0,0,2.7-8.5,2.6-8.8s3.2-5.8,3.2-5.8L344.3,475.6z"/>
			</g>
			<g>
				<defs>
					<path id="SVGID_47_" d="M350.8,477.1c-4.9-0.9-10.1,4.9-11.5,12.9s1.5,15.2,6.4,16.1c5,0.9,10.1-4.9,11.5-12.9
						C358.6,485.1,355.7,478,350.8,477.1z M355.6,492.8c-0.9,6.1-4.7,10.5-8.5,9.9c-3.8-0.6-6.1-6-5.2-12s4.7-10.5,8.5-9.9
						C354.2,481.3,356.5,486.7,355.6,492.8z"/>
				</defs>
				<clipPath id="SVGID_48_">
					<use xlink:href="#SVGID_47_"  style="overflow:visible;"/>
				</clipPath>
				<path id="XMLID_339_" class="st33" d="M346.2,506.6l1.4-3.3c0,0,4.1-0.3,6.4-4.4l0.4,2.6c0,0,2.6-2.3,4-9.9
					c1.4-7.6-1.2-13.3-5.9-14.6c-0.2,1.1-0.8,3-0.8,3s-3.1-1-6.6,2.2l-2.3-2.3c0,0-4.1,5.6-4.2,13.8S342,506.3,346.2,506.6z"/>
			</g>
		</g>
	</g>
	<g id="XMLID_355_">
		<g>
			<defs>
				<path id="SVGID_49_" d="M360.2,371.6l-18.4,90.5c0,0,16,2.7,21.6,4.7l17.1-86.7C380.5,380.1,375.6,374.2,360.2,371.6z"/>
			</defs>
			<clipPath id="SVGID_50_">
				<use xlink:href="#SVGID_49_"  style="overflow:visible;"/>
			</clipPath>
			<path id="XMLID_351_" class="st34" d="M358.5,370.7L337.4,463l27.1,5.3l16.6-89.1C381.2,379.1,371.8,370.9,358.5,370.7z"/>
		</g>
		<g>
			<defs>
				<path id="SVGID_51_" d="M360.2,371.6l-18.4,90.5c0,0,16,2.7,21.6,4.7l17.1-86.7C380.5,380.1,375.6,374.2,360.2,371.6z"/>
			</defs>
			<clipPath id="SVGID_52_">
				<use xlink:href="#SVGID_51_"  style="overflow:visible;"/>
			</clipPath>
			<path id="XMLID_345_" class="st35" d="M355.1,387.5c0,0,13.9-0.6,23.2,6c-2.3,12.6-2.3,12.6-2.3,12.6s-4.8-3.8-22.8-5.6
				C354.8,392.1,355.1,387.5,355.1,387.5z"/>
		</g>
		<g>
			<defs>
				<path id="SVGID_53_" d="M360.2,371.6l-18.4,90.5c0,0,16,2.7,21.6,4.7l17.1-86.7C380.5,380.1,375.6,374.2,360.2,371.6z"/>
			</defs>
			<clipPath id="SVGID_54_">
				<use xlink:href="#SVGID_53_"  style="overflow:visible;"/>
			</clipPath>
			<path id="XMLID_347_" class="st36" d="M351.6,407.6c0,0,15.8,1.2,23,5.5c-1.3,6.6-1.3,7-1.3,7s-6.5-3.6-23-5.9
				C351.1,410.1,351.6,407.6,351.6,407.6z"/>
		</g>
	</g>
</g>
<polygon id="XMLID_396_" class="st37" points="324.7,383.3 337,391.7 322.8,504.8 317.7,486.6 322.1,384.7 "/>
<g id="classeur_2">
	<g id="XMLID_365_">
		<g>
			<defs>
				<path id="SVGID_55_" d="M322.3,534l2.4-150.7c0,0-8.6-7-25.7-6.5l-4.2,0.3l-90,7.7L195.6,531l93,2.6l3.8,0.6h29.9V534z"/>
			</defs>
			<clipPath id="SVGID_56_">
				<use xlink:href="#SVGID_55_"  style="overflow:visible;"/>
			</clipPath>
			<polygon id="XMLID_368_" class="st38" points="198.8,380 190.9,537 328,537 328,380 310.2,373 288,373 			"/>
		</g>
		<g>
			<defs>
				<path id="SVGID_57_" d="M322.3,534l2.4-150.7c0,0-8.6-7-25.7-6.5l-4.2,0.3l-90,7.7L195.6,531l93,2.6l3.8,0.6h29.9V534z"/>
			</defs>
			<clipPath id="SVGID_58_">
				<use xlink:href="#SVGID_57_"  style="overflow:visible;"/>
			</clipPath>
			<path id="XMLID_361_" class="st39" d="M288.1,537l7-167.3c0,0,25.6,1.3,32.9,10.5c-0.4,18.1-3.3,155.8-3.3,155.8L288.1,537z"/>
		</g>
		<g>
			<defs>
				<path id="SVGID_59_" d="M322.3,534l2.4-150.7c0,0-8.6-7-25.7-6.5l-4.2,0.3l-90,7.7L195.6,531l93,2.6l3.8,0.6h29.9V534z"/>
			</defs>
			<clipPath id="SVGID_60_">
				<use xlink:href="#SVGID_59_"  style="overflow:visible;"/>
			</clipPath>
			<path id="XMLID_363_" class="st40" d="M292.6,535l6.5-161.4c0,0,27.5,1.8,31.5,11.7C330,403,327.3,535,327.3,535H292.6z"/>
		</g>
	</g>
	<g id="XMLID_369_">
		<g>
			<defs>
				<path id="SVGID_61_" d="M300.7,383.5l-1.9,92.4c0,0,16.2-0.2,22.1,0.8l1.3-88.4C322.1,388.3,316.4,383.3,300.7,383.5z"/>
			</defs>
			<clipPath id="SVGID_62_">
				<use xlink:href="#SVGID_61_"  style="overflow:visible;"/>
			</clipPath>
			<path id="XMLID_373_" class="st41" d="M298.9,382.9l-4.2,94.6l27.6,0.3l0.4-90.7C322.7,387.1,312,380.7,298.9,382.9z"/>
		</g>
		<g>
			<defs>
				<path id="SVGID_63_" d="M300.7,383.5l-1.9,92.4c0,0,16.2-0.2,22.1,0.8l1.3-88.4C322.1,388.3,316.4,383.3,300.7,383.5z"/>
			</defs>
			<clipPath id="SVGID_64_">
				<use xlink:href="#SVGID_63_"  style="overflow:visible;"/>
			</clipPath>
			<path id="XMLID_372_" class="st42" d="M298.5,400.1c0,0,13.5-3.1,23.9,1.8c0,12.8,0,12.8,0,12.8s-5.4-2.9-23.4-1.4
				C299,404.6,298.5,400.1,298.5,400.1z"/>
		</g>
		<g>
			<defs>
				<path id="SVGID_65_" d="M300.7,383.5l-1.9,92.4c0,0,16.2-0.2,22.1,0.8l1.3-88.4C322.1,388.3,316.4,383.3,300.7,383.5z"/>
			</defs>
			<clipPath id="SVGID_66_">
				<use xlink:href="#SVGID_65_"  style="overflow:visible;"/>
			</clipPath>
			<path id="XMLID_371_" class="st43" d="M298.7,420.5c0,0,15.7-1.7,23.6,1.3c-0.1,6.7,0,7.1,0,7.1s-7-2.4-23.7-1.7
				C298.7,423,298.7,420.5,298.7,420.5z"/>
		</g>
	</g>
	<g id="XMLID_374_">
		
			<ellipse id="XMLID_383_" transform="matrix(1.986944e-002 0.9998 -0.9998 1.986944e-002 803.0466 181.9124)" class="st44" cx="308.7" cy="500.5" rx="13.7" ry="8.9"/>
		
			<linearGradient id="XMLID_8_" gradientUnits="userSpaceOnUse" x1="281.1129" y1="287.1825" x2="281.1129" y2="310.6426" gradientTransform="matrix(0.9941 -0.108 -0.108 -0.9941 61.4304 825.5843)">
			<stop  offset="0" style="stop-color:#3F0300"/>
			<stop  offset="1" style="stop-color:#340014"/>
		</linearGradient>
		<path id="XMLID_382_" class="st45" d="M314.8,498.5c-0.5,6.5-3.7,11.6-7.1,11.4s-5.8-5.8-5.3-12.3s3.7-11.6,7.1-11.4
			C312.9,486.5,315.3,492,314.8,498.5z"/>
		<path id="XMLID_381_" class="st31" d="M308.4,486.4c0,0,6.1,1.7,5.4,11.6c-0.7,9.9-7.3,10.8-7.3,10.8s6.4,2.2,9.4-4.1
			C318.9,498.5,317,483.9,308.4,486.4z"/>
		<g id="XMLID_375_">
			<g>
				<defs>
					<path id="SVGID_67_" d="M310.1,482.9c-5-0.3-9.5,6-10,14.1s3.1,15,8.1,15.3s9.5-6,10-14.1C318.7,490.1,315.1,483.2,310.1,482.9
						z M316.6,498c-0.3,6.1-3.6,10.9-7.4,10.8c-3.8-0.2-6.7-5.3-6.5-11.4c0.3-6.1,3.6-10.9,7.4-10.8
						C313.9,486.8,316.8,491.8,316.6,498z"/>
				</defs>
				<clipPath id="SVGID_68_">
					<use xlink:href="#SVGID_67_"  style="overflow:visible;"/>
				</clipPath>
				
					<linearGradient id="XMLID_9_" gradientUnits="userSpaceOnUse" x1="281.793" y1="282.7875" x2="281.793" y2="315.3555" gradientTransform="matrix(0.9941 -0.108 -0.108 -0.9941 61.4304 825.5843)">
					<stop  offset="0" style="stop-color:#C394FF"/>
					<stop  offset="1" style="stop-color:#E7D4FF"/>
				</linearGradient>
				<path id="XMLID_380_" class="st46" d="M303.5,482.1l9.5,0.1l5.3,3.5l1.9,7.3l-1.5,13.6l-6.5,7.4h-4.9l-6.2-3.5l-2-5.2l-1.2-6.5
					c0,0,1.8-8.8,1.7-9c-0.1-0.2,2.6-6.1,2.6-6.1L303.5,482.1z"/>
			</g>
			<g>
				<defs>
					<path id="SVGID_69_" d="M310.1,482.9c-5-0.3-9.5,6-10,14.1s3.1,15,8.1,15.3s9.5-6,10-14.1C318.7,490.1,315.1,483.2,310.1,482.9
						z M316.6,498c-0.3,6.1-3.6,10.9-7.4,10.8c-3.8-0.2-6.7-5.3-6.5-11.4c0.3-6.1,3.6-10.9,7.4-10.8
						C313.9,486.8,316.8,491.8,316.6,498z"/>
				</defs>
				<clipPath id="SVGID_70_">
					<use xlink:href="#SVGID_69_"  style="overflow:visible;"/>
				</clipPath>
				<path id="XMLID_379_" class="st47" d="M308.7,512.7l1-3.4c0,0,4-0.7,5.8-5.1l0.7,2.6c0,0,2.3-2.5,2.9-10.3s-2.6-13.1-7.5-13.9
					c-0.1,1.1-0.5,3.1-0.5,3.1s-3.2-0.7-6.4,2.9l-2.6-2c0,0-3.5,6-2.7,14.2C300.4,508.8,304.5,512.9,308.7,512.7z"/>
			</g>
		</g>
	</g>
</g>
<polygon id="XMLID_395_" class="st48" points="278.5,398.5 285.7,403 287,405.7 282.7,434.8 272.5,444.5 263.4,532.7 257,533 
	253.4,512.3 265.9,399.3 "/>
<g id="XMLID_394_">
	<g id="XMLID_388_">
		<g>
			<defs>
				<polygon id="SVGID_71_" points="266.3,397.7 278.7,397.3 280,399 277.5,432.2 269.5,441 262.1,533 257,533 264.2,397.8 				"/>
			</defs>
			<clipPath id="SVGID_72_">
				<use xlink:href="#SVGID_71_"  style="overflow:visible;"/>
			</clipPath>
			
				<linearGradient id="XMLID_10_" gradientUnits="userSpaceOnUse" x1="265" y1="249.7" x2="265" y2="404.2" gradientTransform="matrix(1 0 0 -1 0 796)">
				<stop  offset="0.5184" style="stop-color:#BF3A00"/>
				<stop  offset="1" style="stop-color:#D45300"/>
			</linearGradient>
			<polygon id="XMLID_389_" class="st49" points="251.4,393.5 279.8,391.8 288,399 282,440.8 273,447.1 268.5,542.7 257.4,546.3 
				242,542.3 242,534 			"/>
		</g>
		<g>
			<defs>
				<polygon id="SVGID_73_" points="266.3,397.7 278.7,397.3 280,399 277.5,432.2 269.5,441 262.1,533 257,533 264.2,397.8 				"/>
			</defs>
			<clipPath id="SVGID_74_">
				<use xlink:href="#SVGID_73_"  style="overflow:visible;"/>
			</clipPath>
			<polygon id="XMLID_387_" class="st50" points="273.8,394.8 259.9,540.2 246.3,537 257,394.2 			"/>
		</g>
		<g>
			<defs>
				<polygon id="SVGID_75_" points="266.3,397.7 278.7,397.3 280,399 277.5,432.2 269.5,441 262.1,533 257,533 264.2,397.8 				"/>
			</defs>
			<clipPath id="SVGID_76_">
				<use xlink:href="#SVGID_75_"  style="overflow:visible;"/>
			</clipPath>
			<polygon id="XMLID_386_" class="st51" points="275.9,431.8 278.7,395.3 284.5,400.1 279.7,434.8 271.1,441.8 264.2,534.5 
				256.3,534.1 255.6,532 261.3,531.4 268.4,440.1 			"/>
		</g>
	</g>
	<g id="XMLID_390_">
		<g>
			<defs>
				<polygon id="SVGID_77_" points="268.4,394.9 261.3,532.4 166.6,532.1 169.7,400.2 267.2,393.5 				"/>
			</defs>
			<clipPath id="SVGID_78_">
				<use xlink:href="#SVGID_77_"  style="overflow:visible;"/>
			</clipPath>
			
				<linearGradient id="XMLID_11_" gradientUnits="userSpaceOnUse" x1="220.05" y1="259" x2="220.05" y2="405.4" gradientTransform="matrix(1 0 0 -1 0 796)">
				<stop  offset="0.5184" style="stop-color:#BF5800"/>
				<stop  offset="1" style="stop-color:#D47900"/>
			</linearGradient>
			<polygon id="XMLID_393_" class="st52" points="166.6,397.9 272.9,390.6 274.8,397.9 267.2,537 165.3,535.3 			"/>
		</g>
		<g>
			<defs>
				<polygon id="SVGID_79_" points="268.4,394.9 261.3,532.4 166.6,532.1 169.7,400.2 267.2,393.5 				"/>
			</defs>
			<clipPath id="SVGID_80_">
				<use xlink:href="#SVGID_79_"  style="overflow:visible;"/>
			</clipPath>
			<polygon id="XMLID_392_" class="st53" points="267.2,392.2 259.9,533 262.8,535.3 264.2,528.8 270.1,394.1 			"/>
		</g>
	</g>
</g>
<g id="cadena">
	<g id="XMLID_327_">
		<g>
			<defs>
				<path id="SVGID_81_" d="M159.6,373.6l7.7-16.9c3.1-6.7,10.9-9.8,17.7-6.9l0,0c7.1,3,10.3,11.4,7,18.4l-6.7,14.2l-5.8-2.8
					l6.3-13.8c1.7-3.7,0-8-3.7-9.6l0,0c-3.6-1.5-7.7,0.1-9.3,3.6l-7.8,16.9L159.6,373.6z"/>
			</defs>
			<clipPath id="SVGID_82_">
				<use xlink:href="#SVGID_81_"  style="overflow:visible;"/>
			</clipPath>
			
				<linearGradient id="XMLID_12_" gradientUnits="userSpaceOnUse" x1="283.0762" y1="412.1737" x2="283.0762" y2="451.6547" gradientTransform="matrix(0.9326 0.3609 0.3609 -0.9326 -240.699 665.2009)">
				<stop  offset="1.984000e-003" style="stop-color:#8DDCD8"/>
				<stop  offset="1" style="stop-color:#B5DBFF"/>
			</linearGradient>
			<polygon id="XMLID_4_" class="st54" points="186.6,388.6 157.5,377.3 171.7,340.5 200.9,351.8 			"/>
		</g>
		<g>
			<defs>
				<path id="SVGID_83_" d="M159.6,373.6l7.7-16.9c3.1-6.7,10.9-9.8,17.7-6.9l0,0c7.1,3,10.3,11.4,7,18.4l-6.7,14.2l-5.8-2.8
					l6.3-13.8c1.7-3.7,0-8-3.7-9.6l0,0c-3.6-1.5-7.7,0.1-9.3,3.6l-7.8,16.9L159.6,373.6z"/>
			</defs>
			<clipPath id="SVGID_84_">
				<use xlink:href="#SVGID_83_"  style="overflow:visible;"/>
			</clipPath>
			<path id="XMLID_321_" class="st55" d="M162.1,377.2l8.7-18.6c1.9-3.9,6.5-5.7,10.5-3.9l0,0c3.6,1.7,5.2,6,3.5,9.6l-1.8,3.9
				l-16.9,11.3L162.1,377.2z"/>
		</g>
		<g>
			<defs>
				<path id="SVGID_85_" d="M159.6,373.6l7.7-16.9c3.1-6.7,10.9-9.8,17.7-6.9l0,0c7.1,3,10.3,11.4,7,18.4l-6.7,14.2l-5.8-2.8
					l6.3-13.8c1.7-3.7,0-8-3.7-9.6l0,0c-3.6-1.5-7.7,0.1-9.3,3.6l-7.8,16.9L159.6,373.6z"/>
			</defs>
			<clipPath id="SVGID_86_">
				<use xlink:href="#SVGID_85_"  style="overflow:visible;"/>
			</clipPath>
			<path id="XMLID_323_" class="st56" d="M185.6,351l-0.3,1.6c0,0,5.9,2.8,5.3,11l1.9,0.7C192.5,364.4,193.4,355.3,185.6,351z"/>
		</g>
		<g>
			<defs>
				<path id="SVGID_87_" d="M159.6,373.6l7.7-16.9c3.1-6.7,10.9-9.8,17.7-6.9l0,0c7.1,3,10.3,11.4,7,18.4l-6.7,14.2l-5.8-2.8
					l6.3-13.8c1.7-3.7,0-8-3.7-9.6l0,0c-3.6-1.5-7.7,0.1-9.3,3.6l-7.8,16.9L159.6,373.6z"/>
			</defs>
			<clipPath id="SVGID_88_">
				<use xlink:href="#SVGID_87_"  style="overflow:visible;"/>
			</clipPath>
			<path id="XMLID_326_" class="st57" d="M190.5,364.2l1.9,0.8c0,0,0,1-0.8,3.1l-1.8-0.8C189.8,367.4,190.4,365.9,190.5,364.2z"/>
		</g>
	</g>
	<g id="XMLID_334_">
		<g>
			<defs>
				<path id="SVGID_89_" d="M157.2,372.4l-4.7,10.3c-3,6.5-0.2,14.2,6.2,17.4l7.4,3.6c6.4,3.2,14.1,0.7,17.5-5.6l0,0
					c1.4-2.5,2.6-5.1,3.6-7.8l1.9-5l-0.6-0.6h-0.6l-1.4-1.1l0.2-0.9l-0.9-0.9c0,0-2.6-1.8-7.8-2.6c0,0-3.3,3.2-8.3,2.3
					c0,0-0.8-1.3-0.9-2.8l-6.2-4.6C162.6,374.1,160.2,372.6,157.2,372.4z"/>
			</defs>
			<clipPath id="SVGID_90_">
				<use xlink:href="#SVGID_89_"  style="overflow:visible;"/>
			</clipPath>
			
				<linearGradient id="XMLID_13_" gradientUnits="userSpaceOnUse" x1="281.6039" y1="388.7455" x2="281.6039" y2="419.2516" gradientTransform="matrix(0.9326 0.3609 0.3609 -0.9326 -240.699 665.2009)">
				<stop  offset="0" style="stop-color:#AA0E00"/>
				<stop  offset="1" style="stop-color:#E90047"/>
			</linearGradient>
			<polygon id="XMLID_335_" class="st58" points="154.5,371.1 161.6,372.8 171.5,377.8 179.6,378.3 186.3,381.2 190,385.7 
				183.4,400.3 178.2,405.3 170.6,406.4 162.1,404.2 150.4,395.3 148.6,386.3 			"/>
		</g>
		<g>
			<defs>
				<path id="SVGID_91_" d="M157.2,372.4l-4.7,10.3c-3,6.5-0.2,14.2,6.2,17.4l7.4,3.6c6.4,3.2,14.1,0.7,17.5-5.6l0,0
					c1.4-2.5,2.6-5.1,3.6-7.8l1.9-5l-0.6-0.6h-0.6l-1.4-1.1l0.2-0.9l-0.9-0.9c0,0-2.6-1.8-7.8-2.6c0,0-3.3,3.2-8.3,2.3
					c0,0-0.8-1.3-0.9-2.8l-6.2-4.6C162.6,374.1,160.2,372.6,157.2,372.4z"/>
			</defs>
			<clipPath id="SVGID_92_">
				<use xlink:href="#SVGID_91_"  style="overflow:visible;"/>
			</clipPath>
			
				<linearGradient id="XMLID_14_" gradientUnits="userSpaceOnUse" x1="278.5033" y1="391.3603" x2="278.5033" y2="420.0317" gradientTransform="matrix(0.9326 0.3609 0.3609 -0.9326 -240.699 665.2009)">
				<stop  offset="0" style="stop-color:#7F0003"/>
				<stop  offset="1" style="stop-color:#E90034"/>
			</linearGradient>
			<path id="XMLID_329_" class="st59" d="M152.6,396.7c0,0,8.6,5.8,14.3,5.4c5.7-0.4,10.4-0.8,18.9-20.3l-4.2-3.5l-27.4-8.9
				l-6.8,19.4L152.6,396.7z"/>
		</g>
		<g>
			<defs>
				<path id="SVGID_93_" d="M157.2,372.4l-4.7,10.3c-3,6.5-0.2,14.2,6.2,17.4l7.4,3.6c6.4,3.2,14.1,0.7,17.5-5.6l0,0
					c1.4-2.5,2.6-5.1,3.6-7.8l1.9-5l-0.6-0.6h-0.6l-1.4-1.1l0.2-0.9l-0.9-0.9c0,0-2.6-1.8-7.8-2.6c0,0-3.3,3.2-8.3,2.3
					c0,0-0.8-1.3-0.9-2.8l-6.2-4.6C162.6,374.1,160.2,372.6,157.2,372.4z"/>
			</defs>
			<clipPath id="SVGID_94_">
				<use xlink:href="#SVGID_93_"  style="overflow:visible;"/>
			</clipPath>
			
				<linearGradient id="XMLID_15_" gradientUnits="userSpaceOnUse" x1="279.2402" y1="397.9468" x2="279.2402" y2="418.9599" gradientTransform="matrix(0.9326 0.3609 0.3609 -0.9326 -240.699 665.2009)">
				<stop  offset="0" style="stop-color:#E90034"/>
				<stop  offset="1" style="stop-color:#7F0003"/>
			</linearGradient>
			<path id="XMLID_148_" class="st60" d="M162.9,373.4c0,0-7.2,19.8-0.5,21.1s12.2-9.8,15.7-15.2c-0.7-1.5-0.7-1.5-0.7-1.5
				L162.9,373.4z"/>
		</g>
		<g>
			<defs>
				<path id="SVGID_95_" d="M157.2,372.4l-4.7,10.3c-3,6.5-0.2,14.2,6.2,17.4l7.4,3.6c6.4,3.2,14.1,0.7,17.5-5.6l0,0
					c1.4-2.5,2.6-5.1,3.6-7.8l1.9-5l-0.6-0.6h-0.6l-1.4-1.1l0.2-0.9l-0.9-0.9c0,0-2.6-1.8-7.8-2.6c0,0-3.3,3.2-8.3,2.3
					c0,0-0.8-1.3-0.9-2.8l-6.2-4.6C162.6,374.1,160.2,372.6,157.2,372.4z"/>
			</defs>
			<clipPath id="SVGID_96_">
				<use xlink:href="#SVGID_95_"  style="overflow:visible;"/>
			</clipPath>
			<path id="XMLID_331_" class="st61" d="M169.8,381.5c0,0-6-0.7-7.1-7.4c-0.2-0.9-0.2-0.9-0.2-0.9l7.9,4.6L169.8,381.5z"/>
		</g>
		<g>
			<defs>
				<path id="SVGID_97_" d="M157.2,372.4l-4.7,10.3c-3,6.5-0.2,14.2,6.2,17.4l7.4,3.6c6.4,3.2,14.1,0.7,17.5-5.6l0,0
					c1.4-2.5,2.6-5.1,3.6-7.8l1.9-5l-0.6-0.6h-0.6l-1.4-1.1l0.2-0.9l-0.9-0.9c0,0-2.6-1.8-7.8-2.6c0,0-3.3,3.2-8.3,2.3
					c0,0-0.8-1.3-0.9-2.8l-6.2-4.6C162.6,374.1,160.2,372.6,157.2,372.4z"/>
			</defs>
			<clipPath id="SVGID_98_">
				<use xlink:href="#SVGID_97_"  style="overflow:visible;"/>
			</clipPath>
			<path id="XMLID_336_" class="st62" d="M187.1,382.7l-0.6,0.8c0,0-4.3,8.4-6.8,13.4c-2.6,5.1-8.7,8.4-22.4,2.8
				c4.5,2.6,16.8,9.8,24-1.7c2.4-4.1,7-13.9,7-13.9L187.1,382.7z"/>
		</g>
	</g>
</g>
<g id="legal_notice">
	<g id="XMLID_349_">
		<g>
			<defs>
				<polygon id="SVGID_99_" points="169,402.7 261.1,394.9 261.5,395.1 249.6,532.3 248,532.4 161.1,532.3 				"/>
			</defs>
			<clipPath id="SVGID_100_">
				<use xlink:href="#SVGID_99_"  style="overflow:visible;"/>
			</clipPath>
			<polygon id="XMLID_350_" class="st63" points="165.7,398.3 157.3,537.1 254.8,536.7 269.7,390.9 258.6,388.1 			"/>
		</g>
		<g>
			<defs>
				<polygon id="SVGID_101_" points="169,402.7 261.1,394.9 261.5,395.1 249.6,532.3 248,532.4 161.1,532.3 				"/>
			</defs>
			<clipPath id="SVGID_102_">
				<use xlink:href="#SVGID_101_"  style="overflow:visible;"/>
			</clipPath>
			<polygon id="XMLID_348_" class="st64" points="248,533.7 261.1,392.8 263.8,395.1 252,534.4 			"/>
		</g>
	</g>
	<g id="XMLID_557_">
		<polygon id="XMLID_419_" class="st65" points="179.9,426.6 179.7,429 250.7,426.7 250.9,424.2 		"/>
		<polygon id="XMLID_425_" class="st65" points="174.3,431.2 174.1,433.7 250.3,431.3 250.5,428.8 		"/>
		<polyline id="XMLID_426_" class="st65" points="174,435.7 228.9,434.1 228.7,436.6 173.8,438.2 174.1,436.1 		"/>
		<polygon id="XMLID_427_" class="st65" points="177.3,465.7 177.1,468.1 247,466.8 247.3,464.3 		"/>
		<polygon id="XMLID_430_" class="st65" points="170.7,480 170.5,482.4 240.4,481.1 240.6,478.6 		"/>
		<polygon id="XMLID_429_" class="st65" points="178.7,444.6 178.5,447 249,445.1 249.2,442.6 		"/>
		<polyline id="XMLID_431_" class="st65" points="173,451.7 173,451.4 173.1,449.3 248.8,447.3 248.6,449.8 		"/>
		<polygon id="XMLID_428_" class="st65" points="172.5,458.4 218.2,457.4 218,459.9 172.4,460.8 		"/>
		<polygon id="XMLID_432_" class="st65" points="172.8,453.8 248.4,452 248.1,454.5 172.7,456.3 		"/>
		<polygon id="XMLID_433_" class="st65" points="171.8,470.4 234.3,469.2 234,471.7 171.6,472.8 		"/>
		<polygon id="XMLID_434_" class="st65" points="171.5,474.9 245.9,473.7 245.6,476.2 171.3,477.4 		"/>
	</g>
	<g id="XMLID_437_">
		<path id="XMLID_457_" class="st65" d="M229.8,497.4c-6.6-0.5-12.5,5.4-13.1,13.1c-0.6,7.8,4.3,14.5,10.9,15
			c6.6,0.5,12.4-5.3,13-13.1C241.3,504.6,236.4,497.9,229.8,497.4z M227.8,523.2c-5.5-0.4-9.6-6-9.1-12.5s5.4-11.4,10.9-11
			s9.6,6,9.1,12.5S233.3,523.6,227.8,523.2z"/>
		<path id="XMLID_461_" class="st65" d="M229.6,500.3c-5.3-0.4-10,4.2-10.5,10.4c-0.5,6.1,3.5,11.5,8.8,11.9
			c5.3,0.4,10-4.2,10.5-10.4C238.9,506,234.9,500.7,229.6,500.3z M228.2,518.1c-3.2-0.2-5.6-3.4-5.3-7.1s3.1-6.5,6.3-6.2
			c3.2,0.2,5.6,3.4,5.3,7.1C234.3,515.6,231.4,518.3,228.2,518.1z"/>
	</g>
	<polygon id="XMLID_435_" class="st65" points="169,520.9 169,522 194.5,521.9 194.7,520.7 	"/>
	<path id="XMLID_444_" class="st66" d="M171.3,518.9c0.9,0.2,1.8,0.1,2.6-0.3c0.8-0.4,1.3-1.1,1.7-1.9s0.6-1.7,0.8-2.5
		c0.2-0.9,0.3-1.7,0.1-2.6c-0.1-0.4-0.2-0.8-0.5-1.1c-0.3-0.2-0.4,0.1-0.6,0.5c-0.4,0.8-0.6,1.7-0.8,2.6c-0.2,0.9-0.2,1.8-0.2,2.7
		c0.1,0.4,0.1,0.9,0.3,1.3c0.1,0.2,0.2,0.3,0.4,0.5c0.2,0.1,0.3,0.2,0.6,0.3c0.8,0.3,1.8-0.1,2.4-0.7c0.6-0.6,1.1-1.4,1.3-2.2
		c0.1-0.4,0.2-0.8,0.2-1.2c0-0.2,0-0.4-0.1-0.6c0-0.2-0.2-0.4-0.3-0.4c-0.4,0-0.7,0.5-0.9,0.8c-0.2,0.4-0.4,0.8-0.5,1.2
		c-0.3,0.8-0.4,1.8,0,2.5c0.4,0.8,1.4,1.1,2.2,0.8c0.8-0.2,1.1-1.2,1.9-1.8c0.3-0.3,0.8-0.6,1.3-0.6c0.3,0,0.5,0.2,0.6,0.4
		c0.1,0.2,0.2,0.4,0.2,0.7h-0.2l0,0c0.2-1,0.4-2,0.7-3c0.2-0.5,0.4-1,0.6-1.5c0.3-0.5,0.6-1,1.2-1.2c0.1-0.1,0.3-0.1,0.5-0.1
		c0.1,0,0.1,0,0.2,0c0.1,0,0.2,0.1,0.3,0.1c0.3,0.2,0.4,0.5,0.5,0.8c0.2,0.6,0.2,1.1,0.2,1.6c0,1.1-0.2,2.1-0.5,3.1s-0.7,2-1.5,2.8
		c0,0.1-0.1,0.1-0.2,0.1c0,0,0,0-0.1,0.1l-0.1,0.1c0,0-0.2,0.1-0.3,0.1s-0.3,0-0.4-0.2c-0.2-0.4-0.1-0.7-0.1-0.9
		c0.1-0.5,0.3-1,0.4-1.5c0.4-1,0.8-1.9,1.4-2.8c0.3-0.4,0.6-0.9,1-1.2c0.2-0.2,0.4-0.3,0.8-0.4c0.3,0,0.6,0.1,0.8,0.4l0,0
		c0.3,0.3,0.4,0.7,0.5,1.1s0.2,0.8,0.2,1.2c0,0.8-0.2,1.6-0.2,2.5l0,0l-0.3-0.1c0.1-0.4,0.3-0.7,0.5-1.1c0.1-0.2,0.2-0.3,0.4-0.5
		c0.1-0.1,0.2-0.1,0.3-0.2s0.3-0.1,0.4,0c0.1,0.1,0.2,0.2,0.2,0.3c0,0.1,0,0.2,0,0.3c0,0.2,0,0.4,0,0.6c0,0.4-0.1,0.8-0.2,1.2l0,0
		l-0.1-0.1c0.7-0.9,1.6-1.6,2.5-2.3c0.5-0.3,1-0.6,1.5-0.8c0.1-0.1,0.3-0.1,0.4-0.2c0.1,0,0.3-0.1,0.4-0.1c0.3-0.1,0.6-0.1,0.8-0.1
		c-0.3,0-0.6,0.1-0.8,0.2c-0.3,0.1-0.5,0.2-0.8,0.3c-0.5,0.2-1,0.6-1.4,0.9c-0.9,0.7-1.7,1.4-2.5,2.2l-0.4,0.4l0.2-0.5l0,0
		c0.1-0.3,0.2-0.7,0.2-1.1c0-0.2,0-0.4,0-0.6c0-0.1,0-0.2-0.1-0.3c0-0.1-0.1-0.2-0.1-0.2c-0.1-0.1-0.2,0.1-0.4,0.2
		c-0.1,0.1-0.2,0.3-0.3,0.4c-0.2,0.3-0.2,0.7-0.3,1l-0.1-0.1l0,0c0-0.8,0.1-1.6,0.1-2.4c0-0.4-0.1-0.8-0.2-1.2
		c-0.1-0.4-0.3-0.8-0.5-1l0,0l0,0c-0.2-0.2-0.4-0.3-0.6-0.3c-0.2,0-0.4,0.2-0.6,0.3c-0.4,0.3-0.7,0.8-0.9,1.2
		c-0.5,0.9-0.9,1.8-1.3,2.8c-0.2,0.5-0.3,1-0.4,1.5c0,0.2,0,0.5,0,0.6c0,0-0.1,0,0-0.1l0.1-0.1l0,0l0.1-0.1c0.7-0.7,1-1.7,1.3-2.6
		c0.3-1,0.4-2,0.5-3c0-0.5,0-1-0.2-1.4c-0.1-0.5-0.4-0.7-0.8-0.5c-0.4,0.2-0.7,0.6-0.9,1c-0.2,0.4-0.5,0.9-0.6,1.4
		c-0.4,0.9-0.7,1.9-0.9,2.9l0,0l-0.1,0.5l-0.1-0.5c-0.1-0.4-0.3-0.9-0.7-0.9s-0.8,0.2-1.1,0.5s-0.6,0.6-0.9,1
		c-0.2,0.4-0.6,0.8-1.1,0.9c-0.9,0.3-2-0.1-2.5-1c-0.5-0.9-0.3-1.9,0-2.7c0.1-0.4,0.3-0.9,0.5-1.3c0.2-0.4,0.5-0.9,1.1-0.9
		c0.3,0,0.5,0.3,0.6,0.5s0.2,0.5,0.2,0.7c0.1,0.5,0,1-0.2,1.4c-0.3,0.9-0.9,1.7-1.6,2.3c-0.7,0.6-1.7,1-2.6,0.7
		c-0.2,0-0.5-0.2-0.7-0.3c-0.2-0.2-0.4-0.3-0.4-0.6c-0.2-0.4-0.3-0.9-0.4-1.3c-0.1-0.9,0-1.8,0.1-2.7c0.2-0.9,0.3-1.8,0.7-2.7
		l0.1-0.3c0.1-0.1,0.2-0.3,0.2-0.4c0.1-0.1,0,0,0.2-0.1c0.1,0,0.2,0,0.3,0c0.2,0,0.3,0.1,0.4,0.2c0.4,0.4,0.6,0.9,0.7,1.3
		c0.2,0.9,0.1,1.9-0.1,2.8c-0.2,0.9-0.5,1.8-1,2.6c-0.4,0.8-1.2,1.6-2,1.9C173.1,519.2,172.1,519.2,171.3,518.9z"/>
	<g id="XMLID_438_">
		<path id="XMLID_504_" class="st67" d="M191.8,414.1l2.2-0.2l-0.1,0.7l-3.2,0.2l0.8-4.8l1-0.1L191.8,414.1z"/>
		<path id="XMLID_502_" class="st67" d="M197.8,412.4l-1.9,0.1l-0.2,1.4l2.2-0.2l-0.1,0.7l-3.2,0.2l0.8-4.8l3.2-0.2l-0.1,0.7
			l-2.2,0.2l-0.2,1.2l1.9-0.1L197.8,412.4z"/>
		<path id="XMLID_499_" class="st67" d="M202.5,413.5c-0.2,0.2-0.5,0.4-0.8,0.6c-0.3,0.2-0.7,0.3-1.2,0.3c-0.6,0-1-0.1-1.4-0.4
			c-0.3-0.3-0.5-0.8-0.4-1.4l0.2-1c0.1-0.6,0.4-1.1,0.8-1.5c0.4-0.4,0.9-0.6,1.5-0.6s1,0.1,1.3,0.3c0.3,0.3,0.4,0.6,0.3,1.1l0,0
			l-1,0.1c0-0.3,0-0.5-0.1-0.6s-0.3-0.2-0.6-0.2s-0.6,0.2-0.8,0.4c-0.2,0.2-0.4,0.5-0.4,0.9l-0.2,1c-0.1,0.4,0,0.7,0.1,0.9
			c0.2,0.2,0.4,0.3,0.7,0.3c0.2,0,0.4-0.1,0.6-0.1c0.2-0.1,0.3-0.1,0.4-0.2l0.2-0.9l-1,0.1l0.1-0.7l2-0.1L202.5,413.5z"/>
		<path id="XMLID_493_" class="st67" d="M206,412.8l-1.6,0.1l-0.5,1.1l-1,0.1l2.5-4.9l1-0.1l0.8,4.7l-1,0.1L206,412.8z M204.8,412.2
			l1.1-0.1l-0.3-1.7l0,0L204.8,412.2z"/>
		<path id="XMLID_490_" class="st67" d="M208.8,412.9l2.2-0.2l-0.1,0.7l-3.2,0.2l0.9-4.8l1-0.1L208.8,412.9z"/>
		<path id="XMLID_488_" class="st67" d="M217.4,413l-1,0.1L215,410l0,0l-0.6,3.3l-1,0.1l0.9-4.8l1-0.1l1.4,3.1l0,0l0.6-3.3l1-0.1
			L217.4,413z"/>
		<path id="XMLID_485_" class="st67" d="M222.8,410.7c-0.1,0.6-0.4,1.1-0.9,1.5c-0.5,0.4-1,0.6-1.6,0.7c-0.6,0-1.1-0.1-1.4-0.5
			c-0.3-0.4-0.4-0.8-0.3-1.4l0.2-0.9c0.1-0.6,0.4-1.1,0.9-1.5s1-0.6,1.6-0.7c0.6,0,1.1,0.1,1.4,0.5c0.3,0.4,0.4,0.8,0.3,1.4
			L222.8,410.7z M221.9,409.9c0.1-0.4,0-0.7-0.1-0.9s-0.4-0.3-0.7-0.3s-0.6,0.2-0.9,0.4c-0.2,0.3-0.4,0.6-0.5,1l-0.2,0.9
			c-0.1,0.4,0,0.7,0.1,0.9c0.1,0.2,0.4,0.3,0.7,0.3s0.6-0.2,0.9-0.4c0.2-0.3,0.4-0.6,0.5-1L221.9,409.9z"/>
		<path id="XMLID_463_" class="st67" d="M227.4,408.2l-1.4,0.1l-0.8,4.1l-1,0.1l0.8-4.1l-1.4,0.1l0.1-0.8l3.9-0.3L227.4,408.2z"/>
		<path id="XMLID_454_" class="st67" d="M228.2,412.3l-1,0.1l1-4.9l1-0.1L228.2,412.3z"/>
		<path id="XMLID_449_" class="st67" d="M233.3,410.3L233.3,410.3c-0.1,0.6-0.3,1-0.7,1.3s-0.9,0.5-1.5,0.5s-1-0.1-1.3-0.5
			s-0.4-0.8-0.3-1.4l0.2-1c0.1-0.6,0.4-1.1,0.8-1.5c0.4-0.4,1-0.6,1.5-0.7c0.6,0,1,0.1,1.3,0.3c0.3,0.3,0.4,0.7,0.3,1.2l0,0l-1,0.1
			c0.1-0.3,0-0.6-0.1-0.7c-0.1-0.1-0.3-0.2-0.7-0.2c-0.3,0-0.5,0.2-0.8,0.4c-0.2,0.3-0.4,0.6-0.5,0.9l-0.2,1
			c-0.1,0.4-0.1,0.7,0.1,0.9c0.1,0.2,0.4,0.3,0.7,0.3s0.5-0.1,0.7-0.3c0.2-0.2,0.3-0.4,0.4-0.7L233.3,410.3z"/>
		<path id="XMLID_447_" class="st67" d="M237,409.5l-1.9,0.1l-0.3,1.4l2.2-0.2l-0.2,0.8l-3.2,0.2l1-4.9l3.2-0.2l-0.2,0.8l-2.2,0.2
			l-0.3,1.2l1.9-0.1V409.5z"/>
	</g>
	<path id="XMLID_512_" class="st67" d="M205.4,415.4c-4.3,0.4-8.5,0.8-11.7,1.3c-1.6,0.3-2.9,0.5-3.9,0.9c-0.2,0.1-0.5,0.2-0.7,0.3
		c-0.1,0.1-0.1,0.1-0.2,0.2c0,0-0.1,0.1-0.1,0.2c0,0.1-0.1,0.1-0.1,0.3c-0.1,0.3,0,0.5,0.1,0.7c0.1,0.1,0.2,0.2,0.2,0.2
		c0.2,0.2,0.3,0.2,0.4,0.2c0.1,0,0.1,0,0.1,0l0.1-0.7l0,0c0.1-0.1,0.3-0.2,0.5-0.2c0.8-0.3,2.1-0.6,3.7-0.9
		c3.1-0.6,7.4-1.2,11.6-1.8c8.5-1.1,17-1.9,17-1.9S213.9,414.7,205.4,415.4z"/>
	<path id="XMLID_511_" class="st66" d="M241.7,502.9c-0.3-0.4-0.9-0.5-1.3-0.1c-1.8,1.6-3.6,3.2-5.3,4.9c-1,1-2.1,2.1-3.1,3.1
		c-0.5-0.6-1-1.1-1.5-1.5c-0.7-0.5-1.4-0.9-2.1-1.2c-0.7-0.3-1.4-0.6-2.2-0.8c-0.6-0.1-1.2,0.2-1.5,0.8c-0.3,0.7,0,1.4,0.7,1.7h0.1
		c0.5,0.2,4.2,4.5,4.2,4.8l0,0l0.2,0.5c0.1,0.3,0.4,0.7,0.7,0.9c0.8,0.6,2,0.4,2.6-0.5c1.3-2,2.7-3.9,4.1-5.7
		c1.4-1.9,2.9-3.7,4.5-5.5l0,0C242,503.8,242,503.3,241.7,502.9z"/>
</g>
<g id="crayon">
	<g>
		<defs>
			<path id="SVGID_103_" d="M200.1,518.6l5.6-7.6c0,0,27.5-58.1,28.1-59c0.4-1.4,0.9-3.2,0.9-3.2s-2.1-2.2-5.3-2.5l-1.9,2.8
				l-26.1,60.1c0,0-1.6,7.9-1.8,8.9C199.2,519.1,200.1,518.6,200.1,518.6z"/>
		</defs>
		<clipPath id="SVGID_104_">
			<use xlink:href="#SVGID_103_"  style="overflow:visible;"/>
		</clipPath>
		<polygon id="XMLID_421_" class="st68" points="196.1,518.8 196.9,505.4 223.8,443.7 231.5,439 241.7,448.5 236.7,460.8 
			209.3,511.7 201.5,521.9 197.7,521.9 		"/>
	</g>
	<g>
		<defs>
			<path id="SVGID_105_" d="M200.1,518.6l5.6-7.6c0,0,27.5-58.1,28.1-59c0.4-1.4,0.9-3.2,0.9-3.2s-2.1-2.2-5.3-2.5l-1.9,2.8
				l-26.1,60.1c0,0-1.6,7.9-1.8,8.9C199.2,519.1,200.1,518.6,200.1,518.6z"/>
		</defs>
		<clipPath id="SVGID_106_">
			<use xlink:href="#SVGID_105_"  style="overflow:visible;"/>
		</clipPath>
		
			<linearGradient id="XMLID_16_" gradientUnits="userSpaceOnUse" x1="184.9564" y1="601.9213" x2="211.7231" y2="586.4676" gradientTransform="matrix(0.8824 -0.4704 -0.4704 -0.8824 322.302 1097.9146)">
			<stop  offset="0" style="stop-color:#D47900"/>
			<stop  offset="0.4816" style="stop-color:#BF5800"/>
		</linearGradient>
		<path id="XMLID_416_" class="st69" d="M201.5,505.3l0.8,4.3l1.7-0.7l0.5,1.6l3.1-1l26.4-56.2c0,0-3.5,1.1-8.7-3.4
			C223.6,454.1,201.5,505.3,201.5,505.3z"/>
	</g>
	<g>
		<defs>
			<path id="SVGID_107_" d="M200.1,518.6l5.6-7.6c0,0,27.5-58.1,28.1-59c0.4-1.4,0.9-3.2,0.9-3.2s-2.1-2.2-5.3-2.5l-1.9,2.8
				l-26.1,60.1c0,0-1.6,7.9-1.8,8.9C199.2,519.1,200.1,518.6,200.1,518.6z"/>
		</defs>
		<clipPath id="SVGID_108_">
			<use xlink:href="#SVGID_107_"  style="overflow:visible;"/>
		</clipPath>
		
			<linearGradient id="XMLID_17_" gradientUnits="userSpaceOnUse" x1="170.751" y1="576.5733" x2="225.1265" y2="607.9669" gradientTransform="matrix(0.8824 -0.4704 -0.4704 -0.8824 322.302 1097.9146)">
			<stop  offset="0.2441" style="stop-color:#BF5800"/>
			<stop  offset="1" style="stop-color:#D46600"/>
		</linearGradient>
		<path id="XMLID_422_" class="st70" d="M230.4,454.3l-25.8,56.3l1.7-0.5l26.8-55.6C233.2,454.4,231.9,454.7,230.4,454.3z"/>
	</g>
	<g>
		<defs>
			<path id="SVGID_109_" d="M200.1,518.6l5.6-7.6c0,0,27.5-58.1,28.1-59c0.4-1.4,0.9-3.2,0.9-3.2s-2.1-2.2-5.3-2.5l-1.9,2.8
				l-26.1,60.1c0,0-1.6,7.9-1.8,8.9C199.2,519.1,200.1,518.6,200.1,518.6z"/>
		</defs>
		<clipPath id="SVGID_110_">
			<use xlink:href="#SVGID_109_"  style="overflow:visible;"/>
		</clipPath>
		
			<linearGradient id="XMLID_18_" gradientUnits="userSpaceOnUse" x1="168.1171" y1="580.3353" x2="221.7872" y2="611.3218" gradientTransform="matrix(0.8824 -0.4704 -0.4704 -0.8824 322.302 1097.9146)">
			<stop  offset="0.2441" style="stop-color:#BF5800"/>
			<stop  offset="1" style="stop-color:#D46600"/>
		</linearGradient>
		<polygon id="XMLID_423_" class="st71" points="202.4,509.7 227.6,452.6 225.7,451.2 201.8,506.8 		"/>
	</g>
	<g>
		<defs>
			<path id="SVGID_111_" d="M200.1,518.6l5.6-7.6c0,0,27.5-58.1,28.1-59c0.4-1.4,0.9-3.2,0.9-3.2s-2.1-2.2-5.3-2.5l-1.9,2.8
				l-26.1,60.1c0,0-1.6,7.9-1.8,8.9C199.2,519.1,200.1,518.6,200.1,518.6z"/>
		</defs>
		<clipPath id="SVGID_112_">
			<use xlink:href="#SVGID_111_"  style="overflow:visible;"/>
		</clipPath>
		<path id="XMLID_414_" class="st72" d="M226.7,447.7c0,0,3.2,5.4,9.2,3.5c-0.5,1.4-0.9,3.2-0.9,3.2s-4.6,1.9-10.6-4.1
			C224.9,448.9,226.7,447.7,226.7,447.7z"/>
	</g>
	<g>
		<defs>
			<path id="SVGID_113_" d="M200.1,518.6l5.6-7.6c0,0,27.5-58.1,28.1-59c0.4-1.4,0.9-3.2,0.9-3.2s-2.1-2.2-5.3-2.5l-1.9,2.8
				l-26.1,60.1c0,0-1.6,7.9-1.8,8.9C199.2,519.1,200.1,518.6,200.1,518.6z"/>
		</defs>
		<clipPath id="SVGID_114_">
			<use xlink:href="#SVGID_113_"  style="overflow:visible;"/>
		</clipPath>
		<path id="XMLID_417_" class="st73" d="M228.7,445.1c0,0,5.8,0.3,7.2,3.8c-0.9,2.3-1.4,3.4-1.4,3.4s-4.8,0.6-8-3.6
			C227.2,447.4,228.7,445.1,228.7,445.1z"/>
	</g>
	<g>
		<defs>
			<path id="SVGID_115_" d="M200.1,518.6l5.6-7.6c0,0,27.5-58.1,28.1-59c0.4-1.4,0.9-3.2,0.9-3.2s-2.1-2.2-5.3-2.5l-1.9,2.8
				l-26.1,60.1c0,0-1.6,7.9-1.8,8.9C199.2,519.1,200.1,518.6,200.1,518.6z"/>
		</defs>
		<clipPath id="SVGID_116_">
			<use xlink:href="#SVGID_115_"  style="overflow:visible;"/>
		</clipPath>
		<path id="XMLID_418_" class="st74" d="M227.4,444.4c0,0,3.7,5.7,9.3,4.3C235.3,446.1,232.7,443,227.4,444.4z"/>
	</g>
	<g>
		<defs>
			<path id="SVGID_117_" d="M200.1,518.6l5.6-7.6c0,0,27.5-58.1,28.1-59c0.4-1.4,0.9-3.2,0.9-3.2s-2.1-2.2-5.3-2.5l-1.9,2.8
				l-26.1,60.1c0,0-1.6,7.9-1.8,8.9C199.2,519.1,200.1,518.6,200.1,518.6z"/>
		</defs>
		<clipPath id="SVGID_118_">
			<use xlink:href="#SVGID_117_"  style="overflow:visible;"/>
		</clipPath>
		<path id="XMLID_420_" class="st75" d="M197.8,516c0,0,2.7,0,4.1,2.3c-0.9,2.3-3.6,1.4-3.6,1.4L197.8,516z"/>
	</g>
</g>
<g id="punaise">
	<g id="XMLID_516_">
		<g>
			<defs>
				<path id="SVGID_119_" d="M436.3,352.6c0,0,8.6,5.3,17.8,5.4c0.3-1.1,0.3-1.1,0.3-1.1s-3-2.8-4.3-3.3c0.8-2.7,3.5-12.4,3.5-12.4
					l2.3-0.5c0,0-4-4.3-11-3.8l1.3,1.5l-4.1,12.3c0,0-2.7-0.6-5.3,0.1C436.7,351.2,436.3,352.6,436.3,352.6z"/>
			</defs>
			<clipPath id="SVGID_120_">
				<use xlink:href="#SVGID_119_"  style="overflow:visible;"/>
			</clipPath>
			
				<linearGradient id="XMLID_19_" gradientUnits="userSpaceOnUse" x1="447.15" y1="436.25" x2="447.15" y2="461.125" gradientTransform="matrix(1 0 0 -1 0 796)">
				<stop  offset="0" style="stop-color:#D46600"/>
				<stop  offset="0.7559" style="stop-color:#E58500"/>
			</linearGradient>
			<polygon id="XMLID_520_" class="st76" points="445.2,335.4 434.3,351.1 436.3,354.1 450.5,359.8 455.3,358.3 456.7,355 
				454.1,351.6 455.5,343 460,340.6 455.3,336.8 446.6,334.9 			"/>
		</g>
		<g>
			<defs>
				<path id="SVGID_121_" d="M436.3,352.6c0,0,8.6,5.3,17.8,5.4c0.3-1.1,0.3-1.1,0.3-1.1s-3-2.8-4.3-3.3c0.8-2.7,3.5-12.4,3.5-12.4
					l2.3-0.5c0,0-4-4.3-11-3.8l1.3,1.5l-4.1,12.3c0,0-2.7-0.6-5.3,0.1C436.7,351.2,436.3,352.6,436.3,352.6z"/>
			</defs>
			<clipPath id="SVGID_122_">
				<use xlink:href="#SVGID_121_"  style="overflow:visible;"/>
			</clipPath>
			<path id="XMLID_439_" class="st77" d="M446.3,338.4c0,0,4.5-0.1,7.4,2.8c2.9,2.9,2.9,2.9,2.9,2.9l1.8-3.3l-4.3-4.9l-9-0.8
				l-3.9,0.6c0,0,2.4,2.9,2.5,2.9S446.3,338.4,446.3,338.4z"/>
		</g>
		<g>
			<defs>
				<path id="SVGID_123_" d="M437.7,350.2c0,0,6.6,7.6,15.4,10.4c0.6-1,0.6-1,0.6-1s-2-3.6-3.1-4.4c1.6-2.3,7-10.8,7-10.8l2.3,0.2
					c0,0-2.5-5.3-9.4-6.9l0.8,1.8l-7.6,10.5c0,0-2.4-1.4-5.1-1.5C438.5,349,437.7,350.2,437.7,350.2z"/>
			</defs>
			<clipPath id="SVGID_124_">
				<use xlink:href="#SVGID_123_"  style="overflow:visible;"/>
			</clipPath>
			
				<ellipse id="XMLID_515_" transform="matrix(0.2958 -0.9552 0.9552 0.2958 -26.7783 675.6488)" class="st78" cx="444.9" cy="356" rx="3.1" ry="9.5"/>
		</g>
	</g>
	
		<linearGradient id="XMLID_20_" gradientUnits="userSpaceOnUse" x1="439.2424" y1="427.6122" x2="446.8738" y2="440.8303" gradientTransform="matrix(1 0 0 -1 0 796)">
		<stop  offset="0.2441" style="stop-color:#B0B0B0"/>
		<stop  offset="1" style="stop-color:#DBDBDB"/>
	</linearGradient>
	<path id="XMLID_517_" class="st79" d="M442.5,367.7l3.8-12.5c0,0-0.3-1.2-1.9-0.7l-3.9,12.4l0.4,2.4L442.5,367.7z"/>
</g>
<g id="punaise_1_">
	<g id="XMLID_524_">
		<g>
			<defs>
				<path id="SVGID_125_" d="M496,482.3c0,0-5.7,8.4-6.1,17.6c1.1,0.4,1.1,0.4,1.1,0.4s2.9-2.9,3.4-4.1c2.7,0.9,12.2,4,12.2,4
					l0.4,2.3c0,0,4.4-3.8,4.2-10.8l-1.5,1.2l-12.1-4.5c0,0,0.7-2.7,0.1-5.3C497.4,482.7,496,482.3,496,482.3z"/>
			</defs>
			<clipPath id="SVGID_126_">
				<use xlink:href="#SVGID_125_"  style="overflow:visible;"/>
			</clipPath>
			
				<linearGradient id="XMLID_21_" gradientUnits="userSpaceOnUse" x1="745.7067" y1="567.0397" x2="745.7067" y2="591.909" gradientTransform="matrix(-3.840870e-002 0.9993 0.9993 3.840870e-002 -49.5731 -274.1971)">
				<stop  offset="0" style="stop-color:#5700D4"/>
				<stop  offset="0.7559" style="stop-color:#7F00E5"/>
			</linearGradient>
			<polygon id="XMLID_528_" class="st80" points="512.8,491.8 497.5,480.2 494.5,482.2 488.3,496.1 489.6,501 492.8,502.5 
				496.3,500.1 504.8,501.8 507.1,506.4 511,501.8 513.3,493.2 			"/>
		</g>
		<g>
			<defs>
				<path id="SVGID_127_" d="M496,482.3c0,0-5.7,8.4-6.1,17.6c1.1,0.4,1.1,0.4,1.1,0.4s2.9-2.9,3.4-4.1c2.7,0.9,12.2,4,12.2,4
					l0.4,2.3c0,0,4.4-3.8,4.2-10.8l-1.5,1.2l-12.1-4.5c0,0,0.7-2.7,0.1-5.3C497.4,482.7,496,482.3,496,482.3z"/>
			</defs>
			<clipPath id="SVGID_128_">
				<use xlink:href="#SVGID_127_"  style="overflow:visible;"/>
			</clipPath>
			<path id="XMLID_527_" class="st81" d="M509.8,492.7c0,0-0.1,4.5-3.1,7.3s-3,2.8-3,2.8l3.2,2l5-4.1l1.1-9l-0.5-3.9
				c0,0-3,2.3-3,2.4C509.5,490.3,509.8,492.7,509.8,492.7z"/>
		</g>
		<g>
			<defs>
				<path id="SVGID_129_" d="M499,497c0,0-6-8.2-14.6-11.6c-0.7,0.9-0.7,0.9-0.7,0.9s1.8,3.7,2.7,4.6c-1.7,2.2-7.8,10.2-7.8,10.2
					l-2.3-0.4c0,0,2.1,5.4,8.8,7.6l-0.6-1.8l8.3-9.9c0,0,2.3,1.6,5,1.9C498.1,498.2,499,497,499,497z"/>
			</defs>
			<clipPath id="SVGID_130_">
				<use xlink:href="#SVGID_129_"  style="overflow:visible;"/>
			</clipPath>
			
				<ellipse id="XMLID_526_" transform="matrix(0.9432 0.3323 -0.3323 0.9432 191.0412 -135.6895)" class="st82" cx="492.3" cy="490.7" rx="3.1" ry="9.5"/>
		</g>
	</g>
	
		<linearGradient id="XMLID_22_" gradientUnits="userSpaceOnUse" x1="737.8229" y1="558.419" x2="745.4543" y2="571.637" gradientTransform="matrix(-3.840870e-002 0.9993 0.9993 3.840870e-002 -49.5731 -274.1971)">
		<stop  offset="0.2441" style="stop-color:#B0B0B0"/>
		<stop  offset="1" style="stop-color:#DBDBDB"/>
	</linearGradient>
	<path id="XMLID_522_" class="st83" d="M480.7,487.9l12.4,4.2c0,0,1.2-0.3,0.7-1.9l-12.2-4.4l-2.4,0.3L480.7,487.9z"/>
</g>
<radialGradient id="XMLID_23_" cx="429.3531" cy="632.8929" r="8.8607" gradientTransform="matrix(1 0 0 -4 0 2885.9287)" gradientUnits="userSpaceOnUse">
	<stop  offset="0.2441" style="stop-color:#00BF81"/>
	<stop  offset="1" style="stop-color:#006A1E"/>
</radialGradient>
<path id="XMLID_560_" class="st84" d="M426.2,356.4l3.1,5.5c0.8,1.4,2.6,2,4.1,1.3l0,0c1.6-0.8,2.2-2.7,1.4-4.3l-6.8-12.6
	c-0.6-1.2-2.1-1.6-3.3-1l0,0c-1.2,0.6-1.6,2.1-1,3.3l6.7,12.1c0.4,0.7,1.3,1,2,0.6l0,0c0.8-0.4,1.1-1.3,0.7-2.1l-6.7-12.6l0.9-0.5
	l6.8,12.6c0.7,1.3,0.2,2.9-1.2,3.6l0,0c-1.2,0.6-2.7,0.1-3.4-1.1l-6.6-12.1c-1-1.8-0.3-4,1.5-4.9l0,0c1.7-0.9,3.9-0.2,4.8,1.5
	l6.8,12.7c1.1,2.1,0.3,4.7-1.8,5.7l0,0c-2,1-4.5,0.3-5.6-1.7l-3.1-5.7L426.2,356.4z"/>
<radialGradient id="XMLID_24_" cx="350.4361" cy="629.877" r="8.8607" gradientTransform="matrix(0.8965 0.4431 1.7723 -3.5859 -1177.4075 2508.0833)" gradientUnits="userSpaceOnUse">
	<stop  offset="0.2441" style="stop-color:#C65A00"/>
	<stop  offset="1" style="stop-color:#712200"/>
</radialGradient>
<path id="XMLID_561_" class="st85" d="M249.4,405.2l0.4,6.4c0.1,1.7,1.5,3,3.1,3l0,0c1.8,0,3.2-1.5,3.1-3.3l-0.6-14.3
	c-0.1-1.3-1.2-2.4-2.5-2.3l0,0c-1.4,0-2.4,1.2-2.3,2.5l0.7,13.9c0,0.8,0.7,1.4,1.5,1.4l0,0c0.9,0,1.5-0.7,1.5-1.6l-0.4-14.3h1
	l0.5,14.3c0.1,1.5-1.1,2.7-2.6,2.7l0,0c-1.4,0-2.5-1.1-2.6-2.5l-0.6-13.8c-0.1-2,1.5-3.7,3.5-3.7l0,0c1.9,0,3.6,1.5,3.6,3.4
	l0.4,14.4c0.1,2.4-1.8,4.3-4.2,4.3l0,0c-2.3,0-4.2-1.8-4.3-4l-0.3-6.4L249.4,405.2z"/>
<g id="man">
	<g id="XMLID_303_">
		<g>
			<defs>
				<path id="SVGID_131_" d="M139.8,426.9c0,0,1-2.8-0.8-5.2c-1.8-2.4-3.7-6.3,0-9.1c3.7-2.8,6.3,0.9,7,2.7s2.3,3.4,1.3,6.2
					c-0.4,1.3-0.6,1.7-0.8,1.8c-0.3,0.1-1.1,0-1.1,0s-0.2,1.8,0.9,2.9c0,0,2-0.3,2.5-0.3s2.4-1.1,4.1-3.4s11.6-14.8,11.8-15.6
					c0.2-0.8-0.6-0.5,0-1.3s2.1-2.3,3-2.4c0.8,0,0.9,2,0.3,3.1s-2.2,3.6-3.7,5.5s-9.6,14.4-10.8,16.1l6.3-4.5c0,0,11.9-14.9,12-15.6
					c0.2-0.7-0.2-1.8-0.2-2.4s1.8-2.1,2.3-2.5s1.1-0.7,1.5-0.5s0.7,0.5,0.5,1.3c-0.2,0.8-0.6,3.6-1.4,3.9s-1.2,1.3-1.8,1.9
					c-0.6,0.6-6.1,12.4-7,13.6S155,433.7,155,433.7s-0.9,4.3-0.8,6.6c0.1,2.3-0.6,10.1-1,14.3s-1.1,8.2-1.1,8.2s0.8,9.1,1.1,12.3
					s4.6,39.6,4.6,39.6l-4.7-4.3l-10-40.6l-8.1-5.1c0,0,3.2-13.4,2.4-16.3c-0.8-2.9-5-11.8-4.4-13.3s4.3-5.1,4.8-5.6
					S139.6,427.9,139.8,426.9z"/>
			</defs>
			<clipPath id="SVGID_132_">
				<use xlink:href="#SVGID_131_"  style="overflow:visible;"/>
			</clipPath>
			<rect id="XMLID_299_" x="124.6" y="400.1" class="st86" width="52" height="97.8"/>
		</g>
		<g>
			<defs>
				<path id="SVGID_133_" d="M139.8,426.9c0,0,1-2.8-0.8-5.2c-1.8-2.4-3.7-6.3,0-9.1c3.7-2.8,6.3,0.9,7,2.7s2.3,3.4,1.3,6.2
					c-0.4,1.3-0.6,1.7-0.8,1.8c-0.3,0.1-1.1,0-1.1,0s-0.2,1.8,0.9,2.9c0,0,2-0.3,2.5-0.3s2.4-1.1,4.1-3.4s11.6-14.8,11.8-15.6
					c0.2-0.8-0.6-0.5,0-1.3s2.1-2.3,3-2.4c0.8,0,0.9,2,0.3,3.1s-2.2,3.6-3.7,5.5s-9.6,14.4-10.8,16.1l6.3-4.5c0,0,11.9-14.9,12-15.6
					c0.2-0.7-0.2-1.8-0.2-2.4s1.8-2.1,2.3-2.5s1.1-0.7,1.5-0.5s0.7,0.5,0.5,1.3c-0.2,0.8-0.6,3.6-1.4,3.9s-1.2,1.3-1.8,1.9
					c-0.6,0.6-6.1,12.4-7,13.6S155,433.7,155,433.7s-0.9,4.3-0.8,6.6c0.1,2.3-0.6,10.1-1,14.3s-1.1,8.2-1.1,8.2s0.8,9.1,1.1,12.3
					s4.6,39.6,4.6,39.6l-4.7-4.3l-10-40.6l-8.1-5.1c0,0,3.2-13.4,2.4-16.3c-0.8-2.9-5-11.8-4.4-13.3s4.3-5.1,4.8-5.6
					S139.6,427.9,139.8,426.9z"/>
			</defs>
			<clipPath id="SVGID_134_">
				<use xlink:href="#SVGID_133_"  style="overflow:visible;"/>
			</clipPath>
			<path id="XMLID_301_" class="st87" d="M137.8,422.5l0.4-0.8c0,0,4.2,1.8,7.1,1.6c1,0.4,1.7,0.6,1.7,0.6v1.1l-1.1,3.2
				c0,0-3.4,1.5-4.2,1.3c-0.8-0.2-4.4-1.1-4.6-1.5c-0.2-0.4-1.7-3.9-1.7-3.9L137.8,422.5z"/>
		</g>
	</g>
	<path id="XMLID_307_" class="st88" d="M138.3,420.8c0,0,0.4-0.1,0.5-0.4c0-0.3-0.5-0.8-0.5-0.8s-1-1,0-1.9c0.3-0.2,0.8,0.5,0.8,0.5
		l0.7-0.6c0,0-0.7-1.4-0.5-2c0.2-0.4,0.3-0.8,0.2-1.1c1.2-0.7,2.3-1.4,3.1-1.6s1.2-0.6,1.2-0.6s-0.4-0.9-2-1s-2.8,0.6-3.8,1.3
		c-0.9,0.8-1.4,1.5-1.3,2.2s-0.2,0.8-0.1,1.5S136.5,418.2,138.3,420.8z"/>
	<g id="XMLID_325_">
		<path id="XMLID_322_" class="st89" d="M132.3,528.6c0,0,0,0.8-0.1,1.8s-0.2,1.6,0.1,1.6c0.4,0,5.4,0,6,0s0.1-2.7-0.3-3.4
			c-0.4-0.7-4.1-0.4-4.1-0.4L132.3,528.6z"/>
		<path id="XMLID_324_" class="st89" d="M155.3,528.5c0,0-0.2,2.3-0.1,2.5c0,0.3,0.3,1,1.5,1s9.3,0,9.3,0s0.7-0.5-0.2-0.9
			c-0.9-0.3-5.6-3.3-5.6-3.3S157.8,527.4,155.3,528.5z"/>
	</g>
	<g id="XMLID_319_">
		<g>
			<defs>
				<path id="SVGID_135_" d="M134,467.6c0,0-1.6,23.4-1.7,26.7c0.1,1.5,0.3,3.2,0.3,3.2s-1.4,4.1-1.4,4.5s0.4,9.3,0.3,16.1
					c-0.1,6.8-0.3,10.8-0.3,10.8s3.1,0.6,4,0.6s3.4-0.9,3.4-0.9s1.1-20.3,1.8-24.1c0.3-2.9,4.3-14.9,4.3-14.9s2.3,10.2,3.2,14.2
					c0.3,1.2,1.1,2.6,1.1,2.6l-0.4,2.3c0,0,2.6,7.7,3.4,11.2s2.4,9.1,2.4,9.1s3.8,0.5,4.7,0s2.4-1.7,2.4-1.7s-3.4-19.7-4.3-25.8
					c-0.4-0.8-0.4-0.8-0.4-0.8l0.4-2.2c0,0-3.4-26.3-3.6-30.1c-1.8,0.3-9,0-12.2,0S134,467.6,134,467.6z"/>
			</defs>
			<clipPath id="SVGID_136_">
				<use xlink:href="#SVGID_135_"  style="overflow:visible;"/>
			</clipPath>
			<rect id="XMLID_316_" x="127.5" y="461.3" class="st90" width="40.3" height="76.7"/>
		</g>
		<g>
			<defs>
				<path id="SVGID_137_" d="M134,467.6c0,0-1.6,23.4-1.7,26.7c0.1,1.5,0.3,3.2,0.3,3.2s-1.4,4.1-1.4,4.5s0.4,9.3,0.3,16.1
					c-0.1,6.8-0.3,10.8-0.3,10.8s3.1,0.6,4,0.6s3.4-0.9,3.4-0.9s1.1-20.3,1.8-24.1c0.3-2.9,4.3-14.9,4.3-14.9s2.3,10.2,3.2,14.2
					c0.3,1.2,1.1,2.6,1.1,2.6l-0.4,2.3c0,0,2.6,7.7,3.4,11.2s2.4,9.1,2.4,9.1s3.8,0.5,4.7,0s2.4-1.7,2.4-1.7s-3.4-19.7-4.3-25.8
					c-0.4-0.8-0.4-0.8-0.4-0.8l0.4-2.2c0,0-3.4-26.3-3.6-30.1c-1.8,0.3-9,0-12.2,0S134,467.6,134,467.6z"/>
			</defs>
			<clipPath id="SVGID_138_">
				<use xlink:href="#SVGID_137_"  style="overflow:visible;"/>
			</clipPath>
			<g id="XMLID_320_" class="st91">
				<path id="XMLID_317_" class="st92" d="M147.4,467.7c0,0,0.4,9.9-0.1,10.6s-1.6,1.5-1.6,1.5s-0.6,5.7-0.9,9.7
					c-0.3,4,0,15.6,0,15.6l9,26.9h9.3l0.5-6.6l-7.6-51l-0.9-8.8L147.4,467.7z"/>
				<path id="XMLID_318_" class="st92" d="M131.2,494.3l3.4,4.1c0,0-1.6,2.2-1.7,3.2c-0.1,1,1.3,1.8,1.1,3.8s-2.1,21.5-1.8,22.1
					s2.4,3.1,2.4,3.1l-5.3-1.3l0.4-32.5L131.2,494.3z"/>
			</g>
		</g>
	</g>
	<g id="XMLID_313_">
		<g>
			<defs>
				<path id="SVGID_139_" d="M139.3,427.3l11.7-3.6c0,0,8-10.2,9.6-12.1c1.6-1.9,3.1-3.9,3.1-3.9s2.5,1.2,2.3,2.7
					c-1.1,1.6-3.6,7.1-3.6,7.1l9.2-9.8l2.1,0.8c0,0-4,8.8-4.9,11.1s-8.3,9.4-9.6,10.9s-2.1,3.1-2.1,3.1s-0.2,12.2-0.2,16.1
					s-1.3,10.3-1.5,12.5c0,0,0.2,1.6,0,2.4s-1.4,2.5-1.4,3.4s0,0.9,0,0.9s-8.1,0.3-13.6,0s-6.9-0.4-6.9-0.4s-1-2.7-1.1-4.1
					s1.4-3.2,1.4-3.2s0.4-2,0.3-4.3s-0.4-13.4-1.7-16.3c-1.3-2.9-3-6.7-1.1-9.3S135.4,428.5,139.3,427.3z"/>
			</defs>
			<clipPath id="SVGID_140_">
				<use xlink:href="#SVGID_139_"  style="overflow:visible;"/>
			</clipPath>
			
				<linearGradient id="XMLID_25_" gradientUnits="userSpaceOnUse" x1="153.1" y1="311.3" x2="153.1" y2="395.5" gradientTransform="matrix(1 0 0 -1 0 796)">
				<stop  offset="0" style="stop-color:#FF362A"/>
				<stop  offset="1" style="stop-color:#FF7F6A"/>
			</linearGradient>
			<rect id="XMLID_312_" x="124.1" y="400.5" class="st93" width="58" height="84.2"/>
		</g>
		<g>
			<defs>
				<path id="SVGID_141_" d="M139.3,427.3l11.7-3.6c0,0,8-10.2,9.6-12.1c1.6-1.9,3.1-3.9,3.1-3.9s2.5,1.2,2.3,2.7
					c-1.1,1.6-3.6,7.1-3.6,7.1l9.2-9.8l2.1,0.8c0,0-4,8.8-4.9,11.1s-8.3,9.4-9.6,10.9s-2.1,3.1-2.1,3.1s-0.2,12.2-0.2,16.1
					s-1.3,10.3-1.5,12.5c0,0,0.2,1.6,0,2.4s-1.4,2.5-1.4,3.4s0,0.9,0,0.9s-8.1,0.3-13.6,0s-6.9-0.4-6.9-0.4s-1-2.7-1.1-4.1
					s1.4-3.2,1.4-3.2s0.4-2,0.3-4.3s-0.4-13.4-1.7-16.3c-1.3-2.9-3-6.7-1.1-9.3S135.4,428.5,139.3,427.3z"/>
			</defs>
			<clipPath id="SVGID_142_">
				<use xlink:href="#SVGID_141_"  style="overflow:visible;"/>
			</clipPath>
			<g id="XMLID_314_" class="st94">
				<g id="XMLID_450_">
					
						<linearGradient id="XMLID_26_" gradientUnits="userSpaceOnUse" x1="155.45" y1="357.557" x2="155.45" y2="387.8125" gradientTransform="matrix(1 0 0 -1 0 796)">
						<stop  offset="0" style="stop-color:#FF3F3F"/>
						<stop  offset="1" style="stop-color:#FF3F3F"/>
					</linearGradient>
					<path id="XMLID_452_" class="st95" d="M166.9,408.2c0,0-10.7,16.6-11.8,18.2s-11.1,12-11.1,12s12.8-10.6,13.6-11.5
						S166.9,408.2,166.9,408.2z"/>
					
						<linearGradient id="XMLID_27_" gradientUnits="userSpaceOnUse" x1="141.25" y1="324.4375" x2="141.25" y2="361.1375" gradientTransform="matrix(1 0 0 -1 0 796)">
						<stop  offset="0" style="stop-color:#FF3F3F"/>
						<stop  offset="1" style="stop-color:#FF3F3F"/>
					</linearGradient>
					<path id="XMLID_451_" class="st96" d="M129.3,434.9c0,0,6.5,8.8,7.1,10.3s1.5,2.8,1.4,8.5c-0.1,5.7,0,9.2,0,9.2
						s3.4,0.8,5.4,0.9s7.1,0.6,8,1.1s2.2,2.6,2.2,2.6l5,3.1l-28.4,1l-5.9-8.8l8.7-11.6l-4.6-13.3L129.3,434.9z"/>
				</g>
			</g>
		</g>
	</g>
</g>
</svg>
