<svg id="Layer_3" enable-background="new 0 0 64 64" height="512" viewBox="0 0 64 64" width="512" xmlns="http://www.w3.org/2000/svg"><g><path d="m15 8h34v54h-34z" fill="#64a5f8"/><path d="m19 12h26v46h-26z" fill="#fff"/><g><g><path d="m37.5 41c-1.93 0-3.5-1.57-3.5-3.5v-2.5h2v2.5c0 .827.673 1.5 1.5 1.5s1.5-.673 1.5-1.5v-9.5h2v9.5c0 1.93-1.57 3.5-3.5 3.5z" fill="#acb3bc"/></g></g><path d="m25 16h10c1.105 0 2 .895 2 2v16c0 1.105-.895 2-2 2h-10c-1.105 0-2-.895-2-2v-16c0-1.105.895-2 2-2z" fill="#758190"/><path d="m34.958 16h-9.958c-1.105 0-2 .895-2 2v13.807c6.515-1.135 11.569-7.701 11.958-15.807z" fill="#acb3bc"/><path d="m37 20h4v8h-4z" fill="#acb3bc"/><path d="m30 48h4v10h-4z" fill="#758190"/><path d="m26 44h12v4h-12z" fill="#758190"/><path d="m27 20h6v4h-6z" fill="#fff"/><path d="m13 2h38v6h-38z" fill="#64a5f8"/><path d="m43 62c-2.761 0-5-2.239-5-5s2.239-5 5-5c.735 0 1.427.167 2.055.452.276-2.5 2.371-4.452 4.945-4.452s4.669 1.952 4.945 4.452c.628-.285 1.32-.452 2.055-.452 2.761 0 5 2.239 5 5s-2.239 5-5 5z" fill="#96cc7f"/><path d="m55.164 52.365c-.073.029-.148.054-.22.087-.275-2.5-2.37-4.452-4.944-4.452s-4.669 1.952-4.945 4.452c-.628-.285-1.32-.452-2.055-.452-2.761 0-5 2.239-5 5 0 1.109.373 2.124.984 2.953.338.017.673.047 1.016.047 6.378 0 11.967-3.049 15.164-7.635z" fill="#c0e0b2"/><path d="m7 62c-2.761 0-5-2.239-5-5s2.239-5 5-5c.735 0 1.427.167 2.055.452.276-2.5 2.371-4.452 4.945-4.452s4.669 1.952 4.945 4.452c.628-.285 1.32-.452 2.055-.452 2.761 0 5 2.239 5 5s-2.239 5-5 5z" fill="#96cc7f"/><path d="m19.164 52.365c-.073.029-.148.054-.22.087-.275-2.5-2.37-4.452-4.944-4.452s-4.669 1.952-4.945 4.452c-.628-.285-1.32-.452-2.055-.452-2.761 0-5 2.239-5 5 0 1.109.373 2.124.984 2.953.338.017.673.047 1.016.047 6.378 0 11.967-3.049 15.164-7.635z" fill="#c0e0b2"/><g><path d="m27 27h2v2h-2z" fill="#fff"/></g><g><path d="m31 27h2v2h-2z" fill="#fff"/></g><g><path d="m31 31h2v2h-2z" fill="#fff"/></g><g><path d="m27 31h2v2h-2z" fill="#fff"/></g></g></svg>